<svg width="300" height="270" viewBox="0 0 300 270" fill="none" xmlns="http://www.w3.org/2000/svg">
<g clip-path="url(#clip0_6967_2121)">
<rect y="30" width="300" height="240" fill="#FFFFFE"/>
<rect y="30" width="300" height="240" fill="#FFFFFE"/>
<path d="M-17.5645 153.592C-10.4176 136.165 14.5642 137.069 20.4331 154.967C24.6674 167.88 40.1628 173.045 51.2981 165.255C66.7325 154.458 87.2597 168.725 82.5204 186.955C79.1013 200.107 89.3452 212.831 102.924 212.298C121.745 211.56 131.301 234.659 117.458 247.432C107.471 256.648 109.21 272.89 120.921 279.783C137.154 289.337 132.704 313.935 114.153 317.197C100.769 319.551 93.4507 334.155 99.5763 346.285C108.067 363.099 91.0243 381.387 73.6544 374.102C61.1225 368.845 47.0712 377.174 45.6662 390.69C43.7185 409.425 19.4941 415.596 8.82041 400.076C1.11959 388.879 -15.2038 388.289 -23.6935 398.9C-35.4607 413.608 -59.1749 405.703 -59.7638 386.877C-60.1885 373.294 -73.6022 363.972 -86.4811 368.309C-104.332 374.319 -120.008 354.848 -110.325 338.692C-103.339 327.036 -109.583 311.941 -122.762 308.627C-141.029 304.033 -143.69 279.178 -126.809 270.821C-114.63 264.792 -111.722 248.719 -121.017 238.806C-133.901 225.065 -122.701 202.717 -103.982 204.813C-90.4773 206.326 -79.3418 194.376 -81.8018 181.011C-85.2114 162.486 -63.707 149.74 -49.0932 161.624C-38.5498 170.198 -22.7208 166.166 -17.5645 153.592ZM30.5115 320.924C24.3898 325.633 17.3509 329.011 9.8475 330.84C2.34423 332.669 -5.45854 332.909 -13.0602 331.545L-18.4471 361.573C-6.66041 363.688 5.43855 363.315 17.0727 360.479C28.7068 357.643 39.6197 352.406 49.1114 345.106L30.5115 320.924ZM-84.4281 305.234C-80.4931 316.544 -74.2376 326.907 -66.0628 335.657C-57.888 344.408 -47.974 351.352 -36.9576 356.046L-24.9987 327.981C-32.1037 324.953 -38.4976 320.474 -43.7699 314.831C-49.0422 309.187 -53.0764 302.504 -55.6143 295.21L-84.4281 305.234ZM47.6999 268.345C48.245 276.049 47.1736 283.782 44.5548 291.048C41.936 298.313 37.8274 304.951 32.4928 310.536L54.552 331.609C62.8237 322.95 69.1938 312.657 73.2543 301.392C77.3147 290.127 78.9758 278.137 78.1306 266.192L47.6999 268.345ZM-0.80843 242.278C-22.4208 241.496 -40.5747 258.382 -41.3566 279.995C-42.1384 301.607 -25.2521 319.762 -3.63969 320.544C17.9729 321.326 36.1277 304.438 36.9095 282.826C37.6912 261.213 20.8041 243.059 -0.80843 242.278ZM-67.6108 220.044C-75.5484 229.01 -81.5238 239.537 -85.1545 250.948C-88.7852 262.359 -89.991 274.403 -88.6939 286.307L-58.3662 283.003C-59.2028 275.325 -58.4248 267.557 -56.0832 260.197C-53.7416 252.838 -49.8877 246.049 -44.7684 240.266L-67.6108 220.044ZM18.0642 225.856C25.1916 228.83 31.6188 233.262 36.9333 238.865C42.2478 244.469 46.332 251.122 48.9246 258.397L77.6622 248.156C73.6424 236.877 67.3092 226.561 59.069 217.873C50.8287 209.184 40.8627 202.313 29.8113 197.702L18.0642 225.856ZM15.1967 193.964C3.23884 193.328 -8.72008 195.199 -19.9125 199.456C-31.1051 203.714 -41.2844 210.264 -49.7971 218.686L-28.3406 240.373C-22.8503 234.941 -16.2857 230.716 -9.06713 227.971C-1.84856 225.225 5.86452 224.018 13.5767 224.429L15.1967 193.964Z" fill="#353C51"/>
<rect x="253" y="179" width="43" height="63" fill="#353C51" stroke="#353C51" stroke-width="4"/>
<path d="M1.47736 148.082C8.38878 132.154 31.3952 133.453 36.4705 150.057C40.1321 162.037 54.3173 167.086 64.725 160.115C79.1507 150.452 97.8033 163.983 93.0957 180.695C89.6994 192.753 98.9023 204.669 111.427 204.431C128.787 204.101 137.163 225.568 124.167 237.083C114.791 245.39 116.091 260.39 126.756 266.962C141.538 276.069 136.978 298.657 119.82 301.318C107.442 303.237 100.425 316.559 105.844 327.853C113.356 343.507 97.3081 360.043 81.4355 353.005C69.9842 347.928 56.8795 355.341 55.3324 367.772C53.1885 385.002 30.7483 390.238 21.2005 375.736C14.3121 365.273 -0.721064 364.425 -8.74305 374.046C-19.862 387.381 -41.5705 379.653 -41.762 362.292C-41.9005 349.766 -54.0887 340.925 -66.0387 344.682C-82.6023 349.889 -96.6861 331.651 -87.4608 316.942C-80.8053 306.33 -86.2786 292.303 -98.3627 289.003C-115.112 284.429 -117.101 261.471 -101.388 254.085C-90.0514 248.756 -87.0718 233.997 -95.4534 224.687C-107.071 211.783 -96.3329 191.395 -79.1204 193.676C-66.7022 195.322 -56.2168 184.517 -58.2348 172.154C-61.0319 155.018 -40.9752 143.671 -27.7284 154.896C-18.1714 162.995 -3.50908 159.574 1.47736 148.082ZM42.6663 303.194C36.9367 307.419 30.3867 310.4 23.4374 311.946C16.4882 313.492 9.2925 313.568 2.31216 312.169L-3.21141 339.744C7.61178 341.912 18.7689 341.793 29.5438 339.396C40.3187 337 50.4742 332.377 59.3579 325.825L42.6663 303.194ZM-62.9703 286.59C-59.5546 297.087 -53.9829 306.755 -46.612 314.971C-39.241 323.188 -30.2335 329.773 -20.1682 334.305L-8.62377 308.662C-15.1154 305.739 -20.9248 301.492 -25.6787 296.192C-30.4324 290.893 -34.0255 284.659 -36.2285 277.889L-62.9703 286.59ZM63.1041 256.332C63.9054 263.406 63.2192 270.569 61.0896 277.363C58.9601 284.156 55.4347 290.429 50.7385 295.779L71.8732 314.33C79.1547 306.034 84.6219 296.308 87.9238 285.775C91.2258 275.242 92.29 264.135 91.0476 253.167L63.1041 256.332ZM14.1107 226.171C-5.79307 225.048 -22.8392 240.272 -23.9627 260.175C-25.0861 280.079 -9.86128 297.125 10.0425 298.249C29.9461 299.372 46.9916 284.147 48.1149 264.243C49.2383 244.34 34.0142 227.295 14.1107 226.171ZM-45.8832 208.392C-53.3656 216.507 -59.0693 226.097 -62.6281 236.546C-66.187 246.995 -67.5227 258.073 -66.5491 269.068L-38.5367 266.588C-39.1646 259.496 -38.3031 252.352 -36.0079 245.613C-33.7127 238.874 -30.0345 232.688 -25.2087 227.454L-45.8832 208.392ZM32.9664 215.346C39.4798 218.22 45.3212 222.423 50.1147 227.687C54.9081 232.95 58.5483 239.158 60.802 245.911L87.4769 237.008C83.9825 226.538 78.3384 216.913 70.9061 208.752C63.4737 200.591 54.4172 194.073 44.3181 189.617L32.9664 215.346ZM29.1417 184.679C18.3543 182.338 7.19654 182.278 -3.61531 184.502C-14.4272 186.727 -24.655 191.188 -33.6421 197.597L-17.3136 220.492C-11.5174 216.358 -4.9206 213.482 2.05243 212.047C9.02534 210.613 16.2212 210.651 23.1782 212.161L29.1417 184.679Z" fill="#49A0EB"/>
<path d="M1.47736 148.082L3.31208 148.878L3.31208 148.878L1.47736 148.082ZM36.4705 150.057L38.3832 149.473L38.3831 149.473L36.4705 150.057ZM64.725 160.115L63.612 158.453L63.6119 158.453L64.725 160.115ZM93.0957 180.695L91.1706 180.153L91.1706 180.153L93.0957 180.695ZM111.427 204.431L111.389 202.431L111.389 202.431L111.427 204.431ZM124.167 237.083L122.84 235.586L122.84 235.586L124.167 237.083ZM126.756 266.962L127.805 265.259L127.805 265.259L126.756 266.962ZM119.82 301.318L119.514 299.341L119.82 301.318ZM105.844 327.853L104.041 328.718L104.041 328.718L105.844 327.853ZM81.4355 353.005L82.2462 351.177L82.2462 351.177L81.4355 353.005ZM55.3324 367.772L53.3478 367.525L53.3478 367.525L55.3324 367.772ZM21.2005 375.736L19.53 376.836L19.5301 376.836L21.2005 375.736ZM-8.74305 374.046L-7.20694 375.327L-7.20693 375.327L-8.74305 374.046ZM-41.762 362.292L-39.7622 362.269L-39.7622 362.269L-41.762 362.292ZM-66.0387 344.682L-65.4389 346.59L-65.4389 346.59L-66.0387 344.682ZM-87.4608 316.942L-85.7664 318.005L-85.7664 318.005L-87.4608 316.942ZM-98.3627 289.003L-97.8357 287.074L-97.8358 287.074L-98.3627 289.003ZM-101.388 254.085L-102.239 252.275L-102.239 252.275L-101.388 254.085ZM-95.4534 224.687L-93.9671 223.349L-93.9671 223.349L-95.4534 224.687ZM-79.1204 193.676L-78.8576 191.694L-78.8576 191.694L-79.1204 193.676ZM-58.2348 172.154L-56.2609 171.832L-56.2609 171.832L-58.2348 172.154ZM-27.7284 154.896L-29.0214 156.422L-29.0214 156.422L-27.7284 154.896ZM42.6663 303.194L44.2758 302.006L43.0888 300.397L41.4792 301.584L42.6663 303.194ZM23.4374 311.946L23.8716 313.898L23.8717 313.898L23.4374 311.946ZM2.31216 312.169L2.70503 310.208L0.743962 309.815L0.351128 311.776L2.31216 312.169ZM-3.21141 339.744L-5.17245 339.351L-5.56527 341.312L-3.60427 341.705L-3.21141 339.744ZM29.5438 339.396L29.978 341.349L29.5438 339.396ZM59.3579 325.825L60.545 327.435L62.1546 326.248L60.9674 324.638L59.3579 325.825ZM-62.9703 286.59L-63.5891 284.689L-65.491 285.307L-64.8721 287.209L-62.9703 286.59ZM-46.612 314.971L-48.1007 316.307L-46.612 314.971ZM-20.1682 334.305L-20.9892 336.128L-19.1655 336.949L-18.3445 335.126L-20.1682 334.305ZM-8.62377 308.662L-6.80005 309.483L-5.97903 307.659L-7.80273 306.838L-8.62377 308.662ZM-25.6787 296.192L-27.1674 297.528L-27.1674 297.528L-25.6787 296.192ZM-36.2285 277.889L-34.3266 277.27L-34.9455 275.368L-36.8473 275.987L-36.2285 277.889ZM63.1041 256.332L62.879 254.345L60.8917 254.57L61.1168 256.557L63.1041 256.332ZM61.0896 277.363L62.998 277.961L61.0896 277.363ZM50.7385 295.779L49.2354 294.46L47.9161 295.963L49.4192 297.282L50.7385 295.779ZM71.8732 314.33L70.5539 315.833L72.057 317.152L73.3763 315.649L71.8732 314.33ZM87.9238 285.775L89.8323 286.373L87.9238 285.775ZM91.0476 253.167L93.0349 252.942L92.8098 250.954L90.8225 251.179L91.0476 253.167ZM14.1107 226.171L14.2234 224.174L14.2234 224.174L14.1107 226.171ZM-23.9627 260.175L-25.9595 260.063L-25.9595 260.063L-23.9627 260.175ZM10.0425 298.249L9.92978 300.246L9.9298 300.246L10.0425 298.249ZM48.1149 264.243L50.1118 264.356L50.1118 264.356L48.1149 264.243ZM-45.8832 208.392L-44.5274 206.922L-45.9978 205.566L-47.3536 207.036L-45.8832 208.392ZM-62.6281 236.546L-64.5213 235.901L-64.5213 235.901L-62.6281 236.546ZM-66.5491 269.068L-68.5413 269.244L-68.3649 271.236L-66.3727 271.06L-66.5491 269.068ZM-38.5367 266.588L-38.3603 268.58L-36.3681 268.404L-36.5445 266.411L-38.5367 266.588ZM-36.0079 245.613L-37.9011 244.968L-37.9011 244.968L-36.0079 245.613ZM-25.2087 227.454L-23.7383 228.81L-22.3826 227.34L-23.853 225.984L-25.2087 227.454ZM32.9664 215.346L31.1366 214.539L30.3293 216.369L32.1591 217.176L32.9664 215.346ZM50.1147 227.687L51.5934 226.34L51.5934 226.34L50.1147 227.687ZM60.802 245.911L58.9048 246.544L59.538 248.441L61.4351 247.808L60.802 245.911ZM87.4769 237.008L88.1101 238.905L90.0072 238.272L89.374 236.375L87.4769 237.008ZM70.9061 208.752L72.3848 207.405L72.3848 207.405L70.9061 208.752ZM44.3181 189.617L45.1255 187.787L43.2957 186.98L42.4883 188.81L44.3181 189.617ZM29.1417 184.679L31.0962 185.103L31.5203 183.148L29.5657 182.724L29.1417 184.679ZM-3.61531 184.502L-4.01836 182.543L-4.01836 182.543L-3.61531 184.502ZM-33.6421 197.597L-34.8034 195.968L-36.4318 197.13L-35.2704 198.758L-33.6421 197.597ZM-17.3136 220.492L-18.9419 221.653L-17.7806 223.281L-16.1523 222.12L-17.3136 220.492ZM2.05243 212.047L1.6494 210.088L1.64938 210.088L2.05243 212.047ZM23.1782 212.161L22.7542 214.115L24.7087 214.539L25.1328 212.585L23.1782 212.161ZM1.47736 148.082L3.31208 148.878C9.48335 134.656 30.026 135.815 34.5578 150.642L36.4705 150.057L38.3831 149.473C32.7643 131.09 7.29421 129.652 -0.357359 147.286L1.47736 148.082ZM36.4705 150.057L34.5578 150.642C38.6116 163.904 54.3159 169.494 65.8381 161.776L64.725 160.115L63.6119 158.453C54.3188 164.678 41.6526 160.169 38.3832 149.473L36.4705 150.057ZM64.725 160.115L65.8381 161.776C78.7189 153.148 95.3741 165.23 91.1706 180.153L93.0957 180.695L95.0208 181.237C100.232 162.735 79.5825 147.755 63.612 158.453L64.725 160.115ZM93.0957 180.695L91.1706 180.153C87.4106 193.502 97.5991 206.694 111.465 206.431L111.427 204.431L111.389 202.431C100.206 202.644 91.9882 192.004 95.0208 181.237L93.0957 180.695ZM111.427 204.431L111.465 206.431C126.966 206.136 134.445 225.304 122.84 235.586L124.167 237.083L125.493 238.58C139.881 225.832 130.608 202.066 111.389 202.431L111.427 204.431ZM124.167 237.083L122.84 235.586C112.46 244.783 113.899 261.39 125.707 268.664L126.756 266.962L127.805 265.259C118.282 259.391 117.121 245.997 125.493 238.58L124.167 237.083ZM126.756 266.962L125.707 268.664C138.906 276.797 134.834 296.966 119.514 299.341L119.82 301.318L120.127 303.294C139.122 300.349 144.17 275.342 127.805 265.259L126.756 266.962ZM119.82 301.318L119.514 299.341C105.809 301.466 98.0412 316.214 104.041 328.718L105.844 327.853L107.647 326.987C102.808 316.903 109.074 305.008 120.127 303.294L119.82 301.318ZM105.844 327.853L104.041 328.718C110.748 342.695 96.419 357.461 82.2462 351.177L81.4355 353.005L80.6248 354.834C98.1972 362.625 115.963 344.318 107.647 326.987L105.844 327.853ZM81.4355 353.005L82.2462 351.177C69.5685 345.556 55.0605 353.763 53.3478 367.525L55.3324 367.772L57.3171 368.019C58.6985 356.919 70.3998 350.3 80.6249 354.834L81.4355 353.005ZM55.3324 367.772L53.3478 367.525C51.4334 382.91 31.3963 387.585 22.871 374.636L21.2005 375.736L19.5301 376.836C30.1004 392.891 54.9436 387.094 57.3171 368.019L55.3324 367.772ZM21.2005 375.736L22.871 374.636C15.2449 363.053 -1.39811 362.113 -10.2792 372.765L-8.74305 374.046L-7.20693 375.327C-0.0440166 366.736 13.3793 367.493 19.53 376.836L21.2005 375.736ZM-8.74305 374.046L-10.2791 372.765C-20.2073 384.672 -39.5911 377.772 -39.7622 362.269L-41.762 362.292L-43.7619 362.314C-43.5498 381.535 -19.5167 390.09 -7.20694 375.327L-8.74305 374.046ZM-41.762 362.292L-39.7622 362.269C-39.9155 348.402 -53.4088 338.614 -66.6386 342.774L-66.0387 344.682L-65.4389 346.59C-54.7685 343.235 -43.8856 351.129 -43.7619 362.314L-41.762 362.292ZM-66.0387 344.682L-66.6385 342.774C-81.4282 347.423 -94.0039 331.139 -85.7664 318.005L-87.4608 316.942L-89.1551 315.879C-99.3683 332.164 -83.7764 352.354 -65.4389 346.59L-66.0387 344.682ZM-87.4608 316.942L-85.7664 318.005C-78.3981 306.256 -84.4577 290.727 -97.8357 287.074L-98.3627 289.003L-98.8896 290.932C-88.0995 293.879 -83.2124 306.404 -89.1551 315.879L-87.4608 316.942ZM-98.3627 289.003L-97.8358 287.074C-112.792 282.989 -114.568 262.49 -100.537 255.895L-101.388 254.085L-102.239 252.275C-119.635 260.453 -117.433 285.868 -98.8896 290.932L-98.3627 289.003ZM-101.388 254.085L-100.537 255.895C-87.9865 249.995 -84.6878 233.655 -93.9671 223.349L-95.4534 224.687L-96.9398 226.025C-89.4558 234.338 -92.1162 247.516 -102.239 252.275L-101.388 254.085ZM-95.4534 224.687L-93.9671 223.349C-104.341 211.827 -94.7523 193.622 -79.3832 195.659L-79.1204 193.676L-78.8576 191.694C-97.9135 189.168 -109.801 211.74 -96.9398 226.025L-95.4534 224.687ZM-79.1204 193.676L-79.3832 195.659C-65.6351 197.481 -54.0269 185.519 -56.2609 171.832L-58.2348 172.154L-60.2086 172.476C-58.4068 183.515 -67.7693 193.163 -78.8576 191.694L-79.1204 193.676ZM-58.2348 172.154L-56.2609 171.832C-58.7585 156.531 -40.8495 146.399 -29.0214 156.422L-27.7284 154.896L-26.4355 153.37C-41.1008 140.944 -63.3053 153.505 -60.2086 172.476L-58.2348 172.154ZM-27.7284 154.896L-29.0214 156.422C-18.4409 165.388 -2.20835 161.6 3.31208 148.878L1.47736 148.082L-0.357359 147.286C-4.8098 157.547 -17.9019 160.602 -26.4355 153.37L-27.7284 154.896ZM42.6663 303.194L41.4792 301.584C35.974 305.644 29.6804 308.509 23.0032 309.994L23.4374 311.946L23.8717 313.898C31.093 312.292 37.8995 309.194 43.8533 304.803L42.6663 303.194ZM23.4374 311.946L23.0032 309.994C16.3261 311.479 9.41212 311.552 2.70503 310.208L2.31216 312.169L1.9193 314.13C9.17287 315.583 16.6503 315.505 23.8716 313.898L23.4374 311.946ZM2.31216 312.169L0.351128 311.776L-5.17245 339.351L-3.21141 339.744L-1.25037 340.136L4.27321 312.562L2.31216 312.169ZM-3.21141 339.744L-3.60427 341.705C7.4923 343.928 18.9311 343.806 29.978 341.349L29.5438 339.396L29.1095 337.444C18.6066 339.78 7.73125 339.896 -2.81856 337.782L-3.21141 339.744ZM29.5438 339.396L29.978 341.349C41.0251 338.891 51.437 334.152 60.545 327.435L59.3579 325.825L58.1708 324.216C49.5114 330.602 39.6124 335.108 29.1095 337.444L29.5438 339.396ZM59.3579 325.825L60.9674 324.638L44.2758 302.006L42.6663 303.194L41.0567 304.381L57.7483 327.013L59.3579 325.825ZM-62.9703 286.59L-64.8721 287.209C-61.3702 297.971 -55.6578 307.883 -48.1007 316.307L-46.612 314.971L-45.1232 313.636C-52.3079 305.627 -57.739 296.203 -61.0684 285.971L-62.9703 286.59ZM-46.612 314.971L-48.1007 316.307C-40.5436 324.731 -31.3087 331.483 -20.9892 336.128L-20.1682 334.305L-19.3472 332.481C-29.1584 328.064 -37.9384 321.645 -45.1232 313.636L-46.612 314.971ZM-20.1682 334.305L-18.3445 335.126L-6.80005 309.483L-8.62377 308.662L-10.4475 307.841L-21.9919 333.484L-20.1682 334.305ZM-8.62377 308.662L-7.80273 306.838C-14.0402 304.03 -19.6222 299.949 -24.1899 294.857L-25.6787 296.192L-27.1674 297.528C-22.2274 303.035 -16.1906 307.448 -9.4448 310.485L-8.62377 308.662ZM-25.6787 296.192L-24.1899 294.857C-28.7574 289.765 -32.2099 283.775 -34.3266 277.27L-36.2285 277.889L-38.1303 278.508C-35.8411 285.543 -32.1073 292.021 -27.1674 297.528L-25.6787 296.192ZM-36.2285 277.889L-36.8473 275.987L-63.5891 284.689L-62.9703 286.59L-62.3514 288.492L-35.6096 279.791L-36.2285 277.889ZM63.1041 256.332L61.1168 256.557C61.8867 263.354 61.2274 270.237 59.1812 276.764L61.0896 277.363L62.998 277.961C65.211 270.902 65.9241 263.458 65.0914 256.107L63.1041 256.332ZM61.0896 277.363L59.1812 276.764C57.135 283.292 53.7476 289.319 49.2354 294.46L50.7385 295.779L52.2416 297.099C57.1217 291.539 60.7851 285.02 62.998 277.961L61.0896 277.363ZM50.7385 295.779L49.4192 297.282L70.5539 315.833L71.8732 314.33L73.1925 312.827L52.0578 294.276L50.7385 295.779ZM71.8732 314.33L73.3763 315.649C80.8417 307.144 86.4469 297.172 89.8323 286.373L87.9238 285.775L86.0154 285.177C82.7969 295.443 77.4677 304.924 70.3701 313.01L71.8732 314.33ZM87.9238 285.775L89.8323 286.373C93.2176 275.574 94.3087 264.187 93.0349 252.942L91.0476 253.167L89.0603 253.392C90.2714 264.083 89.234 274.91 86.0154 285.177L87.9238 285.775ZM91.0476 253.167L90.8225 251.179L62.879 254.345L63.1041 256.332L63.3292 258.32L91.2727 255.154L91.0476 253.167ZM14.1107 226.171L14.2234 224.174C-6.78312 222.989 -24.7738 239.056 -25.9595 260.063L-23.9627 260.175L-21.9659 260.288C-20.9047 241.487 -4.80302 227.107 13.998 228.168L14.1107 226.171ZM-23.9627 260.175L-25.9595 260.063C-27.1452 281.069 -11.0768 299.06 9.92978 300.246L10.0425 298.249L10.1552 296.252C-8.64577 295.191 -23.0271 279.089 -21.9659 260.288L-23.9627 260.175ZM10.0425 298.249L9.9298 300.246C30.9362 301.431 48.9261 285.363 50.1118 264.356L48.1149 264.243L46.1181 264.131C45.057 282.932 28.9559 297.313 10.1552 296.252L10.0425 298.249ZM48.1149 264.243L50.1118 264.356C51.2973 243.35 35.2297 225.36 14.2234 224.174L14.1107 226.171L13.9979 228.168C32.7987 229.229 47.1792 245.33 46.1181 264.131L48.1149 264.243ZM-45.8832 208.392L-47.3536 207.036C-55.0249 215.356 -60.8726 225.188 -64.5213 235.901L-62.6281 236.546L-60.7349 237.191C-57.266 227.006 -51.7063 217.658 -44.4128 209.748L-45.8832 208.392ZM-62.6281 236.546L-64.5213 235.901C-68.17 246.614 -69.5395 257.971 -68.5413 269.244L-66.5491 269.068L-64.5569 268.891C-65.5059 258.174 -64.2039 247.376 -60.7349 237.191L-62.6281 236.546ZM-66.5491 269.068L-66.3727 271.06L-38.3603 268.58L-38.5367 266.588L-38.7131 264.596L-66.7255 267.076L-66.5491 269.068ZM-38.5367 266.588L-36.5445 266.411C-37.1478 259.598 -36.3201 252.733 -34.1147 246.258L-36.0079 245.613L-37.9011 244.968C-40.2862 251.971 -41.1814 259.395 -40.5289 266.764L-38.5367 266.588ZM-36.0079 245.613L-34.1147 246.258C-31.9093 239.782 -28.3751 233.839 -23.7383 228.81L-25.2087 227.454L-26.6791 226.099C-31.694 231.538 -35.5161 237.965 -37.9011 244.968L-36.0079 245.613ZM-25.2087 227.454L-23.853 225.984L-44.5274 206.922L-45.8832 208.392L-47.2389 209.862L-26.5644 228.925L-25.2087 227.454ZM32.9664 215.346L32.1591 217.176C38.4176 219.937 44.0302 223.976 48.636 229.033L50.1147 227.687L51.5934 226.34C46.6121 220.87 40.5421 216.503 33.7738 213.516L32.9664 215.346ZM50.1147 227.687L48.636 229.033C53.2417 234.091 56.7394 240.055 58.9048 246.544L60.802 245.911L62.6991 245.278C60.3572 238.26 56.5745 231.81 51.5934 226.34L50.1147 227.687ZM60.802 245.911L61.4351 247.808L88.1101 238.905L87.4769 237.008L86.8437 235.111L60.1688 244.014L60.802 245.911ZM87.4769 237.008L89.374 236.375C85.7914 225.64 80.0047 215.773 72.3848 207.405L70.9061 208.752L69.4274 210.099C76.672 218.054 82.1736 227.435 85.5798 237.641L87.4769 237.008ZM70.9061 208.752L72.3848 207.405C64.7648 199.038 55.4796 192.355 45.1255 187.787L44.3181 189.617L43.5108 191.447C53.3549 195.79 62.1827 202.144 69.4274 210.099L70.9061 208.752ZM44.3181 189.617L42.4883 188.81L31.1366 214.539L32.9664 215.346L34.7963 216.154L46.148 190.424L44.3181 189.617ZM29.1417 184.679L29.5657 182.724C18.5061 180.324 7.06652 180.263 -4.01836 182.543L-3.61531 184.502L-3.21225 186.461C7.32656 184.293 18.2026 184.352 28.7176 186.633L29.1417 184.679ZM-3.61531 184.502L-4.01836 182.543C-15.1033 184.824 -25.5894 189.397 -34.8034 195.968L-33.6421 197.597L-32.4809 199.225C-23.7207 192.978 -13.7511 188.63 -3.21225 186.461L-3.61531 184.502ZM-33.6421 197.597L-35.2704 198.758L-18.9419 221.653L-17.3136 220.492L-15.6853 219.33L-32.0138 196.435L-33.6421 197.597ZM-17.3136 220.492L-16.1523 222.12C-10.5831 218.148 -4.24459 215.385 2.45549 214.006L2.05243 212.047L1.64938 210.088C-5.59661 211.579 -12.4517 214.568 -18.4748 218.863L-17.3136 220.492ZM2.05243 212.047L2.45547 214.006C9.15539 212.628 16.0695 212.665 22.7542 214.115L23.1782 212.161L23.6023 210.206C16.3729 208.638 8.89529 208.597 1.6494 210.088L2.05243 212.047ZM23.1782 212.161L25.1328 212.585L31.0962 185.103L29.1417 184.679L27.1871 184.255L21.2237 211.737L23.1782 212.161Z" fill="#353C51"/>
<rect x="131" y="32" width="169" height="145" fill="#49A0EB" stroke="#353C51" stroke-width="4"/>
<rect x="143" y="32" width="167" height="99" fill="#DCEEFF" stroke="#353C51" stroke-width="4"/>
<path d="M187 236H298V268H187V236Z" fill="#49A0EB" stroke="#353C51" stroke-width="4"/>
<path d="M156 34V113" stroke="#353C51" stroke-width="4" stroke-linecap="round"/>
<circle cx="156" cy="116" r="5" fill="#353C51"/>
<path d="M169 32L169 128" stroke="#353C51" stroke-width="4" stroke-linecap="square"/>
<rect x="187" y="75" width="128" height="12" fill="#353C51"/>
<rect x="187" y="50" width="69" height="12" fill="#353C51"/>
<rect x="187" y="101" width="93" height="12" fill="#353C51"/>
<path d="M96.4735 32C106.244 33.9917 110.595 45.9777 103.835 53.8008C99.5711 58.7351 99.4958 66.0278 103.657 71.0488C110.583 79.4051 105.172 92.0951 94.3475 92.8838C87.8436 93.3581 82.6341 98.4612 82.0263 104.954C81.0148 115.76 68.2166 120.908 60.0048 113.812C55.0704 109.547 47.7769 109.472 42.7558 113.634C34.3996 120.559 21.7109 115.149 20.9218 104.325C20.4477 97.821 15.3436 92.6107 8.85048 92.0029C-1.95547 90.9913 -7.10237 78.1923 -0.00596786 69.9805C4.25768 65.0461 4.33223 57.7534 0.17079 52.7324C-5.71795 45.6269 -2.68646 35.3906 5.0077 32H96.4735ZM65.9296 36.8398C51.779 32.514 36.7997 40.4784 32.4735 54.6289C28.1475 68.7796 36.1129 83.7589 50.2636 88.085C64.4142 92.4108 79.3926 84.4456 83.7186 70.2949C88.0443 56.1444 80.0801 41.1659 65.9296 36.8398Z" fill="#353C51"/>
<path d="M92.0242 32C98.9113 35.5343 101.361 45.0177 95.7683 51.4902C91.736 56.1567 91.665 63.0542 95.6004 67.8027C102.15 75.7055 97.0337 87.7062 86.7967 88.4521C80.6455 88.9006 75.7182 93.7275 75.1433 99.8682C74.1866 110.088 62.0833 114.955 54.3172 108.244C49.6506 104.212 42.7523 104.141 38.0037 108.076C30.1009 114.625 18.1013 109.509 17.3553 99.2725C16.9068 93.1214 12.0798 88.1941 5.93924 87.6191C-4.28007 86.6624 -9.14854 74.5591 -2.43771 66.793C1.59503 62.1264 1.66603 55.2291 -2.26974 50.4805C-7.28969 44.4234 -5.45636 35.9593 0.282991 32H92.0242ZM54.4441 33.4102C40.2934 29.0842 25.3142 37.0486 20.9881 51.1992C16.6622 65.3499 24.6274 80.3293 38.7781 84.6553C52.9286 88.9807 67.9062 81.0156 72.2322 66.8652C76.5582 52.7147 68.5945 37.7364 54.4441 33.4102Z" fill="#49A0EB"/>
<path d="M92.0242 32L92.9373 30.2206L92.5074 30H92.0242V32ZM95.7683 51.4902L94.2551 50.1826L94.255 50.1826L95.7683 51.4902ZM95.6004 67.8027L94.0605 69.0789L94.0605 69.079L95.6004 67.8027ZM86.7967 88.4521L86.6513 86.4574L86.6513 86.4574L86.7967 88.4521ZM75.1433 99.8682L77.1346 100.055V100.055L75.1433 99.8682ZM54.3172 108.244L55.6249 106.731L55.6249 106.731L54.3172 108.244ZM38.0037 108.076L39.2799 109.616L39.2799 109.616L38.0037 108.076ZM17.3553 99.2725L19.35 99.1271L19.35 99.127L17.3553 99.2725ZM5.93924 87.6191L6.12568 85.6278H6.12567L5.93924 87.6191ZM-2.43771 66.793L-3.95096 65.4853L-3.951 65.4853L-2.43771 66.793ZM-2.26974 50.4805L-3.80963 51.7567L-3.8096 51.7567L-2.26974 50.4805ZM0.282991 32V30H-0.339933L-0.852687 30.3537L0.282991 32ZM54.4441 33.4102L55.0289 31.4976L55.0288 31.4975L54.4441 33.4102ZM20.9881 51.1992L19.0755 50.6145L19.0754 50.6145L20.9881 51.1992ZM38.7781 84.6553L38.1934 86.5679L38.1935 86.5679L38.7781 84.6553ZM72.2322 66.8652L74.1448 67.45V67.4499L72.2322 66.8652ZM92.0242 32L91.1111 33.7794C96.9173 36.759 98.9489 44.7508 94.2551 50.1826L95.7683 51.4902L97.2816 52.7979C103.774 45.2847 100.905 34.3096 92.9373 30.2206L92.0242 32ZM95.7683 51.4902L94.255 50.1826C89.584 55.5883 89.5017 63.5782 94.0605 69.0789L95.6004 67.8027L97.1403 66.5265C93.8283 62.5302 93.8881 56.7252 97.2816 52.7979L95.7683 51.4902ZM95.6004 67.8027L94.0605 69.079C99.5727 75.7299 95.2668 85.8297 86.6513 86.4574L86.7967 88.4521L86.942 90.4469C98.8007 89.5828 104.727 75.6811 97.1403 66.5265L95.6004 67.8027ZM86.7967 88.4521L86.6513 86.4574C79.5258 86.9769 73.8179 92.5684 73.152 99.6818L75.1433 99.8682L77.1346 100.055C77.6184 94.8866 81.7653 90.8242 86.9421 90.4469L86.7967 88.4521ZM75.1433 99.8682L73.1521 99.6817C72.3468 108.282 62.1609 112.379 55.6249 106.731L54.3172 108.244L53.0095 109.757C62.0058 117.532 76.0263 111.893 77.1346 100.055L75.1433 99.8682ZM54.3172 108.244L55.6249 106.731C50.2191 102.059 42.2283 101.977 36.7275 106.536L38.0037 108.076L39.2799 109.616C43.2764 106.304 49.0821 106.364 53.0095 109.757L54.3172 108.244ZM38.0037 108.076L36.7275 106.536C30.0766 112.048 19.9778 107.742 19.35 99.1271L17.3553 99.2725L15.3605 99.4178C16.2247 111.276 30.1253 117.203 39.2799 109.616L38.0037 108.076ZM17.3553 99.2725L19.35 99.127C18.8305 92.0016 13.2389 86.2938 6.12568 85.6278L5.93924 87.6191L5.75281 89.6104C10.9207 90.0943 14.9832 94.2412 15.3605 99.4179L17.3553 99.2725ZM5.93924 87.6191L6.12567 85.6278C-2.47501 84.8226 -6.57213 74.6365 -0.924422 68.1006L-2.43771 66.793L-3.951 65.4853C-11.725 74.4818 -6.08513 88.5021 5.75281 89.6104L5.93924 87.6191ZM-2.43771 66.793L-0.924466 68.1007C3.74709 62.6948 3.82932 54.7051 -0.729884 49.2042L-2.26974 50.4805L-3.8096 51.7567C-0.497267 55.7532 -0.557026 61.5579 -3.95096 65.4853L-2.43771 66.793ZM-2.26974 50.4805L-0.729857 49.2042C-4.94098 44.1231 -3.43288 36.9931 1.41867 33.6463L0.282991 32L-0.852687 30.3537C-7.47984 34.9254 -9.63841 44.7237 -3.80963 51.7567L-2.26974 50.4805ZM0.282991 32V34H92.0242V32V30H0.282991V32ZM54.4441 33.4102L55.0288 31.4975C39.8219 26.8486 23.7245 35.4075 19.0755 50.6145L20.9881 51.1992L22.9007 51.7839C26.9038 38.6897 40.765 31.3197 53.8594 35.3228L54.4441 33.4102ZM20.9881 51.1992L19.0754 50.6145C14.4267 65.8215 22.9864 81.919 38.1934 86.5679L38.7781 84.6553L39.3628 82.7427C26.2684 78.7396 18.8977 64.8783 22.9007 51.7839L20.9881 51.1992ZM38.7781 84.6553L38.1935 86.5679C53.4003 91.2163 69.4959 82.6565 74.1448 67.45L72.2322 66.8652L70.3196 66.2805C66.3165 79.3747 52.4568 86.7452 39.3628 82.7426L38.7781 84.6553ZM72.2322 66.8652L74.1448 67.4499C78.7937 52.2432 70.2355 36.1468 55.0289 31.4976L54.4441 33.4102L53.8594 35.3228C66.9533 39.3261 74.3226 53.1862 70.3196 66.2805L72.2322 66.8652Z" fill="#353C51"/>
<rect x="2" y="32" width="296" height="236" stroke="#353C51" stroke-width="4"/>
<path d="M134 2H166L161.429 50H138.571L134 2Z" fill="#646676" stroke="#353C51" stroke-width="4"/>
</g>
<defs>
<clipPath id="clip0_6967_2121">
<rect width="300" height="270" fill="white"/>
</clipPath>
</defs>
</svg>
