<svg width="300" height="270" viewBox="0 0 300 270" fill="none" xmlns="http://www.w3.org/2000/svg">
<g clip-path="url(#clip0_6967_2123)">
<rect y="30" width="300" height="240" fill="#FFFFFE"/>
<rect x="20" y="50" width="80" height="40" rx="20" fill="#FF8B39" stroke="#353C51" stroke-width="4"/>
<circle cx="60" cy="90" r="6.5" fill="#FFFFFE" stroke="#353C51" stroke-width="3"/>
<rect x="148" y="70" width="115.573" height="245.092" rx="17" fill="#353C51"/>
<rect x="166" y="52" width="111.573" height="241.092" rx="15" fill="#FFE8DC" stroke="#353C51" stroke-width="4"/>
<path d="M273 289L170 57M273 57L170 289" stroke="#353C51" stroke-width="4" stroke-linecap="round"/>
<rect x="203.023" y="57.0508" width="37.5243" height="10.359" rx="5.1795" fill="#353C51" stroke="#353C51"/>
<rect x="20.0156" y="167.506" width="107" height="82" fill="#FF8B39" stroke="#353C51" stroke-width="4"/>
<line y1="-2" x2="130.938" y2="-2" transform="matrix(-0.795458 -0.606009 -0.669667 0.742661 124.078 249.575)" stroke="#353C51" stroke-width="4"/>
<line y1="-2" x2="130.938" y2="-2" transform="matrix(0.795458 -0.606009 0.669667 0.742661 22.9219 249.575)" stroke="#353C51" stroke-width="4"/>
<rect x="125.963" y="131.754" width="45.4547" height="45.4547" rx="8" transform="rotate(-45 125.963 131.754)" fill="#FF8B39" stroke="#353C51" stroke-width="4"/>
<path d="M108.271 198.972C106.452 193.842 110.995 188.702 116.261 189.793L116.513 189.85L116.547 189.859L116.582 189.868L116.967 189.977L117.003 189.987L117.04 189.999L150.384 200.826L150.406 200.834L150.428 200.841L150.649 200.918L150.683 200.93C156.974 203.264 156.646 212.329 150.202 214.201L150.157 214.213L149.931 214.273L149.913 214.278L149.895 214.282L137.9 217.233L136.209 230.196C135.292 237.218 125.721 238.594 122.863 232.114L108.473 199.482L108.459 199.448L108.445 199.415L108.297 199.043L108.283 199.008L108.271 198.972Z" fill="white" stroke="#353C51" stroke-width="4"/>
<path d="M113.964 197.061C113.615 196.27 114.366 195.439 115.188 195.706L148.532 206.533C149.489 206.844 149.439 208.215 148.462 208.456L133.148 212.225C132.748 212.324 132.449 212.658 132.396 213.067L130.261 229.419C130.13 230.422 128.762 230.619 128.354 229.693L113.964 197.061Z" fill="#353C51"/>
<path d="M60 132H58L58 134L60 134L60 132ZM116.414 133.414C117.195 132.633 117.195 131.367 116.414 130.586L103.686 117.858C102.905 117.077 101.639 117.077 100.858 117.858C100.077 118.639 100.077 119.905 100.858 120.686L112.172 132L100.858 143.314C100.077 144.095 100.077 145.361 100.858 146.142C101.639 146.923 102.905 146.923 103.686 146.142L116.414 133.414ZM60 95L58 95L58 132H60H62L62 95L60 95ZM60 132L60 134L115 134L115 132L115 130L60 130L60 132Z" fill="#353C51"/>
<rect x="2" y="32" width="296" height="236" stroke="#353C51" stroke-width="4"/>
<path d="M134 2H166L161.429 50H138.571L134 2Z" fill="#646676" stroke="#353C51" stroke-width="4"/>
</g>
<defs>
<clipPath id="clip0_6967_2123">
<rect width="300" height="270" fill="white"/>
</clipPath>
</defs>
</svg>
