<svg width="300" height="270" viewBox="0 0 300 270" fill="none" xmlns="http://www.w3.org/2000/svg">
<g clip-path="url(#clip0_6967_2122)">
<rect y="30" width="300" height="240" fill="#FFFFFE"/>
<rect x="82" y="136" width="215" height="136" fill="#353C51" stroke="#353C51" stroke-width="4"/>
<rect x="100" y="110" width="200" height="160" fill="#FFF2DC"/>
<rect x="102" y="112" width="196" height="34" fill="#F1A210" stroke="#353C51" stroke-width="4"/>
<path d="M111 121H131" stroke="#353C51" stroke-width="4"/>
<path d="M111 129H131" stroke="#353C51" stroke-width="4"/>
<path d="M111 137H131" stroke="#353C51" stroke-width="4"/>
<rect x="102" y="112" width="196" height="156" stroke="#353C51" stroke-width="4"/>
<path d="M297.917 275H262.749L220.67 188.84L249.347 174.685L297.917 275Z" fill="#353C51" stroke="#353C51" stroke-width="4"/>
<circle cx="211" cy="128" r="63" fill="#FFF2DC"/>
<path d="M269.189 98.9995C273.549 107.73 276.002 117.578 276.002 128C276.002 139.225 273.156 149.785 268.147 159H153.856C148.847 149.785 146.002 139.225 146.002 128C146.002 117.578 148.455 107.73 152.814 98.9995H269.189Z" fill="#F1A210"/>
<path d="M269.189 98.9995L270.979 98.106L270.426 96.9995H269.189V98.9995ZM268.147 159V161H269.337L269.905 159.955L268.147 159ZM153.856 159L152.099 159.955L152.667 161H153.856V159ZM152.814 98.9995V96.9995H151.578L151.025 98.106L152.814 98.9995ZM269.189 98.9995L267.4 99.893C271.624 108.352 274.002 117.895 274.002 128H276.002H278.002C278.002 117.261 275.474 107.107 270.979 98.106L269.189 98.9995ZM276.002 128H274.002C274.002 138.883 271.244 149.116 266.39 158.044L268.147 159L269.905 159.955C275.069 150.455 278.002 139.567 278.002 128H276.002ZM268.147 159V157H153.856V159V161H268.147V159ZM153.856 159L155.614 158.044C150.76 149.116 148.002 138.883 148.002 128H146.002H144.002C144.002 139.567 146.935 150.455 152.099 159.955L153.856 159ZM146.002 128H148.002C148.002 117.895 150.38 108.352 154.604 99.893L152.814 98.9995L151.025 98.106C146.53 107.107 144.002 117.261 144.002 128H146.002ZM152.814 98.9995V101H269.189V98.9995V96.9995H152.814V98.9995Z" fill="#353C51"/>
<path d="M271 128C271 94.8629 244.137 68 211 68C177.863 68 151 94.8629 151 128C151 161.137 177.863 188 211 188C244.137 188 271 161.137 271 128ZM281 128C281 166.66 249.66 198 211 198C172.34 198 141 166.66 141 128C141 89.3401 172.34 58 211 58C249.66 58 281 89.3401 281 128Z" fill="#353C51"/>
<mask id="path-14-inside-1_6967_2122" fill="white">
<path d="M206.603 79.2149C214.807 78.4475 223.073 79.7538 230.641 83.0137C238.208 86.2736 244.836 91.3826 249.914 97.8716C254.992 104.361 258.359 112.021 259.705 120.151C261.051 128.28 260.332 136.617 257.616 144.397L244.543 139.832C246.495 134.243 247.011 128.253 246.044 122.412C245.077 116.572 242.658 111.068 239.01 106.405C235.361 101.743 230.6 98.0727 225.163 95.7306C219.726 93.3885 213.787 92.45 207.893 93.0013L206.603 79.2149Z"/>
</mask>
<path d="M206.603 79.2149C214.807 78.4475 223.073 79.7538 230.641 83.0137C238.208 86.2736 244.836 91.3826 249.914 97.8716C254.992 104.361 258.359 112.021 259.705 120.151C261.051 128.28 260.332 136.617 257.616 144.397L244.543 139.832C246.495 134.243 247.011 128.253 246.044 122.412C245.077 116.572 242.658 111.068 239.01 106.405C235.361 101.743 230.6 98.0727 225.163 95.7306C219.726 93.3885 213.787 92.45 207.893 93.0013L206.603 79.2149Z" fill="#FBFAF8" stroke="#353C51" stroke-width="8" mask="url(#path-14-inside-1_6967_2122)"/>
<mask id="path-15-inside-2_6967_2122" fill="white">
<path d="M253.24 153.671C248.732 161.111 242.331 167.222 234.69 171.38L228.075 159.226C233.566 156.237 238.166 151.846 241.406 146.499L253.24 153.671Z"/>
</mask>
<path d="M253.24 153.671C248.732 161.111 242.331 167.222 234.69 171.38L228.075 159.226C233.566 156.237 238.166 151.846 241.406 146.499L253.24 153.671Z" fill="#FBFAF8" stroke="#353C51" stroke-width="8" mask="url(#path-15-inside-2_6967_2122)"/>
<mask id="mask0_6967_2122" style="mask-type:alpha" maskUnits="userSpaceOnUse" x="18" y="48" width="68" height="68">
<circle cx="51.5762" cy="81.5762" r="31.5762" fill="#D9D9D9" stroke="black" stroke-width="4"/>
</mask>
<g mask="url(#mask0_6967_2122)">
<circle cx="51.5762" cy="81.5762" r="31.5762" fill="#F1A210" stroke="#353C51" stroke-width="4"/>
<circle cx="51.5823" cy="70.8391" r="13.262" fill="#353C51"/>
<ellipse cx="53.1646" cy="110.31" rx="25.5767" ry="22.4191" fill="#353C51"/>
</g>
<mask id="mask1_6967_2122" style="mask-type:alpha" maskUnits="userSpaceOnUse" x="40" y="187" width="52" height="52">
<circle cx="65.8583" cy="212.858" r="23.8583" fill="#D9D9D9" stroke="black" stroke-width="4"/>
</mask>
<g mask="url(#mask1_6967_2122)">
<circle cx="65.8583" cy="212.858" r="23.8583" fill="#F1A210" stroke="#353C51" stroke-width="4"/>
<circle cx="65.8584" cy="204.747" r="10.0205" fill="#353C51"/>
<ellipse cx="67.0557" cy="234.57" rx="19.3252" ry="16.9394" fill="#353C51"/>
</g>
<rect x="102" y="62" width="25" height="24" fill="#FFF2DC" stroke="#353C51" stroke-width="4"/>
<path d="M117 68H121L112 80H108L117 68Z" fill="#353C51"/>
<path d="M112 68H108L117 80H121L112 68Z" fill="#353C51"/>
<rect x="30" y="136" width="29" height="28" fill="#FFF2DC" stroke="#353C51" stroke-width="4"/>
<path d="M49 142H53L45 158H41L49 142Z" fill="#353C51"/>
<path d="M36 149.5L41 158H45L40 149.5H36Z" fill="#353C51"/>
<rect x="2" y="32" width="296" height="236" stroke="#353C51" stroke-width="4"/>
<path d="M134 2H166L161.429 50H138.571L134 2Z" fill="#646676" stroke="#353C51" stroke-width="4"/>
</g>
<defs>
<clipPath id="clip0_6967_2122">
<rect width="300" height="270" fill="white"/>
</clipPath>
</defs>
</svg>
