<svg width="300" height="270" viewBox="0 0 300 270" fill="none" xmlns="http://www.w3.org/2000/svg">
<g clip-path="url(#clip0_6967_2119)">
<path d="M0 30H300V270H0V30Z" fill="#FFFFFE"/>
<path d="M172 214C172 207.373 177.373 202 184 202H266C272.627 202 278 207.373 278 214V293C278 299.627 272.627 305 266 305H184C177.373 305 172 299.627 172 293V214Z" fill="#E2F5F9" stroke="#353C51" stroke-width="4"/>
<path d="M172 214C172 207.373 177.373 202 184 202H266C272.627 202 278 207.373 278 214V230H172V214Z" fill="#10B9DF" stroke="#353C51" stroke-width="4"/>
<path d="M266 210H270L261 222H257L266 210Z" fill="#353C51"/>
<path d="M261 210H257L266 222H270L261 210Z" fill="#353C51"/>
<path d="M148 81C148 74.3726 153.373 69 160 69H242C248.627 69 254 74.3726 254 81V160C254 166.627 248.627 172 242 172H160C153.373 172 148 166.627 148 160V81Z" fill="#E2F5F9" stroke="#353C51" stroke-width="4"/>
<path d="M148 81C148 74.3726 153.373 69 160 69H242C248.627 69 254 74.3726 254 81V97H148V81Z" fill="#10B9DF" stroke="#353C51" stroke-width="4"/>
<path d="M242 77H246L237 89H233L242 77Z" fill="#353C51"/>
<path d="M237 77H233L242 89H246L237 77Z" fill="#353C51"/>
<rect x="2.58212" y="1.0426" width="158.421" height="203.188" transform="matrix(0.914311 -0.405014 0.376751 0.926315 -26.2282 149.634)" fill="#353C51" stroke="#353C51" stroke-width="4"/>
<rect x="2.58212" y="1.0426" width="158.421" height="203.188" transform="matrix(0.914311 -0.405014 0.376751 0.926315 -20.3141 130.368)" fill="#10B9DF" stroke="#353C51" stroke-width="4"/>
<rect x="2.58212" y="1.0426" width="131.688" height="169.195" transform="matrix(0.914311 -0.405014 0.376751 0.926315 -2.07779 140.968)" fill="#FFFFFE" stroke="#353C51" stroke-width="4"/>
<path d="M43.8723 71.1905C52.3902 67.4176 62.2261 71.566 65.8418 80.4552C67.7194 85.0717 67.5486 90.0584 65.7591 94.3149L89.8886 88.9513L106.508 111.96L28.464 146.531L24.402 117.96L44.6534 103.704C40.4559 102.097 36.8801 98.7531 34.9954 94.1193C31.3801 85.2298 35.3544 74.9638 43.8723 71.1905ZM47.5126 78.9182C43.324 80.774 41.3694 85.8218 43.1469 90.1934C44.925 94.5652 49.7625 96.605 53.9516 94.7497C58.1409 92.894 60.096 87.8451 58.3179 83.4731C56.5395 79.1017 51.7016 77.0626 47.5126 78.9182Z" fill="#353C51"/>
<rect x="2.58212" y="1.0426" width="10.7487" height="11.1925" transform="matrix(0.914311 -0.405014 0.376751 0.926315 23.057 168.039)" stroke="#353C51" stroke-width="4"/>
<rect x="2.58212" y="1.0426" width="10.7487" height="11.1925" transform="matrix(0.914311 -0.405014 0.376751 0.926315 34.0023 194.949)" stroke="#353C51" stroke-width="4"/>
<rect x="2.58212" y="1.0426" width="10.7487" height="11.1925" transform="matrix(0.914311 -0.405014 0.376751 0.926315 44.9496 221.869)" stroke="#353C51" stroke-width="4"/>
<rect x="2.58212" y="1.0426" width="10.7487" height="11.1925" transform="matrix(0.914311 -0.405014 0.376751 0.926315 55.8968 248.783)" stroke="#353C51" stroke-width="4"/>
<path d="M49.5156 171.876L122.081 139.731" stroke="#353C51" stroke-width="4"/>
<path d="M60.4609 198.795L133.027 166.65" stroke="#353C51" stroke-width="4"/>
<path d="M71.4102 225.706L143.976 193.561" stroke="#353C51" stroke-width="4"/>
<path d="M82.3574 252.625L154.923 220.481" stroke="#353C51" stroke-width="4"/>
<rect width="22" height="136" transform="matrix(-0.756663 -0.653805 -0.653805 0.756663 275.447 118.704)" fill="#E2F5F9" stroke="#353C51" stroke-width="4" stroke-linejoin="round"/>
<path d="M299.638 90.7071C303.61 86.1103 303.104 79.1639 298.507 75.1919C293.91 71.22 286.964 71.7266 282.992 76.3234L274.492 86.16L291.139 100.544L299.638 90.7071Z" fill="#10B9DF" stroke="#353C51" stroke-width="4" stroke-linejoin="round"/>
<rect width="22" height="24" transform="matrix(-0.756663 -0.653805 -0.653805 0.756663 291.139 100.544)" fill="#FFFFFE" stroke="#353C51" stroke-width="4"/>
<path d="M186.529 221.61L169.883 207.226L155.323 240.901L186.529 221.61Z" fill="#FFFFFE" stroke="#353C51" stroke-width="4" stroke-linejoin="round"/>
<path d="M170.764 231.567L162.565 224.483L155.446 241.008L170.764 231.567Z" fill="#353C51"/>
<path d="M285.152 105.944L269.609 92.5134" stroke="#353C51" stroke-width="4"/>
<path d="M279.922 111.997L264.378 98.5666" stroke="#353C51" stroke-width="4"/>
<path d="M265.816 113.025L178.207 214.418" stroke="#353C51" stroke-width="4"/>
<rect x="2" y="32" width="296" height="236" stroke="#353C51" stroke-width="4"/>
<path d="M134 2H166L161.429 50H138.571L134 2Z" fill="#646676" stroke="#353C51" stroke-width="4"/>
</g>
<defs>
<clipPath id="clip0_6967_2119">
<rect width="300" height="270" fill="white"/>
</clipPath>
</defs>
</svg>
