<svg width="300" height="270" viewBox="0 0 300 270" fill="none" xmlns="http://www.w3.org/2000/svg">
<g clip-path="url(#clip0_6967_2120)">
<rect y="30" width="300" height="240" fill="#FFFFFE"/>
<path d="M168.627 93.0005C168.627 80.2982 178.924 69.9997 191.627 69.9995H251.627C264.33 69.9995 274.627 80.2981 274.627 93.0005C274.627 100.609 270.928 107.348 265.244 111.531C265.385 112.868 265.642 113.919 266.019 114.888C266.549 116.253 267.375 117.616 268.734 119.505L273.248 125.78C263.5 125 257 121 252.627 116H191.627C179.123 116 168.95 106.022 168.635 93.5942L168.627 93.0005Z" fill="#353C51"/>
<mask id="path-3-outside-1_6967_2120" maskUnits="userSpaceOnUse" x="160.26" y="60.9995" width="108" height="58" fill="black">
<rect fill="white" x="160.26" y="60.9995" width="108" height="58"/>
<path d="M244.26 64.9995C255.305 64.9995 264.26 73.9548 264.26 85.0005C264.26 92.1841 260.471 98.4818 254.784 102.008C254.989 106.602 256.185 109.09 258.932 112.908C253.942 112.073 249.74 109.473 247.151 104.791C246.207 104.927 245.242 105 244.26 105H184.26C173.214 105 164.26 96.046 164.26 85.0005C164.26 73.9548 173.214 64.9995 184.26 64.9995H244.26Z"/>
</mask>
<path d="M244.26 64.9995C255.305 64.9995 264.26 73.9548 264.26 85.0005C264.26 92.1841 260.471 98.4818 254.784 102.008C254.989 106.602 256.185 109.09 258.932 112.908C253.942 112.073 249.74 109.473 247.151 104.791C246.207 104.927 245.242 105 244.26 105H184.26C173.214 105 164.26 96.046 164.26 85.0005C164.26 73.9548 173.214 64.9995 184.26 64.9995H244.26Z" fill="#8BB660"/>
<path d="M264.26 85.0005L268.26 85.0006V85.0005H264.26ZM254.784 102.008L252.676 98.6088L250.684 99.8445L250.788 102.187L254.784 102.008ZM258.932 112.908L258.272 116.853L267.85 118.454L262.179 110.572L258.932 112.908ZM247.151 104.791L250.652 102.855L249.314 100.436L246.578 100.832L247.151 104.791ZM244.26 105V109V105ZM164.26 85.0005H160.26V85.0006L164.26 85.0005ZM184.26 64.9995V60.9995V64.9995ZM244.26 64.9995V68.9995C253.096 68.9995 260.26 76.1637 260.26 85.0005H264.26H268.26C268.26 71.7459 257.515 60.9995 244.26 60.9995V64.9995ZM264.26 85.0005L260.26 85.0004C260.26 90.7422 257.237 95.7808 252.676 98.6088L254.784 102.008L256.892 105.408C263.706 101.183 268.26 93.6261 268.26 85.0006L264.26 85.0005ZM254.784 102.008L250.788 102.187C250.906 104.824 251.32 107.053 252.19 109.231C253.039 111.359 254.249 113.248 255.685 115.244L258.932 112.908L262.179 110.572C260.868 108.749 260.106 107.485 259.62 106.266C259.154 105.098 258.868 103.786 258.78 101.83L254.784 102.008ZM258.932 112.908L259.591 108.962C255.655 108.304 252.58 106.343 250.652 102.855L247.151 104.791L243.651 106.726C246.899 112.603 252.228 115.842 258.272 116.853L258.932 112.908ZM247.151 104.791L246.578 100.832C245.816 100.942 245.043 101 244.26 101V105V109C245.441 109 246.598 108.912 247.725 108.749L247.151 104.791ZM244.26 105V101H184.26V105V109H244.26V105ZM184.26 105V101C175.423 101 168.26 93.8369 168.26 85.0004L164.26 85.0005L160.26 85.0006C160.26 98.255 171.005 109 184.26 109V105ZM164.26 85.0005H168.26C168.26 76.1637 175.423 68.9995 184.26 68.9995V64.9995V60.9995C171.005 60.9995 160.26 71.7459 160.26 85.0005H164.26ZM184.26 64.9995V68.9995H244.26V64.9995V60.9995H184.26V64.9995Z" fill="#353C51" mask="url(#path-3-outside-1_6967_2120)"/>
<circle cx="263" cy="71" r="10" fill="#353C51"/>
<rect x="174" y="270" width="101" height="29" transform="rotate(-90 174 270)" fill="#8BB660" stroke="#353C51" stroke-width="4"/>
<rect x="203" y="270" width="118" height="31" transform="rotate(-90 203 270)" fill="#E7F3DD" stroke="#353C51" stroke-width="4"/>
<rect x="234" y="270" width="76" height="31" transform="rotate(-90 234 270)" fill="#8BB660" stroke="#353C51" stroke-width="4"/>
<rect x="-49" y="275" width="161" height="193" transform="rotate(-90 -49 275)" fill="#353C51"/>
<rect x="-10" y="94" width="133.681" height="174" fill="#E7F3DD" stroke="#353C51" stroke-width="4"/>
<rect x="-10" y="94" width="134" height="32" fill="#8BB660" stroke="#353C51" stroke-width="4"/>
<path d="M77.7598 96.27V266.487" stroke="#353C51" stroke-width="4" stroke-linecap="round"/>
<path d="M32.8594 95.5132V265.731" stroke="#353C51" stroke-width="4" stroke-linecap="round"/>
<path d="M-9.31836 197H123.172" stroke="#353C51" stroke-width="4" stroke-linecap="round"/>
<rect x="2" y="32" width="296" height="236" stroke="#353C51" stroke-width="4"/>
<path d="M134 2H166L161.429 50H138.571L134 2Z" fill="#646676" stroke="#353C51" stroke-width="4"/>
<path d="M102.271 185.972C100.452 180.842 104.995 175.702 110.261 176.793L110.513 176.85L110.547 176.859L110.582 176.868L110.967 176.977L111.003 176.987L111.04 176.999L144.384 187.826L144.406 187.834L144.428 187.841L144.649 187.918L144.683 187.93C150.974 190.264 150.646 199.329 144.202 201.201L144.157 201.213L143.931 201.273L143.913 201.278L143.895 201.282L131.9 204.233L130.209 217.196C129.292 224.218 119.721 225.594 116.863 219.114L102.473 186.482L102.459 186.448L102.445 186.415L102.297 186.043L102.283 186.008L102.271 185.972Z" fill="white" stroke="#353C51" stroke-width="4"/>
<path d="M107.964 184.061C107.615 183.27 108.366 182.439 109.188 182.706L142.532 193.533C143.489 193.844 143.439 195.215 142.462 195.456L127.148 199.225C126.748 199.324 126.449 199.658 126.396 200.067L124.261 216.419C124.13 217.422 122.762 217.619 122.354 216.693L107.964 184.061Z" fill="#353C51"/>
</g>
<defs>
<clipPath id="clip0_6967_2120">
<rect width="300" height="270" fill="white"/>
</clipPath>
</defs>
</svg>
