<svg width="300" height="270" viewBox="0 0 300 270" fill="none" xmlns="http://www.w3.org/2000/svg">
<g clip-path="url(#clip0_6967_1025)">
<rect y="30" width="300" height="240" fill="#FFFFFE"/>
<rect x="2.7109" y="0.828572" width="15.896" height="114.748" transform="matrix(0.883951 -0.46758 0.4715 0.881866 63.3751 229.413)" fill="#F95984" stroke="#353C51" stroke-width="4"/>
<path d="M41.6964 167.904L43.2537 167.08C47.6756 164.741 53.1517 166.463 55.5104 170.838L55.7288 171.269C63.2004 187.037 69.2714 198.792 77.6956 212.938L79.4135 215.801C82.1334 220.304 80.5587 226.144 75.9562 228.578L74.5966 229.297C70.1663 231.641 64.6718 229.908 62.2956 225.517L62.0762 225.084C54.7008 209.588 48.4703 197.957 39.9365 183.462L38.1978 180.522C35.5487 176.063 37.1394 170.314 41.6964 167.904Z" fill="#353C51" stroke="#353C51" stroke-width="4"/>
<path d="M24.733 132.53C24.89 132.748 25.0603 132.985 25.2431 133.231C26.0321 134.294 27.0825 135.628 28.1655 136.742L28.6307 137.204C31.2484 139.711 35.0485 142.998 38.1681 145.639C40.148 147.315 41.8717 148.743 42.8728 149.569L43.7023 150.3C44.9344 151.387 46.0251 152.741 46.8766 154.334C50.6845 161.456 47.8407 167.321 43.4124 169.743C41.1578 170.975 38.4714 171.335 35.8947 170.536C33.3389 169.744 30.7095 167.754 28.6805 163.959C27.7667 162.25 27.2357 160.467 27.0501 158.731L27.0445 158.683L27.0371 158.636C26.763 156.873 25.6179 149.569 24.3744 142.643L23.8374 139.715C23.5442 138.151 22.935 136.257 22.4303 134.819C22.3179 134.499 22.2081 134.197 22.1062 133.919L24.733 132.53Z" fill="#FEE8EB" stroke="#353C51" stroke-width="4"/>
<path d="M22.6465 131.634L35.6754 155.827" stroke="#353C51" stroke-width="4"/>
<path d="M34.7511 153.915C36.5484 153.027 38.5656 153.813 39.4185 155.434C40.2869 157.084 39.7228 159.25 37.8994 160.167C36.0759 161.084 33.9861 160.253 33.1655 158.579C32.3537 156.922 32.9406 154.809 34.7511 153.915Z" fill="#353C51"/>
<path d="M73.3577 136.277C73.0136 134.708 73.9645 133.179 75.5137 132.754C77.0674 132.327 78.6763 133.161 79.1857 134.69C82.7553 145.404 96.0819 185.72 103.762 213.316C111.385 240.707 120.718 281.694 123.278 293.069C123.662 294.777 122.631 296.454 120.942 296.918C119.255 297.381 117.506 296.469 116.954 294.809C113.278 283.745 100.12 243.803 92.5779 216.387C84.9761 188.754 75.7733 147.289 73.3577 136.277Z" fill="#F95984" stroke="#353C51" stroke-width="4"/>
<path d="M59.552 74.9743C59.552 74.9743 72.5134 86.7369 75.6249 97.9493C78.7364 109.162 75.6626 112.094 70.2644 113.577C64.8662 115.059 60.3378 114.213 57.2263 103.001C54.1148 91.7882 59.552 74.9743 59.552 74.9743Z" fill="#FEE8EB"/>
<path d="M62.9505 94.659C61.8006 94.9747 57.6263 89.9662 57.6263 89.9662L60.1224 76.664C60.1224 76.664 73.949 90.1521 68.1147 89.8562C66.4988 89.7742 65.517 87.1844 65.517 87.1844C65.517 87.1844 64.1004 94.3433 62.9505 94.659Z" fill="#353C51"/>
<path d="M59.552 74.9743C59.552 74.9743 72.5134 86.7369 75.6249 97.9493C78.7364 109.162 75.6626 112.094 70.2644 113.577C64.8662 115.059 60.3378 114.213 57.2263 103.001C54.1148 91.7882 59.552 74.9743 59.552 74.9743Z" stroke="#353C51" stroke-width="4"/>
<path d="M62.9505 94.659C61.8006 94.9747 57.6263 89.9662 57.6263 89.9662L60.1224 76.664C60.1224 76.664 73.949 90.1521 68.1147 89.8562C66.4988 89.7742 65.517 87.1844 65.517 87.1844C65.517 87.1844 64.1004 94.3433 62.9505 94.659Z" stroke="#353C51" stroke-width="4"/>
<path d="M63.1669 115.485C62.7901 114.128 63.9012 112.8 65.3111 112.823C66.8472 112.848 68.6868 112.776 70.0459 112.403C71.2593 112.069 72.5703 111.364 73.6678 110.671C74.8947 109.896 76.6215 110.456 77.0098 111.855L87.777 150.655C88.0079 151.487 87.6809 152.379 86.9436 152.827C83.2123 155.097 80.2565 155.838 75.8488 155.857C74.9679 155.86 74.2041 155.258 73.9687 154.41L63.1669 115.485Z" fill="#353C51"/>
<path d="M122.027 127.713C122.162 125.068 124.337 123.019 126.985 123.001C129.617 122.984 131.811 124.976 132.001 127.601C133.015 141.601 135.944 184.276 136.168 212.919C136.388 241.133 134.184 281.364 133.355 295.39C133.186 298.24 130.834 300.459 127.979 300.477C125.089 300.496 122.691 298.258 122.527 295.373C121.716 281.024 119.521 239.732 119.433 211.483C119.344 182.953 121.321 141.53 122.027 127.713Z" fill="#F95984" stroke="#353C51" stroke-width="4"/>
<path d="M134.761 92.2935C134.776 94.5026 132.997 96.3052 130.788 96.3197L122.683 96.373C120.474 96.3875 118.672 94.6084 118.657 92.3994L118.481 65.9905C118.481 65.9905 118.459 63.2226 119.738 63.1154C120.669 63.0374 122.504 63.0329 124.003 65.2893C124.504 63.0317 128.005 61.6075 130.504 64.3657C131.168 63.5777 132.131 62.9725 133.135 63.0273C134.5 63.1019 134.585 65.8847 134.585 65.8847L134.761 92.2935Z" fill="#FEE8EB" stroke="#353C51" stroke-width="4"/>
<path d="M117.506 98.791C117.498 97.532 118.642 96.5727 119.886 96.7641C121.937 97.0796 124.903 97.4629 127.128 97.4483C129.218 97.4345 131.72 97.0626 133.529 96.7349C134.791 96.5064 135.988 97.4587 135.997 98.7409L136.315 146.632C136.321 147.518 135.742 148.308 134.886 148.54C129.165 150.093 125.129 150.032 119.317 148.625C118.44 148.413 117.831 147.623 117.825 146.721L117.506 98.791Z" fill="#353C51"/>
<path d="M195.966 79.5547C200.548 72.9739 210.478 70.8702 224.304 72.8213C237.94 74.7456 254.517 80.5164 271.182 88.458C287.826 96.3902 304.445 106.434 318.151 116.814C331.911 127.236 342.537 137.849 347.431 146.871L347.454 146.916L347.48 146.958C356.6 161.931 361.316 180.166 361.316 199.578L361.309 200.812C360.699 252.955 321.488 294.755 273.527 294.755C266.209 294.755 259.102 293.782 252.309 291.954L252.275 291.945L252.242 291.938L250.818 291.597C220.848 284.224 186.738 263.33 162.731 239.814C150.544 227.876 141.079 215.375 136.064 203.769C131.124 192.333 130.624 182.096 135.58 174.016L135.82 173.632C141.632 164.556 147.723 160.868 153.725 159.773C159.86 158.655 166.236 160.172 172.777 162.242C179.125 164.251 185.835 166.876 191.909 167.337C195.023 167.573 198.11 167.264 201.039 165.982C203.796 164.776 206.287 162.764 208.491 159.777L208.928 159.167C213.794 152.162 213.854 145.221 211.659 138.484C209.519 131.913 205.174 125.37 201.18 119.024C197.104 112.55 193.342 106.214 191.824 99.6875C190.386 93.5033 190.956 87.107 195.512 80.2227L195.966 79.5547ZM251.236 109.562C238.979 109.562 229.142 119.733 228.837 132.232L228.83 132.829V132.83C228.83 145.402 238.476 155.769 250.654 156.09L251.236 156.098C263.688 156.098 273.643 145.601 273.644 132.83V132.829C273.643 120.257 263.997 109.89 251.818 109.569L251.236 109.562Z" fill="#353C51" stroke="#353C51" stroke-width="4"/>
<path fill-rule="evenodd" clip-rule="evenodd" d="M178.236 86.0078C198.751 56.6261 308.534 114.881 328.309 151.241C337.355 166.052 342 184.03 342 203.095C342 254.957 303.044 297 254.988 297C247.724 297 240.668 296.037 233.923 294.227C174.336 280.404 97.7586 211.48 119.909 176.98C143.337 140.492 174.27 186.664 190.796 162.942C207.993 138.258 157.635 115.513 178.236 86.0078ZM233.388 118.042C222.466 118.042 213.612 127.243 213.612 138.594C213.612 149.944 222.466 159.145 233.388 159.145C244.309 159.145 253.163 149.944 253.163 138.594C253.163 127.243 244.309 118.042 233.388 118.042Z" fill="#FEE8EB" stroke="#353C51" stroke-width="4"/>
<path d="M163.887 204.252C158.922 214.983 167.518 212.901 168.294 224.703C168.806 232.495 158.749 238.34 163.895 244.209C169.589 250.705 176.998 243.252 185.577 244.209C193.923 245.14 196.103 249.374 204.431 248.299C218.372 246.5 219.236 226.413 217.629 212.432C216.449 202.16 213.187 188.142 202.86 188.206C194.594 188.258 195.69 197.516 188.402 201.42C176.003 208.062 166.653 198.274 163.887 204.252Z" fill="#F95984" stroke="#353C51" stroke-width="4"/>
<path d="M285.77 215.987C274.613 213.229 268.392 222.726 260.507 231.097C252.539 239.557 243.709 246.356 246.855 257.55C251.347 273.54 278.867 268.358 289.284 255.43C298.982 243.394 300.766 219.694 285.77 215.987Z" fill="#F95984" stroke="#353C51" stroke-width="4"/>
<path d="M271.033 174.138C270.467 166.148 270.811 157.866 278.261 154.946C281.917 153.513 284.389 154.946 288.316 154.946C294.697 154.946 300.571 150.038 304.656 154.946C309.081 160.262 300.476 165.068 299.628 171.936C298.997 177.057 303.861 182.204 299.628 185.15C295.933 187.722 292.487 181.256 288.316 182.948C284.057 184.675 285.952 190.917 281.717 192.701C274.015 195.946 271.624 182.484 271.033 174.138Z" fill="#F95984" stroke="#353C51" stroke-width="4"/>
<path d="M146.557 201.592C150.309 201.592 153.354 204.639 153.354 208.402C153.354 212.165 150.309 215.211 146.557 215.211C142.804 215.211 139.758 212.165 139.758 208.402C139.758 204.639 142.804 201.592 146.557 201.592Z" fill="#F95984" stroke="#353C51" stroke-width="4"/>
<rect x="2" y="32" width="296" height="236" stroke="#353C51" stroke-width="4"/>
<path d="M134 2H166L161.429 50H138.571L134 2Z" fill="#646676" stroke="#353C51" stroke-width="4"/>
</g>
<defs>
<clipPath id="clip0_6967_1025">
<rect width="300" height="270" fill="white"/>
</clipPath>
</defs>
</svg>
