<svg width="73" height="380" viewBox="0 0 73 380" fill="none" xmlns="http://www.w3.org/2000/svg">
<g clip-path="url(#clip0_7384_62263)">
<path fill-rule="evenodd" clip-rule="evenodd" d="M2.49242 377.991H70.4883V13.9912H2.49242V369.991V377.991ZM25.4883 32.9912C25.4883 26.9161 30.4131 21.9912 36.4883 21.9912C42.5634 21.9912 47.4883 26.9161 47.4883 32.9912C47.4883 39.0663 42.5634 43.9912 36.4883 43.9912C30.4131 43.9912 25.4883 39.0663 25.4883 32.9912Z" fill="#F1A210"/>
<path d="M16.0573 267.094H2.49839M16.0573 275.045H2.49839M16.0573 282.992H2.49839M16.0573 298.894H2.49839M16.0573 306.843H2.49839M16.0573 314.793H2.49839M16.0573 322.744H2.49839M19.8545 330.691H2.49839M16.0573 338.643H2.49839M16.0573 346.593H2.49839M16.0573 354.54H2.49839M16.0573 362.491H2.49839M16.0573 163.981H2.49839M19.6523 171.877H2.49994M16.0573 179.879H2.49839M16.0573 187.831H2.49839M16.0573 195.781H2.49839M16.0573 203.729H2.49839M19.6513 211.55H2.48828M16.0573 219.631H2.49839M16.0573 227.578H2.49839M16.0573 235.53H2.49839M16.0573 243.48H2.49839M16.0573 259.378H2.49839M16.0573 60.8675H2.49839M16.0573 68.8191H2.49839M16.0573 76.7661H2.49839M16.0573 84.7177H2.49839M19.6561 92.3415H2.50041M16.0573 100.616H2.49839M16.0573 108.566H2.49839M16.0573 116.518H2.49839M16.0573 124.465H2.49839M19.6546 132.516H2.49855M16.0573 140.366H2.49839M16.0573 148.313H2.49839M16.0573 156.265H2.49839M19.8483 290.618H2.49211M19.8483 251.411H2.49211M2.49242 369.991V377.991H70.4883V13.9912H2.49242V369.991ZM2.49242 369.991H16.0573M36.4883 21.9912C30.4131 21.9912 25.4883 26.9161 25.4883 32.9912C25.4883 39.0663 30.4131 43.9912 36.4883 43.9912C42.5634 43.9912 47.4883 39.0663 47.4883 32.9912C47.4883 26.9161 42.5634 21.9912 36.4883 21.9912Z" stroke="#353C51" stroke-width="4"/>
<path d="M43.4883 6.99121C43.4883 3.12522 40.3543 -0.00878906 36.4883 -0.00878906C32.6223 -0.00878906 29.4883 3.12522 29.4883 6.99121L29.4883 31.9912C29.4883 35.8572 32.6223 38.9912 36.4883 38.9912C40.3543 38.9912 43.4883 35.8572 43.4883 31.9912L43.4883 6.99121Z" fill="#353C51"/>
</g>
<defs>
<clipPath id="clip0_7384_62263">
<rect width="72" height="380" fill="white" transform="translate(0.488281 -0.00878906)"/>
</clipPath>
</defs>
</svg>
