<svg width="220" height="270" viewBox="0 0 220 270" fill="none" xmlns="http://www.w3.org/2000/svg">
<g clip-path="url(#clip0_7099_1878)">
<path d="M218.001 36V218H168V268H2L2.00098 36H218.001ZM215.172 222L172 265.172V222H215.172Z" fill="#FFFFFE" stroke="#353C51" stroke-width="4"/>
<path d="M216 38H4.00008L4 65H216V38Z" fill="#10B9DF"/>
<path d="M216 65H4" stroke="#353C51" stroke-width="4"/>
<path d="M20.8133 88.4933V85.9467C20.8133 85.3956 20.96 84.9689 21.2533 84.6667C21.5467 84.3556 21.9822 84.2 22.56 84.2H23.2267V85.28H22.68C22.44 85.28 22.2578 85.3422 22.1333 85.4667C22.0178 85.5911 21.96 85.7689 21.96 86V86.44H22.9067V88.4933H20.8133ZM24.5333 88.4933V85.9467C24.5333 85.3956 24.68 84.9689 24.9733 84.6667C25.2667 84.3556 25.7022 84.2 26.28 84.2H26.9467V85.28H26.4C26.16 85.28 25.9778 85.3422 25.8533 85.4667C25.7378 85.5911 25.68 85.7689 25.68 86V86.44H26.6267V88.4933H24.5333ZM28.5685 95V87H30.3285V95H28.5685ZM29.4485 86.04C29.1641 86.04 28.9197 85.9422 28.7152 85.7467C28.5108 85.5422 28.4085 85.2933 28.4085 85C28.4085 84.7156 28.5063 84.4711 28.7019 84.2667C28.9063 84.0622 29.1552 83.96 29.4485 83.96C29.733 83.96 29.9774 84.0622 30.1819 84.2667C30.3863 84.4622 30.4885 84.7067 30.4885 85C30.4885 85.2844 30.3863 85.5289 30.1819 85.7333C29.9863 85.9378 29.7419 86.04 29.4485 86.04ZM34.5221 95C34.051 95 33.6821 94.8756 33.4154 94.6267C33.1488 94.3778 33.0154 94 33.0154 93.4933V88.4133H31.7088V87H33.0288V84.6H34.7621V87H36.5487V88.4133H34.7754V93.5867H36.7221V95H34.5221ZM43.4975 95L41.1775 87H42.9642L44.5108 92.7867H44.5642L46.3908 87H48.1375L49.9508 92.7867H50.0042L51.5642 87H53.3242L51.0042 95H49.0975L47.2708 89.3067H47.2175L45.4042 95H43.4975ZM56.5502 95.1467C55.7502 95.1467 55.1013 94.92 54.6035 94.4667C54.1058 94.0133 53.8569 93.4222 53.8569 92.6933C53.8569 91.9289 54.1102 91.3378 54.6169 90.92C55.1324 90.4933 55.8569 90.28 56.7902 90.28H58.9369V89.9067C58.9369 89.4 58.7947 89.0089 58.5102 88.7333C58.2347 88.4489 57.848 88.3067 57.3502 88.3067C56.9324 88.3067 56.5858 88.4044 56.3102 88.6C56.0347 88.7867 55.8569 89.0578 55.7769 89.4133H53.9902C54.1324 88.6044 54.5013 87.9733 55.0969 87.52C55.7013 87.0667 56.4569 86.84 57.3635 86.84C58.3858 86.84 59.1813 87.1111 59.7502 87.6533C60.328 88.1867 60.6169 88.9467 60.6169 89.9333V95H58.9769V93.7333H58.9235C58.7102 94.1778 58.3947 94.5244 57.9769 94.7733C57.5591 95.0222 57.0835 95.1467 56.5502 95.1467ZM56.9235 93.7333C57.3058 93.7333 57.648 93.6489 57.9502 93.48C58.2524 93.3022 58.4924 93.0667 58.6702 92.7733C58.848 92.4711 58.9369 92.1333 58.9369 91.76V91.5333H56.8969C56.4524 91.5333 56.1102 91.6311 55.8702 91.8267C55.6391 92.0133 55.5235 92.2756 55.5235 92.6133C55.5235 92.96 55.648 93.2356 55.8969 93.44C56.1547 93.6356 56.4969 93.7333 56.9235 93.7333ZM65.7408 95.16C64.7542 95.16 63.9497 94.9156 63.3275 94.4267C62.7142 93.9378 62.3808 93.28 62.3275 92.4533H64.0342C64.0964 92.8711 64.2786 93.1911 64.5808 93.4133C64.8919 93.6356 65.3008 93.7467 65.8075 93.7467C66.2608 93.7467 66.6031 93.6622 66.8342 93.4933C67.0742 93.3156 67.1942 93.0622 67.1942 92.7333C67.1942 92.2444 66.8564 91.9289 66.1808 91.7867L64.7808 91.48C63.3142 91.1689 62.5808 90.4444 62.5808 89.3067C62.5808 88.5689 62.8564 87.9733 63.4075 87.52C63.9675 87.0667 64.6964 86.84 65.5942 86.84C66.4919 86.84 67.2297 87.0756 67.8075 87.5467C68.3853 88.0089 68.7008 88.6311 68.7542 89.4133H67.0608C66.9808 89.0311 66.8075 88.7378 66.5408 88.5333C66.2742 88.32 65.9275 88.2133 65.5008 88.2133C65.1186 88.2133 64.8119 88.2978 64.5808 88.4667C64.3497 88.6267 64.2342 88.8533 64.2342 89.1467C64.2342 89.3778 64.3097 89.5644 64.4608 89.7067C64.6208 89.84 64.8653 89.9422 65.1942 90.0133L66.6342 90.32C67.3631 90.48 67.9097 90.7467 68.2742 91.12C68.6475 91.4844 68.8342 91.9778 68.8342 92.6C68.8342 93.3822 68.5586 94.0044 68.0075 94.4667C67.4564 94.9289 66.7008 95.16 65.7408 95.16ZM76.5346 95.1467C75.7346 95.1467 75.0857 94.92 74.5879 94.4667C74.0901 94.0133 73.8413 93.4222 73.8413 92.6933C73.8413 91.9289 74.0946 91.3378 74.6013 90.92C75.1168 90.4933 75.8413 90.28 76.7746 90.28H78.9213V89.9067C78.9213 89.4 78.779 89.0089 78.4946 88.7333C78.219 88.4489 77.8324 88.3067 77.3346 88.3067C76.9168 88.3067 76.5701 88.4044 76.2946 88.6C76.019 88.7867 75.8413 89.0578 75.7613 89.4133H73.9746C74.1168 88.6044 74.4857 87.9733 75.0813 87.52C75.6857 87.0667 76.4413 86.84 77.3479 86.84C78.3701 86.84 79.1657 87.1111 79.7346 87.6533C80.3124 88.1867 80.6013 88.9467 80.6013 89.9333V95H78.9613V93.7333H78.9079C78.6946 94.1778 78.379 94.5244 77.9613 94.7733C77.5435 95.0222 77.0679 95.1467 76.5346 95.1467ZM76.9079 93.7333C77.2901 93.7333 77.6324 93.6489 77.9346 93.48C78.2368 93.3022 78.4768 93.0667 78.6546 92.7733C78.8324 92.4711 78.9213 92.1333 78.9213 91.76V91.5333H76.8813C76.4368 91.5333 76.0946 91.6311 75.8546 91.8267C75.6235 92.0133 75.5079 92.2756 75.5079 92.6133C75.5079 92.96 75.6324 93.2356 75.8813 93.44C76.139 93.6356 76.4813 93.7333 76.9079 93.7333ZM89.9869 98.36C88.9647 98.36 88.1113 98.1156 87.4269 97.6267C86.7513 97.1467 86.3558 96.5022 86.2402 95.6933H88.1069C88.1958 96.0667 88.4002 96.3556 88.7202 96.56C89.0491 96.7733 89.458 96.88 89.9469 96.88C90.5958 96.88 91.1024 96.6933 91.4669 96.32C91.8402 95.9467 92.0269 95.44 92.0269 94.8V93.6H91.9735C91.7602 94.0533 91.4535 94.4 91.0535 94.64C90.6624 94.88 90.2002 95 89.6669 95C89.0002 95 88.4091 94.8311 87.8935 94.4933C87.3869 94.1467 86.9913 93.6667 86.7069 93.0533C86.4224 92.44 86.2802 91.7289 86.2802 90.92C86.2802 90.1111 86.4224 89.4 86.7069 88.7867C86.9913 88.1733 87.3869 87.6978 87.8935 87.36C88.4091 87.0133 89.0002 86.84 89.6669 86.84C90.2091 86.84 90.6758 86.96 91.0669 87.2C91.4669 87.44 91.7691 87.7822 91.9735 88.2267H92.0269V87H93.7469V94.84C93.7469 95.9333 93.4091 96.7911 92.7335 97.4133C92.0669 98.0444 91.1513 98.36 89.9869 98.36ZM90.1202 93.4267C90.6891 93.4267 91.1424 93.2356 91.4802 92.8533C91.818 92.4711 91.9869 91.9644 91.9869 91.3333V90.4933C91.9869 89.8622 91.818 89.36 91.4802 88.9867C91.1424 88.6044 90.6891 88.4133 90.1202 88.4133C89.4891 88.4133 88.9824 88.64 88.6002 89.0933C88.2269 89.5467 88.0402 90.1556 88.0402 90.92C88.0402 91.6844 88.2269 92.2933 88.6002 92.7467C88.9824 93.2 89.4891 93.4267 90.1202 93.4267ZM99.3927 95.16C98.6549 95.16 97.9927 94.9911 97.406 94.6533C96.8283 94.3067 96.3705 93.8222 96.0327 93.2C95.7038 92.5778 95.5394 91.8444 95.5394 91C95.5394 90.1467 95.7038 89.4089 96.0327 88.7867C96.3705 88.1644 96.8283 87.6844 97.406 87.3467C97.9927 87.0089 98.6549 86.84 99.3927 86.84C100.148 86.84 100.815 87.0089 101.393 87.3467C101.97 87.6844 102.424 88.1644 102.753 88.7867C103.082 89.4089 103.246 90.1467 103.246 91C103.246 91.8444 103.082 92.5822 102.753 93.2133C102.424 93.8356 101.966 94.3156 101.379 94.6533C100.802 94.9911 100.139 95.16 99.3927 95.16ZM99.3927 93.5867C100.033 93.5867 100.539 93.3511 100.913 92.88C101.295 92.4089 101.486 91.7822 101.486 91C101.486 90.2089 101.295 89.5822 100.913 89.12C100.539 88.6489 100.033 88.4133 99.3927 88.4133C98.7705 88.4133 98.2638 88.6489 97.8727 89.12C97.4905 89.5822 97.2994 90.2089 97.2994 91C97.2994 91.7822 97.4905 92.4089 97.8727 92.88C98.2638 93.3511 98.7705 93.5867 99.3927 93.5867ZM108.455 95.16C107.717 95.16 107.055 94.9911 106.469 94.6533C105.891 94.3067 105.433 93.8222 105.095 93.2C104.766 92.5778 104.602 91.8444 104.602 91C104.602 90.1467 104.766 89.4089 105.095 88.7867C105.433 88.1644 105.891 87.6844 106.469 87.3467C107.055 87.0089 107.717 86.84 108.455 86.84C109.211 86.84 109.877 87.0089 110.455 87.3467C111.033 87.6844 111.486 88.1644 111.815 88.7867C112.144 89.4089 112.309 90.1467 112.309 91C112.309 91.8444 112.144 92.5822 111.815 93.2133C111.486 93.8356 111.029 94.3156 110.442 94.6533C109.864 94.9911 109.202 95.16 108.455 95.16ZM108.455 93.5867C109.095 93.5867 109.602 93.3511 109.975 92.88C110.357 92.4089 110.549 91.7822 110.549 91C110.549 90.2089 110.357 89.5822 109.975 89.12C109.602 88.6489 109.095 88.4133 108.455 88.4133C107.833 88.4133 107.326 88.6489 106.935 89.12C106.553 89.5822 106.362 90.2089 106.362 91C106.362 91.7822 106.553 92.4089 106.935 92.88C107.326 93.3511 107.833 93.5867 108.455 93.5867ZM116.984 95.16C116.318 95.16 115.735 94.9867 115.238 94.64C114.74 94.2933 114.353 93.8089 114.078 93.1867C113.802 92.5556 113.664 91.8267 113.664 91C113.664 90.1644 113.802 89.4356 114.078 88.8133C114.353 88.1911 114.74 87.7067 115.238 87.36C115.735 87.0133 116.318 86.84 116.984 86.84C118.095 86.84 118.873 87.2933 119.318 88.2H119.371V83.8H121.131V95H119.411V93.76H119.358C118.895 94.6933 118.104 95.16 116.984 95.16ZM117.451 93.6C118.055 93.6 118.527 93.4089 118.864 93.0267C119.202 92.6356 119.371 92.12 119.371 91.48V90.52C119.371 89.88 119.202 89.3689 118.864 88.9867C118.527 88.5956 118.055 88.4 117.451 88.4C116.838 88.4 116.344 88.6356 115.971 89.1067C115.607 89.5778 115.424 90.2089 115.424 91C115.424 91.7911 115.607 92.4222 115.971 92.8933C116.344 93.3644 116.838 93.6 117.451 93.6ZM24.5333 111.16C23.7956 111.16 23.1333 110.991 22.5467 110.653C21.9689 110.307 21.5111 109.822 21.1733 109.2C20.8444 108.578 20.68 107.844 20.68 107C20.68 106.147 20.8444 105.409 21.1733 104.787C21.5111 104.164 21.9689 103.684 22.5467 103.347C23.1333 103.009 23.7956 102.84 24.5333 102.84C25.2889 102.84 25.9556 103.009 26.5333 103.347C27.1111 103.684 27.5644 104.164 27.8933 104.787C28.2222 105.409 28.3867 106.147 28.3867 107C28.3867 107.844 28.2222 108.582 27.8933 109.213C27.5644 109.836 27.1067 110.316 26.52 110.653C25.9422 110.991 25.28 111.16 24.5333 111.16ZM24.5333 109.587C25.1733 109.587 25.68 109.351 26.0533 108.88C26.4356 108.409 26.6267 107.782 26.6267 107C26.6267 106.209 26.4356 105.582 26.0533 105.12C25.68 104.649 25.1733 104.413 24.5333 104.413C23.9111 104.413 23.4044 104.649 23.0133 105.12C22.6311 105.582 22.44 106.209 22.44 107C22.44 107.782 22.6311 108.409 23.0133 108.88C23.4044 109.351 23.9111 109.587 24.5333 109.587ZM30.1825 114.2V103H31.9025V104.24H31.9558C32.4181 103.307 33.2092 102.84 34.3292 102.84C34.9958 102.84 35.5781 103.013 36.0758 103.36C36.5736 103.707 36.9603 104.191 37.2358 104.813C37.5114 105.436 37.6492 106.164 37.6492 107C37.6492 107.827 37.5114 108.556 37.2358 109.187C36.9603 109.809 36.5736 110.293 36.0758 110.64C35.5781 110.987 34.9958 111.16 34.3292 111.16C33.2181 111.16 32.4403 110.707 31.9958 109.8H31.9425V114.2H30.1825ZM33.8492 109.6C34.4803 109.6 34.9781 109.364 35.3425 108.893C35.7069 108.422 35.8892 107.791 35.8892 107C35.8892 106.209 35.7069 105.578 35.3425 105.107C34.9781 104.636 34.4803 104.4 33.8492 104.4C33.2536 104.4 32.7869 104.596 32.4492 104.987C32.1114 105.369 31.9425 105.88 31.9425 106.52V107.48C31.9425 108.12 32.1114 108.631 32.4492 109.013C32.7869 109.396 33.2536 109.591 33.8492 109.6ZM39.4481 114.2V103H41.1681V104.24H41.2215C41.6837 103.307 42.4748 102.84 43.5948 102.84C44.2615 102.84 44.8437 103.013 45.3415 103.36C45.8392 103.707 46.2259 104.191 46.5015 104.813C46.777 105.436 46.9148 106.164 46.9148 107C46.9148 107.827 46.777 108.556 46.5015 109.187C46.2259 109.809 45.8392 110.293 45.3415 110.64C44.8437 110.987 44.2615 111.16 43.5948 111.16C42.4837 111.16 41.7059 110.707 41.2615 109.8H41.2081V114.2H39.4481ZM43.1148 109.6C43.7459 109.6 44.2437 109.364 44.6081 108.893C44.9726 108.422 45.1548 107.791 45.1548 107C45.1548 106.209 44.9726 105.578 44.6081 105.107C44.2437 104.636 43.7459 104.4 43.1148 104.4C42.5192 104.4 42.0526 104.596 41.7148 104.987C41.377 105.369 41.2081 105.88 41.2081 106.52V107.48C41.2081 108.12 41.377 108.631 41.7148 109.013C42.0526 109.396 42.5192 109.591 43.1148 109.6ZM52.1271 111.16C51.3893 111.16 50.7271 110.991 50.1404 110.653C49.5626 110.307 49.1049 109.822 48.7671 109.2C48.4382 108.578 48.2738 107.844 48.2738 107C48.2738 106.147 48.4382 105.409 48.7671 104.787C49.1049 104.164 49.5626 103.684 50.1404 103.347C50.7271 103.009 51.3893 102.84 52.1271 102.84C52.8826 102.84 53.5493 103.009 54.1271 103.347C54.7049 103.684 55.1582 104.164 55.4871 104.787C55.816 105.409 55.9804 106.147 55.9804 107C55.9804 107.844 55.816 108.582 55.4871 109.213C55.1582 109.836 54.7004 110.316 54.1137 110.653C53.536 110.991 52.8738 111.16 52.1271 111.16ZM52.1271 109.587C52.7671 109.587 53.2737 109.351 53.6471 108.88C54.0293 108.409 54.2204 107.782 54.2204 107C54.2204 106.209 54.0293 105.582 53.6471 105.12C53.2737 104.649 52.7671 104.413 52.1271 104.413C51.5049 104.413 50.9982 104.649 50.6071 105.12C50.2249 105.582 50.0338 106.209 50.0338 107C50.0338 107.782 50.2249 108.409 50.6071 108.88C50.9982 109.351 51.5049 109.587 52.1271 109.587ZM57.9096 111V103H59.6029V104.48H59.6562C59.834 104.009 60.114 103.631 60.4963 103.347C60.8785 103.062 61.3407 102.92 61.8829 102.92H62.5096V104.48H61.8029C61.0918 104.48 60.5585 104.698 60.2029 105.133C59.8474 105.569 59.6696 106.151 59.6696 106.88V111H57.9096ZM65.9596 111C65.4885 111 65.1196 110.876 64.8529 110.627C64.5863 110.378 64.4529 110 64.4529 109.493V104.413H63.1463V103H64.4663V100.6H66.1996V103H67.9862V104.413H66.2129V109.587H68.1596V111H65.9596ZM72.4733 111.147C71.8956 111.147 71.3889 111.013 70.9533 110.747C70.5178 110.471 70.1756 110.093 69.9267 109.613C69.6867 109.124 69.5667 108.56 69.5667 107.92V103H71.3267V107.56C71.3267 108.182 71.4778 108.671 71.78 109.027C72.0822 109.373 72.5089 109.547 73.06 109.547C73.6289 109.547 74.0822 109.364 74.42 109C74.7667 108.627 74.94 108.133 74.94 107.52V103H76.7V111H74.98V109.68H74.9267C74.7044 110.151 74.3844 110.516 73.9667 110.773C73.5489 111.022 73.0511 111.147 72.4733 111.147ZM78.9325 111V103H80.6525V104.24H80.7058C80.9369 103.796 81.2569 103.453 81.6658 103.213C82.0836 102.973 82.5681 102.853 83.1192 102.853C83.7058 102.853 84.2169 102.996 84.6525 103.28C85.0969 103.556 85.4436 103.942 85.6925 104.44C85.9414 104.938 86.0658 105.511 86.0658 106.16V111H84.3058V106.48C84.3058 105.849 84.1458 105.356 83.8258 105C83.5147 104.636 83.0747 104.453 82.5058 104.453C81.9369 104.453 81.4925 104.636 81.1725 105C80.8525 105.356 80.6925 105.849 80.6925 106.48V111H78.9325ZM88.2717 111V103H90.0317V111H88.2717ZM89.1517 102.04C88.8672 102.04 88.6228 101.942 88.4183 101.747C88.2139 101.542 88.1117 101.293 88.1117 101C88.1117 100.716 88.2094 100.471 88.405 100.267C88.6094 100.062 88.8583 99.96 89.1517 99.96C89.4361 99.96 89.6806 100.062 89.885 100.267C90.0894 100.462 90.1917 100.707 90.1917 101C90.1917 101.284 90.0894 101.529 89.885 101.733C89.6894 101.938 89.445 102.04 89.1517 102.04ZM94.2252 111C93.7541 111 93.3852 110.876 93.1185 110.627C92.8519 110.378 92.7185 110 92.7185 109.493V104.413H91.4119V103H92.7319V100.6H94.4652V103H96.2519V104.413H94.4785V109.587H96.4252V111H94.2252ZM97.4867 114.2V112.787H99.2467L99.9 111.027L96.58 103H98.4067L100.78 108.867H100.833L102.873 103H104.647L101.66 111L101.007 112.72C100.829 113.209 100.62 113.578 100.38 113.827C100.149 114.076 99.7889 114.2 99.3 114.2H97.4867ZM111.663 111C111.192 111 110.823 110.876 110.556 110.627C110.289 110.378 110.156 110 110.156 109.493V104.413H108.849V103H110.169V100.6H111.903V103H113.689V104.413H111.916V109.587H113.863V111H111.663ZM118.736 111.16C117.999 111.16 117.336 110.991 116.75 110.653C116.172 110.307 115.714 109.822 115.376 109.2C115.048 108.578 114.883 107.844 114.883 107C114.883 106.147 115.048 105.409 115.376 104.787C115.714 104.164 116.172 103.684 116.75 103.347C117.336 103.009 117.999 102.84 118.736 102.84C119.492 102.84 120.159 103.009 120.736 103.347C121.314 103.684 121.768 104.164 122.096 104.787C122.425 105.409 122.59 106.147 122.59 107C122.59 107.844 122.425 108.582 122.096 109.213C121.768 109.836 121.31 110.316 120.723 110.653C120.145 110.991 119.483 111.16 118.736 111.16ZM118.736 109.587C119.376 109.587 119.883 109.351 120.256 108.88C120.639 108.409 120.83 107.782 120.83 107C120.83 106.209 120.639 105.582 120.256 105.12C119.883 104.649 119.376 104.413 118.736 104.413C118.114 104.413 117.608 104.649 117.216 105.12C116.834 105.582 116.643 106.209 116.643 107C116.643 107.782 116.834 108.409 117.216 108.88C117.608 109.351 118.114 109.587 118.736 109.587ZM128.287 111V99.8H130.047V111H128.287ZM135.694 111.16C134.948 111.16 134.285 110.991 133.707 110.653C133.139 110.307 132.69 109.822 132.361 109.2C132.032 108.569 131.868 107.827 131.868 106.973C131.868 106.129 132.028 105.4 132.348 104.787C132.668 104.164 133.107 103.684 133.668 103.347C134.236 103.009 134.885 102.84 135.614 102.84C136.29 102.84 136.894 102.996 137.428 103.307C137.97 103.609 138.396 104.049 138.707 104.627C139.019 105.204 139.174 105.898 139.174 106.707V107.4H133.574C133.636 108.111 133.854 108.671 134.227 109.08C134.61 109.48 135.094 109.68 135.681 109.68C136.108 109.68 136.468 109.578 136.761 109.373C137.063 109.16 137.263 108.871 137.361 108.507H139.161C139.054 109.058 138.836 109.533 138.508 109.933C138.179 110.324 137.774 110.627 137.294 110.84C136.814 111.053 136.281 111.16 135.694 111.16ZM133.628 106.133H137.468C137.396 105.547 137.192 105.098 136.854 104.787C136.525 104.467 136.112 104.307 135.614 104.307C135.108 104.307 134.676 104.467 134.321 104.787C133.974 105.107 133.743 105.556 133.628 106.133ZM143.113 111.147C142.313 111.147 141.664 110.92 141.166 110.467C140.668 110.013 140.419 109.422 140.419 108.693C140.419 107.929 140.673 107.338 141.179 106.92C141.695 106.493 142.419 106.28 143.353 106.28H145.499V105.907C145.499 105.4 145.357 105.009 145.073 104.733C144.797 104.449 144.41 104.307 143.913 104.307C143.495 104.307 143.148 104.404 142.873 104.6C142.597 104.787 142.419 105.058 142.339 105.413H140.553C140.695 104.604 141.064 103.973 141.659 103.52C142.264 103.067 143.019 102.84 143.926 102.84C144.948 102.84 145.744 103.111 146.313 103.653C146.89 104.187 147.179 104.947 147.179 105.933V111H145.539V109.733H145.486C145.273 110.178 144.957 110.524 144.539 110.773C144.122 111.022 143.646 111.147 143.113 111.147ZM143.486 109.733C143.868 109.733 144.21 109.649 144.513 109.48C144.815 109.302 145.055 109.067 145.233 108.773C145.41 108.471 145.499 108.133 145.499 107.76V107.533H143.459C143.015 107.533 142.673 107.631 142.433 107.827C142.202 108.013 142.086 108.276 142.086 108.613C142.086 108.96 142.21 109.236 142.459 109.44C142.717 109.636 143.059 109.733 143.486 109.733ZM149.503 111V103H151.197V104.48H151.25C151.428 104.009 151.708 103.631 152.09 103.347C152.472 103.062 152.934 102.92 153.477 102.92H154.103V104.48H153.397C152.686 104.48 152.152 104.698 151.797 105.133C151.441 105.569 151.263 106.151 151.263 106.88V111H149.503ZM155.62 111V103H157.34V104.24H157.393C157.624 103.796 157.944 103.453 158.353 103.213C158.771 102.973 159.256 102.853 159.807 102.853C160.393 102.853 160.904 102.996 161.34 103.28C161.784 103.556 162.131 103.942 162.38 104.44C162.629 104.938 162.753 105.511 162.753 106.16V111H160.993V106.48C160.993 105.849 160.833 105.356 160.513 105C160.202 104.636 159.762 104.453 159.193 104.453C158.624 104.453 158.18 104.636 157.86 105C157.54 105.356 157.38 105.849 157.38 106.48V111H155.62ZM168.808 111V99.8H170.568V104.133H170.621C170.852 103.733 171.172 103.418 171.581 103.187C171.99 102.956 172.465 102.84 173.008 102.84C173.585 102.84 174.092 102.982 174.528 103.267C174.972 103.542 175.319 103.929 175.568 104.427C175.816 104.924 175.941 105.498 175.941 106.147V111H174.181V106.453C174.181 105.813 174.021 105.32 173.701 104.973C173.39 104.618 172.95 104.44 172.381 104.44C171.812 104.44 171.368 104.618 171.048 104.973C170.728 105.32 170.568 105.813 170.568 106.453V111H168.808ZM181.533 111.16C180.796 111.16 180.133 110.991 179.547 110.653C178.969 110.307 178.511 109.822 178.173 109.2C177.844 108.578 177.68 107.844 177.68 107C177.68 106.147 177.844 105.409 178.173 104.787C178.511 104.164 178.969 103.684 179.547 103.347C180.133 103.009 180.796 102.84 181.533 102.84C182.289 102.84 182.956 103.009 183.533 103.347C184.111 103.684 184.564 104.164 184.893 104.787C185.222 105.409 185.387 106.147 185.387 107C185.387 107.844 185.222 108.582 184.893 109.213C184.564 109.836 184.107 110.316 183.52 110.653C182.942 110.991 182.28 111.16 181.533 111.16ZM181.533 109.587C182.173 109.587 182.68 109.351 183.053 108.88C183.436 108.409 183.627 107.782 183.627 107C183.627 106.209 183.436 105.582 183.053 105.12C182.68 104.649 182.173 104.413 181.533 104.413C180.911 104.413 180.404 104.649 180.013 105.12C179.631 105.582 179.44 106.209 179.44 107C179.44 107.782 179.631 108.409 180.013 108.88C180.404 109.351 180.911 109.587 181.533 109.587ZM188.357 111L186.037 103H187.824L189.37 108.787H189.424L191.25 103H192.997L194.81 108.787H194.864L196.424 103H198.184L195.864 111H193.957L192.13 105.307H192.077L190.264 111H188.357ZM23.0533 127C22.5822 127 22.2133 126.876 21.9467 126.627C21.68 126.378 21.5467 126 21.5467 125.493V120.413H20.24V119H21.56V116.6H23.2933V119H25.08V120.413H23.3067V125.587H25.2533V127H23.0533ZM30.1271 127.16C29.3893 127.16 28.7271 126.991 28.1404 126.653C27.5626 126.307 27.1049 125.822 26.7671 125.2C26.4382 124.578 26.2738 123.844 26.2738 123C26.2738 122.147 26.4382 121.409 26.7671 120.787C27.1049 120.164 27.5626 119.684 28.1404 119.347C28.7271 119.009 29.3893 118.84 30.1271 118.84C30.8826 118.84 31.5493 119.009 32.1271 119.347C32.7049 119.684 33.1582 120.164 33.4871 120.787C33.816 121.409 33.9804 122.147 33.9804 123C33.9804 123.844 33.816 124.582 33.4871 125.213C33.1582 125.836 32.7004 126.316 32.1137 126.653C31.536 126.991 30.8738 127.16 30.1271 127.16ZM30.1271 125.587C30.7671 125.587 31.2737 125.351 31.6471 124.88C32.0293 124.409 32.2204 123.782 32.2204 123C32.2204 122.209 32.0293 121.582 31.6471 121.12C31.2737 120.649 30.7671 120.413 30.1271 120.413C29.5049 120.413 28.9982 120.649 28.6071 121.12C28.2249 121.582 28.0338 122.209 28.0338 123C28.0338 123.782 28.2249 124.409 28.6071 124.88C28.9982 125.351 29.5049 125.587 30.1271 125.587ZM43.0113 127.16C42.2824 127.16 41.629 126.991 41.0512 126.653C40.4824 126.307 40.0335 125.822 39.7046 125.2C39.3757 124.578 39.2113 123.844 39.2113 123C39.2113 122.147 39.3757 121.409 39.7046 120.787C40.0335 120.164 40.4824 119.684 41.0512 119.347C41.629 119.009 42.2824 118.84 43.0113 118.84C43.5979 118.84 44.1357 118.951 44.6246 119.173C45.1135 119.387 45.5224 119.707 45.8513 120.133C46.189 120.56 46.4157 121.093 46.5312 121.733H44.7179C44.5935 121.289 44.3801 120.96 44.0779 120.747C43.7757 120.524 43.4201 120.413 43.0113 120.413C42.4068 120.413 41.9135 120.649 41.5312 121.12C41.1579 121.582 40.9713 122.209 40.9713 123C40.9713 123.782 41.1579 124.409 41.5312 124.88C41.9135 125.351 42.4068 125.587 43.0113 125.587C43.4468 125.587 43.8201 125.471 44.1312 125.24C44.4512 125.009 44.669 124.64 44.7846 124.133H46.5579C46.4513 124.809 46.229 125.369 45.8913 125.813C45.5624 126.258 45.149 126.596 44.6513 126.827C44.1624 127.049 43.6157 127.16 43.0113 127.16ZM51.3927 127.16C50.6549 127.16 49.9927 126.991 49.406 126.653C48.8283 126.307 48.3705 125.822 48.0327 125.2C47.7038 124.578 47.5394 123.844 47.5394 123C47.5394 122.147 47.7038 121.409 48.0327 120.787C48.3705 120.164 48.8283 119.684 49.406 119.347C49.9927 119.009 50.6549 118.84 51.3927 118.84C52.1483 118.84 52.8149 119.009 53.3927 119.347C53.9705 119.684 54.4238 120.164 54.7527 120.787C55.0816 121.409 55.246 122.147 55.246 123C55.246 123.844 55.0816 124.582 54.7527 125.213C54.4238 125.836 53.966 126.316 53.3794 126.653C52.8016 126.991 52.1394 127.16 51.3927 127.16ZM51.3927 125.587C52.0327 125.587 52.5394 125.351 52.9127 124.88C53.2949 124.409 53.486 123.782 53.486 123C53.486 122.209 53.2949 121.582 52.9127 121.12C52.5394 120.649 52.0327 120.413 51.3927 120.413C50.7705 120.413 50.2638 120.649 49.8727 121.12C49.4905 121.582 49.2994 122.209 49.2994 123C49.2994 123.782 49.4905 124.409 49.8727 124.88C50.2638 125.351 50.7705 125.587 51.3927 125.587ZM57.0685 127V115.8H58.8285V127H57.0685ZM61.1154 127V115.8H62.8754V127H61.1154ZM67.269 127.147C66.469 127.147 65.8201 126.92 65.3223 126.467C64.8245 126.013 64.5756 125.422 64.5756 124.693C64.5756 123.929 64.829 123.338 65.3356 122.92C65.8512 122.493 66.5756 122.28 67.509 122.28H69.6556V121.907C69.6556 121.4 69.5134 121.009 69.229 120.733C68.9534 120.449 68.5667 120.307 68.069 120.307C67.6512 120.307 67.3045 120.404 67.029 120.6C66.7534 120.787 66.5756 121.058 66.4956 121.413H64.709C64.8512 120.604 65.2201 119.973 65.8156 119.52C66.4201 119.067 67.1756 118.84 68.0823 118.84C69.1045 118.84 69.9001 119.111 70.469 119.653C71.0467 120.187 71.3356 120.947 71.3356 121.933V127H69.6956V125.733H69.6423C69.429 126.178 69.1134 126.524 68.6956 126.773C68.2778 127.022 67.8023 127.147 67.269 127.147ZM67.6423 125.733C68.0245 125.733 68.3667 125.649 68.669 125.48C68.9712 125.302 69.2112 125.067 69.389 124.773C69.5667 124.471 69.6556 124.133 69.6556 123.76V123.533H67.6156C67.1712 123.533 66.829 123.631 66.589 123.827C66.3578 124.013 66.2423 124.276 66.2423 124.613C66.2423 124.96 66.3667 125.236 66.6156 125.44C66.8734 125.636 67.2156 125.733 67.6423 125.733ZM77.6729 127.16C76.5529 127.16 75.7618 126.693 75.2996 125.76H75.2463V127H73.5263V115.8H75.2863V120.2H75.3396C75.784 119.293 76.5618 118.84 77.6729 118.84C78.3396 118.84 78.9218 119.013 79.4196 119.36C79.9174 119.707 80.304 120.191 80.5796 120.813C80.8551 121.436 80.9929 122.164 80.9929 123C80.9929 123.827 80.8551 124.556 80.5796 125.187C80.304 125.809 79.9174 126.293 79.4196 126.64C78.9218 126.987 78.3396 127.16 77.6729 127.16ZM77.1929 125.6C77.824 125.6 78.3218 125.364 78.6863 124.893C79.0507 124.422 79.2329 123.791 79.2329 123C79.2329 122.209 79.0507 121.578 78.6863 121.107C78.3218 120.636 77.824 120.4 77.1929 120.4C76.5974 120.4 76.1307 120.596 75.7929 120.987C75.4551 121.369 75.2863 121.88 75.2863 122.52V123.48C75.2863 124.12 75.4551 124.636 75.7929 125.027C76.1307 125.409 76.5974 125.6 77.1929 125.6ZM86.2052 127.16C85.4674 127.16 84.8052 126.991 84.2185 126.653C83.6408 126.307 83.183 125.822 82.8452 125.2C82.5163 124.578 82.3519 123.844 82.3519 123C82.3519 122.147 82.5163 121.409 82.8452 120.787C83.183 120.164 83.6408 119.684 84.2185 119.347C84.8052 119.009 85.4674 118.84 86.2052 118.84C86.9608 118.84 87.6274 119.009 88.2052 119.347C88.783 119.684 89.2363 120.164 89.5652 120.787C89.8941 121.409 90.0585 122.147 90.0585 123C90.0585 123.844 89.8941 124.582 89.5652 125.213C89.2363 125.836 88.7785 126.316 88.1919 126.653C87.6141 126.991 86.9519 127.16 86.2052 127.16ZM86.2052 125.587C86.8452 125.587 87.3519 125.351 87.7252 124.88C88.1074 124.409 88.2985 123.782 88.2985 123C88.2985 122.209 88.1074 121.582 87.7252 121.12C87.3519 120.649 86.8452 120.413 86.2052 120.413C85.583 120.413 85.0763 120.649 84.6852 121.12C84.303 121.582 84.1119 122.209 84.1119 123C84.1119 123.782 84.303 124.409 84.6852 124.88C85.0763 125.351 85.583 125.587 86.2052 125.587ZM91.9877 127V119H93.681V120.48H93.7344C93.9122 120.009 94.1922 119.631 94.5744 119.347C94.9566 119.062 95.4188 118.92 95.961 118.92H96.5877V120.48H95.881C95.1699 120.48 94.6366 120.698 94.281 121.133C93.9255 121.569 93.7477 122.151 93.7477 122.88V127H91.9877ZM99.9721 127.147C99.1721 127.147 98.5232 126.92 98.0254 126.467C97.5276 126.013 97.2788 125.422 97.2788 124.693C97.2788 123.929 97.5321 123.338 98.0388 122.92C98.5543 122.493 99.2788 122.28 100.212 122.28H102.359V121.907C102.359 121.4 102.217 121.009 101.932 120.733C101.657 120.449 101.27 120.307 100.772 120.307C100.354 120.307 100.008 120.404 99.7321 120.6C99.4565 120.787 99.2788 121.058 99.1988 121.413H97.4121C97.5543 120.604 97.9232 119.973 98.5188 119.52C99.1232 119.067 99.8788 118.84 100.785 118.84C101.808 118.84 102.603 119.111 103.172 119.653C103.75 120.187 104.039 120.947 104.039 121.933V127H102.399V125.733H102.345C102.132 126.178 101.817 126.524 101.399 126.773C100.981 127.022 100.505 127.147 99.9721 127.147ZM100.345 125.733C100.728 125.733 101.07 125.649 101.372 125.48C101.674 125.302 101.914 125.067 102.092 124.773C102.27 124.471 102.359 124.133 102.359 123.76V123.533H100.319C99.8743 123.533 99.5321 123.631 99.2921 123.827C99.061 124.013 98.9454 124.276 98.9454 124.613C98.9454 124.96 99.0699 125.236 99.3188 125.44C99.5765 125.636 99.9188 125.733 100.345 125.733ZM108.163 127C107.692 127 107.323 126.876 107.056 126.627C106.789 126.378 106.656 126 106.656 125.493V120.413H105.349V119H106.669V116.6H108.403V119H110.189V120.413H108.416V125.587H110.363V127H108.163ZM115.21 127.16C114.463 127.16 113.801 126.991 113.223 126.653C112.654 126.307 112.205 125.822 111.876 125.2C111.548 124.569 111.383 123.827 111.383 122.973C111.383 122.129 111.543 121.4 111.863 120.787C112.183 120.164 112.623 119.684 113.183 119.347C113.752 119.009 114.401 118.84 115.13 118.84C115.805 118.84 116.41 118.996 116.943 119.307C117.485 119.609 117.912 120.049 118.223 120.627C118.534 121.204 118.69 121.898 118.69 122.707V123.4H113.09C113.152 124.111 113.37 124.671 113.743 125.08C114.125 125.48 114.61 125.68 115.196 125.68C115.623 125.68 115.983 125.578 116.276 125.373C116.579 125.16 116.779 124.871 116.876 124.507H118.676C118.57 125.058 118.352 125.533 118.023 125.933C117.694 126.324 117.29 126.627 116.81 126.84C116.33 127.053 115.796 127.16 115.21 127.16ZM113.143 122.133H116.983C116.912 121.547 116.708 121.098 116.37 120.787C116.041 120.467 115.628 120.307 115.13 120.307C114.623 120.307 114.192 120.467 113.836 120.787C113.49 121.107 113.259 121.556 113.143 122.133ZM125.81 127L123.49 119H125.277L126.823 124.787H126.877L128.703 119H130.45L132.263 124.787H132.317L133.877 119H135.637L133.317 127H131.41L129.583 121.307H129.53L127.717 127H125.81ZM137.022 127V119H138.782V127H137.022ZM137.902 118.04C137.617 118.04 137.373 117.942 137.168 117.747C136.964 117.542 136.862 117.293 136.862 117C136.862 116.716 136.959 116.471 137.155 116.267C137.359 116.062 137.608 115.96 137.902 115.96C138.186 115.96 138.431 116.062 138.635 116.267C138.839 116.462 138.942 116.707 138.942 117C138.942 117.284 138.839 117.529 138.635 117.733C138.439 117.938 138.195 118.04 137.902 118.04ZM142.975 127C142.504 127 142.135 126.876 141.869 126.627C141.602 126.378 141.469 126 141.469 125.493V120.413H140.162V119H141.482V116.6H143.215V119H145.002V120.413H143.229V125.587H145.175V127H142.975ZM146.636 127V115.8H148.396V120.133H148.449C148.68 119.733 149 119.418 149.409 119.187C149.818 118.956 150.293 118.84 150.836 118.84C151.413 118.84 151.92 118.982 152.356 119.267C152.8 119.542 153.147 119.929 153.396 120.427C153.645 120.924 153.769 121.498 153.769 122.147V127H152.009V122.453C152.009 121.813 151.849 121.32 151.529 120.973C151.218 120.618 150.778 120.44 150.209 120.44C149.64 120.44 149.196 120.618 148.876 120.973C148.556 121.32 148.396 121.813 148.396 122.453V127H146.636ZM24 143.16C23.3333 143.16 22.7511 142.987 22.2533 142.64C21.7556 142.293 21.3689 141.809 21.0933 141.187C20.8178 140.556 20.68 139.827 20.68 139C20.68 138.164 20.8178 137.436 21.0933 136.813C21.3689 136.191 21.7556 135.707 22.2533 135.36C22.7511 135.013 23.3333 134.84 24 134.84C25.1111 134.84 25.8889 135.293 26.3333 136.2H26.3867V131.8H28.1467V143H26.4267V141.76H26.3733C25.9111 142.693 25.12 143.16 24 143.16ZM24.4667 141.6C25.0711 141.6 25.5422 141.409 25.88 141.027C26.2178 140.636 26.3867 140.12 26.3867 139.48V138.52C26.3867 137.88 26.2178 137.369 25.88 136.987C25.5422 136.596 25.0711 136.4 24.4667 136.4C23.8533 136.4 23.36 136.636 22.9867 137.107C22.6222 137.578 22.44 138.209 22.44 139C22.44 139.791 22.6222 140.422 22.9867 140.893C23.36 141.364 23.8533 141.6 24.4667 141.6ZM30.4123 143V135H32.1723V143H30.4123ZM31.2923 134.04C31.0078 134.04 30.7634 133.942 30.559 133.747C30.3545 133.542 30.2523 133.293 30.2523 133C30.2523 132.716 30.3501 132.471 30.5456 132.267C30.7501 132.062 30.999 131.96 31.2923 131.96C31.5767 131.96 31.8212 132.062 32.0256 132.267C32.2301 132.462 32.3323 132.707 32.3323 133C32.3323 133.284 32.2301 133.529 32.0256 133.733C31.8301 133.938 31.5856 134.04 31.2923 134.04ZM34.9258 143V136.413H33.5525V135H34.9525V133.333C34.9525 132.818 35.0858 132.436 35.3525 132.187C35.6192 131.929 35.9969 131.8 36.4858 131.8H38.5525V133.213H36.6725V135H40.2592V133.333C40.2592 132.818 40.3925 132.436 40.6592 132.187C40.9347 131.929 41.3169 131.8 41.8058 131.8H43.8592V133.213H41.9925V135H43.6992V136.413H42.0058V143H40.2458V136.413H36.6858V143H34.9258ZM48.4442 143.16C47.6975 143.16 47.0353 142.991 46.4575 142.653C45.8886 142.307 45.4397 141.822 45.1108 141.2C44.7819 140.569 44.6175 139.827 44.6175 138.973C44.6175 138.129 44.7775 137.4 45.0975 136.787C45.4175 136.164 45.8575 135.684 46.4175 135.347C46.9864 135.009 47.6353 134.84 48.3642 134.84C49.0397 134.84 49.6442 134.996 50.1775 135.307C50.7197 135.609 51.1464 136.049 51.4575 136.627C51.7686 137.204 51.9242 137.898 51.9242 138.707V139.4H46.3242C46.3864 140.111 46.6042 140.671 46.9775 141.08C47.3597 141.48 47.8442 141.68 48.4308 141.68C48.8575 141.68 49.2175 141.578 49.5108 141.373C49.8131 141.16 50.0131 140.871 50.1108 140.507H51.9108C51.8042 141.058 51.5864 141.533 51.2575 141.933C50.9286 142.324 50.5242 142.627 50.0442 142.84C49.5642 143.053 49.0308 143.16 48.4442 143.16ZM46.3775 138.133H50.2175C50.1464 137.547 49.9419 137.098 49.6042 136.787C49.2753 136.467 48.8619 136.307 48.3642 136.307C47.8575 136.307 47.4264 136.467 47.0708 136.787C46.7242 137.107 46.4931 137.556 46.3775 138.133ZM53.8627 143V135H55.556V136.48H55.6094C55.7872 136.009 56.0672 135.631 56.4494 135.347C56.8316 135.062 57.2938 134.92 57.836 134.92H58.4627V136.48H57.756C57.0449 136.48 56.5116 136.698 56.156 137.133C55.8005 137.569 55.6227 138.151 55.6227 138.88V143H53.8627ZM62.9598 143.16C62.2131 143.16 61.5509 142.991 60.9731 142.653C60.4042 142.307 59.9553 141.822 59.6265 141.2C59.2976 140.569 59.1331 139.827 59.1331 138.973C59.1331 138.129 59.2931 137.4 59.6131 136.787C59.9331 136.164 60.3731 135.684 60.9331 135.347C61.502 135.009 62.1509 134.84 62.8798 134.84C63.5553 134.84 64.1598 134.996 64.6931 135.307C65.2353 135.609 65.662 136.049 65.9731 136.627C66.2842 137.204 66.4398 137.898 66.4398 138.707V139.4H60.8398C60.902 140.111 61.1198 140.671 61.4931 141.08C61.8753 141.48 62.3598 141.68 62.9465 141.68C63.3731 141.68 63.7331 141.578 64.0265 141.373C64.3287 141.16 64.5287 140.871 64.6265 140.507H66.4265C66.3198 141.058 66.102 141.533 65.7731 141.933C65.4442 142.324 65.0398 142.627 64.5598 142.84C64.0798 143.053 63.5465 143.16 62.9598 143.16ZM60.8931 138.133H64.7331C64.662 137.547 64.4576 137.098 64.1198 136.787C63.7909 136.467 63.3776 136.307 62.8798 136.307C62.3731 136.307 61.942 136.467 61.5865 136.787C61.2398 137.107 61.0087 137.556 60.8931 138.133ZM68.245 143V135H69.965V136.24H70.0183C70.2494 135.796 70.5694 135.453 70.9783 135.213C71.3961 134.973 71.8806 134.853 72.4317 134.853C73.0183 134.853 73.5294 134.996 73.965 135.28C74.4094 135.556 74.7561 135.942 75.005 136.44C75.2539 136.938 75.3783 137.511 75.3783 138.16V143H73.6183V138.48C73.6183 137.849 73.4583 137.356 73.1383 137C72.8272 136.636 72.3872 136.453 71.8183 136.453C71.2494 136.453 70.805 136.636 70.485 137C70.165 137.356 70.005 137.849 70.005 138.48V143H68.245ZM79.4908 143C79.0197 143 78.6508 142.876 78.3842 142.627C78.1175 142.378 77.9842 142 77.9842 141.493V136.413H76.6775V135H77.9975V132.6H79.7308V135H81.5175V136.413H79.7442V141.587H81.6908V143H79.4908ZM87.1596 143V135H88.8529V136.48H88.9062C89.084 136.009 89.364 135.631 89.7463 135.347C90.1285 135.062 90.5907 134.92 91.1329 134.92H91.7596V136.48H91.0529C90.3418 136.48 89.8085 136.698 89.4529 137.133C89.0974 137.569 88.9196 138.151 88.9196 138.88V143H87.1596ZM96.2833 143.16C95.5456 143.16 94.8833 142.991 94.2967 142.653C93.7189 142.307 93.2611 141.822 92.9233 141.2C92.5944 140.578 92.43 139.844 92.43 139C92.43 138.147 92.5944 137.409 92.9233 136.787C93.2611 136.164 93.7189 135.684 94.2967 135.347C94.8833 135.009 95.5456 134.84 96.2833 134.84C97.0389 134.84 97.7056 135.009 98.2833 135.347C98.8611 135.684 99.3144 136.164 99.6433 136.787C99.9722 137.409 100.137 138.147 100.137 139C100.137 139.844 99.9722 140.582 99.6433 141.213C99.3144 141.836 98.8567 142.316 98.27 142.653C97.6922 142.991 97.03 143.16 96.2833 143.16ZM96.2833 141.587C96.9233 141.587 97.43 141.351 97.8033 140.88C98.1856 140.409 98.3767 139.782 98.3767 139C98.3767 138.209 98.1856 137.582 97.8033 137.12C97.43 136.649 96.9233 136.413 96.2833 136.413C95.6611 136.413 95.1544 136.649 94.7633 137.12C94.3811 137.582 94.19 138.209 94.19 139C94.19 139.782 94.3811 140.409 94.7633 140.88C95.1544 141.351 95.6611 141.587 96.2833 141.587ZM101.959 143V131.8H103.719V143H101.959ZM109.366 143.16C108.619 143.16 107.957 142.991 107.379 142.653C106.81 142.307 106.362 141.822 106.033 141.2C105.704 140.569 105.539 139.827 105.539 138.973C105.539 138.129 105.699 137.4 106.019 136.787C106.339 136.164 106.779 135.684 107.339 135.347C107.908 135.009 108.557 134.84 109.286 134.84C109.962 134.84 110.566 134.996 111.099 135.307C111.642 135.609 112.068 136.049 112.379 136.627C112.69 137.204 112.846 137.898 112.846 138.707V139.4H107.246C107.308 140.111 107.526 140.671 107.899 141.08C108.282 141.48 108.766 141.68 109.353 141.68C109.779 141.68 110.139 141.578 110.433 141.373C110.735 141.16 110.935 140.871 111.033 140.507H112.833C112.726 141.058 112.508 141.533 112.179 141.933C111.85 142.324 111.446 142.627 110.966 142.84C110.486 143.053 109.953 143.16 109.366 143.16ZM107.299 138.133H111.139C111.068 137.547 110.864 137.098 110.526 136.787C110.197 136.467 109.784 136.307 109.286 136.307C108.779 136.307 108.348 136.467 107.993 136.787C107.646 137.107 107.415 137.556 107.299 138.133ZM117.585 143.16C116.598 143.16 115.793 142.916 115.171 142.427C114.558 141.938 114.225 141.28 114.171 140.453H115.878C115.94 140.871 116.122 141.191 116.425 141.413C116.736 141.636 117.145 141.747 117.651 141.747C118.105 141.747 118.447 141.662 118.678 141.493C118.918 141.316 119.038 141.062 119.038 140.733C119.038 140.244 118.7 139.929 118.025 139.787L116.625 139.48C115.158 139.169 114.425 138.444 114.425 137.307C114.425 136.569 114.7 135.973 115.251 135.52C115.811 135.067 116.54 134.84 117.438 134.84C118.336 134.84 119.073 135.076 119.651 135.547C120.229 136.009 120.545 136.631 120.598 137.413H118.905C118.825 137.031 118.651 136.738 118.385 136.533C118.118 136.32 117.771 136.213 117.345 136.213C116.962 136.213 116.656 136.298 116.425 136.467C116.193 136.627 116.078 136.853 116.078 137.147C116.078 137.378 116.153 137.564 116.305 137.707C116.465 137.84 116.709 137.942 117.038 138.013L118.478 138.32C119.207 138.48 119.753 138.747 120.118 139.12C120.491 139.484 120.678 139.978 120.678 140.6C120.678 141.382 120.402 142.004 119.851 142.467C119.3 142.929 118.545 143.16 117.585 143.16ZM128.378 143.147C127.578 143.147 126.929 142.92 126.432 142.467C125.934 142.013 125.685 141.422 125.685 140.693C125.685 139.929 125.938 139.338 126.445 138.92C126.961 138.493 127.685 138.28 128.618 138.28H130.765V137.907C130.765 137.4 130.623 137.009 130.338 136.733C130.063 136.449 129.676 136.307 129.178 136.307C128.761 136.307 128.414 136.404 128.138 136.6C127.863 136.787 127.685 137.058 127.605 137.413H125.818C125.961 136.604 126.329 135.973 126.925 135.52C127.529 135.067 128.285 134.84 129.192 134.84C130.214 134.84 131.009 135.111 131.578 135.653C132.156 136.187 132.445 136.947 132.445 137.933V143H130.805V141.733H130.752C130.538 142.178 130.223 142.524 129.805 142.773C129.387 143.022 128.912 143.147 128.378 143.147ZM128.752 141.733C129.134 141.733 129.476 141.649 129.778 141.48C130.081 141.302 130.321 141.067 130.498 140.773C130.676 140.471 130.765 140.133 130.765 139.76V139.533H128.725C128.281 139.533 127.938 139.631 127.698 139.827C127.467 140.013 127.352 140.276 127.352 140.613C127.352 140.96 127.476 141.236 127.725 141.44C127.983 141.636 128.325 141.733 128.752 141.733ZM134.636 143V135H136.356V136.24H136.409C136.64 135.796 136.96 135.453 137.369 135.213C137.787 134.973 138.271 134.853 138.822 134.853C139.409 134.853 139.92 134.996 140.356 135.28C140.8 135.556 141.147 135.942 141.396 136.44C141.645 136.938 141.769 137.511 141.769 138.16V143H140.009V138.48C140.009 137.849 139.849 137.356 139.529 137C139.218 136.636 138.778 136.453 138.209 136.453C137.64 136.453 137.196 136.636 136.876 137C136.556 137.356 136.396 137.849 136.396 138.48V143H134.636ZM146.828 143.16C146.161 143.16 145.579 142.987 145.081 142.64C144.584 142.293 144.197 141.809 143.921 141.187C143.646 140.556 143.508 139.827 143.508 139C143.508 138.164 143.646 137.436 143.921 136.813C144.197 136.191 144.584 135.707 145.081 135.36C145.579 135.013 146.161 134.84 146.828 134.84C147.939 134.84 148.717 135.293 149.161 136.2H149.215V131.8H150.975V143H149.255V141.76H149.201C148.739 142.693 147.948 143.16 146.828 143.16ZM147.295 141.6C147.899 141.6 148.37 141.409 148.708 141.027C149.046 140.636 149.215 140.12 149.215 139.48V138.52C149.215 137.88 149.046 137.369 148.708 136.987C148.37 136.596 147.899 136.4 147.295 136.4C146.681 136.4 146.188 136.636 145.815 137.107C145.45 137.578 145.268 138.209 145.268 139C145.268 139.791 145.45 140.422 145.815 140.893C146.188 141.364 146.681 141.6 147.295 141.6ZM23.0533 159C22.5822 159 22.2133 158.876 21.9467 158.627C21.68 158.378 21.5467 158 21.5467 157.493V152.413H20.24V151H21.56V148.6H23.2933V151H25.08V152.413H23.3067V157.587H25.2533V159H23.0533ZM30.1004 159.16C29.3538 159.16 28.6915 158.991 28.1137 158.653C27.5449 158.307 27.096 157.822 26.7671 157.2C26.4382 156.569 26.2738 155.827 26.2738 154.973C26.2738 154.129 26.4338 153.4 26.7538 152.787C27.0738 152.164 27.5137 151.684 28.0738 151.347C28.6426 151.009 29.2915 150.84 30.0204 150.84C30.696 150.84 31.3004 150.996 31.8338 151.307C32.376 151.609 32.8026 152.049 33.1137 152.627C33.4249 153.204 33.5804 153.898 33.5804 154.707V155.4H27.9804C28.0426 156.111 28.2604 156.671 28.6337 157.08C29.016 157.48 29.5004 157.68 30.0871 157.68C30.5138 157.68 30.8738 157.578 31.1671 157.373C31.4693 157.16 31.6693 156.871 31.7671 156.507H33.5671C33.4604 157.058 33.2426 157.533 32.9138 157.933C32.5849 158.324 32.1804 158.627 31.7004 158.84C31.2204 159.053 30.6871 159.16 30.1004 159.16ZM28.0338 154.133H31.8738C31.8026 153.547 31.5982 153.098 31.2604 152.787C30.9315 152.467 30.5182 152.307 30.0204 152.307C29.5138 152.307 29.0826 152.467 28.7271 152.787C28.3804 153.107 28.1493 153.556 28.0338 154.133ZM37.519 159.147C36.719 159.147 36.0701 158.92 35.5723 158.467C35.0745 158.013 34.8256 157.422 34.8256 156.693C34.8256 155.929 35.079 155.338 35.5856 154.92C36.1012 154.493 36.8256 154.28 37.759 154.28H39.9056V153.907C39.9056 153.4 39.7634 153.009 39.479 152.733C39.2034 152.449 38.8167 152.307 38.319 152.307C37.9012 152.307 37.5545 152.404 37.279 152.6C37.0034 152.787 36.8256 153.058 36.7456 153.413H34.959C35.1012 152.604 35.4701 151.973 36.0656 151.52C36.6701 151.067 37.4256 150.84 38.3323 150.84C39.3545 150.84 40.1501 151.111 40.719 151.653C41.2967 152.187 41.5856 152.947 41.5856 153.933V159H39.9456V157.733H39.8923C39.679 158.178 39.3634 158.524 38.9456 158.773C38.5278 159.022 38.0523 159.147 37.519 159.147ZM37.8923 157.733C38.2745 157.733 38.6167 157.649 38.919 157.48C39.2212 157.302 39.4612 157.067 39.639 156.773C39.8167 156.471 39.9056 156.133 39.9056 155.76V155.533H37.8656C37.4212 155.533 37.079 155.631 36.839 155.827C36.6078 156.013 36.4923 156.276 36.4923 156.613C36.4923 156.96 36.6167 157.236 36.8656 157.44C37.1234 157.636 37.4656 157.733 37.8923 157.733ZM43.7763 159V151H45.4696V152.24H45.5229C45.7363 151.787 46.0385 151.444 46.4296 151.213C46.8207 150.973 47.2785 150.853 47.8029 150.853C48.3274 150.853 48.794 150.978 49.2029 151.227C49.6207 151.476 49.9451 151.831 50.1762 152.293H50.2163C50.4918 151.831 50.8429 151.476 51.2696 151.227C51.7051 150.978 52.194 150.853 52.7362 150.853C53.3229 150.853 53.8385 150.991 54.2829 151.267C54.7363 151.533 55.0874 151.911 55.3363 152.4C55.5851 152.889 55.7096 153.458 55.7096 154.107V159H53.9496V154.427C53.9496 153.804 53.8029 153.32 53.5096 152.973C53.2163 152.627 52.8074 152.453 52.2829 152.453C51.7763 152.453 51.3718 152.627 51.0696 152.973C50.7674 153.32 50.6163 153.804 50.6163 154.427V159H48.8563V154.427C48.8563 153.804 48.7096 153.32 48.4163 152.973C48.1229 152.627 47.714 152.453 47.1896 152.453C46.674 152.453 46.2696 152.627 45.9763 152.973C45.6829 153.32 45.5363 153.804 45.5363 154.427V159H43.7763ZM57.9013 159V151H59.5946V152.24H59.6479C59.8613 151.787 60.1635 151.444 60.5546 151.213C60.9457 150.973 61.4035 150.853 61.9279 150.853C62.4524 150.853 62.919 150.978 63.3279 151.227C63.7457 151.476 64.0701 151.831 64.3012 152.293H64.3413C64.6168 151.831 64.9679 151.476 65.3946 151.227C65.8301 150.978 66.319 150.853 66.8612 150.853C67.4479 150.853 67.9635 150.991 68.4079 151.267C68.8613 151.533 69.2124 151.911 69.4613 152.4C69.7101 152.889 69.8346 153.458 69.8346 154.107V159H68.0746V154.427C68.0746 153.804 67.9279 153.32 67.6346 152.973C67.3413 152.627 66.9324 152.453 66.4079 152.453C65.9013 152.453 65.4968 152.627 65.1946 152.973C64.8924 153.32 64.7413 153.804 64.7413 154.427V159H62.9813V154.427C62.9813 153.804 62.8346 153.32 62.5413 152.973C62.2479 152.627 61.839 152.453 61.3146 152.453C60.799 152.453 60.3946 152.627 60.1013 152.973C59.8079 153.32 59.6613 153.804 59.6613 154.427V159H57.9013ZM74.1596 159.147C73.3596 159.147 72.7107 158.92 72.2129 158.467C71.7151 158.013 71.4663 157.422 71.4663 156.693C71.4663 155.929 71.7196 155.338 72.2263 154.92C72.7418 154.493 73.4663 154.28 74.3996 154.28H76.5463V153.907C76.5463 153.4 76.404 153.009 76.1196 152.733C75.844 152.449 75.4574 152.307 74.9596 152.307C74.5418 152.307 74.1951 152.404 73.9196 152.6C73.644 152.787 73.4663 153.058 73.3863 153.413H71.5996C71.7418 152.604 72.1107 151.973 72.7063 151.52C73.3107 151.067 74.0663 150.84 74.9729 150.84C75.9951 150.84 76.7907 151.111 77.3596 151.653C77.9374 152.187 78.2263 152.947 78.2263 153.933V159H76.5863V157.733H76.5329C76.3196 158.178 76.004 158.524 75.5863 158.773C75.1685 159.022 74.6929 159.147 74.1596 159.147ZM74.5329 157.733C74.9151 157.733 75.2574 157.649 75.5596 157.48C75.8618 157.302 76.1018 157.067 76.2796 156.773C76.4574 156.471 76.5463 156.133 76.5463 155.76V155.533H74.5063C74.0618 155.533 73.7196 155.631 73.4796 155.827C73.2485 156.013 73.1329 156.276 73.1329 156.613C73.1329 156.96 73.2574 157.236 73.5063 157.44C73.764 157.636 74.1063 157.733 74.5329 157.733ZM82.3502 159C81.8791 159 81.5102 158.876 81.2435 158.627C80.9769 158.378 80.8435 158 80.8435 157.493V152.413H79.5369V151H80.8569V148.6H82.5902V151H84.3769V152.413H82.6035V157.587H84.5502V159H82.3502ZM89.3973 159.16C88.6506 159.16 87.9884 158.991 87.4106 158.653C86.8417 158.307 86.3928 157.822 86.064 157.2C85.7351 156.569 85.5706 155.827 85.5706 154.973C85.5706 154.129 85.7306 153.4 86.0506 152.787C86.3706 152.164 86.8106 151.684 87.3706 151.347C87.9395 151.009 88.5884 150.84 89.3173 150.84C89.9928 150.84 90.5973 150.996 91.1306 151.307C91.6728 151.609 92.0995 152.049 92.4106 152.627C92.7217 153.204 92.8773 153.898 92.8773 154.707V155.4H87.2773C87.3395 156.111 87.5573 156.671 87.9306 157.08C88.3128 157.48 88.7973 157.68 89.384 157.68C89.8106 157.68 90.1706 157.578 90.464 157.373C90.7662 157.16 90.9662 156.871 91.064 156.507H92.864C92.7573 157.058 92.5395 157.533 92.2106 157.933C91.8817 158.324 91.4773 158.627 90.9973 158.84C90.5173 159.053 89.984 159.16 89.3973 159.16ZM87.3306 154.133H91.1706C91.0995 153.547 90.8951 153.098 90.5573 152.787C90.2284 152.467 89.8151 152.307 89.3173 152.307C88.8106 152.307 88.3795 152.467 88.024 152.787C87.6773 153.107 87.4462 153.556 87.3306 154.133ZM97.6158 159.16C96.6292 159.16 95.8247 158.916 95.2025 158.427C94.5892 157.938 94.2558 157.28 94.2025 156.453H95.9092C95.9714 156.871 96.1536 157.191 96.4558 157.413C96.7669 157.636 97.1758 157.747 97.6825 157.747C98.1358 157.747 98.4781 157.662 98.7092 157.493C98.9492 157.316 99.0692 157.062 99.0692 156.733C99.0692 156.244 98.7314 155.929 98.0558 155.787L96.6558 155.48C95.1892 155.169 94.4558 154.444 94.4558 153.307C94.4558 152.569 94.7314 151.973 95.2825 151.52C95.8425 151.067 96.5714 150.84 97.4692 150.84C98.3669 150.84 99.1047 151.076 99.6825 151.547C100.26 152.009 100.576 152.631 100.629 153.413H98.9358C98.8558 153.031 98.6825 152.738 98.4158 152.533C98.1492 152.32 97.8025 152.213 97.3758 152.213C96.9936 152.213 96.6869 152.298 96.4558 152.467C96.2247 152.627 96.1092 152.853 96.1092 153.147C96.1092 153.378 96.1847 153.564 96.3358 153.707C96.4958 153.84 96.7403 153.942 97.0692 154.013L98.5092 154.32C99.2381 154.48 99.7847 154.747 100.149 155.12C100.523 155.484 100.709 155.978 100.709 156.6C100.709 157.382 100.434 158.004 99.8825 158.467C99.3314 158.929 98.5758 159.16 97.6158 159.16ZM107.716 159L105.396 151H107.183L108.73 156.787H108.783L110.61 151H112.356L114.17 156.787H114.223L115.783 151H117.543L115.223 159H113.316L111.49 153.307H111.436L109.623 159H107.716ZM118.928 159V151H120.688V159H118.928ZM119.808 150.04C119.523 150.04 119.279 149.942 119.075 149.747C118.87 149.542 118.768 149.293 118.768 149C118.768 148.716 118.866 148.471 119.061 148.267C119.266 148.062 119.515 147.96 119.808 147.96C120.092 147.96 120.337 148.062 120.541 148.267C120.746 148.462 120.848 148.707 120.848 149C120.848 149.284 120.746 149.529 120.541 149.733C120.346 149.938 120.101 150.04 119.808 150.04ZM124.881 159C124.41 159 124.041 158.876 123.775 158.627C123.508 158.378 123.375 158 123.375 157.493V152.413H122.068V151H123.388V148.6H125.121V151H126.908V152.413H125.135V157.587H127.081V159H124.881ZM128.542 159V147.8H130.302V152.133H130.355C130.586 151.733 130.906 151.418 131.315 151.187C131.724 150.956 132.2 150.84 132.742 150.84C133.32 150.84 133.826 150.982 134.262 151.267C134.706 151.542 135.053 151.929 135.302 152.427C135.551 152.924 135.675 153.498 135.675 154.147V159H133.915V154.453C133.915 153.813 133.755 153.32 133.435 152.973C133.124 152.618 132.684 152.44 132.115 152.44C131.546 152.44 131.102 152.618 130.782 152.973C130.462 153.32 130.302 153.813 130.302 154.453V159H128.542ZM143.796 159L140.689 151H142.516L144.743 157.013H144.796L146.983 151H148.756L145.649 159H143.796ZM151.831 159.147C151.031 159.147 150.383 158.92 149.885 158.467C149.387 158.013 149.138 157.422 149.138 156.693C149.138 155.929 149.391 155.338 149.898 154.92C150.414 154.493 151.138 154.28 152.071 154.28H154.218V153.907C154.218 153.4 154.076 153.009 153.791 152.733C153.516 152.449 153.129 152.307 152.631 152.307C152.214 152.307 151.867 152.404 151.591 152.6C151.316 152.787 151.138 153.058 151.058 153.413H149.271C149.414 152.604 149.783 151.973 150.378 151.52C150.983 151.067 151.738 150.84 152.645 150.84C153.667 150.84 154.463 151.111 155.031 151.653C155.609 152.187 155.898 152.947 155.898 153.933V159H154.258V157.733H154.205C153.991 158.178 153.676 158.524 153.258 158.773C152.84 159.022 152.365 159.147 151.831 159.147ZM152.205 157.733C152.587 157.733 152.929 157.649 153.231 157.48C153.534 157.302 153.774 157.067 153.951 156.773C154.129 156.471 154.218 156.133 154.218 155.76V155.533H152.178C151.734 155.533 151.391 155.631 151.151 155.827C150.92 156.013 150.805 156.276 150.805 156.613C150.805 156.96 150.929 157.236 151.178 157.44C151.436 157.636 151.778 157.733 152.205 157.733ZM158.222 159V151H159.915V152.48H159.969C160.147 152.009 160.427 151.631 160.809 151.347C161.191 151.062 161.653 150.92 162.195 150.92H162.822V152.48H162.115C161.404 152.48 160.871 152.698 160.515 153.133C160.16 153.569 159.982 154.151 159.982 154.88V159H158.222ZM164.365 159V151H166.125V159H164.365ZM165.245 150.04C164.961 150.04 164.717 149.942 164.512 149.747C164.308 149.542 164.205 149.293 164.205 149C164.205 148.716 164.303 148.471 164.499 148.267C164.703 148.062 164.952 147.96 165.245 147.96C165.53 147.96 165.774 148.062 165.979 148.267C166.183 148.462 166.285 148.707 166.285 149C166.285 149.284 166.183 149.529 165.979 149.733C165.783 149.938 165.539 150.04 165.245 150.04ZM171.799 159.16C171.061 159.16 170.399 158.991 169.812 158.653C169.235 158.307 168.777 157.822 168.439 157.2C168.11 156.578 167.946 155.844 167.946 155C167.946 154.147 168.11 153.409 168.439 152.787C168.777 152.164 169.235 151.684 169.812 151.347C170.399 151.009 171.061 150.84 171.799 150.84C172.555 150.84 173.221 151.009 173.799 151.347C174.377 151.684 174.83 152.164 175.159 152.787C175.488 153.409 175.652 154.147 175.652 155C175.652 155.844 175.488 156.582 175.159 157.213C174.83 157.836 174.372 158.316 173.786 158.653C173.208 158.991 172.546 159.16 171.799 159.16ZM171.799 157.587C172.439 157.587 172.946 157.351 173.319 156.88C173.701 156.409 173.892 155.782 173.892 155C173.892 154.209 173.701 153.582 173.319 153.12C172.946 152.649 172.439 152.413 171.799 152.413C171.177 152.413 170.67 152.649 170.279 153.12C169.897 153.582 169.706 154.209 169.706 155C169.706 155.782 169.897 156.409 170.279 156.88C170.67 157.351 171.177 157.587 171.799 157.587ZM180.301 159.147C179.724 159.147 179.217 159.013 178.781 158.747C178.346 158.471 178.004 158.093 177.755 157.613C177.515 157.124 177.395 156.56 177.395 155.92V151H179.155V155.56C179.155 156.182 179.306 156.671 179.608 157.027C179.91 157.373 180.337 157.547 180.888 157.547C181.457 157.547 181.91 157.364 182.248 157C182.595 156.627 182.768 156.133 182.768 155.52V151H184.528V159H182.808V157.68H182.755C182.533 158.151 182.213 158.516 181.795 158.773C181.377 159.022 180.879 159.147 180.301 159.147ZM189.694 159.16C188.707 159.16 187.903 158.916 187.281 158.427C186.667 157.938 186.334 157.28 186.281 156.453H187.987C188.05 156.871 188.232 157.191 188.534 157.413C188.845 157.636 189.254 157.747 189.761 157.747C190.214 157.747 190.556 157.662 190.787 157.493C191.027 157.316 191.147 157.062 191.147 156.733C191.147 156.244 190.81 155.929 190.134 155.787L188.734 155.48C187.267 155.169 186.534 154.444 186.534 153.307C186.534 152.569 186.81 151.973 187.361 151.52C187.921 151.067 188.65 150.84 189.547 150.84C190.445 150.84 191.183 151.076 191.761 151.547C192.338 152.009 192.654 152.631 192.707 153.413H191.014C190.934 153.031 190.761 152.738 190.494 152.533C190.227 152.32 189.881 152.213 189.454 152.213C189.072 152.213 188.765 152.298 188.534 152.467C188.303 152.627 188.187 152.853 188.187 153.147C188.187 153.378 188.263 153.564 188.414 153.707C188.574 153.84 188.818 153.942 189.147 154.013L190.587 154.32C191.316 154.48 191.863 154.747 192.227 155.12C192.601 155.484 192.787 155.978 192.787 156.6C192.787 157.382 192.512 158.004 191.961 158.467C191.41 158.929 190.654 159.16 189.694 159.16ZM24.0533 175.16C23.0667 175.16 22.2622 174.916 21.64 174.427C21.0267 173.938 20.6933 173.28 20.64 172.453H22.3467C22.4089 172.871 22.5911 173.191 22.8933 173.413C23.2044 173.636 23.6133 173.747 24.12 173.747C24.5733 173.747 24.9156 173.662 25.1467 173.493C25.3867 173.316 25.5067 173.062 25.5067 172.733C25.5067 172.244 25.1689 171.929 24.4933 171.787L23.0933 171.48C21.6267 171.169 20.8933 170.444 20.8933 169.307C20.8933 168.569 21.1689 167.973 21.72 167.52C22.28 167.067 23.0089 166.84 23.9067 166.84C24.8044 166.84 25.5422 167.076 26.12 167.547C26.6978 168.009 27.0133 168.631 27.0667 169.413H25.3733C25.2933 169.031 25.12 168.738 24.8533 168.533C24.5867 168.32 24.24 168.213 23.8133 168.213C23.4311 168.213 23.1244 168.298 22.8933 168.467C22.6622 168.627 22.5467 168.853 22.5467 169.147C22.5467 169.378 22.6222 169.564 22.7733 169.707C22.9333 169.84 23.1778 169.942 23.5067 170.013L24.9467 170.32C25.6756 170.48 26.2222 170.747 26.5867 171.12C26.96 171.484 27.1467 171.978 27.1467 172.6C27.1467 173.382 26.8711 174.004 26.32 174.467C25.7689 174.929 25.0133 175.16 24.0533 175.16ZM28.8388 175V163.8H30.5988V170.28H30.6521L33.7854 167H35.8921L32.7188 170.28L36.1854 175H34.0921L31.4787 171.413L30.5988 172.187V175H28.8388ZM37.2404 175V167H39.0004V175H37.2404ZM38.1204 166.04C37.836 166.04 37.5915 165.942 37.3871 165.747C37.1826 165.542 37.0804 165.293 37.0804 165C37.0804 164.716 37.1782 164.471 37.3737 164.267C37.5782 164.062 37.8271 163.96 38.1204 163.96C38.4049 163.96 38.6493 164.062 38.8537 164.267C39.0582 164.462 39.1604 164.707 39.1604 165C39.1604 165.284 39.0582 165.529 38.8537 165.733C38.6582 165.938 38.4138 166.04 38.1204 166.04ZM41.2873 175V163.8H43.0473V175H41.2873ZM45.3342 175V163.8H47.0942V175H45.3342ZM57.376 175.16C56.256 175.16 55.4649 174.693 55.0027 173.76H54.9494V175H53.2294V163.8H54.9894V168.2H55.0427C55.4872 167.293 56.2649 166.84 57.376 166.84C58.0427 166.84 58.6249 167.013 59.1227 167.36C59.6205 167.707 60.0072 168.191 60.2827 168.813C60.5583 169.436 60.696 170.164 60.696 171C60.696 171.827 60.5583 172.556 60.2827 173.187C60.0072 173.809 59.6205 174.293 59.1227 174.64C58.6249 174.987 58.0427 175.16 57.376 175.16ZM56.896 173.6C57.5272 173.6 58.0249 173.364 58.3894 172.893C58.7538 172.422 58.936 171.791 58.936 171C58.936 170.209 58.7538 169.578 58.3894 169.107C58.0249 168.636 57.5272 168.4 56.896 168.4C56.3005 168.4 55.8338 168.596 55.496 168.987C55.1583 169.369 54.9894 169.88 54.9894 170.52V171.48C54.9894 172.12 55.1583 172.636 55.496 173.027C55.8338 173.409 56.3005 173.6 56.896 173.6ZM64.6283 175.147C63.8283 175.147 63.1794 174.92 62.6817 174.467C62.1839 174.013 61.935 173.422 61.935 172.693C61.935 171.929 62.1883 171.338 62.695 170.92C63.2106 170.493 63.935 170.28 64.8683 170.28H67.015V169.907C67.015 169.4 66.8728 169.009 66.5883 168.733C66.3128 168.449 65.9261 168.307 65.4283 168.307C65.0106 168.307 64.6639 168.404 64.3883 168.6C64.1128 168.787 63.935 169.058 63.855 169.413H62.0683C62.2106 168.604 62.5794 167.973 63.175 167.52C63.7794 167.067 64.535 166.84 65.4417 166.84C66.4639 166.84 67.2594 167.111 67.8283 167.653C68.4061 168.187 68.695 168.947 68.695 169.933V175H67.055V173.733H67.0017C66.7883 174.178 66.4728 174.524 66.055 174.773C65.6372 175.022 65.1617 175.147 64.6283 175.147ZM65.0017 173.733C65.3839 173.733 65.7261 173.649 66.0283 173.48C66.3306 173.302 66.5706 173.067 66.7483 172.773C66.9261 172.471 67.015 172.133 67.015 171.76V171.533H64.975C64.5306 171.533 64.1883 171.631 63.9483 171.827C63.7172 172.013 63.6017 172.276 63.6017 172.613C63.6017 172.96 63.7261 173.236 63.975 173.44C64.2328 173.636 64.575 173.733 65.0017 173.733ZM74.2456 175.16C73.5167 175.16 72.8634 174.991 72.2856 174.653C71.7167 174.307 71.2678 173.822 70.939 173.2C70.6101 172.578 70.4456 171.844 70.4456 171C70.4456 170.147 70.6101 169.409 70.939 168.787C71.2678 168.164 71.7167 167.684 72.2856 167.347C72.8634 167.009 73.5167 166.84 74.2456 166.84C74.8323 166.84 75.3701 166.951 75.859 167.173C76.3478 167.387 76.7567 167.707 77.0856 168.133C77.4234 168.56 77.6501 169.093 77.7656 169.733H75.9523C75.8278 169.289 75.6145 168.96 75.3123 168.747C75.0101 168.524 74.6545 168.413 74.2456 168.413C73.6412 168.413 73.1478 168.649 72.7656 169.12C72.3923 169.582 72.2056 170.209 72.2056 171C72.2056 171.782 72.3923 172.409 72.7656 172.88C73.1478 173.351 73.6412 173.587 74.2456 173.587C74.6812 173.587 75.0545 173.471 75.3656 173.24C75.6856 173.009 75.9034 172.64 76.019 172.133H77.7923C77.6856 172.809 77.4634 173.369 77.1256 173.813C76.7967 174.258 76.3834 174.596 75.8856 174.827C75.3967 175.049 74.8501 175.16 74.2456 175.16ZM79.2138 175V163.8H80.9738V170.28H81.0271L84.1604 167H86.2671L83.0938 170.28L86.5604 175H84.4671L81.8537 171.413L80.9738 172.187V175H79.2138ZM90.5025 178.36C89.4803 178.36 88.6269 178.116 87.9425 177.627C87.2669 177.147 86.8714 176.502 86.7558 175.693H88.6225C88.7114 176.067 88.9158 176.356 89.2358 176.56C89.5647 176.773 89.9736 176.88 90.4625 176.88C91.1114 176.88 91.6181 176.693 91.9825 176.32C92.3558 175.947 92.5425 175.44 92.5425 174.8V173.6H92.4892C92.2758 174.053 91.9692 174.4 91.5692 174.64C91.1781 174.88 90.7158 175 90.1825 175C89.5158 175 88.9247 174.831 88.4092 174.493C87.9025 174.147 87.5069 173.667 87.2225 173.053C86.9381 172.44 86.7958 171.729 86.7958 170.92C86.7958 170.111 86.9381 169.4 87.2225 168.787C87.5069 168.173 87.9025 167.698 88.4092 167.36C88.9247 167.013 89.5158 166.84 90.1825 166.84C90.7247 166.84 91.1914 166.96 91.5825 167.2C91.9825 167.44 92.2847 167.782 92.4892 168.227H92.5425V167H94.2625V174.84C94.2625 175.933 93.9247 176.791 93.2492 177.413C92.5825 178.044 91.6669 178.36 90.5025 178.36ZM90.6358 173.427C91.2047 173.427 91.6581 173.236 91.9958 172.853C92.3336 172.471 92.5025 171.964 92.5025 171.333V170.493C92.5025 169.862 92.3336 169.36 91.9958 168.987C91.6581 168.604 91.2047 168.413 90.6358 168.413C90.0047 168.413 89.4981 168.64 89.1158 169.093C88.7425 169.547 88.5558 170.156 88.5558 170.92C88.5558 171.684 88.7425 172.293 89.1158 172.747C89.4981 173.2 90.0047 173.427 90.6358 173.427ZM96.6283 175V167H98.3217V168.48H98.375C98.5528 168.009 98.8328 167.631 99.215 167.347C99.5972 167.062 100.059 166.92 100.602 166.92H101.228V168.48H100.522C99.8106 168.48 99.2772 168.698 98.9217 169.133C98.5661 169.569 98.3883 170.151 98.3883 170.88V175H96.6283ZM105.752 175.16C105.014 175.16 104.352 174.991 103.765 174.653C103.188 174.307 102.73 173.822 102.392 173.2C102.063 172.578 101.899 171.844 101.899 171C101.899 170.147 102.063 169.409 102.392 168.787C102.73 168.164 103.188 167.684 103.765 167.347C104.352 167.009 105.014 166.84 105.752 166.84C106.508 166.84 107.174 167.009 107.752 167.347C108.33 167.684 108.783 168.164 109.112 168.787C109.441 169.409 109.605 170.147 109.605 171C109.605 171.844 109.441 172.582 109.112 173.213C108.783 173.836 108.325 174.316 107.739 174.653C107.161 174.991 106.499 175.16 105.752 175.16ZM105.752 173.587C106.392 173.587 106.899 173.351 107.272 172.88C107.654 172.409 107.845 171.782 107.845 171C107.845 170.209 107.654 169.582 107.272 169.12C106.899 168.649 106.392 168.413 105.752 168.413C105.13 168.413 104.623 168.649 104.232 169.12C103.85 169.582 103.659 170.209 103.659 171C103.659 171.782 103.85 172.409 104.232 172.88C104.623 173.351 105.13 173.587 105.752 173.587ZM114.255 175.147C113.677 175.147 113.17 175.013 112.735 174.747C112.299 174.471 111.957 174.093 111.708 173.613C111.468 173.124 111.348 172.56 111.348 171.92V167H113.108V171.56C113.108 172.182 113.259 172.671 113.561 173.027C113.863 173.373 114.29 173.547 114.841 173.547C115.41 173.547 115.863 173.364 116.201 173C116.548 172.627 116.721 172.133 116.721 171.52V167H118.481V175H116.761V173.68H116.708C116.486 174.151 116.166 174.516 115.748 174.773C115.33 175.022 114.832 175.147 114.255 175.147ZM120.714 175V167H122.434V168.24H122.487C122.718 167.796 123.038 167.453 123.447 167.213C123.865 166.973 124.349 166.853 124.9 166.853C125.487 166.853 125.998 166.996 126.434 167.28C126.878 167.556 127.225 167.942 127.474 168.44C127.723 168.938 127.847 169.511 127.847 170.16V175H126.087V170.48C126.087 169.849 125.927 169.356 125.607 169C125.296 168.636 124.856 168.453 124.287 168.453C123.718 168.453 123.274 168.636 122.954 169C122.634 169.356 122.474 169.849 122.474 170.48V175H120.714ZM132.906 175.16C132.24 175.16 131.657 174.987 131.16 174.64C130.662 174.293 130.275 173.809 130 173.187C129.724 172.556 129.586 171.827 129.586 171C129.586 170.164 129.724 169.436 130 168.813C130.275 168.191 130.662 167.707 131.16 167.36C131.657 167.013 132.24 166.84 132.906 166.84C134.017 166.84 134.795 167.293 135.24 168.2H135.293V163.8H137.053V175H135.333V173.76H135.28C134.817 174.693 134.026 175.16 132.906 175.16ZM133.373 173.6C133.977 173.6 134.448 173.409 134.786 173.027C135.124 172.636 135.293 172.12 135.293 171.48V170.52C135.293 169.88 135.124 169.369 134.786 168.987C134.448 168.596 133.977 168.4 133.373 168.4C132.76 168.4 132.266 168.636 131.893 169.107C131.528 169.578 131.346 170.209 131.346 171C131.346 171.791 131.528 172.422 131.893 172.893C132.266 173.364 132.76 173.6 133.373 173.6ZM142.225 175.16C141.239 175.16 140.434 174.916 139.812 174.427C139.199 173.938 138.865 173.28 138.812 172.453H140.519C140.581 172.871 140.763 173.191 141.065 173.413C141.376 173.636 141.785 173.747 142.292 173.747C142.745 173.747 143.087 173.662 143.319 173.493C143.559 173.316 143.679 173.062 143.679 172.733C143.679 172.244 143.341 171.929 142.665 171.787L141.265 171.48C139.799 171.169 139.065 170.444 139.065 169.307C139.065 168.569 139.341 167.973 139.892 167.52C140.452 167.067 141.181 166.84 142.079 166.84C142.976 166.84 143.714 167.076 144.292 167.547C144.87 168.009 145.185 168.631 145.239 169.413H143.545C143.465 169.031 143.292 168.738 143.025 168.533C142.759 168.32 142.412 168.213 141.985 168.213C141.603 168.213 141.296 168.298 141.065 168.467C140.834 168.627 140.719 168.853 140.719 169.147C140.719 169.378 140.794 169.564 140.945 169.707C141.105 169.84 141.35 169.942 141.679 170.013L143.119 170.32C143.847 170.48 144.394 170.747 144.759 171.12C145.132 171.484 145.319 171.978 145.319 172.6C145.319 173.382 145.043 174.004 144.492 174.467C143.941 174.929 143.185 175.16 142.225 175.16ZM145.839 168.493V167.413H146.399C146.639 167.413 146.817 167.351 146.933 167.227C147.057 167.093 147.119 166.916 147.119 166.693V166.253H146.173V164.2H148.266V166.747C148.266 167.298 148.119 167.729 147.826 168.04C147.533 168.342 147.097 168.493 146.519 168.493H145.839ZM149.559 168.493V167.413H150.119C150.359 167.413 150.537 167.351 150.653 167.227C150.777 167.093 150.839 166.916 150.839 166.693V166.253H149.893V164.2H151.986V166.747C151.986 167.298 151.839 167.729 151.546 168.04C151.253 168.342 150.817 168.493 150.239 168.493H149.559Z" fill="#353C51"/>
<path d="M20.56 244.773V243.227H24.4933V244.773H20.56ZM29.7352 248V246.747L33.7752 242.36C34.0952 242.022 34.3397 241.733 34.5085 241.493C34.6863 241.253 34.8108 241.031 34.8819 240.827C34.9619 240.622 35.0019 240.409 35.0019 240.187C35.0019 239.698 34.8463 239.307 34.5352 239.013C34.2241 238.711 33.8241 238.56 33.3352 238.56C32.793 238.56 32.353 238.738 32.0152 239.093C31.6774 239.44 31.4774 239.924 31.4152 240.547H29.7352C29.7797 239.836 29.9574 239.218 30.2685 238.693C30.5797 238.169 30.9974 237.764 31.5219 237.48C32.0552 237.187 32.6685 237.04 33.3619 237.04C34.0197 237.04 34.6019 237.173 35.1085 237.44C35.6152 237.698 36.0108 238.062 36.2952 238.533C36.5797 238.996 36.7219 239.533 36.7219 240.147C36.7219 240.662 36.5974 241.164 36.3485 241.653C36.0997 242.142 35.6863 242.684 35.1085 243.28L32.1219 246.387V246.44H36.8685V248H29.7352ZM42.1188 248.16C40.9099 248.16 39.9899 247.689 39.3587 246.747C38.7365 245.804 38.4254 244.422 38.4254 242.6C38.4254 240.778 38.7365 239.396 39.3587 238.453C39.9899 237.511 40.9099 237.04 42.1188 237.04C43.3276 237.04 44.2432 237.511 44.8654 238.453C45.4965 239.396 45.8121 240.778 45.8121 242.6C45.8121 244.422 45.4965 245.804 44.8654 246.747C44.2432 247.689 43.3276 248.16 42.1188 248.16ZM42.1188 246.613C42.7765 246.613 43.261 246.284 43.5721 245.627C43.8921 244.969 44.0521 243.96 44.0521 242.6C44.0521 241.24 43.8921 240.231 43.5721 239.573C43.261 238.916 42.7765 238.587 42.1188 238.587C41.4699 238.587 40.9854 238.916 40.6654 239.573C40.3454 240.231 40.1854 241.24 40.1854 242.6C40.1854 243.96 40.3454 244.969 40.6654 245.627C40.9854 246.284 41.4699 246.613 42.1188 246.613ZM47.329 248V246.747L51.369 242.36C51.689 242.022 51.9334 241.733 52.1023 241.493C52.2801 241.253 52.4045 241.031 52.4756 240.827C52.5556 240.622 52.5956 240.409 52.5956 240.187C52.5956 239.698 52.4401 239.307 52.129 239.013C51.8178 238.711 51.4178 238.56 50.929 238.56C50.3867 238.56 49.9467 238.738 49.609 239.093C49.2712 239.44 49.0712 239.924 49.009 240.547H47.329C47.3734 239.836 47.5512 239.218 47.8623 238.693C48.1734 238.169 48.5912 237.764 49.1156 237.48C49.649 237.187 50.2623 237.04 50.9556 237.04C51.6134 237.04 52.1956 237.173 52.7023 237.44C53.209 237.698 53.6045 238.062 53.889 238.533C54.1734 238.996 54.3156 239.533 54.3156 240.147C54.3156 240.662 54.1912 241.164 53.9423 241.653C53.6934 242.142 53.2801 242.684 52.7023 243.28L49.7156 246.387V246.44H54.4623V248H47.329ZM60.6458 248V245.52H55.6325V244.28L60.7258 237.2H62.3658V244.08H63.7925V245.52H62.3658V248H60.6458ZM57.4458 244.08H60.7125V239.547H60.6592L57.4458 244.08ZM73.4777 248.16C72.6244 248.16 71.8777 248.004 71.2377 247.693C70.6066 247.382 70.1133 246.924 69.7577 246.32C69.411 245.707 69.2377 244.956 69.2377 244.067V237.2H71.0644V243.88C71.0644 244.689 71.2733 245.32 71.691 245.773C72.1088 246.227 72.7266 246.453 73.5444 246.453C74.371 246.453 74.9844 246.213 75.3844 245.733C75.7933 245.253 75.9977 244.64 75.9977 243.893V237.2H77.7977V244.093C77.7977 244.938 77.6244 245.667 77.2777 246.28C76.931 246.884 76.4333 247.351 75.7844 247.68C75.1444 248 74.3755 248.16 73.4777 248.16ZM80.1513 251.2V240H81.8713V241.24H81.9246C82.3868 240.307 83.1779 239.84 84.2979 239.84C84.9646 239.84 85.5468 240.013 86.0446 240.36C86.5424 240.707 86.929 241.191 87.2046 241.813C87.4801 242.436 87.6179 243.164 87.6179 244C87.6179 244.827 87.4801 245.556 87.2046 246.187C86.929 246.809 86.5424 247.293 86.0446 247.64C85.5468 247.987 84.9646 248.16 84.2979 248.16C83.1868 248.16 82.409 247.707 81.9646 246.8H81.9113V251.2H80.1513ZM83.8179 246.6C84.449 246.6 84.9468 246.364 85.3113 245.893C85.6757 245.422 85.8579 244.791 85.8579 244C85.8579 243.209 85.6757 242.578 85.3113 242.107C84.9468 241.636 84.449 241.4 83.8179 241.4C83.2224 241.4 82.7557 241.596 82.4179 241.987C82.0801 242.369 81.9113 242.88 81.9113 243.52V244.48C81.9113 245.12 82.0801 245.631 82.4179 246.013C82.7557 246.396 83.2224 246.591 83.8179 246.6ZM88.8569 244.773V243.227H92.7902V244.773H88.8569ZM98.9571 248.16C98.0238 248.16 97.1926 247.924 96.4638 247.453C95.7438 246.982 95.1749 246.329 94.7571 245.493C94.3482 244.649 94.1438 243.684 94.1438 242.6C94.1438 241.498 94.3571 240.529 94.7838 239.693C95.2193 238.858 95.8149 238.209 96.5704 237.747C97.3349 237.276 98.2104 237.04 99.1971 237.04C99.9882 237.04 100.695 237.191 101.317 237.493C101.939 237.787 102.45 238.204 102.85 238.747C103.25 239.289 103.504 239.929 103.61 240.667H101.73C101.642 240.062 101.37 239.578 100.917 239.213C100.464 238.849 99.8904 238.667 99.1971 238.667C98.5482 238.667 97.9793 238.831 97.4904 239.16C97.0104 239.489 96.6326 239.951 96.3571 240.547C96.0904 241.133 95.9571 241.822 95.9571 242.613C95.9571 243.404 96.0949 244.102 96.3704 244.707C96.646 245.302 97.0238 245.773 97.5038 246.12C97.9926 246.458 98.5571 246.627 99.1971 246.627C99.7038 246.627 100.157 246.533 100.557 246.347C100.957 246.151 101.273 245.889 101.504 245.56C101.735 245.222 101.85 244.849 101.85 244.44V243.88H99.0104V242.413H102.184C102.655 242.413 103.01 242.538 103.25 242.787C103.49 243.027 103.61 243.378 103.61 243.84V248H101.944V246.573H101.89C101.668 247.053 101.299 247.44 100.784 247.733C100.277 248.018 99.6682 248.16 98.9571 248.16ZM105.91 248V240H107.603V241.48H107.656C107.834 241.009 108.114 240.631 108.496 240.347C108.878 240.062 109.341 239.92 109.883 239.92H110.51V241.48H109.803C109.092 241.48 108.558 241.698 108.203 242.133C107.847 242.569 107.67 243.151 107.67 243.88V248H105.91ZM113.894 248.147C113.094 248.147 112.445 247.92 111.947 247.467C111.45 247.013 111.201 246.422 111.201 245.693C111.201 244.929 111.454 244.338 111.961 243.92C112.476 243.493 113.201 243.28 114.134 243.28H116.281V242.907C116.281 242.4 116.138 242.009 115.854 241.733C115.578 241.449 115.192 241.307 114.694 241.307C114.276 241.307 113.93 241.404 113.654 241.6C113.378 241.787 113.201 242.058 113.121 242.413H111.334C111.476 241.604 111.845 240.973 112.441 240.52C113.045 240.067 113.801 239.84 114.707 239.84C115.73 239.84 116.525 240.111 117.094 240.653C117.672 241.187 117.961 241.947 117.961 242.933V248H116.321V246.733H116.267C116.054 247.178 115.738 247.524 115.321 247.773C114.903 248.022 114.427 248.147 113.894 248.147ZM114.267 246.733C114.65 246.733 114.992 246.649 115.294 246.48C115.596 246.302 115.836 246.067 116.014 245.773C116.192 245.471 116.281 245.133 116.281 244.76V244.533H114.241C113.796 244.533 113.454 244.631 113.214 244.827C112.983 245.013 112.867 245.276 112.867 245.613C112.867 245.96 112.992 246.236 113.241 246.44C113.498 246.636 113.841 246.733 114.267 246.733ZM123.031 248.16C122.365 248.16 121.782 247.987 121.285 247.64C120.787 247.293 120.4 246.809 120.125 246.187C119.849 245.556 119.711 244.827 119.711 244C119.711 243.164 119.849 242.436 120.125 241.813C120.4 241.191 120.787 240.707 121.285 240.36C121.782 240.013 122.365 239.84 123.031 239.84C124.142 239.84 124.92 240.293 125.365 241.2H125.418V236.8H127.178V248H125.458V246.76H125.405C124.942 247.693 124.151 248.16 123.031 248.16ZM123.498 246.6C124.102 246.6 124.573 246.409 124.911 246.027C125.249 245.636 125.418 245.12 125.418 244.48V243.52C125.418 242.88 125.249 242.369 124.911 241.987C124.573 241.596 124.102 241.4 123.498 241.4C122.885 241.4 122.391 241.636 122.018 242.107C121.653 242.578 121.471 243.209 121.471 244C121.471 244.791 121.653 245.422 122.018 245.893C122.391 246.364 122.885 246.6 123.498 246.6ZM132.804 248.16C132.057 248.16 131.395 247.991 130.817 247.653C130.248 247.307 129.799 246.822 129.47 246.2C129.141 245.569 128.977 244.827 128.977 243.973C128.977 243.129 129.137 242.4 129.457 241.787C129.777 241.164 130.217 240.684 130.777 240.347C131.346 240.009 131.995 239.84 132.724 239.84C133.399 239.84 134.004 239.996 134.537 240.307C135.079 240.609 135.506 241.049 135.817 241.627C136.128 242.204 136.284 242.898 136.284 243.707V244.4H130.684C130.746 245.111 130.964 245.671 131.337 246.08C131.719 246.48 132.204 246.68 132.79 246.68C133.217 246.68 133.577 246.578 133.87 246.373C134.172 246.16 134.372 245.871 134.47 245.507H136.27C136.164 246.058 135.946 246.533 135.617 246.933C135.288 247.324 134.884 247.627 134.404 247.84C133.924 248.053 133.39 248.16 132.804 248.16ZM130.737 243.133H134.577C134.506 242.547 134.301 242.098 133.964 241.787C133.635 241.467 133.221 241.307 132.724 241.307C132.217 241.307 131.786 241.467 131.43 241.787C131.084 242.107 130.852 242.556 130.737 243.133ZM138.222 248V240H139.915V241.48H139.969C140.147 241.009 140.427 240.631 140.809 240.347C141.191 240.062 141.653 239.92 142.195 239.92H142.822V241.48H142.115C141.404 241.48 140.871 241.698 140.515 242.133C140.16 242.569 139.982 243.151 139.982 243.88V248H138.222Z" fill="#353C51"/>
<path d="M94 2H126L121.429 50H98.5714L94 2Z" fill="#646676" stroke="#353C51" stroke-width="4"/>
</g>
<defs>
<clipPath id="clip0_7099_1878">
<rect width="220" height="270" fill="white"/>
</clipPath>
</defs>
</svg>
