<svg width="256" height="240" viewBox="0 0 256 240" fill="none" xmlns="http://www.w3.org/2000/svg">
<rect x="71.9785" y="203.274" width="25.738" height="34.6904" rx="12.869" fill="#646676" stroke="#353C51" stroke-width="4"/>
<rect x="178.285" y="203.274" width="25.738" height="34.6904" rx="12.869" fill="#646676" stroke="#353C51" stroke-width="4"/>
<path d="M33.8573 94.0874C-2.42088 96.8304 -9.82734 141.856 26.0326 162.661C53.2175 178.433 46.1061 201.063 31.1667 201.063C10.3426 201.063 7.38578 159.918 48.7967 144.832C90.2077 129.746 137.714 172.947 107.126 190.091" stroke="#353C51" stroke-width="4"/>
<rect x="31.1602" y="100.419" width="11.8189" height="15.1513" transform="rotate(-90 31.1602 100.419)" fill="#646676" stroke="#353C51" stroke-width="4"/>
<path d="M139.461 53.2104C194.758 53.6711 218.62 68.4791 227.645 76.7515L227.981 77.0708C231.395 80.4053 232.743 84.9848 233.104 89.395L235.006 112.602H177.925L181.305 80.855L181.339 80.4243C181.568 75.9992 178.038 72.2293 173.549 72.229H100.063C95.429 72.2291 91.817 76.2466 92.3076 80.855L95.6875 112.602H38.5996L40.5039 89.3921L40.5859 88.5376C41.0635 84.255 42.53 79.8996 45.9629 76.7524L46.4043 76.354C55.9029 67.8796 80.503 53.1997 136.805 53.1997L139.461 53.2104Z" fill="#8BB660"/>
<path d="M139.461 53.2104L139.478 51.2105L139.469 51.2105L139.461 53.2104ZM227.645 76.7515L229.02 75.2999L229.008 75.2884L228.996 75.2772L227.645 76.7515ZM227.981 77.0708L229.379 75.6401L229.368 75.6296L229.357 75.6192L227.981 77.0708ZM233.104 89.395L231.111 89.5583V89.5583L233.104 89.395ZM235.006 112.602V114.602H237.176L236.999 112.439L235.006 112.602ZM177.925 112.602L175.936 112.39L175.701 114.602H177.925V112.602ZM181.305 80.855L183.293 81.0667L183.296 81.04L183.298 81.0132L181.305 80.855ZM181.339 80.4243L183.333 80.5825L183.335 80.5553L183.336 80.5279L181.339 80.4243ZM173.549 72.229L173.549 70.229H173.549V72.229ZM100.063 72.229V70.229H100.063L100.063 72.229ZM92.3076 80.855L90.3189 81.0667V81.0667L92.3076 80.855ZM95.6875 112.602V114.602H97.9117L97.6763 112.39L95.6875 112.602ZM38.5996 112.602L36.6063 112.439L36.4288 114.602H38.5996V112.602ZM40.5039 89.3921L38.5131 89.201L38.5117 89.2147L38.5106 89.2285L40.5039 89.3921ZM40.5859 88.5376L38.5983 88.316L38.5966 88.3312L38.5951 88.3465L40.5859 88.5376ZM45.9629 76.7524L44.6228 75.2678L44.6171 75.273L44.6114 75.2782L45.9629 76.7524ZM46.4043 76.354L45.0728 74.8616L45.0642 74.8694L46.4043 76.354ZM136.805 53.1997L136.813 51.1997H136.805V53.1997ZM139.461 53.2104L139.444 55.2104C194.384 55.6681 217.723 70.37 226.293 78.2258L227.645 76.7515L228.996 75.2772C219.517 66.5881 195.132 51.6742 139.478 51.2105L139.461 53.2104ZM227.645 76.7515L226.269 78.203L226.606 78.5224L227.981 77.0708L229.357 75.6192L229.02 75.2999L227.645 76.7515ZM227.981 77.0708L226.584 78.5015C229.517 81.3669 230.77 85.3986 231.111 89.5583L233.104 89.395L235.098 89.2317C234.716 84.5709 233.273 79.4437 229.379 75.6401L227.981 77.0708ZM233.104 89.395L231.111 89.5583L233.013 112.765L235.006 112.602L236.999 112.439L235.098 89.2317L233.104 89.395ZM235.006 112.602V110.602H177.925V112.602V114.602H235.006V112.602ZM177.925 112.602L179.914 112.814L183.293 81.0667L181.305 80.855L179.316 80.6433L175.936 112.39L177.925 112.602ZM181.305 80.855L183.298 81.0132L183.333 80.5825L181.339 80.4243L179.345 80.2661L179.311 80.6967L181.305 80.855ZM181.339 80.4243L183.336 80.5279C183.625 74.9658 179.19 70.2293 173.549 70.229L173.549 72.229L173.549 74.229C176.886 74.2292 179.512 77.0325 179.342 80.3207L181.339 80.4243ZM173.549 72.229V70.229H100.063V72.229V74.229H173.549V72.229ZM100.063 72.229L100.063 70.229C94.2405 70.2292 89.7025 75.2768 90.3189 81.0667L92.3076 80.855L94.2964 80.6433C93.9316 77.2164 96.6175 74.2291 100.064 74.229L100.063 72.229ZM92.3076 80.855L90.3189 81.0667L93.6987 112.814L95.6875 112.602L97.6763 112.39L94.2964 80.6433L92.3076 80.855ZM95.6875 112.602V110.602H38.5996V112.602V114.602H95.6875V112.602ZM38.5996 112.602L40.5929 112.766L42.4972 89.5556L40.5039 89.3921L38.5106 89.2285L36.6063 112.439L38.5996 112.602ZM40.5039 89.3921L42.4948 89.5832L42.5768 88.7287L40.5859 88.5376L38.5951 88.3465L38.5131 89.201L40.5039 89.3921ZM40.5859 88.5376L42.5736 88.7592C43.0213 84.7446 44.3693 80.9266 47.3144 78.2267L45.9629 76.7524L44.6114 75.2782C40.6906 78.8726 39.1057 83.7654 38.5983 88.316L40.5859 88.5376ZM45.9629 76.7524L47.303 78.2371L47.7444 77.8386L46.4043 76.354L45.0642 74.8694L44.6228 75.2678L45.9629 76.7524ZM46.4043 76.354L47.7358 77.8464C56.7752 69.7817 80.8537 55.1997 136.805 55.1997V53.1997V51.1997C80.1524 51.1997 55.0307 65.9775 45.0728 74.8616L46.4043 76.354ZM136.805 53.1997L136.797 55.1997L139.453 55.2104L139.461 53.2104L139.469 51.2105L136.813 51.1997L136.805 53.1997Z" fill="#353C51"/>
<path d="M115.558 65.2886C116.883 65.2886 117.958 66.3635 117.958 67.689V80.3735H154.944V67.688C154.945 66.3627 156.019 65.2886 157.345 65.2886H168.194C169.52 65.2888 170.594 66.3636 170.594 67.689V82.7124C170.594 82.7327 170.597 82.7535 170.597 82.7739V115.003C170.597 116.329 169.523 117.404 168.197 117.404H104.709C103.384 117.404 102.309 116.329 102.309 115.003V67.688C102.309 66.3627 103.384 65.2886 104.709 65.2886H115.558Z" fill="#646676"/>
<path d="M117.958 80.3735H115.958V82.3735H117.958V80.3735ZM154.944 80.3735V82.3735H156.944V80.3735H154.944ZM154.944 67.688L152.944 67.6876V67.688H154.944ZM168.194 65.2886L168.195 63.2886H168.194V65.2886ZM170.594 82.7124H168.594V82.7374L168.594 82.7624L170.594 82.7124ZM170.597 115.003L172.597 115.003V115.003H170.597ZM168.197 117.404V119.404H168.198L168.197 117.404ZM102.309 115.003H100.309V115.003L102.309 115.003ZM102.309 67.688L100.309 67.6876V67.688H102.309ZM115.558 65.2886V67.2886C115.779 67.2886 115.958 67.4681 115.958 67.689H117.958H119.958C119.958 65.2589 117.988 63.2886 115.558 63.2886V65.2886ZM117.958 67.689H115.958V80.3735H117.958H119.958V67.689H117.958ZM117.958 80.3735V82.3735H154.944V80.3735V78.3735H117.958V80.3735ZM154.944 80.3735H156.944V67.688H154.944H152.944V80.3735H154.944ZM154.944 67.688L156.944 67.6884C156.944 67.468 157.123 67.2886 157.345 67.2886V65.2886V63.2886C154.916 63.2886 152.945 65.2574 152.944 67.6876L154.944 67.688ZM157.345 65.2886V67.2886H168.194V65.2886V63.2886H157.345V65.2886ZM168.194 65.2886L168.194 67.2886C168.414 67.2886 168.594 67.4674 168.594 67.689H170.594H172.594C172.594 65.2598 170.625 63.289 168.195 63.2886L168.194 65.2886ZM170.594 67.689H168.594V82.7124H170.594H172.594V67.689H170.594ZM170.594 82.7124L168.594 82.7624C168.595 82.7804 168.595 82.7964 168.596 82.8099C168.597 82.8234 168.597 82.835 168.598 82.844C168.598 82.8529 168.599 82.8604 168.599 82.8649C168.599 82.8672 168.599 82.8693 168.599 82.8705C168.6 82.872 168.6 82.8725 168.6 82.8729C168.6 82.8737 168.6 82.8715 168.599 82.8679C168.599 82.8642 168.599 82.858 168.598 82.8499C168.598 82.8343 168.597 82.8076 168.597 82.7739H170.597H172.597C172.597 82.73 172.595 82.6931 172.594 82.6672C172.593 82.642 172.592 82.6212 172.591 82.6134C172.59 82.5999 172.591 82.6076 172.591 82.6114C172.591 82.6185 172.592 82.6373 172.593 82.6624L170.594 82.7124ZM170.597 82.7739H168.597V115.003H170.597H172.597V82.7739H170.597ZM170.597 115.003L168.597 115.003C168.597 115.225 168.417 115.404 168.197 115.404L168.197 117.404L168.198 119.404C170.628 119.403 172.597 117.432 172.597 115.003L170.597 115.003ZM168.197 117.404V115.404H104.709V117.404V119.404H168.197V117.404ZM104.709 117.404V115.404C104.488 115.404 104.309 115.224 104.309 115.003L102.309 115.003L100.309 115.003C100.309 117.433 102.279 119.404 104.709 119.404V117.404ZM102.309 115.003H104.309V67.688H102.309H100.309V115.003H102.309ZM102.309 67.688L104.309 67.6884C104.309 67.468 104.488 67.2886 104.709 67.2886V65.2886V63.2886C102.28 63.2886 100.309 65.2574 100.309 67.6876L102.309 67.688ZM104.709 65.2886V67.2886H115.558V65.2886V63.2886H104.709V65.2886Z" fill="#353C51"/>
<path d="M214.686 220.265C214.686 225.567 210.387 229.864 205.085 229.864H67.7915C62.4896 229.864 58.1919 225.567 58.1919 220.265V191.311C58.1919 191.309 58.1905 191.308 58.1887 191.308C58.1868 191.308 58.1853 191.306 58.1856 191.304L71.8247 95.4694C72.1615 93.1035 74.1872 91.3457 76.5769 91.3457H196.287C198.677 91.3457 200.703 93.1035 201.04 95.4694L214.679 191.304C214.679 191.306 214.681 191.308 214.682 191.308C214.684 191.308 214.686 191.309 214.686 191.311V220.265Z" fill="#8BB660"/>
<path d="M67.7915 229.864L67.7915 231.864H67.7915V229.864ZM214.679 191.304L216.659 191.023L214.679 191.304ZM201.04 95.4694L199.059 95.7512L201.04 95.4694ZM58.1856 191.304L60.1656 191.586L58.1856 191.304ZM214.686 220.265H212.686C212.686 224.462 209.283 227.864 205.085 227.864V229.864V231.864C211.492 231.864 216.686 226.671 216.686 220.265H214.686ZM205.085 229.864V227.864H67.7915V229.864V231.864H205.085V229.864ZM67.7915 229.864L67.7915 227.864C63.5942 227.864 60.1919 224.462 60.1919 220.265H58.1919H56.1919C56.1919 226.671 61.3851 231.864 67.7915 231.864L67.7915 229.864ZM58.1919 220.265H60.1919V191.311H58.1919H56.1919V220.265H58.1919ZM58.1856 191.304L60.1656 191.586L73.8048 95.7512L71.8247 95.4694L69.8447 95.1876L56.2055 191.022L58.1856 191.304ZM76.5769 91.3457V93.3457H196.287V91.3457V89.3457H76.5769V91.3457ZM201.04 95.4694L199.059 95.7512L212.699 191.586L214.679 191.304L216.659 191.023L203.02 95.1876L201.04 95.4694ZM214.686 191.311H212.686V220.265H214.686H216.686V191.311H214.686ZM214.682 191.308V193.308C213.58 193.308 212.686 192.414 212.686 191.311H214.686H216.686C216.686 190.205 215.789 189.308 214.682 189.308V191.308ZM214.679 191.304L212.699 191.586C212.84 192.577 213.688 193.308 214.682 193.308V191.308V189.308C215.673 189.308 216.518 190.036 216.659 191.023L214.679 191.304ZM196.287 91.3457V93.3457C197.681 93.3457 198.863 94.3711 199.059 95.7512L201.04 95.4694L203.02 95.1876C202.543 91.836 199.673 89.3457 196.287 89.3457V91.3457ZM71.8247 95.4694L73.8048 95.7512C74.0012 94.3711 75.1829 93.3457 76.5769 93.3457V91.3457V89.3457C73.1915 89.3457 70.3217 91.836 69.8447 95.1876L71.8247 95.4694ZM58.1887 191.308V189.308C59.4035 189.308 60.3368 190.383 60.1656 191.586L58.1856 191.304L56.2055 191.022C56.0338 192.229 56.9701 193.308 58.1887 193.308V191.308ZM58.1919 191.311H60.1919C60.1919 190.204 59.2949 189.308 58.1887 189.308V191.308V193.308C57.0861 193.308 56.1919 192.414 56.1919 191.311H58.1919Z" fill="#353C51"/>
<circle cx="136.494" cy="157.5" r="54.5" fill="#FFFFFE" stroke="#353C51" stroke-width="4"/>
<circle cx="136.439" cy="157.176" r="37.7147" fill="#8BB660" stroke="#353C51" stroke-width="4"/>
<rect x="171.152" y="187.488" width="9.14699" height="15.8841" transform="rotate(-52.1899 171.152 187.488)" fill="#646676" stroke="#353C51" stroke-width="4"/>
<circle cx="122.821" cy="157.393" r="13.0573" fill="#FFFFFE" stroke="#353C51" stroke-width="4"/>
<circle cx="125.834" cy="155.385" r="8.03525" fill="#353C51"/>
<circle cx="150.942" cy="157.393" r="13.0573" fill="#FFFFFE" stroke="#353C51" stroke-width="4"/>
<circle cx="153.961" cy="155.385" r="8.03525" fill="#353C51"/>
</svg>
