<svg width="240" height="240" viewBox="0 0 240 240" fill="none" xmlns="http://www.w3.org/2000/svg">
<g clip-path="url(#clip0_6967_1590)">
<path d="M169.951 140.576C169.951 143.073 168.034 145.148 165.547 145.373C152.499 146.554 145.182 147.867 140.165 152.452C138.679 153.81 137.369 155.35 136.268 157.035C131.771 163.913 132.533 173.341 134.059 192.197L137.211 231.174C137.383 233.299 136.139 235.306 134.098 235.923C129.47 237.322 124.56 238.074 119.476 238.074C114.787 238.074 110.248 237.434 105.941 236.238C103.85 235.657 102.559 233.623 102.734 231.46L105.91 192.197C107.435 173.341 108.198 163.913 103.702 157.035C102.6 155.35 101.291 153.81 99.8047 152.452C94.6593 147.75 87.0943 146.488 73.4069 145.282C70.9178 145.063 69 142.986 69 140.487V100.15C69 97.4986 71.149 95.3496 73.8 95.3496H165.151C167.802 95.3496 169.951 97.4986 169.951 100.15V140.576Z" fill="#F95984"/>
<path d="M140.165 152.452L138.816 150.976L138.816 150.976L140.165 152.452ZM136.268 157.035L134.594 155.941V155.941L136.268 157.035ZM134.059 192.197L136.052 192.036V192.036L134.059 192.197ZM119.476 238.074L119.476 240.074H119.476V238.074ZM105.91 192.197L107.904 192.359V192.359L105.91 192.197ZM103.702 157.035L105.376 155.941L105.376 155.941L103.702 157.035ZM99.8047 152.452L101.154 150.976L99.8047 152.452ZM165.547 145.373L165.727 147.365L165.547 145.373ZM105.941 236.238L106.476 234.311L105.941 236.238ZM102.734 231.46L100.74 231.299L102.734 231.46ZM137.211 231.174L139.204 231.013L137.211 231.174ZM134.098 235.923L133.519 234.009L134.098 235.923ZM73.4069 145.282L73.2314 147.274L73.4069 145.282ZM165.547 145.373L165.367 143.382C152.452 144.55 144.412 145.862 138.816 150.976L140.165 152.452L141.514 153.928C145.952 149.873 152.545 148.558 165.727 147.365L165.547 145.373ZM140.165 152.452L138.816 150.976C137.206 152.447 135.787 154.115 134.594 155.941L136.268 157.035L137.942 158.13C138.951 156.585 140.152 155.174 141.514 153.928L140.165 152.452ZM136.268 157.035L134.594 155.941C132.063 159.811 131.093 164.304 130.906 170.059C130.721 175.773 131.306 182.977 132.065 192.359L134.059 192.197L136.052 192.036C135.286 182.561 134.728 175.623 134.904 170.189C135.079 164.796 135.976 161.136 137.942 158.13L136.268 157.035ZM134.059 192.197L132.065 192.358L135.218 231.336L137.211 231.174L139.204 231.013L136.052 192.036L134.059 192.197ZM134.098 235.923L133.519 234.009C129.076 235.351 124.362 236.074 119.476 236.074V238.074V240.074C124.759 240.074 129.863 239.292 134.677 237.838L134.098 235.923ZM119.476 238.074L119.476 236.074C114.97 236.074 110.611 235.459 106.476 234.311L105.941 236.238L105.405 238.165C109.885 239.409 114.604 240.074 119.476 240.074L119.476 238.074ZM102.734 231.46L104.727 231.622L107.904 192.359L105.91 192.197L103.917 192.036L100.74 231.299L102.734 231.46ZM105.91 192.197L107.904 192.359C108.662 182.977 109.248 175.773 109.063 170.059C108.877 164.305 107.907 159.812 105.376 155.941L103.702 157.035L102.028 158.13C103.994 161.136 104.891 164.796 105.065 170.189C105.241 175.623 104.683 182.561 103.917 192.036L105.91 192.197ZM103.702 157.035L105.376 155.941C104.183 154.115 102.764 152.447 101.154 150.976L99.8047 152.452L98.4555 153.928C99.8179 155.174 101.018 156.585 102.028 158.13L103.702 157.035ZM99.8047 152.452L101.154 150.976C95.4207 145.736 87.1098 144.481 73.5824 143.29L73.4069 145.282L73.2314 147.274C87.0788 148.494 93.898 149.763 98.4555 153.928L99.8047 152.452ZM69 140.487H71V100.15H69H67V140.487H69ZM73.8 95.3496V97.3496H165.151V95.3496V93.3496H73.8V95.3496ZM169.951 100.15H167.951V140.576H169.951H171.951V100.15H169.951ZM165.151 95.3496V97.3496C166.698 97.3496 167.951 98.6032 167.951 100.15H169.951H171.951C171.951 96.3941 168.907 93.3496 165.151 93.3496V95.3496ZM165.547 145.373L165.727 147.365C169.233 147.048 171.951 144.119 171.951 140.576H169.951H167.951C167.951 142.026 166.835 143.249 165.367 143.382L165.547 145.373ZM69 100.15H71C71 98.6032 72.2536 97.3496 73.8 97.3496V95.3496V93.3496C70.0445 93.3496 67 96.3941 67 100.15H69ZM105.941 236.238L106.476 234.311C105.395 234.011 104.622 232.919 104.727 231.622L102.734 231.46L100.74 231.299C100.496 234.326 102.306 237.304 105.405 238.165L105.941 236.238ZM137.211 231.174L135.218 231.336C135.321 232.61 134.576 233.689 133.519 234.009L134.098 235.923L134.677 237.838C137.701 236.923 139.445 233.989 139.204 231.013L137.211 231.174ZM73.4069 145.282L73.5824 143.29C72.1169 143.161 71 141.94 71 140.487H69H67C67 144.031 69.7188 146.965 73.2314 147.274L73.4069 145.282Z" fill="#353C51"/>
<path d="M165.824 119H74.29L70.8359 9.4834H84.2256L89.4619 40.2461L94.6982 9.4834H169.278L165.824 119Z" fill="#FFFFFE"/>
<path d="M165.824 119V121H167.762L167.823 119.063L165.824 119ZM74.29 119L72.291 119.063L72.3521 121H74.29V119ZM70.8359 9.4834V7.4834H68.7719L68.8369 9.54645L70.8359 9.4834ZM84.2256 9.4834L86.1972 9.14779L85.9139 7.4834H84.2256V9.4834ZM89.4619 40.2461L87.4903 40.5817H91.4336L89.4619 40.2461ZM94.6982 9.4834V7.4834H93.0099L92.7266 9.14779L94.6982 9.4834ZM169.278 9.4834L171.277 9.54645L171.342 7.4834H169.278V9.4834ZM165.824 119V117H74.29V119V121H165.824V119ZM74.29 119L76.289 118.937L72.8349 9.42035L70.8359 9.4834L68.8369 9.54645L72.291 119.063L74.29 119ZM70.8359 9.4834V11.4834H84.2256V9.4834V7.4834H70.8359V9.4834ZM84.2256 9.4834L82.2539 9.819L87.4903 40.5817L89.4619 40.2461L91.4336 39.9105L86.1972 9.14779L84.2256 9.4834ZM89.4619 40.2461L91.4336 40.5817L96.6699 9.819L94.6982 9.4834L92.7266 9.14779L87.4903 39.9105L89.4619 40.2461ZM94.6982 9.4834V11.4834H169.278V9.4834V7.4834H94.6982V9.4834ZM169.278 9.4834L167.279 9.42035L163.825 118.937L165.824 119L167.823 119.063L171.277 9.54645L169.278 9.4834Z" fill="#353C51"/>
<rect width="100.951" height="60.3388" transform="matrix(-1 0 0 1 169.955 61.6992)" fill="#646676" stroke="#353C51" stroke-width="4"/>
<rect width="100.951" height="37.1316" transform="matrix(-1 0 0 1 169.955 73.3032)" fill="#F95984" stroke="#353C51" stroke-width="4"/>
<path d="M115.254 3H168.691C172.964 3 176.367 6.5109 176.291 10.7295L176.272 11.1396L173.812 45.6836C173.554 49.2985 170.89 52.0364 167.747 51.9971L167.173 51.9854C161.296 51.8044 157.245 49.9946 154.08 47.5234C150.728 44.9058 148.317 41.5215 145.738 38.0898C143.245 34.7723 140.527 31.31 136.673 29.3682C132.804 27.4185 128.103 27.1308 121.878 29.1768L121.271 29.3818C118.352 30.3959 115.175 30.075 112.708 28.7539C110.345 27.4885 108.706 25.3601 108.435 22.6299L108.413 22.3633L107.67 11.0996C107.39 6.85217 110.646 3.23275 114.845 3.01074L115.254 3Z" fill="#F95984" stroke="#353C51" stroke-width="4"/>
<circle cx="120.06" cy="222.99" r="4.96217" fill="#FFFFFE" stroke="#353C51" stroke-width="4"/>
<circle cx="105.057" cy="113.393" r="13.0573" fill="#FFFFFE" stroke="#353C51" stroke-width="4"/>
<circle cx="108.07" cy="111.385" r="8.03525" fill="#353C51"/>
<circle cx="133.178" cy="113.393" r="13.0573" fill="#FFFFFE" stroke="#353C51" stroke-width="4"/>
<circle cx="136.197" cy="111.385" r="8.03525" fill="#353C51"/>
</g>
<defs>
<clipPath id="clip0_6967_1590">
<rect width="240" height="240" fill="white"/>
</clipPath>
</defs>
</svg>
