<svg width="240" height="240" viewBox="0 0 240 240" fill="none" xmlns="http://www.w3.org/2000/svg">
<path d="M68.002 56.0002H76.0222C80.0222 35 99.502 22.1094 120.002 22.1094C140.502 22.1094 159.981 35 163.981 56.0002H172.002C168.002 29 144.502 14.013 120.002 14.0132C95.502 14.0134 72.002 29 68.002 56.0002Z" fill="#646676" stroke="#353C51" stroke-width="4"/>
<rect x="125.002" y="90" width="10" height="51" transform="rotate(180 125.002 90)" fill="#646676" stroke="#353C51" stroke-width="4"/>
<rect x="108.002" y="47" width="9" height="24" rx="4.5" transform="rotate(-90 108.002 47)" fill="#646676" stroke="#353C51" stroke-width="4"/>
<path d="M162.691 208.79L176.691 200.707L190.65 224.885C192.882 228.75 191.557 233.694 187.691 235.926C183.825 238.158 178.882 236.833 176.65 232.967L162.691 208.79Z" fill="#646676" stroke="#353C51" stroke-width="4"/>
<path d="M76.6406 208.79L62.641 200.707L48.6824 224.885C46.4504 228.75 47.775 233.694 51.6408 235.926C55.5067 238.158 60.45 236.833 62.682 232.967L76.6406 208.79Z" fill="#646676" stroke="#353C51" stroke-width="4"/>
<circle cx="119.502" cy="146.5" r="90.5" fill="#10B9DF" stroke="#353C51" stroke-width="4"/>
<circle cx="119.52" cy="146.837" r="71.9633" fill="#FFFFFE" stroke="#353C51" stroke-width="4"/>
<path d="M197.311 68.6045L189.545 61.9361L199.343 50.5247C201.185 48.3802 204.416 48.1346 206.561 49.976C208.705 51.8174 208.951 55.0486 207.109 57.1931L197.311 68.6045Z" fill="#646676" stroke="#353C51" stroke-width="4"/>
<path d="M151.558 54.4039C151.468 54.5093 151.48 54.6681 151.585 54.7586L210.285 105.174C210.39 105.265 210.549 105.252 210.639 105.147C221.499 92.5028 220.053 73.4488 207.408 62.5889L194.117 51.173C181.472 40.3131 162.418 41.7596 151.558 54.4039Z" fill="#646676" stroke="#353C51" stroke-width="4"/>
<path d="M40.918 68.6045L48.6838 61.9361L38.885 50.5247C37.0436 48.3802 33.8124 48.1346 31.6679 49.976C29.5235 51.8174 29.2778 55.0486 31.1192 57.1931L40.918 68.6045Z" fill="#646676" stroke="#353C51" stroke-width="4"/>
<path d="M86.6721 54.4039C86.7626 54.5093 86.7505 54.6681 86.6451 54.7586L27.9459 105.174C27.8405 105.265 27.6817 105.252 27.5912 105.147C16.7313 92.5028 18.1778 73.4488 30.8222 62.5889L44.1138 51.173C56.7582 40.3131 75.8121 41.7596 86.6721 54.4039Z" fill="#646676" stroke="#353C51" stroke-width="4"/>
<path d="M114.222 85.6833V106.629H109.794V89.8867H109.671L104.874 92.8936V88.9663L110.059 85.6833H114.222Z" fill="#353C51"/>
<path d="M119.2 106.629V103.438L126.656 96.5345C127.29 95.9208 127.822 95.3686 128.251 94.8777C128.688 94.3867 129.018 93.9061 129.243 93.4356C129.468 92.9583 129.581 92.4436 129.581 91.8913C129.581 91.2777 129.441 90.7492 129.161 90.3061C128.882 89.8561 128.5 89.5117 128.016 89.2731C127.532 89.0277 126.983 88.9049 126.369 88.9049C125.729 88.9049 125.169 89.0345 124.692 89.2936C124.215 89.5527 123.847 89.9242 123.588 90.4083C123.329 90.8924 123.199 91.4686 123.199 92.1367H118.996C118.996 90.7663 119.306 89.5765 119.926 88.5674C120.547 87.5583 121.416 86.7777 122.534 86.2254C123.652 85.6731 124.941 85.397 126.4 85.397C127.9 85.397 129.206 85.6629 130.317 86.1947C131.435 86.7197 132.305 87.4492 132.925 88.3833C133.546 89.3174 133.856 90.3879 133.856 91.5947C133.856 92.3856 133.699 93.1663 133.385 93.9367C133.079 94.7072 132.53 95.5629 131.739 96.5038C130.948 97.4379 129.833 98.5595 128.394 99.8686L125.336 102.865V103.008H134.132V106.629H119.2Z" fill="#353C51"/>
<path d="M120.383 208.29C119.306 208.283 118.266 208.102 117.264 207.748C116.269 207.393 115.375 206.817 114.585 206.02C113.794 205.222 113.166 204.165 112.703 202.849C112.246 201.533 112.018 199.917 112.018 198.001C112.024 196.242 112.225 194.671 112.621 193.287C113.023 191.896 113.596 190.716 114.339 189.748C115.089 188.78 115.986 188.043 117.029 187.539C118.072 187.027 119.241 186.772 120.537 186.772C121.935 186.772 123.169 187.045 124.239 187.59C125.31 188.129 126.169 188.862 126.816 189.789C127.471 190.716 127.866 191.756 128.003 192.908H123.636C123.465 192.179 123.107 191.606 122.562 191.19C122.016 190.774 121.341 190.566 120.537 190.566C119.173 190.566 118.137 191.159 117.428 192.346C116.725 193.532 116.368 195.145 116.354 197.183H116.497C116.811 196.563 117.233 196.034 117.765 195.598C118.304 195.155 118.914 194.817 119.596 194.585C120.285 194.347 121.011 194.227 121.774 194.227C123.015 194.227 124.12 194.521 125.088 195.107C126.056 195.687 126.82 196.484 127.379 197.5C127.938 198.516 128.218 199.679 128.218 200.988C128.218 202.406 127.887 203.667 127.225 204.772C126.571 205.876 125.654 206.742 124.474 207.37C123.302 207.99 121.938 208.297 120.383 208.29ZM120.363 204.813C121.045 204.813 121.655 204.649 122.194 204.322C122.732 203.995 123.155 203.551 123.462 202.992C123.769 202.433 123.922 201.806 123.922 201.11C123.922 200.415 123.769 199.791 123.462 199.239C123.162 198.687 122.746 198.247 122.214 197.92C121.682 197.592 121.075 197.429 120.394 197.429C119.882 197.429 119.408 197.524 118.972 197.715C118.543 197.906 118.164 198.172 117.837 198.513C117.516 198.854 117.264 199.249 117.08 199.699C116.896 200.142 116.804 200.616 116.804 201.121C116.804 201.796 116.957 202.413 117.264 202.972C117.578 203.531 118 203.977 118.532 204.312C119.071 204.646 119.681 204.813 120.363 204.813Z" fill="#353C51"/>
<path d="M66.1013 135.457C67.1786 135.457 68.2149 135.638 69.2104 135.999C70.2127 136.361 71.1059 136.937 71.8899 137.728C72.6809 138.519 73.3047 139.569 73.7615 140.878C74.2252 142.18 74.4604 143.779 74.4672 145.674C74.4672 147.454 74.2661 149.043 73.8638 150.44C73.4684 151.831 72.899 153.014 72.1559 153.989C71.4127 154.964 70.5161 155.707 69.4661 156.219C68.4161 156.723 67.2434 156.976 65.9479 156.976C64.5502 156.976 63.3161 156.706 62.2456 156.168C61.1752 155.622 60.3127 154.882 59.6581 153.948C59.0104 153.007 58.6184 151.951 58.482 150.778H62.849C63.0195 151.542 63.3774 152.135 63.9229 152.557C64.4684 152.973 65.1434 153.181 65.9479 153.181C67.3115 153.181 68.3479 152.588 69.057 151.402C69.7661 150.209 70.124 148.576 70.1309 146.503H69.9877C69.674 147.117 69.2513 147.645 68.7195 148.088C68.1877 148.524 67.5774 148.862 66.8888 149.101C66.207 149.339 65.4809 149.459 64.7104 149.459C63.4763 149.459 62.3752 149.169 61.407 148.589C60.4388 148.01 59.6752 147.212 59.1161 146.196C58.557 145.18 58.2774 144.021 58.2774 142.719C58.2706 141.314 58.5945 140.063 59.249 138.965C59.9036 137.868 60.8172 137.009 61.9899 136.388C63.1695 135.761 64.5399 135.451 66.1013 135.457ZM66.132 138.935C65.4434 138.935 64.8297 139.098 64.2911 139.426C63.7593 139.753 63.3365 140.193 63.0229 140.745C62.7161 141.297 62.5661 141.914 62.5729 142.596C62.5729 143.285 62.7229 143.905 63.0229 144.457C63.3297 145.003 63.7456 145.439 64.2706 145.767C64.8024 146.087 65.4093 146.247 66.0911 146.247C66.6025 146.247 67.0763 146.152 67.5127 145.961C67.949 145.77 68.3274 145.507 68.6479 145.173C68.9752 144.832 69.2309 144.44 69.415 143.997C69.599 143.554 69.6911 143.084 69.6911 142.586C69.6843 141.924 69.5274 141.318 69.2206 140.765C68.9138 140.213 68.4911 139.77 67.9524 139.436C67.4138 139.102 66.807 138.935 66.132 138.935Z" fill="#353C51"/>
<path d="M172.662 156.976C171.135 156.976 169.774 156.713 168.581 156.188C167.395 155.656 166.457 154.927 165.769 153.999C165.087 153.065 164.736 151.988 164.715 150.768H169.174C169.202 151.279 169.369 151.729 169.675 152.118C169.989 152.499 170.405 152.796 170.923 153.007C171.441 153.219 172.024 153.324 172.672 153.324C173.347 153.324 173.944 153.205 174.462 152.967C174.98 152.728 175.386 152.397 175.679 151.974C175.972 151.552 176.119 151.064 176.119 150.512C176.119 149.953 175.962 149.459 175.648 149.029C175.341 148.593 174.898 148.252 174.319 148.006C173.746 147.761 173.064 147.638 172.273 147.638H170.32V144.386H172.273C172.941 144.386 173.531 144.27 174.043 144.038C174.561 143.806 174.963 143.486 175.249 143.077C175.536 142.661 175.679 142.177 175.679 141.624C175.679 141.099 175.553 140.639 175.3 140.244C175.055 139.842 174.707 139.528 174.257 139.303C173.814 139.078 173.296 138.965 172.703 138.965C172.103 138.965 171.554 139.074 171.056 139.293C170.558 139.504 170.16 139.807 169.86 140.203C169.56 140.598 169.399 141.062 169.379 141.594H165.135C165.155 140.387 165.499 139.323 166.168 138.403C166.836 137.482 167.736 136.763 168.868 136.245C170.006 135.72 171.291 135.457 172.723 135.457C174.169 135.457 175.433 135.72 176.518 136.245C177.602 136.77 178.444 137.479 179.044 138.372C179.65 139.259 179.95 140.254 179.944 141.359C179.95 142.531 179.586 143.51 178.849 144.294C178.12 145.078 177.169 145.576 175.996 145.787V145.951C177.537 146.148 178.71 146.684 179.514 147.556C180.325 148.422 180.728 149.506 180.721 150.809C180.728 152.002 180.383 153.062 179.688 153.989C178.999 154.917 178.048 155.646 176.835 156.178C175.621 156.71 174.23 156.976 172.662 156.976Z" fill="#353C51"/>
<circle cx="102.729" cy="158.729" r="15.7293" fill="#FFFFFE" stroke="#353C51" stroke-width="4"/>
<circle cx="98.7947" cy="157.345" r="10.8611" fill="#353C51"/>
<circle cx="135.27" cy="158.729" r="15.7293" fill="#FFFFFE" stroke="#353C51" stroke-width="4"/>
<circle cx="131.379" cy="157.345" r="10.8611" fill="#353C51"/>
</svg>
