<svg width="319" height="202" viewBox="0 0 319 202" fill="none" xmlns="http://www.w3.org/2000/svg">
<rect x="0.5" width="318" height="202" rx="8" fill="#353C51"/>
<path d="M47.3268 24.9873H25.4922V46.7053M47.3268 24.9873V46.7053M47.3268 24.9873H69.1614M47.3268 46.7053H25.4922M47.3268 46.7053H69.1614M47.3268 46.7053V68.4232M25.4922 46.7053V68.4232M69.1614 24.9873V46.7053M69.1614 24.9873H90.9959M69.1614 46.7053H90.9959M69.1614 46.7053V68.4232M90.9959 24.9873V46.7053M90.9959 24.9873H112.831M90.9959 46.7053H112.831M90.9959 46.7053V68.4232M112.831 24.9873V46.7053M112.831 24.9873H134.665M112.831 46.7053H134.665M112.831 46.7053V68.4232M134.665 24.9873V46.7053M134.665 24.9873H155.5M134.665 46.7053H155.5M134.665 46.7053V68.4232M155.5 24.9873V46.7053M155.5 24.9873H177.334M155.5 46.7053H177.334M155.5 46.7053V68.4232M177.334 24.9873V46.7053M177.334 24.9873H200.169M177.334 46.7053H200.169M177.334 46.7053V68.4232M200.169 24.9873V46.7053M200.169 24.9873H222.003M200.169 46.7053H222.003M200.169 46.7053V68.4232M222.003 24.9873V46.7053M222.003 24.9873H243.838M222.003 46.7053H243.838M222.003 46.7053V68.4232M243.838 24.9873V46.7053M243.838 24.9873H265.673M243.838 46.7053H265.673M243.838 46.7053V68.4232M265.673 24.9873V46.7053M265.673 24.9873H287.507V46.7053M265.673 46.7053H287.507M265.673 46.7053V68.4232M287.507 46.7053V68.4232M47.3268 68.4232H25.4922M47.3268 68.4232H69.1614M47.3268 68.4232V90.1412M25.4922 68.4232V90.1412M69.1614 68.4232H90.9959M69.1614 68.4232V90.1412M90.9959 68.4232H112.831M90.9959 68.4232V90.1412M112.831 68.4232H134.665M112.831 68.4232V90.1412M134.665 68.4232H155.5M134.665 68.4232V90.1412M155.5 68.4232H177.334M155.5 68.4232V90.1412M177.334 68.4232H200.169M177.334 68.4232V90.1412M200.169 68.4232H222.003M200.169 68.4232V90.1412M222.003 68.4232H243.838M222.003 68.4232V90.1412M243.838 68.4232H265.673M243.838 68.4232V90.1412M265.673 68.4232H287.507M265.673 68.4232V90.1412M287.507 68.4232V90.1412M47.3268 90.1412H25.4922M47.3268 90.1412H69.1614M47.3268 90.1412V111.859M25.4922 90.1412V111.859M69.1614 90.1412H90.9959M69.1614 90.1412V111.859M90.9959 90.1412H112.831M90.9959 90.1412V111.859M112.831 90.1412H134.665M112.831 90.1412V111.859M134.665 90.1412H155.5M134.665 90.1412V111.859M155.5 90.1412H177.334M155.5 90.1412V111.859M177.334 90.1412H200.169M177.334 90.1412V111.859M200.169 90.1412H222.003M200.169 90.1412V111.859M222.003 90.1412H243.838M222.003 90.1412V111.859M243.838 90.1412H265.673M243.838 90.1412V111.859M265.673 90.1412H287.507M265.673 90.1412V111.859M287.507 90.1412V111.859M47.3268 111.859H25.4922M47.3268 111.859H69.1614M47.3268 111.859V132.577M25.4922 111.859V132.577M69.1614 111.859H90.9959M69.1614 111.859V132.577M90.9959 111.859H112.831M90.9959 111.859V132.577M112.831 111.859H134.665M112.831 111.859V132.577M134.665 111.859H155.5M134.665 111.859V132.577M155.5 111.859H177.334M155.5 111.859V132.577M177.334 111.859H200.169M177.334 111.859V132.577M200.169 111.859H222.003M200.169 111.859V132.577M222.003 111.859H243.838M222.003 111.859V132.577M243.838 111.859H265.673M243.838 111.859V132.577M265.673 111.859H287.507M265.673 111.859V132.577M287.507 111.859V132.577M47.3268 132.577H25.4922M47.3268 132.577H69.1614M47.3268 132.577V154.295M25.4922 132.577V154.295M69.1614 132.577H90.9959M69.1614 132.577V154.295M90.9959 132.577H112.831M90.9959 132.577V154.295M112.831 132.577H134.665M112.831 132.577V154.295M134.665 132.577H155.5M134.665 132.577V154.295M155.5 132.577H177.334M155.5 132.577V154.295M177.334 132.577H200.169M177.334 132.577V154.295M200.169 132.577H222.003M200.169 132.577V154.295M222.003 132.577H243.838M222.003 132.577V154.295M243.838 132.577H265.673M243.838 132.577V154.295M265.673 132.577H287.507M265.673 132.577V154.295M287.507 132.577V154.295M47.3268 154.295H25.4922M47.3268 154.295H69.1614M47.3268 154.295V177.013M25.4922 154.295V177.013H47.3268M69.1614 154.295H90.9959M69.1614 154.295V177.013M90.9959 154.295H112.831M90.9959 154.295V177.013M112.831 154.295H134.665M112.831 154.295V177.013M134.665 154.295H155.5M134.665 154.295V177.013M155.5 154.295H177.334M155.5 154.295V177.013M177.334 154.295H200.169M177.334 154.295V177.013M200.169 154.295H222.003M200.169 154.295V177.013M222.003 154.295H243.838M222.003 154.295V177.013M243.838 154.295H265.673M243.838 154.295V177.013M265.673 154.295H287.507M265.673 154.295V177.013M287.507 154.295V177.013H265.673M47.3268 177.013H69.1614M69.1614 177.013H90.9959M90.9959 177.013H112.831M112.831 177.013H134.665M134.665 177.013H155.5M155.5 177.013H177.334M177.334 177.013H200.169M200.169 177.013H222.003M222.003 177.013H243.838M243.838 177.013H265.673" stroke="#646676" stroke-width="1.96923"/>
<path d="M35.3333 64V37H49.3C52.1889 37 54.4444 37.6556 56.0667 38.9667C57.7111 40.2556 58.5333 42.0444 58.5333 44.3333C58.5333 45.7778 58.1889 47.0111 57.5 48.0333C56.8333 49.0556 55.8889 49.7778 54.6667 50.2V50.3667C55.8889 50.3667 56.8333 50.7 57.5 51.3667C58.1889 52.0111 58.5333 52.9889 58.5333 54.3V64H52.8667V53.7333H40.9667V64H35.3333ZM40.9667 48.8333H48.9333C50.2222 48.8333 51.2111 48.5333 51.9 47.9333C52.6111 47.3333 52.9667 46.4778 52.9667 45.3667C52.9667 44.2556 52.6111 43.4 51.9 42.8C51.2111 42.2 50.2222 41.9 48.9333 41.9H40.9667V48.8333ZM72.7099 64.4C70.5543 64.4 68.6766 63.9778 67.0766 63.1333C65.4766 62.2667 64.2432 61.0556 63.3766 59.5C62.5099 57.9222 62.0766 56.0667 62.0766 53.9333C62.0766 51.8 62.4988 49.9667 63.3432 48.4333C64.1877 46.8778 65.3877 45.6889 66.9432 44.8667C68.521 44.0222 70.3766 43.6 72.5099 43.6C74.5988 43.6 76.3877 44 77.8766 44.8C79.3877 45.6 80.5432 46.7444 81.3432 48.2333C82.1432 49.7222 82.5432 51.5 82.5432 53.5667V55.4333H67.3766C67.5988 56.9222 68.1655 58.0556 69.0766 58.8333C69.9877 59.6111 71.1877 60 72.6766 60C73.8543 60 74.7877 59.8 75.4766 59.4C76.1655 59 76.6543 58.3889 76.9432 57.5667H82.4766C82.0321 59.7 80.9543 61.3778 79.2432 62.6C77.5321 63.8 75.3543 64.4 72.7099 64.4ZM67.5099 51.7667H77.2432C77.0655 50.5 76.5766 49.5556 75.7766 48.9333C74.9766 48.2889 73.8988 47.9667 72.5432 47.9667C71.1877 47.9667 70.0766 48.2889 69.2099 48.9333C68.3655 49.5778 67.7988 50.5222 67.5099 51.7667ZM92.2995 64.3667C89.9439 64.3667 88.0995 63.8 86.7661 62.6667C85.4328 61.5111 84.7661 60 84.7661 58.1333C84.7661 56.1556 85.455 54.6333 86.8328 53.5667C88.2106 52.5 90.1884 51.9667 92.7661 51.9667H98.4995V51.2C98.4995 49.0444 97.2106 47.9667 94.6328 47.9667C92.3884 47.9667 91.0328 48.7444 90.5661 50.3H85.0661C85.5106 48.1 86.5439 46.4333 88.1661 45.3C89.7884 44.1667 91.9439 43.6 94.6328 43.6C97.6106 43.6 99.8773 44.2667 101.433 45.6C103.011 46.9333 103.799 48.8778 103.799 51.4333V58.5333H106.399V64H100.799V60.7333H99.3995C98.7106 61.8889 97.7884 62.7889 96.6328 63.4333C95.4773 64.0556 94.0328 64.3667 92.2995 64.3667ZM93.1328 60.1667C94.1773 60.1667 95.0995 59.9778 95.8995 59.6C96.6995 59.2222 97.3328 58.7222 97.7995 58.1C98.2661 57.4556 98.4995 56.7333 98.4995 55.9333V55.6333H93.0328C91.0328 55.6333 90.0328 56.3778 90.0328 57.8667C90.0328 58.6 90.3106 59.1667 90.8661 59.5667C91.4217 59.9667 92.1773 60.1667 93.1328 60.1667ZM117.971 64.4C115.927 64.4 114.182 63.9667 112.738 63.1C111.316 62.2333 110.238 61.0222 109.505 59.4667C108.771 57.8889 108.405 56.0667 108.405 54C108.405 51.9111 108.76 50.0889 109.471 48.5333C110.182 46.9556 111.216 45.7444 112.571 44.9C113.949 44.0333 115.594 43.6 117.505 43.6C118.971 43.6 120.227 43.8778 121.271 44.4333C122.338 44.9667 123.16 45.7333 123.738 46.7333H123.871V36H129.405V58.5333H132.138V64H126.538V60.7333H125.138C124.427 61.8889 123.471 62.7889 122.271 63.4333C121.094 64.0778 119.66 64.4 117.971 64.4ZM119.005 59.6C120.494 59.6 121.671 59.1889 122.538 58.3667C123.427 57.5222 123.871 56.3667 123.871 54.9V53.1C123.871 51.6333 123.427 50.4889 122.538 49.6667C121.671 48.8222 120.494 48.4 119.005 48.4C117.316 48.4 116.049 48.9 115.205 49.9C114.36 50.9 113.938 52.2667 113.938 54C113.938 55.7333 114.36 57.1 115.205 58.1C116.049 59.1 117.316 59.6 119.005 59.6ZM135.914 72V67.5667H140.314L141.88 63.8333L133.247 44H139.114L144.714 57.4667H144.847L150.314 44H155.98L147.414 64L145.78 67.8667C145.225 69.1778 144.58 70.1889 143.847 70.9C143.114 71.6333 141.991 72 140.48 72H135.914ZM174.158 64C172.736 64 171.625 63.6444 170.825 62.9333C170.047 62.2 169.658 61.0889 169.658 59.6V48.3333H166.225V44H169.725V38H175.125V44H179.758V48.3333H175.192V59.6667H180.225V64H174.158ZM192.882 64.4C190.705 64.4 188.805 63.9778 187.182 63.1333C185.582 62.2667 184.338 61.0556 183.449 59.5C182.56 57.9444 182.116 56.1 182.116 53.9667C182.116 51.8556 182.549 50.0222 183.416 48.4667C184.305 46.9111 185.56 45.7111 187.182 44.8667C188.805 44.0222 190.716 43.6 192.916 43.6C195.093 43.6 196.982 44.0222 198.582 44.8667C200.182 45.7111 201.416 46.9111 202.282 48.4667C203.149 50.0222 203.582 51.8667 203.582 54C203.582 56.1111 203.149 57.9556 202.282 59.5333C201.416 61.0889 200.171 62.2889 198.549 63.1333C196.949 63.9778 195.06 64.4 192.882 64.4ZM192.882 59.6C194.549 59.6 195.827 59.1 196.716 58.1C197.605 57.0778 198.049 55.7 198.049 53.9667C198.049 52.2333 197.605 50.8778 196.716 49.9C195.827 48.9 194.549 48.4 192.882 48.4C191.193 48.4 189.893 48.9 188.982 49.9C188.093 50.8778 187.649 52.2333 187.649 53.9667C187.649 55.7 188.093 57.0778 188.982 58.1C189.893 59.1 191.193 59.6 192.882 59.6ZM47 114.4C44.5778 114.4 42.4667 114.033 40.6667 113.3C38.8667 112.544 37.4778 111.4 36.5 109.867C35.5222 108.311 35.0333 106.333 35.0333 103.933V87H40.8V103.133C40.8 105.022 41.3 106.5 42.3 107.567C43.3222 108.611 44.9444 109.133 47.1667 109.133C49.4333 109.133 51.0556 108.578 52.0333 107.467C53.0333 106.356 53.5333 104.922 53.5333 103.167V87H59.1667V104C59.1667 107.467 58.0889 110.067 55.9333 111.8C53.7778 113.533 50.8 114.4 47 114.4ZM65.3521 122V99.4667H62.6188V94H68.2188V97.2667H69.6188C70.3299 96.1111 71.2743 95.2111 72.4521 94.5667C73.6521 93.9222 75.0965 93.6 76.7854 93.6C78.8521 93.6 80.5965 94.0333 82.0187 94.9C83.441 95.7667 84.5188 96.9778 85.2521 98.5333C85.9854 100.089 86.3521 101.911 86.3521 104C86.3521 106.089 85.9965 107.922 85.2854 109.5C84.5743 111.056 83.541 112.267 82.1854 113.133C80.8299 113.978 79.1854 114.4 77.2521 114.4C75.7854 114.4 74.5299 114.133 73.4854 113.6C72.441 113.044 71.6187 112.267 71.0188 111.267H70.8854V122H65.3521ZM75.7521 109.6C77.441 109.6 78.7076 109.1 79.5521 108.1C80.3965 107.1 80.8188 105.733 80.8188 104C80.8188 102.267 80.3965 100.9 79.5521 99.9C78.7076 98.9 77.441 98.4 75.7521 98.4C74.2632 98.4 73.0743 98.8222 72.1854 99.6667C71.3188 100.489 70.8854 101.633 70.8854 103.1V104.9C70.8854 106.367 71.3188 107.522 72.1854 108.367C73.0743 109.189 74.2632 109.6 75.7521 109.6ZM88.8609 106.333V101.667H99.1276V106.333H88.8609ZM115.347 114.4C112.725 114.4 110.414 113.822 108.414 112.667C106.436 111.489 104.88 109.856 103.747 107.767C102.636 105.678 102.08 103.267 102.08 100.533C102.08 97.7333 102.658 95.2889 103.814 93.2C104.969 91.1111 106.591 89.4889 108.68 88.3333C110.769 87.1778 113.202 86.6 115.98 86.6C118.225 86.6 120.202 86.9889 121.914 87.7667C123.625 88.5222 125.025 89.6111 126.114 91.0333C127.225 92.4556 127.925 94.1556 128.214 96.1333H122.314C122.069 94.6889 121.391 93.5778 120.28 92.8C119.169 92 117.736 91.6 115.98 91.6C114.314 91.6 112.858 91.9667 111.614 92.7C110.391 93.4111 109.436 94.4444 108.747 95.8C108.08 97.1556 107.747 98.7444 107.747 100.567C107.747 102.433 108.091 104.056 108.78 105.433C109.469 106.789 110.436 107.844 111.68 108.6C112.925 109.333 114.391 109.7 116.08 109.7C117.325 109.7 118.447 109.5 119.447 109.1C120.447 108.7 121.236 108.144 121.814 107.433C122.391 106.722 122.68 105.922 122.68 105.033V104H115.58V99.6333H124.047C125.425 99.6333 126.458 99.9667 127.147 100.633C127.858 101.3 128.214 102.289 128.214 103.6V114H123.014V110.867H122.847C122.225 112.022 121.269 112.9 119.98 113.5C118.691 114.1 117.147 114.4 115.347 114.4ZM134.285 114V99.4667H131.552V94H137.152V97.9333H138.552C139.085 96.5333 139.929 95.4889 141.085 94.8C142.24 94.1111 143.54 93.7667 144.985 93.7667H146.685V98.5667H144.752C143.018 98.5667 141.74 99.0556 140.918 100.033C140.118 101.011 139.718 102.3 139.718 103.9V114H134.285ZM155.503 114.367C153.147 114.367 151.303 113.8 149.969 112.667C148.636 111.511 147.969 110 147.969 108.133C147.969 106.156 148.658 104.633 150.036 103.567C151.414 102.5 153.391 101.967 155.969 101.967H161.703V101.2C161.703 99.0444 160.414 97.9667 157.836 97.9667C155.591 97.9667 154.236 98.7444 153.769 100.3H148.269C148.714 98.1 149.747 96.4333 151.369 95.3C152.991 94.1667 155.147 93.6 157.836 93.6C160.814 93.6 163.08 94.2667 164.636 95.6C166.214 96.9333 167.003 98.8778 167.003 101.433V108.533H169.603V114H164.003V110.733H162.603C161.914 111.889 160.991 112.789 159.836 113.433C158.68 114.056 157.236 114.367 155.503 114.367ZM156.336 110.167C157.38 110.167 158.303 109.978 159.103 109.6C159.903 109.222 160.536 108.722 161.003 108.1C161.469 107.456 161.703 106.733 161.703 105.933V105.633H156.236C154.236 105.633 153.236 106.378 153.236 107.867C153.236 108.6 153.514 109.167 154.069 109.567C154.625 109.967 155.38 110.167 156.336 110.167ZM181.174 114.4C179.13 114.4 177.386 113.967 175.941 113.1C174.519 112.233 173.441 111.022 172.708 109.467C171.974 107.889 171.608 106.067 171.608 104C171.608 101.911 171.963 100.089 172.674 98.5333C173.386 96.9556 174.419 95.7444 175.774 94.9C177.152 94.0333 178.797 93.6 180.708 93.6C182.174 93.6 183.43 93.8778 184.474 94.4333C185.541 94.9667 186.363 95.7333 186.941 96.7333H187.074V86H192.608V108.533H195.341V114H189.741V110.733H188.341C187.63 111.889 186.674 112.789 185.474 113.433C184.297 114.078 182.863 114.4 181.174 114.4ZM182.208 109.6C183.697 109.6 184.874 109.189 185.741 108.367C186.63 107.522 187.074 106.367 187.074 104.9V103.1C187.074 101.633 186.63 100.489 185.741 99.6667C184.874 98.8222 183.697 98.4 182.208 98.4C180.519 98.4 179.252 98.9 178.408 99.9C177.563 100.9 177.141 102.267 177.141 104C177.141 105.733 177.563 107.1 178.408 108.1C179.252 109.1 180.519 109.6 182.208 109.6ZM207.983 114.4C205.828 114.4 203.95 113.978 202.35 113.133C200.75 112.267 199.517 111.056 198.65 109.5C197.783 107.922 197.35 106.067 197.35 103.933C197.35 101.8 197.772 99.9667 198.617 98.4333C199.461 96.8778 200.661 95.6889 202.217 94.8667C203.794 94.0222 205.65 93.6 207.783 93.6C209.872 93.6 211.661 94 213.15 94.8C214.661 95.6 215.817 96.7444 216.617 98.2333C217.417 99.7222 217.817 101.5 217.817 103.567V105.433H202.65C202.872 106.922 203.439 108.056 204.35 108.833C205.261 109.611 206.461 110 207.95 110C209.128 110 210.061 109.8 210.75 109.4C211.439 109 211.928 108.389 212.217 107.567H217.75C217.306 109.7 216.228 111.378 214.517 112.6C212.806 113.8 210.628 114.4 207.983 114.4ZM202.783 101.767H212.517C212.339 100.5 211.85 99.5556 211.05 98.9333C210.25 98.2889 209.172 97.9667 207.817 97.9667C206.461 97.9667 205.35 98.2889 204.483 98.9333C203.639 99.5778 203.072 100.522 202.783 101.767ZM225.506 105.467C225.506 104.622 225.606 103.856 225.806 103.167C226.028 102.478 226.362 101.822 226.806 101.2C227.251 100.578 227.84 99.9556 228.573 99.3333L230.34 97.7667C231.162 97.0556 231.773 96.4444 232.173 95.9333C232.573 95.4 232.773 94.7333 232.773 93.9333C232.773 93.0667 232.44 92.3889 231.773 91.9C231.106 91.3889 230.217 91.1333 229.106 91.1333C228.017 91.1333 227.128 91.4 226.44 91.9333C225.751 92.4667 225.306 93.3 225.106 94.4333H219.573C219.884 91.9 220.862 89.9667 222.506 88.6333C224.173 87.2778 226.384 86.6 229.14 86.6C230.962 86.6 232.551 86.8889 233.906 87.4667C235.262 88.0444 236.317 88.8778 237.073 89.9667C237.828 91.0333 238.206 92.3111 238.206 93.8C238.206 95.1556 237.917 96.3 237.34 97.2333C236.784 98.1667 235.906 99.1444 234.706 100.167L232.44 102.133C231.64 102.822 231.095 103.389 230.806 103.833C230.54 104.278 230.384 104.822 230.34 105.467H225.506ZM227.906 114.4C227.017 114.4 226.262 114.1 225.64 113.5C225.017 112.878 224.706 112.122 224.706 111.233C224.706 110.322 225.017 109.567 225.64 108.967C226.262 108.344 227.017 108.033 227.906 108.033C228.795 108.033 229.54 108.344 230.14 108.967C230.762 109.567 231.073 110.322 231.073 111.233C231.073 112.122 230.762 112.878 230.14 113.5C229.54 114.1 228.795 114.4 227.906 114.4Z" fill="#FFFFFE"/>
<rect width="134" height="46" transform="translate(160.5 132)" fill="#FFFFFE"/>
<path d="M180.58 161L185.18 150.2H187.153L191.727 161H189.847L188.58 158.04H183.673L182.407 161H180.58ZM184.273 156.467H188.047L186.193 152.053H186.127L184.273 156.467ZM193.053 161V150.2H198.026C199.226 150.2 200.155 150.502 200.812 151.107C201.479 151.702 201.812 152.524 201.812 153.573C201.812 154.613 201.479 155.436 200.812 156.04C200.155 156.644 199.226 156.947 198.026 156.947H194.906V161H193.053ZM194.906 155.36H197.919C198.586 155.36 199.093 155.2 199.439 154.88C199.786 154.56 199.959 154.124 199.959 153.573C199.959 153.013 199.786 152.578 199.439 152.267C199.093 151.947 198.586 151.787 197.919 151.787H194.906V155.36ZM203.443 161V150.2H208.416C209.616 150.2 210.545 150.502 211.203 151.107C211.87 151.702 212.203 152.524 212.203 153.573C212.203 154.613 211.87 155.436 211.203 156.04C210.545 156.644 209.616 156.947 208.416 156.947H205.296V161H203.443ZM205.296 155.36H208.31C208.976 155.36 209.483 155.2 209.83 154.88C210.176 154.56 210.35 154.124 210.35 153.573C210.35 153.013 210.176 152.578 209.83 152.267C209.483 151.947 208.976 151.787 208.31 151.787H205.296V155.36ZM213.834 161V150.2H215.687V159.4H221.42V161H213.834ZM223.919 161V156.96L219.879 150.2H221.985L224.852 155.093H224.905L227.785 150.2H229.799L225.759 156.933V161H223.919ZM245.055 161H243.028L236.881 152.787H236.828V161H235.068V150.2H237.055L243.241 158.507H243.295V150.2H245.055V161ZM252.43 161.16C251.337 161.16 250.377 160.933 249.55 160.48C248.732 160.018 248.097 159.369 247.644 158.533C247.19 157.698 246.964 156.72 246.964 155.6C246.964 154.471 247.19 153.493 247.644 152.667C248.097 151.831 248.732 151.187 249.55 150.733C250.368 150.271 251.328 150.04 252.43 150.04C253.532 150.04 254.492 150.267 255.31 150.72C256.137 151.173 256.772 151.818 257.217 152.653C257.67 153.48 257.897 154.462 257.897 155.6C257.897 156.72 257.67 157.698 257.217 158.533C256.764 159.369 256.128 160.018 255.31 160.48C254.492 160.933 253.532 161.16 252.43 161.16ZM252.43 159.547C253.559 159.547 254.439 159.191 255.07 158.48C255.71 157.769 256.03 156.809 256.03 155.6C256.03 154.382 255.715 153.422 255.084 152.72C254.452 152.009 253.568 151.653 252.43 151.653C251.301 151.653 250.417 152.009 249.777 152.72C249.146 153.422 248.83 154.382 248.83 155.6C248.83 156.818 249.146 157.782 249.777 158.493C250.417 159.196 251.301 159.547 252.43 159.547ZM261.451 161L258.304 150.2H260.237L262.464 158.32H262.531L264.944 150.2H266.637L269.197 158.32H269.251L271.451 150.2L273.397 150.2L270.251 161H268.357L265.811 152.72H265.757L263.344 161H261.451Z" fill="#353C51"/>
</svg>
