<svg width="443" height="202" viewBox="0 0 443 202" fill="none" xmlns="http://www.w3.org/2000/svg">
<rect x="2" y="1.5" width="439" height="199" rx="6.5" fill="#EBEAE8"/>
<rect x="2" y="1.5" width="439" height="199" rx="6.5" stroke="#353C51" stroke-width="3"/>
<path d="M35.3333 64V37H43.0333L51.0333 56.0333H51.1667L59.1333 37H66.8V64H61.1667V44.9333H61.0333L53.3 64H48.4667L40.7667 44.9333H40.6333V64H35.3333ZM71.9484 64V44H77.4818V64H71.9484ZM74.7151 42.0333C73.8707 42.0333 73.1484 41.7444 72.5484 41.1667C71.9707 40.5667 71.6818 39.8444 71.6818 39C71.6818 38.1556 71.9707 37.4444 72.5484 36.8667C73.1484 36.2667 73.8707 35.9667 74.7151 35.9667C75.5595 35.9667 76.2707 36.2667 76.8484 36.8667C77.4484 37.4444 77.7484 38.1556 77.7484 39C77.7484 39.8444 77.4484 40.5667 76.8484 41.1667C76.2707 41.7444 75.5595 42.0333 74.7151 42.0333ZM90.7323 64.4C87.799 64.4 85.4767 63.7889 83.7656 62.5667C82.0767 61.3222 81.1656 59.5889 81.0323 57.3667H86.3656C86.5434 58.3222 86.999 59.0333 87.7323 59.5C88.4878 59.9667 89.5656 60.2 90.9656 60.2C93.2545 60.2 94.399 59.5667 94.399 58.3C94.399 57.7889 94.2212 57.3889 93.8656 57.1C93.5323 56.7889 92.9656 56.5556 92.1656 56.4L87.699 55.5333C83.699 54.7556 81.699 52.8778 81.699 49.9C81.699 47.9889 82.4656 46.4667 83.999 45.3333C85.5323 44.1778 87.6545 43.6 90.3656 43.6C93.0545 43.6 95.1878 44.1889 96.7656 45.3667C98.3434 46.5444 99.2101 48.1889 99.3656 50.3H94.0323C93.7878 49.3667 93.3545 48.6889 92.7323 48.2667C92.1101 47.8444 91.2101 47.6333 90.0323 47.6333C89.0101 47.6333 88.2323 47.7889 87.699 48.1C87.1656 48.3889 86.899 48.8333 86.899 49.4333C86.899 49.8556 87.0656 50.2111 87.399 50.5C87.7323 50.7889 88.2434 51 88.9323 51.1333L93.499 52C95.5878 52.4222 97.1212 53.1 98.099 54.0333C99.0767 54.9667 99.5656 56.2333 99.5656 57.8333C99.5656 59.9 98.799 61.5111 97.2656 62.6667C95.7545 63.8222 93.5767 64.4 90.7323 64.4ZM111.474 64.4C108.541 64.4 106.219 63.7889 104.508 62.5667C102.819 61.3222 101.908 59.5889 101.774 57.3667H107.108C107.286 58.3222 107.741 59.0333 108.474 59.5C109.23 59.9667 110.308 60.2 111.708 60.2C113.997 60.2 115.141 59.5667 115.141 58.3C115.141 57.7889 114.963 57.3889 114.608 57.1C114.274 56.7889 113.708 56.5556 112.908 56.4L108.441 55.5333C104.441 54.7556 102.441 52.8778 102.441 49.9C102.441 47.9889 103.208 46.4667 104.741 45.3333C106.274 44.1778 108.397 43.6 111.108 43.6C113.797 43.6 115.93 44.1889 117.508 45.3667C119.086 46.5444 119.952 48.1889 120.108 50.3H114.774C114.53 49.3667 114.097 48.6889 113.474 48.2667C112.852 47.8444 111.952 47.6333 110.774 47.6333C109.752 47.6333 108.974 47.7889 108.441 48.1C107.908 48.3889 107.641 48.8333 107.641 49.4333C107.641 49.8556 107.808 50.2111 108.141 50.5C108.474 50.7889 108.986 51 109.674 51.1333L114.241 52C116.33 52.4222 117.863 53.1 118.841 54.0333C119.819 54.9667 120.308 56.2333 120.308 57.8333C120.308 59.9 119.541 61.5111 118.008 62.6667C116.497 63.8222 114.319 64.4 111.474 64.4ZM123.55 64V44H129.083V64H123.55ZM126.317 42.0333C125.472 42.0333 124.75 41.7444 124.15 41.1667C123.572 40.5667 123.283 39.8444 123.283 39C123.283 38.1556 123.572 37.4444 124.15 36.8667C124.75 36.2667 125.472 35.9667 126.317 35.9667C127.161 35.9667 127.872 36.2667 128.45 36.8667C129.05 37.4444 129.35 38.1556 129.35 39C129.35 39.8444 129.05 40.5667 128.45 41.1667C127.872 41.7444 127.161 42.0333 126.317 42.0333ZM135.001 64V49.4667H132.267V44H137.867V47.2667H139.267C140.045 46.1111 141.023 45.2222 142.201 44.6C143.378 43.9556 144.845 43.6333 146.601 43.6333C149.378 43.6333 151.523 44.4 153.034 45.9333C154.567 47.4444 155.334 49.4778 155.334 52.0333V64H149.801V53.0667C149.801 51.6 149.401 50.4889 148.601 49.7333C147.823 48.9556 146.678 48.5667 145.167 48.5667C143.656 48.5667 142.501 48.9556 141.701 49.7333C140.923 50.4889 140.534 51.6 140.534 53.0667V64H135.001ZM169.183 72.4C166.183 72.4 163.738 71.7889 161.849 70.5667C159.983 69.3667 158.872 67.6889 158.516 65.5333H164.383C164.916 67.1778 166.461 68 169.016 68C170.749 68 172.072 67.6 172.983 66.8C173.916 66.0222 174.383 64.8889 174.383 63.4V60.7333H174.216C173.616 61.8 172.783 62.6111 171.716 63.1667C170.672 63.7222 169.416 64 167.949 64C166.061 64 164.416 63.5889 163.016 62.7667C161.638 61.9222 160.561 60.7333 159.783 59.2C159.027 57.6667 158.649 55.8667 158.649 53.8C158.649 50.6889 159.505 48.2111 161.216 46.3667C162.949 44.5222 165.316 43.6 168.316 43.6C170.005 43.6 171.438 43.9222 172.616 44.5667C173.816 45.2111 174.772 46.1111 175.483 47.2667H176.883V44H182.483V49.4667H179.749V63.4667C179.749 66.3111 178.838 68.5111 177.016 70.0667C175.194 71.6222 172.583 72.4 169.183 72.4ZM169.316 59.2C170.849 59.2 172.049 58.7778 172.916 57.9333C173.783 57.0889 174.216 55.9333 174.216 54.4667V53.0667C174.216 51.6222 173.772 50.4889 172.883 49.6667C172.016 48.8222 170.827 48.4 169.316 48.4C167.694 48.4 166.427 48.8778 165.516 49.8333C164.627 50.7889 164.183 52.1222 164.183 53.8333C164.183 55.5444 164.627 56.8667 165.516 57.8C166.427 58.7333 167.694 59.2 169.316 59.2ZM201.518 64.3667C199.163 64.3667 197.318 63.8 195.985 62.6667C194.652 61.5111 193.985 60 193.985 58.1333C193.985 56.1556 194.674 54.6333 196.052 53.5667C197.429 52.5 199.407 51.9667 201.985 51.9667H207.718V51.2C207.718 49.0444 206.429 47.9667 203.852 47.9667C201.607 47.9667 200.252 48.7444 199.785 50.3H194.285C194.729 48.1 195.763 46.4333 197.385 45.3C199.007 44.1667 201.163 43.6 203.852 43.6C206.829 43.6 209.096 44.2667 210.652 45.6C212.229 46.9333 213.018 48.8778 213.018 51.4333V58.5333H215.618V64H210.018V60.7333H208.618C207.929 61.8889 207.007 62.7889 205.852 63.4333C204.696 64.0556 203.252 64.3667 201.518 64.3667ZM202.352 60.1667C203.396 60.1667 204.318 59.9778 205.118 59.6C205.918 59.2222 206.552 58.7222 207.018 58.1C207.485 57.4556 207.718 56.7333 207.718 55.9333V55.6333H202.252C200.252 55.6333 199.252 56.3778 199.252 57.8667C199.252 58.6 199.529 59.1667 200.085 59.5667C200.64 59.9667 201.396 60.1667 202.352 60.1667ZM35.3333 114V87H48.1667C51.2111 87 53.5778 87.7667 55.2667 89.3C56.9556 90.8333 57.8 92.9333 57.8 95.6C57.8 98.2444 56.9556 100.344 55.2667 101.9C53.5778 103.433 51.2111 104.2 48.1667 104.2H40.9667V114H35.3333ZM40.9667 99.3H47.8333C49.2333 99.3 50.3 98.9778 51.0333 98.3333C51.7667 97.6667 52.1333 96.7556 52.1333 95.6C52.1333 94.4222 51.7667 93.5111 51.0333 92.8667C50.3 92.2222 49.2333 91.9 47.8333 91.9H40.9667V99.3ZM61.0109 114V94H66.5443V114H61.0109ZM63.7776 92.0333C62.9332 92.0333 62.2109 91.7444 61.6109 91.1667C61.0332 90.5667 60.7443 89.8444 60.7443 89C60.7443 88.1556 61.0332 87.4444 61.6109 86.8667C62.2109 86.2667 62.9332 85.9667 63.7776 85.9667C64.622 85.9667 65.3332 86.2667 65.9109 86.8667C66.5109 87.4444 66.8109 88.1556 66.8109 89C66.8109 89.8444 66.5109 90.5667 65.9109 91.1667C65.3332 91.7444 64.622 92.0333 63.7776 92.0333ZM80.5615 114.4C78.4059 114.4 76.5281 113.978 74.9281 113.133C73.3281 112.267 72.0948 111.056 71.2281 109.5C70.3615 107.922 69.9281 106.067 69.9281 103.933C69.9281 101.8 70.3503 99.9667 71.1948 98.4333C72.0392 96.8778 73.2392 95.6889 74.7948 94.8667C76.3726 94.0222 78.2281 93.6 80.3615 93.6C82.4503 93.6 84.2392 94 85.7281 94.8C87.2392 95.6 88.3948 96.7444 89.1948 98.2333C89.9948 99.7222 90.3948 101.5 90.3948 103.567V105.433H75.2281C75.4503 106.922 76.017 108.056 76.9281 108.833C77.8392 109.611 79.0392 110 80.5281 110C81.7059 110 82.6392 109.8 83.3281 109.4C84.017 109 84.5059 108.389 84.7948 107.567H90.3281C89.8837 109.7 88.8059 111.378 87.0948 112.6C85.3837 113.8 83.2059 114.4 80.5615 114.4ZM75.3615 101.767H85.0948C84.917 100.5 84.4281 99.5556 83.6281 98.9333C82.8281 98.2889 81.7503 97.9667 80.3948 97.9667C79.0392 97.9667 77.9281 98.2889 77.0615 98.9333C76.217 99.5778 75.6503 100.522 75.3615 101.767ZM103.051 114.4C100.962 114.4 99.1288 113.978 97.551 113.133C95.9955 112.267 94.7733 111.056 93.8844 109.5C93.0177 107.944 92.5844 106.111 92.5844 104C92.5844 101.889 93.0177 100.056 93.8844 98.5C94.751 96.9444 95.9733 95.7444 97.551 94.9C99.1288 94.0333 100.962 93.6 103.051 93.6C105.695 93.6 107.873 94.2667 109.584 95.6C111.295 96.9333 112.373 98.7667 112.818 101.1H107.251C106.962 100.233 106.462 99.5667 105.751 99.1C105.04 98.6333 104.14 98.4 103.051 98.4C101.562 98.4 100.362 98.8889 99.451 99.8667C98.5622 100.844 98.1177 102.222 98.1177 104C98.1177 105.778 98.5733 107.156 99.4844 108.133C100.395 109.111 101.584 109.6 103.051 109.6C105.407 109.6 106.84 108.6 107.351 106.6H112.918C112.518 109.044 111.462 110.956 109.751 112.333C108.04 113.711 105.807 114.4 103.051 114.4ZM124.897 114.4C122.742 114.4 120.864 113.978 119.264 113.133C117.664 112.267 116.431 111.056 115.564 109.5C114.697 107.922 114.264 106.067 114.264 103.933C114.264 101.8 114.686 99.9667 115.531 98.4333C116.375 96.8778 117.575 95.6889 119.131 94.8667C120.709 94.0222 122.564 93.6 124.697 93.6C126.786 93.6 128.575 94 130.064 94.8C131.575 95.6 132.731 96.7444 133.531 98.2333C134.331 99.7222 134.731 101.5 134.731 103.567V105.433H119.564C119.786 106.922 120.353 108.056 121.264 108.833C122.175 109.611 123.375 110 124.864 110C126.042 110 126.975 109.8 127.664 109.4C128.353 109 128.842 108.389 129.131 107.567H134.664C134.22 109.7 133.142 111.378 131.431 112.6C129.72 113.8 127.542 114.4 124.897 114.4ZM119.697 101.767H129.431C129.253 100.5 128.764 99.5556 127.964 98.9333C127.164 98.2889 126.086 97.9667 124.731 97.9667C123.375 97.9667 122.264 98.2889 121.397 98.9333C120.553 99.5778 119.986 100.522 119.697 101.767ZM142.42 105.467C142.42 104.622 142.52 103.856 142.72 103.167C142.943 102.478 143.276 101.822 143.72 101.2C144.165 100.578 144.754 99.9556 145.487 99.3333L147.254 97.7667C148.076 97.0556 148.687 96.4444 149.087 95.9333C149.487 95.4 149.687 94.7333 149.687 93.9333C149.687 93.0667 149.354 92.3889 148.687 91.9C148.02 91.3889 147.131 91.1333 146.02 91.1333C144.931 91.1333 144.043 91.4 143.354 91.9333C142.665 92.4667 142.22 93.3 142.02 94.4333H136.487C136.798 91.9 137.776 89.9667 139.42 88.6333C141.087 87.2778 143.298 86.6 146.054 86.6C147.876 86.6 149.465 86.8889 150.82 87.4667C152.176 88.0444 153.231 88.8778 153.987 89.9667C154.743 91.0333 155.12 92.3111 155.12 93.8C155.12 95.1556 154.831 96.3 154.254 97.2333C153.698 98.1667 152.82 99.1444 151.62 100.167L149.354 102.133C148.554 102.822 148.009 103.389 147.72 103.833C147.454 104.278 147.298 104.822 147.254 105.467H142.42ZM144.82 114.4C143.931 114.4 143.176 114.1 142.554 113.5C141.931 112.878 141.62 112.122 141.62 111.233C141.62 110.322 141.931 109.567 142.554 108.967C143.176 108.344 143.931 108.033 144.82 108.033C145.709 108.033 146.454 108.344 147.054 108.967C147.676 109.567 147.987 110.322 147.987 111.233C147.987 112.122 147.676 112.878 147.054 113.5C146.454 114.1 145.709 114.4 144.82 114.4Z" fill="#353C51"/>
<line x1="36.5" y1="3" x2="36.5" y2="19" stroke="#646676" stroke-width="2"/>
<line x1="48.5" y1="3" x2="48.5" y2="9" stroke="#646676" stroke-width="2"/>
<line x1="60.5" y1="3" x2="60.5" y2="9" stroke="#646676" stroke-width="2"/>
<line x1="72.5" y1="3" x2="72.5" y2="9" stroke="#646676" stroke-width="2"/>
<line x1="84.5" y1="3" x2="84.5" y2="19" stroke="#646676" stroke-width="2"/>
<line x1="96.5" y1="3" x2="96.5" y2="9" stroke="#646676" stroke-width="2"/>
<line x1="108.5" y1="3" x2="108.5" y2="9" stroke="#646676" stroke-width="2"/>
<line x1="120.5" y1="3" x2="120.5" y2="9" stroke="#646676" stroke-width="2"/>
<line x1="132.5" y1="3" x2="132.5" y2="19" stroke="#646676" stroke-width="2"/>
<line x1="144.5" y1="3" x2="144.5" y2="9" stroke="#646676" stroke-width="2"/>
<line x1="156.5" y1="3" x2="156.5" y2="9" stroke="#646676" stroke-width="2"/>
<line x1="168.5" y1="3" x2="168.5" y2="9" stroke="#646676" stroke-width="2"/>
<line x1="180.5" y1="3" x2="180.5" y2="19" stroke="#646676" stroke-width="2"/>
<line x1="192.5" y1="3" x2="192.5" y2="9" stroke="#646676" stroke-width="2"/>
<line x1="204.5" y1="3" x2="204.5" y2="9" stroke="#646676" stroke-width="2"/>
<line x1="216.5" y1="3" x2="216.5" y2="9" stroke="#646676" stroke-width="2"/>
<line x1="228.5" y1="3" x2="228.5" y2="19" stroke="#646676" stroke-width="2"/>
<line x1="240.5" y1="3" x2="240.5" y2="9" stroke="#646676" stroke-width="2"/>
<line x1="252.5" y1="3" x2="252.5" y2="9" stroke="#646676" stroke-width="2"/>
<line x1="264.5" y1="3" x2="264.5" y2="9" stroke="#646676" stroke-width="2"/>
<line x1="276.5" y1="3" x2="276.5" y2="19" stroke="#646676" stroke-width="2"/>
<line x1="288.5" y1="3" x2="288.5" y2="9" stroke="#646676" stroke-width="2"/>
<line x1="300.5" y1="3" x2="300.5" y2="9" stroke="#646676" stroke-width="2"/>
<line x1="312.5" y1="3" x2="312.5" y2="9" stroke="#646676" stroke-width="2"/>
<line x1="324.5" y1="3" x2="324.5" y2="19" stroke="#646676" stroke-width="2"/>
<line x1="336.5" y1="3" x2="336.5" y2="9" stroke="#646676" stroke-width="2"/>
<line x1="348.5" y1="3" x2="348.5" y2="9" stroke="#646676" stroke-width="2"/>
<line x1="360.5" y1="3" x2="360.5" y2="9" stroke="#646676" stroke-width="2"/>
<line x1="372.5" y1="3" x2="372.5" y2="19" stroke="#646676" stroke-width="2"/>
<line x1="384.5" y1="3" x2="384.5" y2="9" stroke="#646676" stroke-width="2"/>
<line x1="396.5" y1="3" x2="396.5" y2="9" stroke="#646676" stroke-width="2"/>
<line x1="408.5" y1="3" x2="408.5" y2="9" stroke="#646676" stroke-width="2"/>
<line x1="420.5" y1="3" x2="420.5" y2="19" stroke="#646676" stroke-width="2"/>
<line x1="3.5" y1="179" x2="19.5" y2="179" stroke="#646676" stroke-width="2"/>
<line x1="3.5" y1="167" x2="9.5" y2="167" stroke="#646676" stroke-width="2"/>
<line x1="3.5" y1="155" x2="9.5" y2="155" stroke="#646676" stroke-width="2"/>
<line x1="3.5" y1="143" x2="9.5" y2="143" stroke="#646676" stroke-width="2"/>
<line x1="3.5" y1="131" x2="19.5" y2="131" stroke="#646676" stroke-width="2"/>
<line x1="3.5" y1="119" x2="9.5" y2="119" stroke="#646676" stroke-width="2"/>
<line x1="3.5" y1="107" x2="9.5" y2="107" stroke="#646676" stroke-width="2"/>
<line x1="3.5" y1="95" x2="9.5" y2="95" stroke="#646676" stroke-width="2"/>
<line x1="3.5" y1="83" x2="19.5" y2="83" stroke="#646676" stroke-width="2"/>
<line x1="3.5" y1="71" x2="9.5" y2="71" stroke="#646676" stroke-width="2"/>
<line x1="3.5" y1="59" x2="9.5" y2="59" stroke="#646676" stroke-width="2"/>
<line x1="3.5" y1="47" x2="9.5" y2="47" stroke="#646676" stroke-width="2"/>
<line x1="3.5" y1="35" x2="19.5" y2="35" stroke="#646676" stroke-width="2"/>
<rect width="159" height="46" transform="translate(259.5 132)" fill="#353C51"/>
<path d="M300.74 161V150.2H306.1C307.22 150.2 308.1 150.458 308.74 150.973C309.38 151.489 309.7 152.213 309.7 153.147C309.7 153.68 309.58 154.147 309.34 154.547C309.1 154.938 308.744 155.24 308.273 155.453V155.507C308.727 155.507 309.078 155.631 309.327 155.88C309.576 156.12 309.7 156.471 309.7 156.933V161H307.86V156.72H302.593V161H300.74ZM302.593 155.147H305.953C306.567 155.147 307.038 155 307.367 154.707C307.704 154.413 307.873 154 307.873 153.467C307.873 152.924 307.704 152.511 307.367 152.227C307.038 151.933 306.567 151.787 305.953 151.787H302.593V155.147ZM319.67 161H311.99V150.2H319.67V151.8H313.843V154.613H319.297V156.187H313.843V159.4H319.67V161ZM320.424 161L325.024 150.2H326.997L331.57 161H329.69L328.424 158.04H323.517L322.25 161H320.424ZM324.117 156.467H327.89L326.037 152.053H325.97L324.117 156.467ZM332.896 161V150.2H336.95C338.123 150.2 339.136 150.418 339.99 150.853C340.843 151.28 341.496 151.898 341.95 152.707C342.412 153.516 342.643 154.48 342.643 155.6C342.643 156.711 342.412 157.671 341.95 158.48C341.487 159.289 340.83 159.911 339.976 160.347C339.123 160.782 338.114 161 336.95 161H332.896ZM334.75 159.427H336.95C338.176 159.427 339.118 159.084 339.776 158.4C340.443 157.716 340.776 156.782 340.776 155.6C340.776 154.409 340.447 153.476 339.79 152.8C339.132 152.116 338.185 151.773 336.95 151.773H334.75V159.427ZM350.296 161H348.443V150.2H355.99V151.8H350.296V154.76H355.603V156.36H350.296V161ZM355.127 161L359.727 150.2H361.7L366.274 161H364.394L363.127 158.04H358.22L356.954 161H355.127ZM358.82 156.467H362.594L360.74 152.053H360.674L358.82 156.467ZM372.668 163.587C372.17 163.587 371.784 163.458 371.508 163.2C371.233 162.942 371.095 162.56 371.095 162.053V161.08C370.153 160.956 369.335 160.653 368.641 160.173C367.957 159.684 367.428 159.053 367.055 158.28C366.681 157.498 366.495 156.604 366.495 155.6C366.495 154.471 366.721 153.493 367.175 152.667C367.628 151.831 368.264 151.187 369.081 150.733C369.908 150.271 370.868 150.04 371.961 150.04C373.064 150.04 374.024 150.267 374.841 150.72C375.668 151.173 376.304 151.818 376.748 152.653C377.201 153.48 377.428 154.462 377.428 155.6C377.428 156.604 377.241 157.498 376.868 158.28C376.504 159.053 375.979 159.68 375.295 160.16C374.61 160.64 373.797 160.947 372.855 161.08V162.053H375.908V163.587H372.668ZM371.961 159.56C373.09 159.56 373.97 159.204 374.601 158.493C375.241 157.782 375.561 156.818 375.561 155.6C375.561 154.373 375.246 153.409 374.615 152.707C373.984 151.996 373.099 151.64 371.961 151.64C370.833 151.64 369.948 151.996 369.308 152.707C368.677 153.409 368.361 154.373 368.361 155.6C368.361 156.818 368.677 157.782 369.308 158.493C369.948 159.204 370.833 159.56 371.961 159.56Z" fill="#FFFFFE"/>
</svg>
