<svg width="23" height="24" viewBox="0 0 23 24" fill="none" xmlns="http://www.w3.org/2000/svg">
<path d="M8.62533 1.45703V3.3737H14.3753V1.45703H16.292V3.3737H20.1253C20.3795 3.3737 20.6232 3.47466 20.803 3.65439C20.9827 3.83411 21.0837 4.07787 21.0837 4.33203V19.6654C21.0837 19.9195 20.9827 20.1633 20.803 20.343C20.6232 20.5227 20.3795 20.6237 20.1253 20.6237H2.87533C2.62116 20.6237 2.3774 20.5227 2.19768 20.343C2.01796 20.1633 1.91699 19.9195 1.91699 19.6654V4.33203C1.91699 4.07787 2.01796 3.83411 2.19768 3.65439C2.3774 3.47466 2.62116 3.3737 2.87533 3.3737H6.70866V1.45703H8.62533ZM19.167 11.0404H3.83366V18.707H19.167V11.0404ZM6.70866 5.29036H3.83366V9.1237H19.167V5.29036H16.292V7.20703H14.3753V5.29036H8.62533V7.20703H6.70866V5.29036Z" fill="#646676"/>
</svg>
