<svg width="23" height="23" viewBox="0 0 23 23" fill="none" xmlns="http://www.w3.org/2000/svg">
<path d="M8.62533 0.957031V2.8737H14.3753V0.957031H16.292V2.8737H20.1253C20.3795 2.8737 20.6232 2.97466 20.803 3.15439C20.9827 3.33411 21.0837 3.57787 21.0837 3.83203V19.1654C21.0837 19.4195 20.9827 19.6633 20.803 19.843C20.6232 20.0227 20.3795 20.1237 20.1253 20.1237H2.87533C2.62116 20.1237 2.3774 20.0227 2.19768 19.843C2.01796 19.6633 1.91699 19.4195 1.91699 19.1654V3.83203C1.91699 3.57787 2.01796 3.33411 2.19768 3.15439C2.3774 2.97466 2.62116 2.8737 2.87533 2.8737H6.70866V0.957031H8.62533ZM19.167 10.5404H3.83366V18.207H19.167V10.5404ZM6.70866 4.79036H3.83366V8.6237H19.167V4.79036H16.292V6.70703H14.3753V4.79036H8.62533V6.70703H6.70866V4.79036Z" fill="#353C51"/>
</svg>
