<svg width="32" height="32" viewBox="0 0 32 32" fill="none" xmlns="http://www.w3.org/2000/svg">
<path d="M12.0013 1.33301V3.99967H20.0013V1.33301H22.668V3.99967H28.0013C28.3549 3.99967 28.6941 4.14015 28.9441 4.3902C29.1942 4.64025 29.3346 4.97939 29.3346 5.33301V26.6663C29.3346 27.02 29.1942 27.3591 28.9441 27.6091C28.6941 27.8592 28.3549 27.9997 28.0013 27.9997H4.0013C3.64768 27.9997 3.30854 27.8592 3.05849 27.6091C2.80844 27.3591 2.66797 27.02 2.66797 26.6663V5.33301C2.66797 4.97939 2.80844 4.64025 3.05849 4.3902C3.30854 4.14015 3.64768 3.99967 4.0013 3.99967H9.33463V1.33301H12.0013ZM26.668 14.6663H5.33464V25.333H26.668V14.6663ZM9.33463 6.66634H5.33464V11.9997H26.668V6.66634H22.668V9.33301H20.0013V6.66634H12.0013V9.33301H9.33463V6.66634Z" fill="#353C51"/>
</svg>
