<svg width="24" height="23" viewBox="0 0 24 23" fill="none" xmlns="http://www.w3.org/2000/svg">
<path d="M12 19.1654C10.2208 19.1654 8.51455 18.4586 7.25649 17.2005C5.99844 15.9425 5.29167 14.2362 5.29167 12.457C5.29167 10.6779 5.99844 8.97158 7.25649 7.71352C8.51455 6.45547 10.2208 5.7487 12 5.7487C13.7792 5.7487 15.4855 6.45547 16.7435 7.71352C18.0016 8.97158 18.7083 10.6779 18.7083 12.457C18.7083 14.2362 18.0016 15.9425 16.7435 17.2005C15.4855 18.4586 13.7792 19.1654 12 19.1654ZM18.7371 7.08078L20.0979 5.71995C19.6667 5.2312 19.2354 4.79036 18.7467 4.3687L17.3858 5.7487C15.9004 4.5412 14.0317 3.83203 12 3.83203C9.71251 3.83203 7.5187 4.74073 5.9012 6.35823C4.2837 7.97574 3.375 10.1695 3.375 12.457C3.375 14.7445 4.2837 16.9383 5.9012 18.5558C7.5187 20.1733 9.71251 21.082 12 21.082C16.7917 21.082 20.625 17.2199 20.625 12.457C20.625 10.4254 19.9158 8.55661 18.7371 7.08078ZM11.0417 13.4154H12.9583V7.66536H11.0417M14.875 0.957031H9.125V2.8737H14.875V0.957031Z" fill="#353C51"/>
</svg>
