<svg width="24" height="24" viewBox="0 0 24 24" fill="none" xmlns="http://www.w3.org/2000/svg">
<path d="M12.8171 3.8564C11.9568 2.99644 10.8674 2.40206 9.6787 2.14416C8.49 1.88626 7.2522 1.97572 6.11293 2.40188C5.72574 2.5463 5.65199 3.03695 5.94392 3.3299L8.79869 6.18467C8.89739 6.28331 8.97569 6.40044 9.02912 6.52935C9.08254 6.65827 9.11004 6.79645 9.11004 6.936C9.11004 7.07555 9.08254 7.21373 9.02912 7.34264C8.97569 7.47156 8.89739 7.58869 8.79869 7.68733L7.68833 8.79769C7.58968 8.89639 7.47256 8.9747 7.34364 9.02812C7.21472 9.08154 7.07654 9.10904 6.93699 9.10904C6.79745 9.10904 6.65926 9.08154 6.53035 9.02812C6.40143 8.9747 6.2843 8.89639 6.18566 8.79769L3.32987 5.94395C3.03794 5.65202 2.54729 5.7268 2.40286 6.11296C1.98474 7.22895 1.88976 8.44023 2.12882 9.60775C2.36789 10.7753 2.93132 11.8517 3.75443 12.7136C4.57755 13.5754 5.62699 14.1877 6.7823 14.4801C7.93761 14.7725 9.15197 14.7333 10.286 14.3669C10.6916 14.2358 11.1464 14.3116 11.4476 14.6127L17.1294 20.2946C17.3348 20.5131 17.582 20.688 17.8563 20.8092C18.1306 20.9303 18.4265 20.9951 18.7263 20.9997C19.0261 21.0044 19.3238 20.9487 19.6018 20.8361C19.8797 20.7235 20.1321 20.5562 20.3442 20.3442C20.5562 20.1321 20.7235 19.8797 20.8361 19.6018C20.9487 19.3238 21.0044 19.0261 20.9997 18.7263C20.9951 18.4265 20.9303 18.1306 20.8092 17.8563C20.688 17.582 20.5131 17.3348 20.2946 17.1295L14.6127 11.4466C14.3116 11.1454 14.2358 10.6906 14.3669 10.285C14.725 9.17459 14.7698 7.9869 14.4964 6.85266C14.223 5.71842 13.6419 4.68162 12.8171 3.8564Z" stroke="#646676" stroke-width="1.9" stroke-linejoin="round"/>
</svg>
