<svg width="318" height="202" viewBox="0 0 318 202" fill="none" xmlns="http://www.w3.org/2000/svg">
<rect width="318" height="202" rx="8" fill="#353C51"/>
<path d="M46.8268 24.9873H24.9922V46.7053M46.8268 24.9873V46.7053M46.8268 24.9873H68.6614M46.8268 46.7053H24.9922M46.8268 46.7053H68.6614M46.8268 46.7053V68.4232M24.9922 46.7053V68.4232M68.6614 24.9873V46.7053M68.6614 24.9873H90.4959M68.6614 46.7053H90.4959M68.6614 46.7053V68.4232M90.4959 24.9873V46.7053M90.4959 24.9873H112.331M90.4959 46.7053H112.331M90.4959 46.7053V68.4232M112.331 24.9873V46.7053M112.331 24.9873H134.165M112.331 46.7053H134.165M112.331 46.7053V68.4232M134.165 24.9873V46.7053M134.165 24.9873H155M134.165 46.7053H155M134.165 46.7053V68.4232M155 24.9873V46.7053M155 24.9873H176.834M155 46.7053H176.834M155 46.7053V68.4232M176.834 24.9873V46.7053M176.834 24.9873H199.669M176.834 46.7053H199.669M176.834 46.7053V68.4232M199.669 24.9873V46.7053M199.669 24.9873H221.503M199.669 46.7053H221.503M199.669 46.7053V68.4232M221.503 24.9873V46.7053M221.503 24.9873H243.338M221.503 46.7053H243.338M221.503 46.7053V68.4232M243.338 24.9873V46.7053M243.338 24.9873H265.173M243.338 46.7053H265.173M243.338 46.7053V68.4232M265.173 24.9873V46.7053M265.173 24.9873H287.007V46.7053M265.173 46.7053H287.007M265.173 46.7053V68.4232M287.007 46.7053V68.4232M46.8268 68.4232H24.9922M46.8268 68.4232H68.6614M46.8268 68.4232V90.1412M24.9922 68.4232V90.1412M68.6614 68.4232H90.4959M68.6614 68.4232V90.1412M90.4959 68.4232H112.331M90.4959 68.4232V90.1412M112.331 68.4232H134.165M112.331 68.4232V90.1412M134.165 68.4232H155M134.165 68.4232V90.1412M155 68.4232H176.834M155 68.4232V90.1412M176.834 68.4232H199.669M176.834 68.4232V90.1412M199.669 68.4232H221.503M199.669 68.4232V90.1412M221.503 68.4232H243.338M221.503 68.4232V90.1412M243.338 68.4232H265.173M243.338 68.4232V90.1412M265.173 68.4232H287.007M265.173 68.4232V90.1412M287.007 68.4232V90.1412M46.8268 90.1412H24.9922M46.8268 90.1412H68.6614M46.8268 90.1412V111.859M24.9922 90.1412V111.859M68.6614 90.1412H90.4959M68.6614 90.1412V111.859M90.4959 90.1412H112.331M90.4959 90.1412V111.859M112.331 90.1412H134.165M112.331 90.1412V111.859M134.165 90.1412H155M134.165 90.1412V111.859M155 90.1412H176.834M155 90.1412V111.859M176.834 90.1412H199.669M176.834 90.1412V111.859M199.669 90.1412H221.503M199.669 90.1412V111.859M221.503 90.1412H243.338M221.503 90.1412V111.859M243.338 90.1412H265.173M243.338 90.1412V111.859M265.173 90.1412H287.007M265.173 90.1412V111.859M287.007 90.1412V111.859M46.8268 111.859H24.9922M46.8268 111.859H68.6614M46.8268 111.859V132.577M24.9922 111.859V132.577M68.6614 111.859H90.4959M68.6614 111.859V132.577M90.4959 111.859H112.331M90.4959 111.859V132.577M112.331 111.859H134.165M112.331 111.859V132.577M134.165 111.859H155M134.165 111.859V132.577M155 111.859H176.834M155 111.859V132.577M176.834 111.859H199.669M176.834 111.859V132.577M199.669 111.859H221.503M199.669 111.859V132.577M221.503 111.859H243.338M221.503 111.859V132.577M243.338 111.859H265.173M243.338 111.859V132.577M265.173 111.859H287.007M265.173 111.859V132.577M287.007 111.859V132.577M46.8268 132.577H24.9922M46.8268 132.577H68.6614M46.8268 132.577V154.295M24.9922 132.577V154.295M68.6614 132.577H90.4959M68.6614 132.577V154.295M90.4959 132.577H112.331M90.4959 132.577V154.295M112.331 132.577H134.165M112.331 132.577V154.295M134.165 132.577H155M134.165 132.577V154.295M155 132.577H176.834M155 132.577V154.295M176.834 132.577H199.669M176.834 132.577V154.295M199.669 132.577H221.503M199.669 132.577V154.295M221.503 132.577H243.338M221.503 132.577V154.295M243.338 132.577H265.173M243.338 132.577V154.295M265.173 132.577H287.007M265.173 132.577V154.295M287.007 132.577V154.295M46.8268 154.295H24.9922M46.8268 154.295H68.6614M46.8268 154.295V177.013M24.9922 154.295V177.013H46.8268M68.6614 154.295H90.4959M68.6614 154.295V177.013M90.4959 154.295H112.331M90.4959 154.295V177.013M112.331 154.295H134.165M112.331 154.295V177.013M134.165 154.295H155M134.165 154.295V177.013M155 154.295H176.834M155 154.295V177.013M176.834 154.295H199.669M176.834 154.295V177.013M199.669 154.295H221.503M199.669 154.295V177.013M221.503 154.295H243.338M221.503 154.295V177.013M243.338 154.295H265.173M243.338 154.295V177.013M265.173 154.295H287.007M265.173 154.295V177.013M287.007 154.295V177.013H265.173M46.8268 177.013H68.6614M68.6614 177.013H90.4959M90.4959 177.013H112.331M112.331 177.013H134.165M134.165 177.013H155M155 177.013H176.834M176.834 177.013H199.669M199.669 177.013H221.503M221.503 177.013H243.338M243.338 177.013H265.173" stroke="#646676" stroke-width="1.96923"/>
<path d="M34.8333 64V37H48.8C51.6889 37 53.9444 37.6556 55.5667 38.9667C57.2111 40.2556 58.0333 42.0444 58.0333 44.3333C58.0333 45.7778 57.6889 47.0111 57 48.0333C56.3333 49.0556 55.3889 49.7778 54.1667 50.2V50.3667C55.3889 50.3667 56.3333 50.7 57 51.3667C57.6889 52.0111 58.0333 52.9889 58.0333 54.3V64H52.3667V53.7333H40.4667V64H34.8333ZM40.4667 48.8333H48.4333C49.7222 48.8333 50.7111 48.5333 51.4 47.9333C52.1111 47.3333 52.4667 46.4778 52.4667 45.3667C52.4667 44.2556 52.1111 43.4 51.4 42.8C50.7111 42.2 49.7222 41.9 48.4333 41.9H40.4667V48.8333ZM72.2099 64.4C70.0543 64.4 68.1766 63.9778 66.5766 63.1333C64.9766 62.2667 63.7432 61.0556 62.8766 59.5C62.0099 57.9222 61.5766 56.0667 61.5766 53.9333C61.5766 51.8 61.9988 49.9667 62.8432 48.4333C63.6877 46.8778 64.8877 45.6889 66.4432 44.8667C68.021 44.0222 69.8766 43.6 72.0099 43.6C74.0988 43.6 75.8877 44 77.3766 44.8C78.8877 45.6 80.0432 46.7444 80.8432 48.2333C81.6432 49.7222 82.0432 51.5 82.0432 53.5667V55.4333H66.8766C67.0988 56.9222 67.6655 58.0556 68.5766 58.8333C69.4877 59.6111 70.6877 60 72.1766 60C73.3543 60 74.2877 59.8 74.9766 59.4C75.6655 59 76.1543 58.3889 76.4432 57.5667H81.9766C81.5321 59.7 80.4543 61.3778 78.7432 62.6C77.0321 63.8 74.8543 64.4 72.2099 64.4ZM67.0099 51.7667H76.7432C76.5655 50.5 76.0766 49.5556 75.2766 48.9333C74.4766 48.2889 73.3988 47.9667 72.0432 47.9667C70.6877 47.9667 69.5766 48.2889 68.7099 48.9333C67.8655 49.5778 67.2988 50.5222 67.0099 51.7667ZM91.7995 64.3667C89.4439 64.3667 87.5995 63.8 86.2661 62.6667C84.9328 61.5111 84.2661 60 84.2661 58.1333C84.2661 56.1556 84.955 54.6333 86.3328 53.5667C87.7106 52.5 89.6884 51.9667 92.2661 51.9667H97.9995V51.2C97.9995 49.0444 96.7106 47.9667 94.1328 47.9667C91.8884 47.9667 90.5328 48.7444 90.0661 50.3H84.5661C85.0106 48.1 86.0439 46.4333 87.6661 45.3C89.2884 44.1667 91.4439 43.6 94.1328 43.6C97.1106 43.6 99.3773 44.2667 100.933 45.6C102.511 46.9333 103.299 48.8778 103.299 51.4333V58.5333H105.899V64H100.299V60.7333H98.8995C98.2106 61.8889 97.2884 62.7889 96.1328 63.4333C94.9773 64.0556 93.5328 64.3667 91.7995 64.3667ZM92.6328 60.1667C93.6773 60.1667 94.5995 59.9778 95.3995 59.6C96.1995 59.2222 96.8328 58.7222 97.2995 58.1C97.7661 57.4556 97.9995 56.7333 97.9995 55.9333V55.6333H92.5328C90.5328 55.6333 89.5328 56.3778 89.5328 57.8667C89.5328 58.6 89.8106 59.1667 90.3661 59.5667C90.9217 59.9667 91.6773 60.1667 92.6328 60.1667ZM117.471 64.4C115.427 64.4 113.682 63.9667 112.238 63.1C110.816 62.2333 109.738 61.0222 109.005 59.4667C108.271 57.8889 107.905 56.0667 107.905 54C107.905 51.9111 108.26 50.0889 108.971 48.5333C109.682 46.9556 110.716 45.7444 112.071 44.9C113.449 44.0333 115.094 43.6 117.005 43.6C118.471 43.6 119.727 43.8778 120.771 44.4333C121.838 44.9667 122.66 45.7333 123.238 46.7333H123.371V36H128.905V58.5333H131.638V64H126.038V60.7333H124.638C123.927 61.8889 122.971 62.7889 121.771 63.4333C120.594 64.0778 119.16 64.4 117.471 64.4ZM118.505 59.6C119.994 59.6 121.171 59.1889 122.038 58.3667C122.927 57.5222 123.371 56.3667 123.371 54.9V53.1C123.371 51.6333 122.927 50.4889 122.038 49.6667C121.171 48.8222 119.994 48.4 118.505 48.4C116.816 48.4 115.549 48.9 114.705 49.9C113.86 50.9 113.438 52.2667 113.438 54C113.438 55.7333 113.86 57.1 114.705 58.1C115.549 59.1 116.816 59.6 118.505 59.6ZM135.414 72V67.5667H139.814L141.38 63.8333L132.747 44H138.614L144.214 57.4667H144.347L149.814 44H155.48L146.914 64L145.28 67.8667C144.725 69.1778 144.08 70.1889 143.347 70.9C142.614 71.6333 141.491 72 139.98 72H135.414ZM173.658 64C172.236 64 171.125 63.6444 170.325 62.9333C169.547 62.2 169.158 61.0889 169.158 59.6V48.3333H165.725V44H169.225V38H174.625V44H179.258V48.3333H174.692V59.6667H179.725V64H173.658ZM192.382 64.4C190.205 64.4 188.305 63.9778 186.682 63.1333C185.082 62.2667 183.838 61.0556 182.949 59.5C182.06 57.9444 181.616 56.1 181.616 53.9667C181.616 51.8556 182.049 50.0222 182.916 48.4667C183.805 46.9111 185.06 45.7111 186.682 44.8667C188.305 44.0222 190.216 43.6 192.416 43.6C194.593 43.6 196.482 44.0222 198.082 44.8667C199.682 45.7111 200.916 46.9111 201.782 48.4667C202.649 50.0222 203.082 51.8667 203.082 54C203.082 56.1111 202.649 57.9556 201.782 59.5333C200.916 61.0889 199.671 62.2889 198.049 63.1333C196.449 63.9778 194.56 64.4 192.382 64.4ZM192.382 59.6C194.049 59.6 195.327 59.1 196.216 58.1C197.105 57.0778 197.549 55.7 197.549 53.9667C197.549 52.2333 197.105 50.8778 196.216 49.9C195.327 48.9 194.049 48.4 192.382 48.4C190.693 48.4 189.393 48.9 188.482 49.9C187.593 50.8778 187.149 52.2333 187.149 53.9667C187.149 55.7 187.593 57.0778 188.482 58.1C189.393 59.1 190.693 59.6 192.382 59.6ZM46.5 114.4C44.0778 114.4 41.9667 114.033 40.1667 113.3C38.3667 112.544 36.9778 111.4 36 109.867C35.0222 108.311 34.5333 106.333 34.5333 103.933V87H40.3V103.133C40.3 105.022 40.8 106.5 41.8 107.567C42.8222 108.611 44.4444 109.133 46.6667 109.133C48.9333 109.133 50.5556 108.578 51.5333 107.467C52.5333 106.356 53.0333 104.922 53.0333 103.167V87H58.6667V104C58.6667 107.467 57.5889 110.067 55.4333 111.8C53.2778 113.533 50.3 114.4 46.5 114.4ZM64.8521 122V99.4667H62.1188V94H67.7188V97.2667H69.1188C69.8299 96.1111 70.7743 95.2111 71.9521 94.5667C73.1521 93.9222 74.5965 93.6 76.2854 93.6C78.3521 93.6 80.0965 94.0333 81.5187 94.9C82.941 95.7667 84.0188 96.9778 84.7521 98.5333C85.4854 100.089 85.8521 101.911 85.8521 104C85.8521 106.089 85.4965 107.922 84.7854 109.5C84.0743 111.056 83.041 112.267 81.6854 113.133C80.3299 113.978 78.6854 114.4 76.7521 114.4C75.2854 114.4 74.0299 114.133 72.9854 113.6C71.941 113.044 71.1187 112.267 70.5188 111.267H70.3854V122H64.8521ZM75.2521 109.6C76.941 109.6 78.2076 109.1 79.0521 108.1C79.8965 107.1 80.3188 105.733 80.3188 104C80.3188 102.267 79.8965 100.9 79.0521 99.9C78.2076 98.9 76.941 98.4 75.2521 98.4C73.7632 98.4 72.5743 98.8222 71.6854 99.6667C70.8188 100.489 70.3854 101.633 70.3854 103.1V104.9C70.3854 106.367 70.8188 107.522 71.6854 108.367C72.5743 109.189 73.7632 109.6 75.2521 109.6ZM88.3609 106.333V101.667H98.6276V106.333H88.3609ZM114.847 114.4C112.225 114.4 109.914 113.822 107.914 112.667C105.936 111.489 104.38 109.856 103.247 107.767C102.136 105.678 101.58 103.267 101.58 100.533C101.58 97.7333 102.158 95.2889 103.314 93.2C104.469 91.1111 106.091 89.4889 108.18 88.3333C110.269 87.1778 112.702 86.6 115.48 86.6C117.725 86.6 119.702 86.9889 121.414 87.7667C123.125 88.5222 124.525 89.6111 125.614 91.0333C126.725 92.4556 127.425 94.1556 127.714 96.1333H121.814C121.569 94.6889 120.891 93.5778 119.78 92.8C118.669 92 117.236 91.6 115.48 91.6C113.814 91.6 112.358 91.9667 111.114 92.7C109.891 93.4111 108.936 94.4444 108.247 95.8C107.58 97.1556 107.247 98.7444 107.247 100.567C107.247 102.433 107.591 104.056 108.28 105.433C108.969 106.789 109.936 107.844 111.18 108.6C112.425 109.333 113.891 109.7 115.58 109.7C116.825 109.7 117.947 109.5 118.947 109.1C119.947 108.7 120.736 108.144 121.314 107.433C121.891 106.722 122.18 105.922 122.18 105.033V104H115.08V99.6333H123.547C124.925 99.6333 125.958 99.9667 126.647 100.633C127.358 101.3 127.714 102.289 127.714 103.6V114H122.514V110.867H122.347C121.725 112.022 120.769 112.9 119.48 113.5C118.191 114.1 116.647 114.4 114.847 114.4ZM133.785 114V99.4667H131.052V94H136.652V97.9333H138.052C138.585 96.5333 139.429 95.4889 140.585 94.8C141.74 94.1111 143.04 93.7667 144.485 93.7667H146.185V98.5667H144.252C142.518 98.5667 141.24 99.0556 140.418 100.033C139.618 101.011 139.218 102.3 139.218 103.9V114H133.785ZM155.003 114.367C152.647 114.367 150.803 113.8 149.469 112.667C148.136 111.511 147.469 110 147.469 108.133C147.469 106.156 148.158 104.633 149.536 103.567C150.914 102.5 152.891 101.967 155.469 101.967H161.203V101.2C161.203 99.0444 159.914 97.9667 157.336 97.9667C155.091 97.9667 153.736 98.7444 153.269 100.3H147.769C148.214 98.1 149.247 96.4333 150.869 95.3C152.491 94.1667 154.647 93.6 157.336 93.6C160.314 93.6 162.58 94.2667 164.136 95.6C165.714 96.9333 166.503 98.8778 166.503 101.433V108.533H169.103V114H163.503V110.733H162.103C161.414 111.889 160.491 112.789 159.336 113.433C158.18 114.056 156.736 114.367 155.003 114.367ZM155.836 110.167C156.88 110.167 157.803 109.978 158.603 109.6C159.403 109.222 160.036 108.722 160.503 108.1C160.969 107.456 161.203 106.733 161.203 105.933V105.633H155.736C153.736 105.633 152.736 106.378 152.736 107.867C152.736 108.6 153.014 109.167 153.569 109.567C154.125 109.967 154.88 110.167 155.836 110.167ZM180.674 114.4C178.63 114.4 176.886 113.967 175.441 113.1C174.019 112.233 172.941 111.022 172.208 109.467C171.474 107.889 171.108 106.067 171.108 104C171.108 101.911 171.463 100.089 172.174 98.5333C172.886 96.9556 173.919 95.7444 175.274 94.9C176.652 94.0333 178.297 93.6 180.208 93.6C181.674 93.6 182.93 93.8778 183.974 94.4333C185.041 94.9667 185.863 95.7333 186.441 96.7333H186.574V86H192.108V108.533H194.841V114H189.241V110.733H187.841C187.13 111.889 186.174 112.789 184.974 113.433C183.797 114.078 182.363 114.4 180.674 114.4ZM181.708 109.6C183.197 109.6 184.374 109.189 185.241 108.367C186.13 107.522 186.574 106.367 186.574 104.9V103.1C186.574 101.633 186.13 100.489 185.241 99.6667C184.374 98.8222 183.197 98.4 181.708 98.4C180.019 98.4 178.752 98.9 177.908 99.9C177.063 100.9 176.641 102.267 176.641 104C176.641 105.733 177.063 107.1 177.908 108.1C178.752 109.1 180.019 109.6 181.708 109.6ZM207.483 114.4C205.328 114.4 203.45 113.978 201.85 113.133C200.25 112.267 199.017 111.056 198.15 109.5C197.283 107.922 196.85 106.067 196.85 103.933C196.85 101.8 197.272 99.9667 198.117 98.4333C198.961 96.8778 200.161 95.6889 201.717 94.8667C203.294 94.0222 205.15 93.6 207.283 93.6C209.372 93.6 211.161 94 212.65 94.8C214.161 95.6 215.317 96.7444 216.117 98.2333C216.917 99.7222 217.317 101.5 217.317 103.567V105.433H202.15C202.372 106.922 202.939 108.056 203.85 108.833C204.761 109.611 205.961 110 207.45 110C208.628 110 209.561 109.8 210.25 109.4C210.939 109 211.428 108.389 211.717 107.567H217.25C216.806 109.7 215.728 111.378 214.017 112.6C212.306 113.8 210.128 114.4 207.483 114.4ZM202.283 101.767H212.017C211.839 100.5 211.35 99.5556 210.55 98.9333C209.75 98.2889 208.672 97.9667 207.317 97.9667C205.961 97.9667 204.85 98.2889 203.983 98.9333C203.139 99.5778 202.572 100.522 202.283 101.767ZM225.006 105.467C225.006 104.622 225.106 103.856 225.306 103.167C225.528 102.478 225.862 101.822 226.306 101.2C226.751 100.578 227.34 99.9556 228.073 99.3333L229.84 97.7667C230.662 97.0556 231.273 96.4444 231.673 95.9333C232.073 95.4 232.273 94.7333 232.273 93.9333C232.273 93.0667 231.94 92.3889 231.273 91.9C230.606 91.3889 229.717 91.1333 228.606 91.1333C227.517 91.1333 226.628 91.4 225.94 91.9333C225.251 92.4667 224.806 93.3 224.606 94.4333H219.073C219.384 91.9 220.362 89.9667 222.006 88.6333C223.673 87.2778 225.884 86.6 228.64 86.6C230.462 86.6 232.051 86.8889 233.406 87.4667C234.762 88.0444 235.817 88.8778 236.573 89.9667C237.328 91.0333 237.706 92.3111 237.706 93.8C237.706 95.1556 237.417 96.3 236.84 97.2333C236.284 98.1667 235.406 99.1444 234.206 100.167L231.94 102.133C231.14 102.822 230.595 103.389 230.306 103.833C230.04 104.278 229.884 104.822 229.84 105.467H225.006ZM227.406 114.4C226.517 114.4 225.762 114.1 225.14 113.5C224.517 112.878 224.206 112.122 224.206 111.233C224.206 110.322 224.517 109.567 225.14 108.967C225.762 108.344 226.517 108.033 227.406 108.033C228.295 108.033 229.04 108.344 229.64 108.967C230.262 109.567 230.573 110.322 230.573 111.233C230.573 112.122 230.262 112.878 229.64 113.5C229.04 114.1 228.295 114.4 227.406 114.4Z" fill="#FFFFFE"/>
<rect width="134" height="46" transform="translate(160 132)" fill="#FFFFFE"/>
<path d="M180.08 161L184.68 150.2H186.653L191.227 161H189.347L188.08 158.04H183.173L181.907 161H180.08ZM183.773 156.467H187.547L185.693 152.053H185.627L183.773 156.467ZM192.553 161V150.2H197.526C198.726 150.2 199.655 150.502 200.312 151.107C200.979 151.702 201.312 152.524 201.312 153.573C201.312 154.613 200.979 155.436 200.312 156.04C199.655 156.644 198.726 156.947 197.526 156.947H194.406V161H192.553ZM194.406 155.36H197.419C198.086 155.36 198.593 155.2 198.939 154.88C199.286 154.56 199.459 154.124 199.459 153.573C199.459 153.013 199.286 152.578 198.939 152.267C198.593 151.947 198.086 151.787 197.419 151.787H194.406V155.36ZM202.943 161V150.2H207.916C209.116 150.2 210.045 150.502 210.703 151.107C211.37 151.702 211.703 152.524 211.703 153.573C211.703 154.613 211.37 155.436 210.703 156.04C210.045 156.644 209.116 156.947 207.916 156.947H204.796V161H202.943ZM204.796 155.36H207.81C208.476 155.36 208.983 155.2 209.33 154.88C209.676 154.56 209.85 154.124 209.85 153.573C209.85 153.013 209.676 152.578 209.33 152.267C208.983 151.947 208.476 151.787 207.81 151.787H204.796V155.36ZM213.334 161V150.2H215.187V159.4H220.92V161H213.334ZM223.419 161V156.96L219.379 150.2H221.485L224.352 155.093H224.405L227.285 150.2H229.299L225.259 156.933V161H223.419ZM244.555 161H242.528L236.381 152.787H236.328V161H234.568V150.2H236.555L242.741 158.507H242.795V150.2H244.555V161ZM251.93 161.16C250.837 161.16 249.877 160.933 249.05 160.48C248.232 160.018 247.597 159.369 247.144 158.533C246.69 157.698 246.464 156.72 246.464 155.6C246.464 154.471 246.69 153.493 247.144 152.667C247.597 151.831 248.232 151.187 249.05 150.733C249.868 150.271 250.828 150.04 251.93 150.04C253.032 150.04 253.992 150.267 254.81 150.72C255.637 151.173 256.272 151.818 256.717 152.653C257.17 153.48 257.397 154.462 257.397 155.6C257.397 156.72 257.17 157.698 256.717 158.533C256.264 159.369 255.628 160.018 254.81 160.48C253.992 160.933 253.032 161.16 251.93 161.16ZM251.93 159.547C253.059 159.547 253.939 159.191 254.57 158.48C255.21 157.769 255.53 156.809 255.53 155.6C255.53 154.382 255.215 153.422 254.584 152.72C253.952 152.009 253.068 151.653 251.93 151.653C250.801 151.653 249.917 152.009 249.277 152.72C248.646 153.422 248.33 154.382 248.33 155.6C248.33 156.818 248.646 157.782 249.277 158.493C249.917 159.196 250.801 159.547 251.93 159.547ZM260.951 161L257.804 150.2H259.737L261.964 158.32H262.031L264.444 150.2H266.137L268.697 158.32H268.751L270.951 150.2L272.897 150.2L269.751 161H267.857L265.311 152.72H265.257L262.844 161H260.951Z" fill="#353C51"/>
</svg>
