<svg width="318" height="202" viewBox="0 0 318 202" fill="none" xmlns="http://www.w3.org/2000/svg">
<rect x="1.5" y="1.5" width="315" height="199" rx="6.5" fill="#EBEAE8"/>
<rect x="1.5" y="1.5" width="315" height="199" rx="6.5" stroke="#353C51" stroke-width="3"/>
<path d="M34.8333 64V37H42.5333L50.5333 56.0333H50.6667L58.6333 37H66.3V64H60.6667V44.9333H60.5333L52.8 64H47.9667L40.2667 44.9333H40.1333V64H34.8333ZM71.4484 64V44H76.9818V64H71.4484ZM74.2151 42.0333C73.3707 42.0333 72.6484 41.7444 72.0484 41.1667C71.4707 40.5667 71.1818 39.8444 71.1818 39C71.1818 38.1556 71.4707 37.4444 72.0484 36.8667C72.6484 36.2667 73.3707 35.9667 74.2151 35.9667C75.0595 35.9667 75.7707 36.2667 76.3484 36.8667C76.9484 37.4444 77.2484 38.1556 77.2484 39C77.2484 39.8444 76.9484 40.5667 76.3484 41.1667C75.7707 41.7444 75.0595 42.0333 74.2151 42.0333ZM90.2323 64.4C87.299 64.4 84.9767 63.7889 83.2656 62.5667C81.5767 61.3222 80.6656 59.5889 80.5323 57.3667H85.8656C86.0434 58.3222 86.499 59.0333 87.2323 59.5C87.9878 59.9667 89.0656 60.2 90.4656 60.2C92.7545 60.2 93.899 59.5667 93.899 58.3C93.899 57.7889 93.7212 57.3889 93.3656 57.1C93.0323 56.7889 92.4656 56.5556 91.6656 56.4L87.199 55.5333C83.199 54.7556 81.199 52.8778 81.199 49.9C81.199 47.9889 81.9656 46.4667 83.499 45.3333C85.0323 44.1778 87.1545 43.6 89.8656 43.6C92.5545 43.6 94.6878 44.1889 96.2656 45.3667C97.8434 46.5444 98.7101 48.1889 98.8656 50.3H93.5323C93.2878 49.3667 92.8545 48.6889 92.2323 48.2667C91.6101 47.8444 90.7101 47.6333 89.5323 47.6333C88.5101 47.6333 87.7323 47.7889 87.199 48.1C86.6656 48.3889 86.399 48.8333 86.399 49.4333C86.399 49.8556 86.5656 50.2111 86.899 50.5C87.2323 50.7889 87.7434 51 88.4323 51.1333L92.999 52C95.0878 52.4222 96.6212 53.1 97.599 54.0333C98.5767 54.9667 99.0656 56.2333 99.0656 57.8333C99.0656 59.9 98.299 61.5111 96.7656 62.6667C95.2545 63.8222 93.0767 64.4 90.2323 64.4ZM110.974 64.4C108.041 64.4 105.719 63.7889 104.008 62.5667C102.319 61.3222 101.408 59.5889 101.274 57.3667H106.608C106.786 58.3222 107.241 59.0333 107.974 59.5C108.73 59.9667 109.808 60.2 111.208 60.2C113.497 60.2 114.641 59.5667 114.641 58.3C114.641 57.7889 114.463 57.3889 114.108 57.1C113.774 56.7889 113.208 56.5556 112.408 56.4L107.941 55.5333C103.941 54.7556 101.941 52.8778 101.941 49.9C101.941 47.9889 102.708 46.4667 104.241 45.3333C105.774 44.1778 107.897 43.6 110.608 43.6C113.297 43.6 115.43 44.1889 117.008 45.3667C118.586 46.5444 119.452 48.1889 119.608 50.3H114.274C114.03 49.3667 113.597 48.6889 112.974 48.2667C112.352 47.8444 111.452 47.6333 110.274 47.6333C109.252 47.6333 108.474 47.7889 107.941 48.1C107.408 48.3889 107.141 48.8333 107.141 49.4333C107.141 49.8556 107.308 50.2111 107.641 50.5C107.974 50.7889 108.486 51 109.174 51.1333L113.741 52C115.83 52.4222 117.363 53.1 118.341 54.0333C119.319 54.9667 119.808 56.2333 119.808 57.8333C119.808 59.9 119.041 61.5111 117.508 62.6667C115.997 63.8222 113.819 64.4 110.974 64.4ZM123.05 64V44H128.583V64H123.05ZM125.817 42.0333C124.972 42.0333 124.25 41.7444 123.65 41.1667C123.072 40.5667 122.783 39.8444 122.783 39C122.783 38.1556 123.072 37.4444 123.65 36.8667C124.25 36.2667 124.972 35.9667 125.817 35.9667C126.661 35.9667 127.372 36.2667 127.95 36.8667C128.55 37.4444 128.85 38.1556 128.85 39C128.85 39.8444 128.55 40.5667 127.95 41.1667C127.372 41.7444 126.661 42.0333 125.817 42.0333ZM134.501 64V49.4667H131.767V44H137.367V47.2667H138.767C139.545 46.1111 140.523 45.2222 141.701 44.6C142.878 43.9556 144.345 43.6333 146.101 43.6333C148.878 43.6333 151.023 44.4 152.534 45.9333C154.067 47.4444 154.834 49.4778 154.834 52.0333V64H149.301V53.0667C149.301 51.6 148.901 50.4889 148.101 49.7333C147.323 48.9556 146.178 48.5667 144.667 48.5667C143.156 48.5667 142.001 48.9556 141.201 49.7333C140.423 50.4889 140.034 51.6 140.034 53.0667V64H134.501ZM168.683 72.4C165.683 72.4 163.238 71.7889 161.349 70.5667C159.483 69.3667 158.372 67.6889 158.016 65.5333H163.883C164.416 67.1778 165.961 68 168.516 68C170.249 68 171.572 67.6 172.483 66.8C173.416 66.0222 173.883 64.8889 173.883 63.4V60.7333H173.716C173.116 61.8 172.283 62.6111 171.216 63.1667C170.172 63.7222 168.916 64 167.449 64C165.561 64 163.916 63.5889 162.516 62.7667C161.138 61.9222 160.061 60.7333 159.283 59.2C158.527 57.6667 158.149 55.8667 158.149 53.8C158.149 50.6889 159.005 48.2111 160.716 46.3667C162.449 44.5222 164.816 43.6 167.816 43.6C169.505 43.6 170.938 43.9222 172.116 44.5667C173.316 45.2111 174.272 46.1111 174.983 47.2667H176.383V44H181.983V49.4667H179.249V63.4667C179.249 66.3111 178.338 68.5111 176.516 70.0667C174.694 71.6222 172.083 72.4 168.683 72.4ZM168.816 59.2C170.349 59.2 171.549 58.7778 172.416 57.9333C173.283 57.0889 173.716 55.9333 173.716 54.4667V53.0667C173.716 51.6222 173.272 50.4889 172.383 49.6667C171.516 48.8222 170.327 48.4 168.816 48.4C167.194 48.4 165.927 48.8778 165.016 49.8333C164.127 50.7889 163.683 52.1222 163.683 53.8333C163.683 55.5444 164.127 56.8667 165.016 57.8C165.927 58.7333 167.194 59.2 168.816 59.2ZM201.018 64.3667C198.663 64.3667 196.818 63.8 195.485 62.6667C194.152 61.5111 193.485 60 193.485 58.1333C193.485 56.1556 194.174 54.6333 195.552 53.5667C196.929 52.5 198.907 51.9667 201.485 51.9667H207.218V51.2C207.218 49.0444 205.929 47.9667 203.352 47.9667C201.107 47.9667 199.752 48.7444 199.285 50.3H193.785C194.229 48.1 195.263 46.4333 196.885 45.3C198.507 44.1667 200.663 43.6 203.352 43.6C206.329 43.6 208.596 44.2667 210.152 45.6C211.729 46.9333 212.518 48.8778 212.518 51.4333V58.5333H215.118V64H209.518V60.7333H208.118C207.429 61.8889 206.507 62.7889 205.352 63.4333C204.196 64.0556 202.752 64.3667 201.018 64.3667ZM201.852 60.1667C202.896 60.1667 203.818 59.9778 204.618 59.6C205.418 59.2222 206.052 58.7222 206.518 58.1C206.985 57.4556 207.218 56.7333 207.218 55.9333V55.6333H201.752C199.752 55.6333 198.752 56.3778 198.752 57.8667C198.752 58.6 199.029 59.1667 199.585 59.5667C200.14 59.9667 200.896 60.1667 201.852 60.1667ZM34.8333 114V87H47.6667C50.7111 87 53.0778 87.7667 54.7667 89.3C56.4556 90.8333 57.3 92.9333 57.3 95.6C57.3 98.2444 56.4556 100.344 54.7667 101.9C53.0778 103.433 50.7111 104.2 47.6667 104.2H40.4667V114H34.8333ZM40.4667 99.3H47.3333C48.7333 99.3 49.8 98.9778 50.5333 98.3333C51.2667 97.6667 51.6333 96.7556 51.6333 95.6C51.6333 94.4222 51.2667 93.5111 50.5333 92.8667C49.8 92.2222 48.7333 91.9 47.3333 91.9H40.4667V99.3ZM60.5109 114V94H66.0443V114H60.5109ZM63.2776 92.0333C62.4332 92.0333 61.7109 91.7444 61.1109 91.1667C60.5332 90.5667 60.2443 89.8444 60.2443 89C60.2443 88.1556 60.5332 87.4444 61.1109 86.8667C61.7109 86.2667 62.4332 85.9667 63.2776 85.9667C64.122 85.9667 64.8332 86.2667 65.4109 86.8667C66.0109 87.4444 66.3109 88.1556 66.3109 89C66.3109 89.8444 66.0109 90.5667 65.4109 91.1667C64.8332 91.7444 64.122 92.0333 63.2776 92.0333ZM80.0615 114.4C77.9059 114.4 76.0281 113.978 74.4281 113.133C72.8281 112.267 71.5948 111.056 70.7281 109.5C69.8615 107.922 69.4281 106.067 69.4281 103.933C69.4281 101.8 69.8503 99.9667 70.6948 98.4333C71.5392 96.8778 72.7392 95.6889 74.2948 94.8667C75.8726 94.0222 77.7281 93.6 79.8615 93.6C81.9503 93.6 83.7392 94 85.2281 94.8C86.7392 95.6 87.8948 96.7444 88.6948 98.2333C89.4948 99.7222 89.8948 101.5 89.8948 103.567V105.433H74.7281C74.9503 106.922 75.517 108.056 76.4281 108.833C77.3392 109.611 78.5392 110 80.0281 110C81.2059 110 82.1392 109.8 82.8281 109.4C83.517 109 84.0059 108.389 84.2948 107.567H89.8281C89.3837 109.7 88.3059 111.378 86.5948 112.6C84.8837 113.8 82.7059 114.4 80.0615 114.4ZM74.8615 101.767H84.5948C84.417 100.5 83.9281 99.5556 83.1281 98.9333C82.3281 98.2889 81.2503 97.9667 79.8948 97.9667C78.5392 97.9667 77.4281 98.2889 76.5615 98.9333C75.717 99.5778 75.1503 100.522 74.8615 101.767ZM102.551 114.4C100.462 114.4 98.6288 113.978 97.051 113.133C95.4955 112.267 94.2733 111.056 93.3844 109.5C92.5177 107.944 92.0844 106.111 92.0844 104C92.0844 101.889 92.5177 100.056 93.3844 98.5C94.251 96.9444 95.4733 95.7444 97.051 94.9C98.6288 94.0333 100.462 93.6 102.551 93.6C105.195 93.6 107.373 94.2667 109.084 95.6C110.795 96.9333 111.873 98.7667 112.318 101.1H106.751C106.462 100.233 105.962 99.5667 105.251 99.1C104.54 98.6333 103.64 98.4 102.551 98.4C101.062 98.4 99.8622 98.8889 98.951 99.8667C98.0622 100.844 97.6177 102.222 97.6177 104C97.6177 105.778 98.0733 107.156 98.9844 108.133C99.8955 109.111 101.084 109.6 102.551 109.6C104.907 109.6 106.34 108.6 106.851 106.6H112.418C112.018 109.044 110.962 110.956 109.251 112.333C107.54 113.711 105.307 114.4 102.551 114.4ZM124.397 114.4C122.242 114.4 120.364 113.978 118.764 113.133C117.164 112.267 115.931 111.056 115.064 109.5C114.197 107.922 113.764 106.067 113.764 103.933C113.764 101.8 114.186 99.9667 115.031 98.4333C115.875 96.8778 117.075 95.6889 118.631 94.8667C120.209 94.0222 122.064 93.6 124.197 93.6C126.286 93.6 128.075 94 129.564 94.8C131.075 95.6 132.231 96.7444 133.031 98.2333C133.831 99.7222 134.231 101.5 134.231 103.567V105.433H119.064C119.286 106.922 119.853 108.056 120.764 108.833C121.675 109.611 122.875 110 124.364 110C125.542 110 126.475 109.8 127.164 109.4C127.853 109 128.342 108.389 128.631 107.567H134.164C133.72 109.7 132.642 111.378 130.931 112.6C129.22 113.8 127.042 114.4 124.397 114.4ZM119.197 101.767H128.931C128.753 100.5 128.264 99.5556 127.464 98.9333C126.664 98.2889 125.586 97.9667 124.231 97.9667C122.875 97.9667 121.764 98.2889 120.897 98.9333C120.053 99.5778 119.486 100.522 119.197 101.767ZM141.92 105.467C141.92 104.622 142.02 103.856 142.22 103.167C142.443 102.478 142.776 101.822 143.22 101.2C143.665 100.578 144.254 99.9556 144.987 99.3333L146.754 97.7667C147.576 97.0556 148.187 96.4444 148.587 95.9333C148.987 95.4 149.187 94.7333 149.187 93.9333C149.187 93.0667 148.854 92.3889 148.187 91.9C147.52 91.3889 146.631 91.1333 145.52 91.1333C144.431 91.1333 143.543 91.4 142.854 91.9333C142.165 92.4667 141.72 93.3 141.52 94.4333H135.987C136.298 91.9 137.276 89.9667 138.92 88.6333C140.587 87.2778 142.798 86.6 145.554 86.6C147.376 86.6 148.965 86.8889 150.32 87.4667C151.676 88.0444 152.731 88.8778 153.487 89.9667C154.243 91.0333 154.62 92.3111 154.62 93.8C154.62 95.1556 154.331 96.3 153.754 97.2333C153.198 98.1667 152.32 99.1444 151.12 100.167L148.854 102.133C148.054 102.822 147.509 103.389 147.22 103.833C146.954 104.278 146.798 104.822 146.754 105.467H141.92ZM144.32 114.4C143.431 114.4 142.676 114.1 142.054 113.5C141.431 112.878 141.12 112.122 141.12 111.233C141.12 110.322 141.431 109.567 142.054 108.967C142.676 108.344 143.431 108.033 144.32 108.033C145.209 108.033 145.954 108.344 146.554 108.967C147.176 109.567 147.487 110.322 147.487 111.233C147.487 112.122 147.176 112.878 146.554 113.5C145.954 114.1 145.209 114.4 144.32 114.4Z" fill="#353C51"/>
<line x1="37" y1="3" x2="37" y2="19" stroke="#646676" stroke-width="2"/>
<line x1="49" y1="3" x2="49" y2="9" stroke="#646676" stroke-width="2"/>
<line x1="61" y1="3" x2="61" y2="9" stroke="#646676" stroke-width="2"/>
<line x1="73" y1="3" x2="73" y2="9" stroke="#646676" stroke-width="2"/>
<line x1="85" y1="3" x2="85" y2="19" stroke="#646676" stroke-width="2"/>
<line x1="97" y1="3" x2="97" y2="9" stroke="#646676" stroke-width="2"/>
<line x1="109" y1="3" x2="109" y2="9" stroke="#646676" stroke-width="2"/>
<line x1="121" y1="3" x2="121" y2="9" stroke="#646676" stroke-width="2"/>
<line x1="133" y1="3" x2="133" y2="19" stroke="#646676" stroke-width="2"/>
<line x1="145" y1="3" x2="145" y2="9" stroke="#646676" stroke-width="2"/>
<line x1="157" y1="3" x2="157" y2="9" stroke="#646676" stroke-width="2"/>
<line x1="169" y1="3" x2="169" y2="9" stroke="#646676" stroke-width="2"/>
<line x1="181" y1="3" x2="181" y2="19" stroke="#646676" stroke-width="2"/>
<line x1="193" y1="3" x2="193" y2="9" stroke="#646676" stroke-width="2"/>
<line x1="205" y1="3" x2="205" y2="9" stroke="#646676" stroke-width="2"/>
<line x1="217" y1="3" x2="217" y2="9" stroke="#646676" stroke-width="2"/>
<line x1="229" y1="3" x2="229" y2="19" stroke="#646676" stroke-width="2"/>
<line x1="241" y1="3" x2="241" y2="9" stroke="#646676" stroke-width="2"/>
<line x1="253" y1="3" x2="253" y2="9" stroke="#646676" stroke-width="2"/>
<line x1="265" y1="3" x2="265" y2="9" stroke="#646676" stroke-width="2"/>
<line x1="277" y1="3" x2="277" y2="19" stroke="#646676" stroke-width="2"/>
<line x1="3" y1="179" x2="19" y2="179" stroke="#646676" stroke-width="2"/>
<line x1="3" y1="167" x2="9" y2="167" stroke="#646676" stroke-width="2"/>
<line x1="3" y1="155" x2="9" y2="155" stroke="#646676" stroke-width="2"/>
<line x1="3" y1="143" x2="9" y2="143" stroke="#646676" stroke-width="2"/>
<line x1="3" y1="131" x2="19" y2="131" stroke="#646676" stroke-width="2"/>
<line x1="3" y1="119" x2="9" y2="119" stroke="#646676" stroke-width="2"/>
<line x1="3" y1="107" x2="9" y2="107" stroke="#646676" stroke-width="2"/>
<line x1="3" y1="95" x2="9" y2="95" stroke="#646676" stroke-width="2"/>
<line x1="3" y1="83" x2="19" y2="83" stroke="#646676" stroke-width="2"/>
<line x1="3" y1="71" x2="9" y2="71" stroke="#646676" stroke-width="2"/>
<line x1="3" y1="59" x2="9" y2="59" stroke="#646676" stroke-width="2"/>
<line x1="3" y1="47" x2="9" y2="47" stroke="#646676" stroke-width="2"/>
<line x1="3" y1="35" x2="19" y2="35" stroke="#646676" stroke-width="2"/>
<rect width="127" height="46" transform="translate(167 132)" fill="#353C51"/>
<path d="M192.24 161V150.2H197.6C198.72 150.2 199.6 150.458 200.24 150.973C200.88 151.489 201.2 152.213 201.2 153.147C201.2 153.68 201.08 154.147 200.84 154.547C200.6 154.938 200.244 155.24 199.773 155.453V155.507C200.227 155.507 200.578 155.631 200.827 155.88C201.076 156.12 201.2 156.471 201.2 156.933V161H199.36V156.72H194.093V161H192.24ZM194.093 155.147H197.453C198.067 155.147 198.538 155 198.867 154.707C199.204 154.413 199.373 154 199.373 153.467C199.373 152.924 199.204 152.511 198.867 152.227C198.538 151.933 198.067 151.787 197.453 151.787H194.093V155.147ZM211.17 161H203.49V150.2H211.17V151.8H205.343V154.613H210.797V156.187H205.343V159.4H211.17V161ZM211.924 161L216.524 150.2H218.497L223.07 161H221.19L219.924 158.04H215.017L213.75 161H211.924ZM215.617 156.467H219.39L217.537 152.053H217.47L215.617 156.467ZM224.396 161V150.2H228.45C229.623 150.2 230.636 150.418 231.49 150.853C232.343 151.28 232.996 151.898 233.45 152.707C233.912 153.516 234.143 154.48 234.143 155.6C234.143 156.711 233.912 157.671 233.45 158.48C232.987 159.289 232.33 159.911 231.476 160.347C230.623 160.782 229.614 161 228.45 161H224.396ZM226.25 159.427H228.45C229.676 159.427 230.618 159.084 231.276 158.4C231.943 157.716 232.276 156.782 232.276 155.6C232.276 154.409 231.947 153.476 231.29 152.8C230.632 152.116 229.685 151.773 228.45 151.773H226.25V159.427ZM241.796 161H239.943V150.2H247.49V151.8H241.796V154.76H247.103V156.36H241.796V161ZM246.627 161L251.227 150.2H253.2L257.774 161H255.894L254.627 158.04H249.72L248.454 161H246.627ZM250.32 156.467H254.094L252.24 152.053H252.174L250.32 156.467ZM264.168 163.587C263.67 163.587 263.284 163.458 263.008 163.2C262.733 162.942 262.595 162.56 262.595 162.053V161.08C261.653 160.956 260.835 160.653 260.141 160.173C259.457 159.684 258.928 159.053 258.555 158.28C258.181 157.498 257.995 156.604 257.995 155.6C257.995 154.471 258.221 153.493 258.675 152.667C259.128 151.831 259.764 151.187 260.581 150.733C261.408 150.271 262.368 150.04 263.461 150.04C264.564 150.04 265.524 150.267 266.341 150.72C267.168 151.173 267.804 151.818 268.248 152.653C268.701 153.48 268.928 154.462 268.928 155.6C268.928 156.604 268.741 157.498 268.368 158.28C268.004 159.053 267.479 159.68 266.795 160.16C266.11 160.64 265.297 160.947 264.355 161.08V162.053H267.408V163.587H264.168ZM263.461 159.56C264.59 159.56 265.47 159.204 266.101 158.493C266.741 157.782 267.061 156.818 267.061 155.6C267.061 154.373 266.746 153.409 266.115 152.707C265.484 151.996 264.599 151.64 263.461 151.64C262.333 151.64 261.448 151.996 260.808 152.707C260.177 153.409 259.861 154.373 259.861 155.6C259.861 156.818 260.177 157.782 260.808 158.493C261.448 159.204 262.333 159.56 263.461 159.56Z" fill="#FFFFFE"/>
</svg>
