<svg width="256" height="240" viewBox="0 0 256 240" fill="none" xmlns="http://www.w3.org/2000/svg">
<rect x="71.9766" y="203.273" width="25.738" height="34.6904" rx="12.869" fill="#646676" stroke="#353C51" stroke-width="4"/>
<rect x="178.285" y="203.273" width="25.738" height="34.6904" rx="12.869" fill="#646676" stroke="#353C51" stroke-width="4"/>
<path d="M33.8573 94.0869C-2.42088 96.8299 -9.82734 141.856 26.0326 162.661C53.2175 178.433 46.1061 201.062 31.1667 201.062C10.3426 201.062 7.38578 159.918 48.7967 144.832C90.2077 129.745 137.714 172.947 107.126 190.09" stroke="#353C51" stroke-width="4"/>
<rect x="31.1602" y="100.419" width="11.8189" height="15.1513" transform="rotate(-90 31.1602 100.419)" fill="#646676" stroke="#353C51" stroke-width="4"/>
<path d="M139.463 53.21C194.76 53.6707 218.621 68.4785 227.646 76.751L227.982 77.0703C231.396 80.4047 232.745 84.9839 233.106 89.3945L235.008 112.602H177.927L181.307 80.8545L181.341 80.4238C181.563 76.1412 178.264 72.4724 173.981 72.2402L173.551 72.2285H100.065C95.431 72.2286 91.819 76.246 92.3096 80.8545L95.6895 112.602H38.6016L40.5049 89.3916L40.5869 88.5371C41.0646 84.2543 42.5321 79.899 45.9648 76.752L46.4062 76.3535C55.9049 67.8791 80.5052 53.1992 136.807 53.1992L139.463 53.21Z" fill="#8BB660"/>
<path d="M139.463 53.21L139.48 51.21L139.471 51.21L139.463 53.21ZM227.646 76.751L229.021 75.2994L229.009 75.2879L228.997 75.2767L227.646 76.751ZM227.982 77.0703L229.38 75.6396L229.369 75.6291L229.358 75.6187L227.982 77.0703ZM233.106 89.3945L231.113 89.5578V89.5578L233.106 89.3945ZM235.008 112.602V114.602H237.178L237.001 112.438L235.008 112.602ZM177.927 112.602L175.938 112.39L175.703 114.602H177.927V112.602ZM181.307 80.8545L183.295 81.0662L183.298 81.0395L183.3 81.0127L181.307 80.8545ZM181.341 80.4238L183.335 80.5821L183.337 80.5548L183.338 80.5274L181.341 80.4238ZM173.981 72.2402L174.09 70.2432L174.063 70.2417L174.036 70.241L173.981 72.2402ZM173.551 72.2285L173.605 70.2293L173.578 70.2285H173.551V72.2285ZM100.065 72.2285V70.2285H100.065L100.065 72.2285ZM92.3096 80.8545L90.3208 81.0662V81.0662L92.3096 80.8545ZM95.6895 112.602V114.602H97.9137L97.6782 112.39L95.6895 112.602ZM38.6016 112.602L36.6083 112.438L36.4308 114.602H38.6016V112.602ZM40.5049 89.3916L38.514 89.2005L38.5127 89.2143L38.5116 89.2281L40.5049 89.3916ZM40.5869 88.5371L38.5992 88.3154L38.5975 88.3307L38.5961 88.346L40.5869 88.5371ZM45.9648 76.752L44.6247 75.2673L44.619 75.2725L44.6133 75.2777L45.9648 76.752ZM46.4062 76.3535L45.0748 74.8611L45.0661 74.8689L46.4062 76.3535ZM136.807 53.1992L136.815 51.1992H136.807V53.1992ZM139.463 53.21L139.446 55.2099C194.386 55.6676 217.724 70.3695 226.294 78.2253L227.646 76.751L228.997 75.2767C219.518 66.5876 195.134 51.6737 139.48 51.21L139.463 53.21ZM227.646 76.751L226.27 78.2026L226.607 78.5219L227.982 77.0703L229.358 75.6187L229.021 75.2994L227.646 76.751ZM227.982 77.0703L226.585 78.5011C229.519 81.3665 230.772 85.398 231.113 89.5578L233.106 89.3945L235.1 89.2312C234.718 84.5698 233.274 79.4429 229.38 75.6396L227.982 77.0703ZM233.106 89.3945L231.113 89.5578L233.014 112.765L235.008 112.602L237.001 112.438L235.1 89.2312L233.106 89.3945ZM235.008 112.602V110.602H177.927V112.602V114.602H235.008V112.602ZM177.927 112.602L179.916 112.813L183.295 81.0662L181.307 80.8545L179.318 80.6428L175.938 112.39L177.927 112.602ZM181.307 80.8545L183.3 81.0127L183.335 80.5821L181.341 80.4238L179.347 80.2656L179.313 80.6963L181.307 80.8545ZM181.341 80.4238L183.338 80.5274C183.617 75.1435 179.473 70.535 174.09 70.2432L173.981 72.2402L173.873 74.2373C177.054 74.4097 179.509 77.1389 179.344 80.3202L181.341 80.4238ZM173.981 72.2402L174.036 70.241L173.605 70.2293L173.551 72.2285L173.496 74.2278L173.927 74.2395L173.981 72.2402ZM173.551 72.2285V70.2285H100.065V72.2285V74.2285H173.551V72.2285ZM100.065 72.2285L100.065 70.2285C94.2425 70.2286 89.7044 75.2762 90.3208 81.0662L92.3096 80.8545L94.2983 80.6428C93.9335 77.2158 96.6195 74.2286 100.065 74.2285L100.065 72.2285ZM92.3096 80.8545L90.3208 81.0662L93.7007 112.813L95.6895 112.602L97.6782 112.39L94.2983 80.6428L92.3096 80.8545ZM95.6895 112.602V110.602H38.6016V112.602V114.602H95.6895V112.602ZM38.6016 112.602L40.5949 112.765L42.4982 89.5551L40.5049 89.3916L38.5116 89.2281L36.6083 112.438L38.6016 112.602ZM40.5049 89.3916L42.4957 89.5827L42.5778 88.7282L40.5869 88.5371L38.5961 88.346L38.514 89.2005L40.5049 89.3916ZM40.5869 88.5371L42.5746 88.7588C43.0223 84.7442 44.3713 80.9262 47.3164 78.2262L45.9648 76.752L44.6133 75.2777C40.693 78.8718 39.1068 83.7643 38.5992 88.3154L40.5869 88.5371ZM45.9648 76.752L47.3049 78.2366L47.7464 77.8381L46.4062 76.3535L45.0661 74.8689L44.6247 75.2673L45.9648 76.752ZM46.4062 76.3535L47.7377 77.8459C56.7772 69.7812 80.8559 55.1992 136.807 55.1992V53.1992V51.1992C80.1546 51.1992 55.0327 65.977 45.0748 74.8611L46.4062 76.3535ZM136.807 53.1992L136.799 55.1992L139.455 55.2099L139.463 53.21L139.471 51.21L136.815 51.1992L136.807 53.1992Z" fill="#353C51"/>
<path d="M115.558 65.2881C116.883 65.2881 117.958 66.363 117.958 67.6885V80.373H154.944V67.6875C154.945 66.3622 156.019 65.2881 157.345 65.2881H168.194C169.52 65.2883 170.594 66.3631 170.594 67.6885V82.7119C170.594 82.7322 170.597 82.753 170.597 82.7734V115.003C170.597 116.328 169.523 117.403 168.197 117.403H104.709C103.384 117.403 102.309 116.328 102.309 115.003V67.6875C102.309 66.3622 103.384 65.2881 104.709 65.2881H115.558Z" fill="#646676"/>
<path d="M117.958 80.373H115.958V82.373H117.958V80.373ZM154.944 80.373V82.373H156.944V80.373H154.944ZM154.944 67.6875L152.944 67.6871V67.6875H154.944ZM168.194 65.2881L168.195 63.2881H168.194V65.2881ZM170.594 82.7119H168.594V82.7369L168.594 82.7619L170.594 82.7119ZM170.597 115.003L172.597 115.003V115.003H170.597ZM168.197 117.403V119.403H168.198L168.197 117.403ZM102.309 115.003H100.309V115.003L102.309 115.003ZM102.309 67.6875L100.309 67.6871V67.6875H102.309ZM115.558 65.2881V67.2881C115.779 67.2881 115.958 67.4676 115.958 67.6885H117.958H119.958C119.958 65.2584 117.988 63.2881 115.558 63.2881V65.2881ZM117.958 67.6885H115.958V80.373H117.958H119.958V67.6885H117.958ZM117.958 80.373V82.373H154.944V80.373V78.373H117.958V80.373ZM154.944 80.373H156.944V67.6875H154.944H152.944V80.373H154.944ZM154.944 67.6875L156.944 67.6879C156.944 67.4676 157.123 67.2881 157.345 67.2881V65.2881V63.2881C154.916 63.2881 152.945 65.2569 152.944 67.6871L154.944 67.6875ZM157.345 65.2881V67.2881H168.194V65.2881V63.2881H157.345V65.2881ZM168.194 65.2881L168.194 67.2881C168.414 67.2881 168.594 67.467 168.594 67.6885H170.594H172.594C172.594 65.2593 170.625 63.2885 168.195 63.2881L168.194 65.2881ZM170.594 67.6885H168.594V82.7119H170.594H172.594V67.6885H170.594ZM170.594 82.7119L168.594 82.7619C168.595 82.7799 168.595 82.796 168.596 82.8094C168.597 82.8229 168.597 82.8345 168.598 82.8435C168.598 82.8524 168.599 82.8599 168.599 82.8644C168.599 82.8667 168.599 82.8688 168.599 82.87C168.6 82.8715 168.6 82.872 168.6 82.8724C168.6 82.8732 168.6 82.871 168.599 82.8674C168.599 82.8637 168.599 82.8575 168.598 82.8494C168.598 82.8338 168.597 82.8071 168.597 82.7734H170.597H172.597C172.597 82.7295 172.595 82.6926 172.594 82.6667C172.593 82.6415 172.592 82.6207 172.591 82.6129C172.59 82.5994 172.591 82.6071 172.591 82.6109C172.591 82.618 172.592 82.6368 172.593 82.662L170.594 82.7119ZM170.597 82.7734H168.597V115.003H170.597H172.597V82.7734H170.597ZM170.597 115.003L168.597 115.003C168.597 115.225 168.417 115.403 168.197 115.403L168.197 117.403L168.198 119.403C170.628 119.403 172.597 117.432 172.597 115.003L170.597 115.003ZM168.197 117.403V115.403H104.709V117.403V119.403H168.197V117.403ZM104.709 117.403V115.403C104.488 115.403 104.309 115.224 104.309 115.003L102.309 115.003L100.309 115.003C100.309 117.433 102.279 119.403 104.709 119.403V117.403ZM102.309 115.003H104.309V67.6875H102.309H100.309V115.003H102.309ZM102.309 67.6875L104.309 67.6879C104.309 67.4676 104.488 67.2881 104.709 67.2881V65.2881V63.2881C102.28 63.2881 100.309 65.2569 100.309 67.6871L102.309 67.6875ZM104.709 65.2881V67.2881H115.558V65.2881V63.2881H104.709V65.2881Z" fill="#353C51"/>
<path d="M214.684 220.265C214.684 225.567 210.386 229.864 205.084 229.864H67.7905C62.4886 229.864 58.1899 225.567 58.1899 220.265V191.311C58.1899 191.309 58.1885 191.308 58.1868 191.308C58.1848 191.308 58.1834 191.306 58.1836 191.304L71.8237 95.4693C72.1605 93.1035 74.1862 91.3457 76.5758 91.3457H196.285C198.675 91.3457 200.701 93.1035 201.038 95.4694L214.677 191.304C214.677 191.306 214.679 191.308 214.68 191.308C214.682 191.308 214.684 191.309 214.684 191.311V220.265Z" fill="#8BB660"/>
<path d="M205.084 229.864V231.864H205.085L205.084 229.864ZM214.677 191.304L216.657 191.023L214.677 191.304ZM201.038 95.4694L199.058 95.7512L201.038 95.4694ZM71.8237 95.4693L69.8437 95.1875L71.8237 95.4693ZM58.1836 191.304L56.2036 191.022L58.1836 191.304ZM214.684 220.265H212.684C212.684 224.462 209.282 227.864 205.084 227.864L205.084 229.864L205.085 231.864C211.491 231.864 216.684 226.671 216.684 220.265H214.684ZM205.084 229.864V227.864H67.7905V229.864V231.864H205.084V229.864ZM67.7905 229.864V227.864C63.5929 227.864 60.1899 224.462 60.1899 220.265H58.1899H56.1899C56.1899 226.671 61.3843 231.864 67.7905 231.864V229.864ZM58.1899 220.265H60.1899V191.311H58.1899H56.1899V220.265H58.1899ZM58.1836 191.304L60.1637 191.586L73.8038 95.7512L71.8237 95.4693L69.8437 95.1875L56.2036 191.022L58.1836 191.304ZM76.5758 91.3457V93.3457H196.285V91.3457V89.3457H76.5758V91.3457ZM201.038 95.4694L199.058 95.7512L212.697 191.586L214.677 191.304L216.657 191.023L203.018 95.1876L201.038 95.4694ZM214.684 191.311H212.684V220.265H214.684H216.684V191.311H214.684ZM214.68 191.308V193.308C213.578 193.308 212.684 192.414 212.684 191.311H214.684H216.684C216.684 190.205 215.787 189.308 214.68 189.308V191.308ZM214.677 191.304L212.697 191.586C212.838 192.577 213.686 193.308 214.68 193.308V191.308V189.308C215.671 189.308 216.516 190.036 216.657 191.023L214.677 191.304ZM196.285 91.3457V93.3457C197.679 93.3457 198.861 94.3711 199.058 95.7512L201.038 95.4694L203.018 95.1876C202.541 91.836 199.671 89.3457 196.285 89.3457V91.3457ZM71.8237 95.4693L73.8038 95.7512C74.0002 94.3711 75.1819 93.3457 76.5758 93.3457V91.3457V89.3457C73.1905 89.3457 70.3207 91.8359 69.8437 95.1875L71.8237 95.4693ZM58.1868 191.308V189.308C59.4015 189.308 60.3348 190.383 60.1637 191.586L58.1836 191.304L56.2036 191.022C56.0319 192.229 56.9682 193.308 58.1868 193.308V191.308ZM58.1899 191.311H60.1899C60.1899 190.204 59.293 189.308 58.1868 189.308V191.308V193.308C57.0841 193.308 56.1899 192.414 56.1899 191.311H58.1899Z" fill="#353C51"/>
<circle cx="136.496" cy="157.499" r="54.5" fill="#FFFFFE" stroke="#353C51" stroke-width="4"/>
<circle cx="136.441" cy="157.175" r="37.7147" fill="#8BB660" stroke="#353C51" stroke-width="4"/>
<rect x="171.156" y="187.487" width="9.14699" height="15.8841" transform="rotate(-52.1899 171.156 187.487)" fill="#646676" stroke="#353C51" stroke-width="4"/>
<circle cx="122.823" cy="157.393" r="13.0573" fill="#FFFFFE" stroke="#353C51" stroke-width="4"/>
<circle cx="125.836" cy="155.385" r="8.03525" fill="#353C51"/>
<circle cx="150.944" cy="157.393" r="13.0573" fill="#FFFFFE" stroke="#353C51" stroke-width="4"/>
<circle cx="153.961" cy="155.385" r="8.03525" fill="#353C51"/>
</svg>
