<svg width="641" height="200" viewBox="0 0 641 200" fill="none" xmlns="http://www.w3.org/2000/svg">
<g clip-path="url(#clip0_7832_17192)">
<mask id="path-1-inside-1_7832_17192" fill="white">
<path d="M0 0H641V200H0V0Z"/>
</mask>
<rect x="2" y="2" width="637" height="196" fill="#FFFFFE"/>
<rect x="2" y="2" width="637" height="196" stroke="#353C51" stroke-width="4" stroke-dasharray="6 6"/>
<path d="M222.493 109.95C186.268 113.326 179.649 158.474 215.866 178.65C243.322 193.946 236.607 216.696 221.67 216.956C200.849 217.32 197.175 176.233 238.316 160.427C279.457 144.62 327.71 186.986 297.427 204.661" stroke="#353C51" stroke-width="4"/>
<rect x="219.906" y="116.328" width="11.8189" height="15.1513" transform="rotate(-91 219.906 116.328)" fill="#646676" stroke="#353C51" stroke-width="4"/>
<path d="M327.37 67.2368C382.666 66.7324 406.782 81.1216 415.95 89.2352L416.292 89.5486C419.764 92.8229 421.192 97.3779 421.63 101.782L423.936 124.952L366.864 125.948L369.689 94.1468L369.716 93.7156C369.863 89.4298 366.501 85.8191 362.215 85.6617L361.784 85.6575L288.31 86.94C283.676 87.021 280.135 91.1008 280.706 95.7001L284.639 127.383L227.56 128.38L229.058 105.14L229.125 104.284C229.528 99.9937 230.919 95.6134 234.297 92.407L234.731 92.0009C244.08 83.362 268.421 68.255 324.714 67.2724L327.37 67.2368Z" fill="#8BB660"/>
<path d="M327.37 67.2368L327.351 65.2369L327.343 65.237L327.37 67.2368ZM415.95 89.2352L417.3 87.7599L417.288 87.7486L417.275 87.7376L415.95 89.2352ZM416.292 89.5486L417.664 88.0937L417.653 88.0834L417.642 88.0733L416.292 89.5486ZM421.63 101.782L419.64 101.98L419.64 101.98L421.63 101.782ZM423.936 124.952L423.971 126.952L426.142 126.914L425.927 124.754L423.936 124.952ZM366.864 125.948L364.872 125.771L364.675 127.987L366.899 127.948L366.864 125.948ZM369.689 94.1468L371.682 94.3238L371.684 94.2971L371.686 94.2703L369.689 94.1468ZM369.716 93.7156L371.712 93.8391L371.714 93.8117L371.715 93.7844L369.716 93.7156ZM362.215 85.6617L362.288 83.6631L362.261 83.6621L362.235 83.6618L362.215 85.6617ZM361.784 85.6575L361.804 83.6576L361.777 83.6574L361.749 83.6578L361.784 85.6575ZM288.31 86.94L288.275 84.9403L288.275 84.9403L288.31 86.94ZM280.706 95.7001L278.721 95.9465L278.721 95.9465L280.706 95.7001ZM284.639 127.383L284.674 129.383L286.898 129.344L286.624 127.137L284.639 127.383ZM227.56 128.38L225.564 128.251L225.425 130.417L227.595 130.379L227.56 128.38ZM229.058 105.14L227.064 104.984L227.063 104.997L227.062 105.011L229.058 105.14ZM229.125 104.284L227.134 104.097L227.133 104.113L227.131 104.128L229.125 104.284ZM234.297 92.407L232.931 90.946L232.925 90.9512L232.92 90.9566L234.297 92.407ZM234.731 92.0009L233.374 90.5319L233.365 90.5399L234.731 92.0009ZM324.714 67.2724L324.687 65.2726L324.679 65.2727L324.714 67.2724ZM327.37 67.2368L327.388 69.2367C382.327 68.7356 405.918 83.0279 414.624 90.7329L415.95 89.2352L417.275 87.7376C407.646 79.2153 383.005 64.7292 327.351 65.2369L327.37 67.2368ZM415.95 89.2352L414.599 90.7106L414.942 91.024L416.292 89.5486L417.642 88.0733L417.3 87.7599L415.95 89.2352ZM416.292 89.5486L414.92 91.0036C417.903 93.8174 419.227 97.8264 419.64 101.98L421.63 101.782L423.621 101.583C423.157 96.9294 421.624 91.8285 417.664 88.0937L416.292 89.5486ZM421.63 101.782L419.64 101.98L421.946 125.15L423.936 124.952L425.927 124.754L423.621 101.583L421.63 101.782ZM423.936 124.952L423.902 122.952L366.829 123.948L366.864 125.948L366.899 127.948L423.971 126.952L423.936 124.952ZM366.864 125.948L368.856 126.125L371.682 94.3238L369.689 94.1468L367.697 93.9699L364.872 125.771L366.864 125.948ZM369.689 94.1468L371.686 94.2703L371.712 93.8391L369.716 93.7156L367.72 93.5922L367.693 94.0234L369.689 94.1468ZM369.716 93.7156L371.715 93.7844C371.9 88.3964 367.676 83.8609 362.288 83.6631L362.215 85.6617L362.142 87.6604C365.325 87.7773 367.827 90.4632 367.717 93.6469L369.716 93.7156ZM362.215 85.6617L362.235 83.6618L361.804 83.6576L361.784 85.6575L361.765 87.6574L362.196 87.6616L362.215 85.6617ZM361.784 85.6575L361.749 83.6578L288.275 84.9403L288.31 86.94L288.345 88.9397L361.819 87.6572L361.784 85.6575ZM288.31 86.94L288.275 84.9403C282.453 85.0421 278.004 90.1681 278.721 95.9465L280.706 95.7001L282.691 95.4537C282.266 92.0336 284.9 88.9999 288.345 88.9397L288.31 86.94ZM280.706 95.7001L278.721 95.9465L282.655 127.63L284.639 127.383L286.624 127.137L282.691 95.4537L280.706 95.7001ZM284.639 127.383L284.604 125.384L227.525 126.38L227.56 128.38L227.595 130.379L284.674 129.383L284.639 127.383ZM227.56 128.38L229.556 128.508L231.054 105.269L229.058 105.14L227.062 105.011L225.564 128.251L227.56 128.38ZM229.058 105.14L231.052 105.296L231.119 104.441L229.125 104.284L227.131 104.128L227.064 104.984L229.058 105.14ZM229.125 104.284L231.116 104.471C231.494 100.449 232.776 96.6084 235.674 93.8574L234.297 92.407L232.92 90.9566C229.063 94.6185 227.562 99.538 227.134 104.097L229.125 104.284ZM234.297 92.407L235.662 93.868L236.097 93.4619L234.731 92.0009L233.365 90.5399L232.931 90.946L234.297 92.407ZM234.731 92.0009L236.088 93.4698C244.986 85.2485 268.806 70.2486 324.748 69.2721L324.714 67.2724L324.679 65.2727C268.035 66.2615 243.175 81.4754 233.374 90.532L234.731 92.0009ZM324.714 67.2724L324.74 69.2722L327.396 69.2366L327.37 67.2368L327.343 65.237L324.687 65.2726L324.714 67.2724Z" fill="#353C51"/>
<path d="M303.681 79.7297C305.006 79.7066 306.099 80.7626 306.123 82.0878L306.344 94.7705L343.325 94.125L343.103 81.4414C343.08 80.1163 344.136 79.0236 345.461 79.0004L356.309 78.8111C357.634 78.7882 358.727 79.8441 358.75 81.1692L359.012 96.1904C359.013 96.2107 359.016 96.2314 359.016 96.2518L359.579 128.476C359.602 129.802 358.547 130.895 357.222 130.918L293.743 132.026C292.418 132.049 291.324 130.993 291.301 129.668L290.475 82.36C290.453 81.0349 291.508 79.9422 292.834 79.919L303.681 79.7297Z" fill="#646676"/>
<path d="M306.123 82.0878L304.123 82.1227L306.123 82.0878ZM306.344 94.7705L304.344 94.8054L304.379 96.8051L306.379 96.7702L306.344 94.7705ZM343.325 94.125L343.359 96.1247L345.359 96.0898L345.324 94.0901L343.325 94.125ZM343.103 81.4414L341.103 81.4759L341.104 81.4763L343.103 81.4414ZM356.309 78.8111L356.275 76.8114L356.274 76.8114L356.309 78.8111ZM359.012 96.1904L357.013 96.2253L357.013 96.2503L357.014 96.2752L359.012 96.1904ZM359.579 128.476L361.579 128.442L361.579 128.442L359.579 128.476ZM357.222 130.918L357.257 132.918L357.257 132.918L357.222 130.918ZM293.743 132.026L293.708 130.027L293.743 132.026ZM291.301 129.668L289.302 129.703L289.302 129.703L291.301 129.668ZM290.475 82.36L288.476 82.3945L288.476 82.3949L290.475 82.36ZM303.681 79.7297L303.716 81.7294C303.936 81.7256 304.119 81.9019 304.123 82.1227L306.123 82.0878L308.122 82.0529C308.08 79.6233 306.075 77.6876 303.646 77.73L303.681 79.7297ZM306.123 82.0878L304.123 82.1227L304.344 94.8054L306.344 94.7705L308.344 94.7356L308.122 82.0529L306.123 82.0878ZM306.344 94.7705L306.379 96.7702L343.359 96.1247L343.325 94.125L343.29 92.1253L306.309 92.7708L306.344 94.7705ZM343.325 94.125L345.324 94.0901L345.103 81.4065L343.103 81.4414L341.104 81.4763L341.325 94.1599L343.325 94.125ZM343.103 81.4414L345.103 81.4069C345.099 81.1866 345.275 81.004 345.496 81.0001L345.461 79.0004L345.426 77.0007C342.998 77.0431 341.062 79.0461 341.103 81.4759L343.103 81.4414ZM345.461 79.0004L345.496 81.0001L356.344 80.8108L356.309 78.8111L356.274 76.8114L345.426 77.0007L345.461 79.0004ZM356.309 78.8111L356.344 80.8108C356.564 80.807 356.747 80.9826 356.751 81.2041L358.75 81.1692L360.75 81.1343C360.708 78.7055 358.705 76.7693 356.275 76.8114L356.309 78.8111ZM358.75 81.1692L356.751 81.2041L357.013 96.2253L359.012 96.1904L361.012 96.1555L360.75 81.1343L358.75 81.1692ZM359.012 96.1904L357.014 96.2752C357.015 96.2932 357.016 96.3093 357.017 96.3227C357.018 96.3362 357.018 96.3478 357.019 96.3568C357.02 96.3657 357.02 96.3732 357.021 96.3777C357.021 96.38 357.021 96.3821 357.021 96.3833C357.021 96.3847 357.021 96.3852 357.021 96.3856C357.021 96.3864 357.021 96.3842 357.021 96.3807C357.021 96.377 357.02 96.3707 357.02 96.3627C357.019 96.3471 357.017 96.3204 357.017 96.2867L359.016 96.2518L361.016 96.2169C361.015 96.173 361.013 96.1361 361.012 96.1102C361.01 96.0851 361.008 96.0643 361.008 96.0565C361.007 96.043 361.007 96.0507 361.008 96.0545C361.008 96.0616 361.01 96.0804 361.011 96.1055L359.012 96.1904ZM359.016 96.2518L357.017 96.2867L357.579 128.511L359.579 128.476L361.579 128.442L361.016 96.2169L359.016 96.2518ZM359.579 128.476L357.579 128.511C357.583 128.733 357.407 128.915 357.187 128.919L357.222 130.918L357.257 132.918C359.687 132.875 361.621 130.87 361.579 128.442L359.579 128.476ZM357.222 130.918L357.187 128.919L293.708 130.027L293.743 132.026L293.778 134.026L357.257 132.918L357.222 130.918ZM293.743 132.026L293.708 130.027C293.487 130.031 293.305 129.854 293.301 129.633L291.301 129.668L289.302 129.703C289.344 132.133 291.348 134.068 293.778 134.026L293.743 132.026ZM291.301 129.668L293.301 129.633L292.475 82.3251L290.475 82.36L288.476 82.3949L289.302 129.703L291.301 129.668ZM290.475 82.36L292.475 82.3255C292.471 82.1052 292.647 81.9226 292.869 81.9187L292.834 79.919L292.799 77.9193C290.37 77.9617 288.434 79.9647 288.476 82.3945L290.475 82.36ZM292.834 79.919L292.869 81.9187L303.716 81.7294L303.681 79.7297L303.646 77.73L292.799 77.9193L292.834 79.919Z" fill="#353C51"/>
<path d="M405.5 232.952C405.593 238.253 401.37 242.625 396.069 242.718L258.796 245.114C253.495 245.207 249.122 240.985 249.03 235.683L248.524 206.734C248.524 206.732 248.523 206.731 248.521 206.731C248.519 206.731 248.518 206.729 248.518 206.727L260.483 110.669C260.779 108.298 262.774 106.505 265.163 106.463L384.854 104.374C387.244 104.332 389.3 106.054 389.678 108.414L404.987 203.997C404.988 203.998 404.989 204 404.991 204C404.993 204 404.995 204.001 404.995 204.003L405.5 232.952Z" fill="#8BB660"/>
<path d="M396.069 242.718L396.104 244.718L396.104 244.718L396.069 242.718ZM404.987 203.997L406.962 203.68L404.987 203.997ZM389.678 108.414L387.703 108.73L389.678 108.414ZM260.483 110.669L258.499 110.422L260.483 110.669ZM248.518 206.727L246.533 206.48L248.518 206.727ZM405.5 232.952L403.5 232.987C403.574 237.184 400.231 240.645 396.034 240.718L396.069 242.718L396.104 244.718C402.51 244.606 407.612 239.323 407.5 232.917L405.5 232.952ZM396.069 242.718L396.035 240.718L258.761 243.114L258.796 245.114L258.831 247.114L396.104 244.718L396.069 242.718ZM258.796 245.114L258.761 243.114C254.565 243.188 251.103 239.845 251.029 235.648L249.03 235.683L247.03 235.718C247.142 242.124 252.426 247.225 258.831 247.114L258.796 245.114ZM249.03 235.683L251.029 235.648L250.524 206.699L248.524 206.734L246.525 206.769L247.03 235.718L249.03 235.683ZM248.518 206.727L250.503 206.974L262.468 110.916L260.483 110.669L258.499 110.422L246.533 206.48L248.518 206.727ZM265.163 106.463L265.198 108.463L384.889 106.374L384.854 104.374L384.819 102.374L265.128 104.463L265.163 106.463ZM389.678 108.414L387.703 108.73L403.013 204.313L404.987 203.997L406.962 203.68L391.652 108.098L389.678 108.414ZM404.995 204.003L402.995 204.038L403.5 232.987L405.5 232.952L407.5 232.917L406.994 203.968L404.995 204.003ZM404.991 204L405.026 205.999C403.924 206.019 403.014 205.141 402.995 204.038L404.995 204.003L406.994 203.968C406.975 202.862 406.063 201.981 404.956 202L404.991 204ZM404.987 203.997L403.013 204.313C403.171 205.301 404.031 206.017 405.026 205.999L404.991 204L404.956 202C405.947 201.983 406.805 202.696 406.962 203.68L404.987 203.997ZM384.854 104.374L384.889 106.374C386.283 106.349 387.482 107.354 387.703 108.73L389.678 108.414L391.652 108.098C391.117 104.755 388.204 102.315 384.819 102.374L384.854 104.374ZM260.483 110.669L262.468 110.916C262.64 109.533 263.804 108.487 265.198 108.463L265.163 106.463L265.128 104.463C261.743 104.523 258.917 107.063 258.499 110.422L260.483 110.669ZM248.521 206.731L248.486 204.731C249.701 204.71 250.653 205.769 250.503 206.974L248.518 206.727L246.533 206.48C246.383 207.689 247.338 208.752 248.556 208.731L248.521 206.731ZM248.524 206.734L250.524 206.699C250.505 205.593 249.592 204.712 248.486 204.731L248.521 206.731L248.556 208.731C247.454 208.75 246.544 207.872 246.525 206.769L248.524 206.734Z" fill="#353C51"/>
<circle cx="326.224" cy="171.562" r="54.5" transform="rotate(-1 326.224 171.562)" fill="#FFFFFE" stroke="#353C51" stroke-width="4"/>
<circle cx="326.164" cy="171.239" r="37.7147" transform="rotate(-1 326.164 171.239)" fill="#8BB660" stroke="#353C51" stroke-width="4"/>
<rect x="361.402" y="200.94" width="9.14699" height="15.8841" transform="rotate(-53.1899 361.402 200.94)" fill="#646676" stroke="#353C51" stroke-width="4"/>
<circle cx="312.549" cy="171.695" r="13.0573" transform="rotate(-1 312.549 171.695)" fill="#FFFFFE" stroke="#353C51" stroke-width="4"/>
<circle cx="315.526" cy="169.633" r="8.03525" transform="rotate(-1 315.526 169.633)" fill="#353C51"/>
<circle cx="340.666" cy="171.203" r="13.0573" transform="rotate(-1 340.666 171.203)" fill="#FFFFFE" stroke="#353C51" stroke-width="4"/>
<circle cx="343.647" cy="169.143" r="8.03525" transform="rotate(-1 343.647 169.143)" fill="#353C51"/>
<g clip-path="url(#clip1_7832_17192)">
<path d="M156.226 107.441L186.919 104.215L186.822 103.296C185.899 94.5076 178.026 88.1322 169.237 89.0559L154.457 90.6094L156.226 107.441Z" fill="#646676" stroke="#353C51" stroke-width="4"/>
<path d="M152.899 35.7939C154.975 35.576 156.833 37.0822 157.052 39.1576L157.687 45.2014L180.465 42.8074L180.561 43.7262C181.485 52.5143 175.11 60.3873 166.322 61.311L48.5688 73.6873C48.5689 73.6659 48.5871 67.3965 51.442 62.3738C54.3032 57.3423 99.6757 41.3879 99.6757 41.3879L152.899 35.7939Z" fill="#646676"/>
<path d="M152.899 35.7939L152.69 33.8049L152.69 33.8049L152.899 35.7939ZM157.052 39.1576L159.041 38.9485L159.041 38.9483L157.052 39.1576ZM157.687 45.2014L155.698 45.4105L155.907 47.3995L157.896 47.1905L157.687 45.2014ZM180.465 42.8074L182.454 42.5983L182.245 40.6093L180.256 40.8183L180.465 42.8074ZM48.5688 73.6873L46.5688 73.6823L46.5633 75.9091L48.7779 75.6763L48.5688 73.6873ZM51.442 62.3738L49.7035 61.3852L49.7033 61.3855L51.442 62.3738ZM99.6757 41.3879L99.4667 39.3989L99.2335 39.4234L99.0123 39.5012L99.6757 41.3879ZM152.899 35.7939L153.108 37.783C154.084 37.6805 154.96 38.3891 155.063 39.3669L157.052 39.1576L159.041 38.9483C158.707 35.7752 155.865 33.4716 152.69 33.8049L152.899 35.7939ZM157.052 39.1576L155.063 39.3666L155.698 45.4105L157.687 45.2014L159.676 44.9924L159.041 38.9485L157.052 39.1576ZM157.687 45.2014L157.896 47.1905L180.674 44.7964L180.465 42.8074L180.256 40.8183L157.478 43.2124L157.687 45.2014ZM180.465 42.8074L178.476 43.0165L178.572 43.9352L180.561 43.7262L182.551 43.5171L182.454 42.5983L180.465 42.8074ZM180.561 43.7262L178.572 43.9352C179.381 51.6248 173.802 58.5137 166.113 59.3219L166.322 61.311L166.531 63.3C176.417 62.2609 183.59 53.4038 182.551 43.5171L180.561 43.7262ZM166.322 61.311L166.113 59.3219L48.3598 71.6982L48.5688 73.6873L48.7779 75.6763L166.531 63.3L166.322 61.311ZM48.5688 73.6873L50.5688 73.6923C50.5688 73.7005 50.6036 67.8962 53.1808 63.3621L51.442 62.3738L49.7033 61.3855C46.5706 66.8968 46.569 73.6313 46.5688 73.6823L48.5688 73.6873ZM51.442 62.3738L53.1806 63.3624C53.1699 63.3812 53.2765 63.2146 53.7078 62.8681C54.1035 62.5502 54.6567 62.1717 55.3726 61.7379C56.802 60.8717 58.7388 59.8693 61.0411 58.7799C65.6373 56.6049 71.5289 54.1579 77.366 51.8544C89.031 47.251 100.346 43.2724 100.339 43.2747L99.6757 41.3879L99.0123 39.5012C99.0057 39.5035 87.6342 43.502 75.8976 48.1337C70.0339 50.4477 64.046 52.9327 59.3301 55.1643C56.9764 56.2781 54.8991 57.3477 53.2995 58.317C52.5008 58.801 51.7859 59.2812 51.2026 59.7498C50.6549 60.1898 50.0718 60.7374 49.7035 61.3852L51.442 62.3738ZM99.6757 41.3879L99.8848 43.377L153.108 37.783L152.899 35.7939L152.69 33.8049L99.4667 39.3989L99.6757 41.3879Z" fill="#353C51"/>
<circle cx="67.1748" cy="85.5848" r="13.0573" transform="rotate(-6 67.1748 85.5848)" fill="#FFFFFE" stroke="#353C51" stroke-width="4"/>
<circle cx="69.9601" cy="83.2724" r="8.03525" transform="rotate(-6 69.9601 83.2724)" fill="#353C51"/>
<circle cx="95.1436" cy="82.6453" r="13.0573" transform="rotate(-6 95.1436 82.6453)" fill="#FFFFFE" stroke="#353C51" stroke-width="4"/>
<circle cx="97.9327" cy="80.332" r="8.03525" transform="rotate(-6 97.9327 80.332)" fill="#353C51"/>
<path d="M161.422 116.9C163.497 116.682 165.003 114.823 164.785 112.747L162.371 89.7728L51.4833 101.428C51.4833 101.428 52.8025 107.57 56.6459 111.896C60.347 116.063 104.254 122.033 107.506 122.47C107.638 122.518 107.782 122.538 107.93 122.523L161.422 116.9Z" fill="#646676"/>
<path d="M161.422 116.9L161.631 118.89L161.631 118.89L161.422 116.9ZM164.785 112.747L166.774 112.538L166.774 112.538L164.785 112.747ZM162.371 89.7728L162.161 87.7838L164.15 87.5747L164.36 89.5637L162.371 89.7728ZM51.4833 101.428L49.5278 101.848L49.0604 99.6712L51.2742 99.4385L51.4833 101.428ZM56.6459 111.896L55.1507 113.225L55.1506 113.225L56.6459 111.896ZM107.506 122.47L107.773 120.488L107.99 120.517L108.196 120.593L107.506 122.47ZM107.93 122.523L108.139 124.512L107.93 122.523ZM161.422 116.9L161.213 114.911C162.19 114.809 162.899 113.933 162.796 112.956L164.785 112.747L166.774 112.538C167.108 115.712 164.805 118.556 161.631 118.89L161.422 116.9ZM164.785 112.747L162.796 112.956L160.381 89.9819L162.371 89.7728L164.36 89.5637L166.774 112.538L164.785 112.747ZM162.371 89.7728L162.58 91.7618L51.6923 103.417L51.4833 101.428L51.2742 99.4385L162.161 87.7838L162.371 89.7728ZM51.4833 101.428C53.4387 101.008 53.4386 101.007 53.4385 101.007C53.4385 101.007 53.4384 101.006 53.4384 101.006C53.4383 101.006 53.4382 101.005 53.4382 101.005C53.4381 101.005 53.4381 101.005 53.4381 101.005C53.4383 101.006 53.4387 101.008 53.4395 101.011C53.441 101.018 53.4439 101.031 53.448 101.049C53.4563 101.085 53.4699 101.143 53.4891 101.22C53.5274 101.375 53.5878 101.609 53.6726 101.906C53.8424 102.5 54.1081 103.343 54.4865 104.312C55.2521 106.274 56.4379 108.651 58.1411 110.568L56.6459 111.896L55.1506 113.225C53.0104 110.815 51.6149 107.957 50.7601 105.766C50.3283 104.66 50.0239 103.696 49.8263 103.004C49.7273 102.657 49.6547 102.377 49.6058 102.18C49.5814 102.081 49.5629 102.002 49.55 101.946C49.5436 101.918 49.5385 101.896 49.5348 101.879C49.533 101.871 49.5315 101.864 49.5303 101.859C49.5298 101.856 49.5293 101.854 49.5288 101.852C49.5286 101.851 49.5284 101.85 49.5283 101.85C49.5282 101.849 49.5281 101.849 49.528 101.848C49.5279 101.848 49.5278 101.848 51.4833 101.428ZM56.6459 111.896L58.1411 110.568C58.1279 110.553 58.2571 110.686 58.7122 110.922C59.1312 111.139 59.7049 111.383 60.4388 111.648C61.9048 112.176 63.8593 112.733 66.1743 113.303C70.7957 114.439 76.6802 115.58 82.5883 116.611C94.3949 118.673 106.154 120.27 107.773 120.488L107.506 122.47L107.24 124.452C105.606 124.233 93.7857 122.627 81.9004 120.552C75.9626 119.515 69.9732 118.356 65.2194 117.187C62.8468 116.604 60.7385 116.008 59.0822 115.41C58.255 115.112 57.5027 114.8 56.8703 114.472C56.274 114.163 55.6265 113.76 55.1507 113.225L56.6459 111.896ZM107.506 122.47L108.196 120.593C108.05 120.539 107.887 120.516 107.721 120.534L107.93 122.523L108.139 124.512C107.676 124.56 107.225 124.497 106.817 124.347L107.506 122.47ZM107.93 122.523L107.721 120.534L161.213 114.911L161.422 116.9L161.631 118.89L108.139 124.512L107.93 122.523Z" fill="#353C51"/>
<rect x="116.055" y="58.5859" width="34.8439" height="216.685" transform="rotate(-6 116.055 58.5859)" fill="#49A0EB" stroke="#353C51" stroke-width="4"/>
<path d="M150.288 67.9877L140.387 69.0283" stroke="#353C51" stroke-width="4.8"/>
<path d="M161.057 170.423L151.156 171.464" stroke="#353C51" stroke-width="4.8"/>
<path d="M162.518 184.347L152.617 185.388" stroke="#353C51" stroke-width="4.8"/>
<path d="M163.983 198.27L154.082 199.311" stroke="#353C51" stroke-width="4.8"/>
<rect x="112.145" y="88.0391" width="52.7637" height="77.6522" rx="3.77925" transform="rotate(-6 112.145 88.0391)" fill="#FFFFFE" stroke="#353C51" stroke-width="4"/>
<rect x="128.918" y="95.29" width="27.8752" height="53.7592" transform="rotate(-6 128.918 95.29)" fill="#646676" stroke="#353C51" stroke-width="4"/>
</g>
<g clip-path="url(#clip2_7832_17192)">
<rect x="491.078" y="156.849" width="10" height="28" transform="rotate(16 491.078 156.849)" fill="#646676" stroke="#353C51" stroke-width="4"/>
<rect x="481.719" y="174.972" width="18" height="26" transform="rotate(16 481.719 174.972)" fill="#646676" stroke="#353C51" stroke-width="4"/>
<path d="M476.633 181.835L499.703 188.45L485.37 238.436C484.304 242.152 480.428 244.301 476.712 243.235L467.099 240.479C463.383 239.413 461.234 235.537 462.3 231.821L476.633 181.835Z" fill="#F1A210" stroke="#353C51" stroke-width="4"/>
<path d="M486.277 148.19L509.348 154.806L506.316 165.38C505.859 166.972 504.198 167.893 502.605 167.436L485.302 162.475C483.71 162.018 482.789 160.357 483.245 158.764L486.277 148.19Z" fill="#F1A210" stroke="#353C51" stroke-width="4"/>
<circle cx="515.728" cy="89.0164" r="68" transform="rotate(16 515.728 89.0164)" fill="#646676" stroke="#353C51" stroke-width="4"/>
<circle cx="515.386" cy="88.3977" r="58.5" transform="rotate(16 515.386 88.3977)" fill="#F1A210" stroke="#353C51" stroke-width="4"/>
<path d="M536.74 44.9268C525.697 39.5186 513.012 38.5065 501.252 42.0953C489.491 45.6842 479.533 53.6059 473.391 64.2581L481.794 69.1032C486.708 60.5814 494.675 54.244 504.083 51.373C513.491 48.5019 523.639 49.3116 532.473 53.6382L536.74 44.9268Z" fill="#FFFFFE" stroke="#353C51" stroke-width="4"/>
<path d="M518.042 136.756C529.243 136.115 539.858 131.681 548.11 124.195L541.473 117.025C534.872 123.014 526.38 126.561 517.419 127.074L518.042 136.756Z" fill="#FFFFFE" stroke="#353C51" stroke-width="4"/>
<path d="M581.51 31.9372L581.214 56.441L602.559 69.182L577.706 68.6759L564.972 89.6129L565.267 65.1091L543.922 52.3681L568.776 52.8743L581.51 31.9372Z" fill="#FFFFFE" stroke="#353C51" stroke-width="4" stroke-linejoin="round"/>
<circle cx="502.312" cy="85.2287" r="13.0573" transform="rotate(16 502.312 85.2287)" fill="#FFFFFE" stroke="#353C51" stroke-width="4"/>
<circle cx="499.033" cy="82.1995" r="8.03525" transform="rotate(16 499.033 82.1995)" fill="#353C51"/>
<circle cx="529.343" cy="92.9806" r="13.0573" transform="rotate(16 529.343 92.9806)" fill="#FFFFFE" stroke="#353C51" stroke-width="4"/>
<circle cx="526.072" cy="89.9525" r="8.03525" transform="rotate(16 526.072 89.9525)" fill="#353C51"/>
</g>
</g>
<path d="M0 0V4H641V0V-4H0V0ZM641 200V196H0V200V204H641V200Z" fill="#353C51" mask="url(#path-1-inside-1_7832_17192)"/>
<defs>
<clipPath id="clip0_7832_17192">
<path d="M0 0H641V200H0V0Z" fill="white"/>
</clipPath>
<clipPath id="clip1_7832_17192">
<rect width="240" height="240" fill="white" transform="translate(-7 50.0869) rotate(-6)"/>
</clipPath>
<clipPath id="clip2_7832_17192">
<rect width="240" height="240" fill="white" transform="translate(422.152 -20) rotate(16)"/>
</clipPath>
</defs>
</svg>
