<svg width="443" height="202" viewBox="0 0 443 202" fill="none" xmlns="http://www.w3.org/2000/svg">
<rect x="0.5" width="442" height="202" rx="8" fill="#353C51"/>
<path d="M47.2711 24.9873H25.4922V46.7053M47.2711 24.9873V46.7053M47.2711 24.9873H69.05M47.2711 46.7053H25.4922M47.2711 46.7053H69.05M47.2711 46.7053V68.4232M25.4922 46.7053V68.4232M69.05 24.9873V46.7053M69.05 24.9873H90.8289M69.05 46.7053H90.8289M69.05 46.7053V68.4232M90.8289 24.9873V46.7053M90.8289 24.9873H112.608M90.8289 46.7053H112.608M90.8289 46.7053V68.4232M112.608 24.9873V46.7053M112.608 24.9873H134.387M112.608 46.7053H134.387M112.608 46.7053V68.4232M134.387 24.9873V46.7053M134.387 24.9873H156.166M134.387 46.7053H156.166M134.387 46.7053V68.4232M156.166 24.9873V46.7053M156.166 24.9873H177.944M156.166 46.7053H177.944M156.166 46.7053V68.4232M177.944 24.9873V46.7053M177.944 24.9873H199.723M177.944 46.7053H199.723M177.944 46.7053V68.4232M199.723 24.9873V46.7053M199.723 24.9873H221.502M199.723 46.7053H221.502M199.723 46.7053V68.4232M221.502 24.9873V46.7053M221.502 24.9873H241.281M221.502 46.7053H241.281M221.502 46.7053V68.4232M241.281 24.9873V46.7053M241.281 24.9873H264.06M241.281 46.7053H264.06M241.281 46.7053V68.4232M264.06 24.9873V46.7053M264.06 24.9873H285.839M264.06 46.7053H285.839M264.06 46.7053V68.4232M285.839 24.9873V46.7053M285.839 24.9873H308.618M285.839 46.7053H308.618M285.839 46.7053V68.4232M308.618 24.9873V46.7053M308.618 24.9873H330.397M308.618 46.7053H330.397M308.618 46.7053V68.4232M330.397 24.9873V46.7053M330.397 24.9873H352.176M330.397 46.7053H352.176M330.397 46.7053V68.4232M352.176 24.9873V46.7053M352.176 24.9873H373.954M352.176 46.7053H373.954M352.176 46.7053V68.4232M373.954 24.9873V46.7053M373.954 24.9873H395.733M373.954 46.7053H395.733M373.954 46.7053V68.4232M395.733 24.9873V46.7053M395.733 24.9873H417.512V46.7053M395.733 46.7053H417.512M395.733 46.7053V68.4232M417.512 46.7053V68.4232M47.2711 68.4232H25.4922M47.2711 68.4232H69.05M47.2711 68.4232V90.1412M25.4922 68.4232V90.1412M69.05 68.4232H90.8289M69.05 68.4232V90.1412M90.8289 68.4232H112.608M90.8289 68.4232V90.1412M112.608 68.4232H134.387M112.608 68.4232V90.1412M134.387 68.4232H156.166M134.387 68.4232V90.1412M156.166 68.4232H177.944M156.166 68.4232V90.1412M177.944 68.4232H199.723M177.944 68.4232V90.1412M199.723 68.4232H221.502M199.723 68.4232V90.1412M221.502 68.4232H241.281M221.502 68.4232V90.1412M241.281 68.4232H264.06M241.281 68.4232V90.1412M264.06 68.4232H285.839M264.06 68.4232V90.1412M285.839 68.4232H308.618M285.839 68.4232V90.1412M308.618 68.4232H330.397M308.618 68.4232V90.1412M330.397 68.4232H352.176M330.397 68.4232V90.1412M352.176 68.4232H373.954M352.176 68.4232V90.1412M373.954 68.4232H395.733M373.954 68.4232V90.1412M395.733 68.4232H417.512M395.733 68.4232V90.1412M417.512 68.4232V90.1412M47.2711 90.1412H25.4922M47.2711 90.1412H69.05M47.2711 90.1412V111.859M25.4922 90.1412V111.859M69.05 90.1412H90.8289M69.05 90.1412V111.859M90.8289 90.1412H112.608M90.8289 90.1412V111.859M112.608 90.1412H134.387M112.608 90.1412V111.859M134.387 90.1412H156.166M134.387 90.1412V111.859M156.166 90.1412H177.944M156.166 90.1412V111.859M177.944 90.1412H199.723M177.944 90.1412V111.859M199.723 90.1412H221.502M199.723 90.1412V111.859M221.502 90.1412H241.281M221.502 90.1412V111.859M241.281 90.1412H264.06M241.281 90.1412V111.859M264.06 90.1412H285.839M264.06 90.1412V111.859M285.839 90.1412H308.618M285.839 90.1412V111.859M308.618 90.1412H330.397M308.618 90.1412V111.859M330.397 90.1412H352.176M330.397 90.1412V111.859M352.176 90.1412H373.954M352.176 90.1412V111.859M373.954 90.1412H395.733M373.954 90.1412V111.859M395.733 90.1412H417.512M395.733 90.1412V111.859M417.512 90.1412V111.859M47.2711 111.859H25.4922M47.2711 111.859H69.05M47.2711 111.859V132.577M25.4922 111.859V132.577M69.05 111.859H90.8289M69.05 111.859V132.577M90.8289 111.859H112.608M90.8289 111.859V132.577M112.608 111.859H134.387M112.608 111.859V132.577M134.387 111.859H156.166M134.387 111.859V132.577M156.166 111.859H177.944M156.166 111.859V132.577M177.944 111.859H199.723M177.944 111.859V132.577M199.723 111.859H221.502M199.723 111.859V132.577M221.502 111.859H241.281M221.502 111.859V132.577M241.281 111.859H264.06M241.281 111.859V132.577M264.06 111.859H285.839M264.06 111.859V132.577M285.839 111.859H308.618M285.839 111.859V132.577M308.618 111.859H330.397M308.618 111.859V132.577M330.397 111.859H352.176M330.397 111.859V132.577M352.176 111.859H373.954M352.176 111.859V132.577M373.954 111.859H395.733M373.954 111.859V132.577M395.733 111.859H417.512M395.733 111.859V132.577M417.512 111.859V132.577M47.2711 132.577H25.4922M47.2711 132.577H69.05M47.2711 132.577V154.295M25.4922 132.577V154.295M69.05 132.577H90.8289M69.05 132.577V154.295M90.8289 132.577H112.608M90.8289 132.577V154.295M112.608 132.577H134.387M112.608 132.577V154.295M134.387 132.577H156.166M134.387 132.577V154.295M156.166 132.577H177.944M156.166 132.577V154.295M177.944 132.577H199.723M177.944 132.577V154.295M199.723 132.577H221.502M199.723 132.577V154.295M221.502 132.577H241.281M221.502 132.577V154.295M241.281 132.577H264.06M241.281 132.577V154.295M264.06 132.577H285.839M264.06 132.577V154.295M285.839 132.577H308.618M285.839 132.577V154.295M308.618 132.577H330.397M308.618 132.577V154.295M330.397 132.577H352.176M330.397 132.577V154.295M352.176 132.577H373.954M352.176 132.577V154.295M373.954 132.577H395.733M373.954 132.577V154.295M395.733 132.577H417.512M395.733 132.577V154.295M417.512 132.577V154.295M47.2711 154.295H25.4922M47.2711 154.295H69.05M47.2711 154.295V177.013M25.4922 154.295V177.013H47.2711M69.05 154.295H90.8289M69.05 154.295V177.013M90.8289 154.295H112.608M90.8289 154.295V177.013M112.608 154.295H134.387M112.608 154.295V177.013M134.387 154.295H156.166M134.387 154.295V177.013M156.166 154.295H177.944M156.166 154.295V177.013M177.944 154.295H199.723M177.944 154.295V177.013M199.723 154.295H221.502M199.723 154.295V177.013M221.502 154.295H241.281M221.502 154.295V177.013M241.281 154.295H264.06M241.281 154.295V177.013M264.06 154.295H285.839M264.06 154.295V177.013M285.839 154.295H308.618M285.839 154.295V177.013M308.618 154.295H330.397M308.618 154.295V177.013M330.397 154.295H352.176M330.397 154.295V177.013M352.176 154.295H373.954M352.176 154.295V177.013M373.954 154.295H395.733M373.954 154.295V177.013M395.733 154.295H417.512M395.733 154.295V177.013M417.512 154.295V177.013H395.733M47.2711 177.013H69.05M69.05 177.013H90.8289M90.8289 177.013H112.608M112.608 177.013H134.387M134.387 177.013H156.166M156.166 177.013H177.944M177.944 177.013H199.723M199.723 177.013H221.502M221.502 177.013H241.281M241.281 177.013H264.06M264.06 177.013H285.839M285.839 177.013H308.618M308.618 177.013H330.397M330.397 177.013H352.176M352.176 177.013H373.954M373.954 177.013H395.733" stroke="#646676" stroke-width="1.96923"/>
</svg>
