<svg width="443" height="202" viewBox="0 0 443 202" fill="none" xmlns="http://www.w3.org/2000/svg">
<rect x="2" y="1.5" width="439" height="199" rx="6.5" fill="#EBEAE8"/>
<rect x="2" y="1.5" width="439" height="199" rx="6.5" stroke="#353C51" stroke-width="3"/>
<line x1="36.5" y1="3" x2="36.5" y2="19" stroke="#646676" stroke-width="2"/>
<line x1="48.5" y1="3" x2="48.5" y2="9" stroke="#646676" stroke-width="2"/>
<line x1="60.5" y1="3" x2="60.5" y2="9" stroke="#646676" stroke-width="2"/>
<line x1="72.5" y1="3" x2="72.5" y2="9" stroke="#646676" stroke-width="2"/>
<line x1="84.5" y1="3" x2="84.5" y2="19" stroke="#646676" stroke-width="2"/>
<line x1="96.5" y1="3" x2="96.5" y2="9" stroke="#646676" stroke-width="2"/>
<line x1="108.5" y1="3" x2="108.5" y2="9" stroke="#646676" stroke-width="2"/>
<line x1="120.5" y1="3" x2="120.5" y2="9" stroke="#646676" stroke-width="2"/>
<line x1="132.5" y1="3" x2="132.5" y2="19" stroke="#646676" stroke-width="2"/>
<line x1="144.5" y1="3" x2="144.5" y2="9" stroke="#646676" stroke-width="2"/>
<line x1="156.5" y1="3" x2="156.5" y2="9" stroke="#646676" stroke-width="2"/>
<line x1="168.5" y1="3" x2="168.5" y2="9" stroke="#646676" stroke-width="2"/>
<line x1="180.5" y1="3" x2="180.5" y2="19" stroke="#646676" stroke-width="2"/>
<line x1="192.5" y1="3" x2="192.5" y2="9" stroke="#646676" stroke-width="2"/>
<line x1="204.5" y1="3" x2="204.5" y2="9" stroke="#646676" stroke-width="2"/>
<line x1="216.5" y1="3" x2="216.5" y2="9" stroke="#646676" stroke-width="2"/>
<line x1="228.5" y1="3" x2="228.5" y2="19" stroke="#646676" stroke-width="2"/>
<line x1="240.5" y1="3" x2="240.5" y2="9" stroke="#646676" stroke-width="2"/>
<line x1="252.5" y1="3" x2="252.5" y2="9" stroke="#646676" stroke-width="2"/>
<line x1="264.5" y1="3" x2="264.5" y2="9" stroke="#646676" stroke-width="2"/>
<line x1="276.5" y1="3" x2="276.5" y2="19" stroke="#646676" stroke-width="2"/>
<line x1="288.5" y1="3" x2="288.5" y2="9" stroke="#646676" stroke-width="2"/>
<line x1="300.5" y1="3" x2="300.5" y2="9" stroke="#646676" stroke-width="2"/>
<line x1="312.5" y1="3" x2="312.5" y2="9" stroke="#646676" stroke-width="2"/>
<line x1="324.5" y1="3" x2="324.5" y2="19" stroke="#646676" stroke-width="2"/>
<line x1="336.5" y1="3" x2="336.5" y2="9" stroke="#646676" stroke-width="2"/>
<line x1="348.5" y1="3" x2="348.5" y2="9" stroke="#646676" stroke-width="2"/>
<line x1="360.5" y1="3" x2="360.5" y2="9" stroke="#646676" stroke-width="2"/>
<line x1="372.5" y1="3" x2="372.5" y2="19" stroke="#646676" stroke-width="2"/>
<line x1="384.5" y1="3" x2="384.5" y2="9" stroke="#646676" stroke-width="2"/>
<line x1="396.5" y1="3" x2="396.5" y2="9" stroke="#646676" stroke-width="2"/>
<line x1="408.5" y1="3" x2="408.5" y2="9" stroke="#646676" stroke-width="2"/>
<line x1="420.5" y1="3" x2="420.5" y2="19" stroke="#646676" stroke-width="2"/>
<line x1="3.5" y1="179" x2="19.5" y2="179" stroke="#646676" stroke-width="2"/>
<line x1="3.5" y1="167" x2="9.5" y2="167" stroke="#646676" stroke-width="2"/>
<line x1="3.5" y1="155" x2="9.5" y2="155" stroke="#646676" stroke-width="2"/>
<line x1="3.5" y1="143" x2="9.5" y2="143" stroke="#646676" stroke-width="2"/>
<line x1="3.5" y1="131" x2="19.5" y2="131" stroke="#646676" stroke-width="2"/>
<line x1="3.5" y1="119" x2="9.5" y2="119" stroke="#646676" stroke-width="2"/>
<line x1="3.5" y1="107" x2="9.5" y2="107" stroke="#646676" stroke-width="2"/>
<line x1="3.5" y1="95" x2="9.5" y2="95" stroke="#646676" stroke-width="2"/>
<line x1="3.5" y1="83" x2="19.5" y2="83" stroke="#646676" stroke-width="2"/>
<line x1="3.5" y1="71" x2="9.5" y2="71" stroke="#646676" stroke-width="2"/>
<line x1="3.5" y1="59" x2="9.5" y2="59" stroke="#646676" stroke-width="2"/>
<line x1="3.5" y1="47" x2="9.5" y2="47" stroke="#646676" stroke-width="2"/>
<line x1="3.5" y1="35" x2="19.5" y2="35" stroke="#646676" stroke-width="2"/>
</svg>
