<svg width="318" height="202" viewBox="0 0 318 202" fill="none" xmlns="http://www.w3.org/2000/svg">
<rect x="1.5" y="1.5" width="315" height="199" rx="6.5" fill="#EBEAE8"/>
<rect x="1.5" y="1.5" width="315" height="199" rx="6.5" stroke="#353C51" stroke-width="3"/>
<line x1="37" y1="3" x2="37" y2="19" stroke="#646676" stroke-width="2"/>
<line x1="49" y1="3" x2="49" y2="9" stroke="#646676" stroke-width="2"/>
<line x1="61" y1="3" x2="61" y2="9" stroke="#646676" stroke-width="2"/>
<line x1="73" y1="3" x2="73" y2="9" stroke="#646676" stroke-width="2"/>
<line x1="85" y1="3" x2="85" y2="19" stroke="#646676" stroke-width="2"/>
<line x1="97" y1="3" x2="97" y2="9" stroke="#646676" stroke-width="2"/>
<line x1="109" y1="3" x2="109" y2="9" stroke="#646676" stroke-width="2"/>
<line x1="121" y1="3" x2="121" y2="9" stroke="#646676" stroke-width="2"/>
<line x1="133" y1="3" x2="133" y2="19" stroke="#646676" stroke-width="2"/>
<line x1="145" y1="3" x2="145" y2="9" stroke="#646676" stroke-width="2"/>
<line x1="157" y1="3" x2="157" y2="9" stroke="#646676" stroke-width="2"/>
<line x1="169" y1="3" x2="169" y2="9" stroke="#646676" stroke-width="2"/>
<line x1="181" y1="3" x2="181" y2="19" stroke="#646676" stroke-width="2"/>
<line x1="193" y1="3" x2="193" y2="9" stroke="#646676" stroke-width="2"/>
<line x1="205" y1="3" x2="205" y2="9" stroke="#646676" stroke-width="2"/>
<line x1="217" y1="3" x2="217" y2="9" stroke="#646676" stroke-width="2"/>
<line x1="229" y1="3" x2="229" y2="19" stroke="#646676" stroke-width="2"/>
<line x1="241" y1="3" x2="241" y2="9" stroke="#646676" stroke-width="2"/>
<line x1="253" y1="3" x2="253" y2="9" stroke="#646676" stroke-width="2"/>
<line x1="265" y1="3" x2="265" y2="9" stroke="#646676" stroke-width="2"/>
<line x1="277" y1="3" x2="277" y2="19" stroke="#646676" stroke-width="2"/>
<line x1="3" y1="179" x2="19" y2="179" stroke="#646676" stroke-width="2"/>
<line x1="3" y1="167" x2="9" y2="167" stroke="#646676" stroke-width="2"/>
<line x1="3" y1="155" x2="9" y2="155" stroke="#646676" stroke-width="2"/>
<line x1="3" y1="143" x2="9" y2="143" stroke="#646676" stroke-width="2"/>
<line x1="3" y1="131" x2="19" y2="131" stroke="#646676" stroke-width="2"/>
<line x1="3" y1="119" x2="9" y2="119" stroke="#646676" stroke-width="2"/>
<line x1="3" y1="107" x2="9" y2="107" stroke="#646676" stroke-width="2"/>
<line x1="3" y1="95" x2="9" y2="95" stroke="#646676" stroke-width="2"/>
<line x1="3" y1="83" x2="19" y2="83" stroke="#646676" stroke-width="2"/>
<line x1="3" y1="71" x2="9" y2="71" stroke="#646676" stroke-width="2"/>
<line x1="3" y1="59" x2="9" y2="59" stroke="#646676" stroke-width="2"/>
<line x1="3" y1="47" x2="9" y2="47" stroke="#646676" stroke-width="2"/>
<line x1="3" y1="35" x2="19" y2="35" stroke="#646676" stroke-width="2"/>
</svg>
