<svg width="318" height="202" viewBox="0 0 318 202" fill="none" xmlns="http://www.w3.org/2000/svg">
<rect width="318" height="202" rx="8" fill="#353C51"/>
<path d="M46.8268 24.9873H24.9922V46.7053M46.8268 24.9873V46.7053M46.8268 24.9873H68.6614M46.8268 46.7053H24.9922M46.8268 46.7053H68.6614M46.8268 46.7053V68.4232M24.9922 46.7053V68.4232M68.6614 24.9873V46.7053M68.6614 24.9873H90.4959M68.6614 46.7053H90.4959M68.6614 46.7053V68.4232M90.4959 24.9873V46.7053M90.4959 24.9873H112.331M90.4959 46.7053H112.331M90.4959 46.7053V68.4232M112.331 24.9873V46.7053M112.331 24.9873H134.165M112.331 46.7053H134.165M112.331 46.7053V68.4232M134.165 24.9873V46.7053M134.165 24.9873H155M134.165 46.7053H155M134.165 46.7053V68.4232M155 24.9873V46.7053M155 24.9873H176.834M155 46.7053H176.834M155 46.7053V68.4232M176.834 24.9873V46.7053M176.834 24.9873H199.669M176.834 46.7053H199.669M176.834 46.7053V68.4232M199.669 24.9873V46.7053M199.669 24.9873H221.503M199.669 46.7053H221.503M199.669 46.7053V68.4232M221.503 24.9873V46.7053M221.503 24.9873H243.338M221.503 46.7053H243.338M221.503 46.7053V68.4232M243.338 24.9873V46.7053M243.338 24.9873H265.173M243.338 46.7053H265.173M243.338 46.7053V68.4232M265.173 24.9873V46.7053M265.173 24.9873H287.007V46.7053M265.173 46.7053H287.007M265.173 46.7053V68.4232M287.007 46.7053V68.4232M46.8268 68.4232H24.9922M46.8268 68.4232H68.6614M46.8268 68.4232V90.1412M24.9922 68.4232V90.1412M68.6614 68.4232H90.4959M68.6614 68.4232V90.1412M90.4959 68.4232H112.331M90.4959 68.4232V90.1412M112.331 68.4232H134.165M112.331 68.4232V90.1412M134.165 68.4232H155M134.165 68.4232V90.1412M155 68.4232H176.834M155 68.4232V90.1412M176.834 68.4232H199.669M176.834 68.4232V90.1412M199.669 68.4232H221.503M199.669 68.4232V90.1412M221.503 68.4232H243.338M221.503 68.4232V90.1412M243.338 68.4232H265.173M243.338 68.4232V90.1412M265.173 68.4232H287.007M265.173 68.4232V90.1412M287.007 68.4232V90.1412M46.8268 90.1412H24.9922M46.8268 90.1412H68.6614M46.8268 90.1412V111.859M24.9922 90.1412V111.859M68.6614 90.1412H90.4959M68.6614 90.1412V111.859M90.4959 90.1412H112.331M90.4959 90.1412V111.859M112.331 90.1412H134.165M112.331 90.1412V111.859M134.165 90.1412H155M134.165 90.1412V111.859M155 90.1412H176.834M155 90.1412V111.859M176.834 90.1412H199.669M176.834 90.1412V111.859M199.669 90.1412H221.503M199.669 90.1412V111.859M221.503 90.1412H243.338M221.503 90.1412V111.859M243.338 90.1412H265.173M243.338 90.1412V111.859M265.173 90.1412H287.007M265.173 90.1412V111.859M287.007 90.1412V111.859M46.8268 111.859H24.9922M46.8268 111.859H68.6614M46.8268 111.859V132.577M24.9922 111.859V132.577M68.6614 111.859H90.4959M68.6614 111.859V132.577M90.4959 111.859H112.331M90.4959 111.859V132.577M112.331 111.859H134.165M112.331 111.859V132.577M134.165 111.859H155M134.165 111.859V132.577M155 111.859H176.834M155 111.859V132.577M176.834 111.859H199.669M176.834 111.859V132.577M199.669 111.859H221.503M199.669 111.859V132.577M221.503 111.859H243.338M221.503 111.859V132.577M243.338 111.859H265.173M243.338 111.859V132.577M265.173 111.859H287.007M265.173 111.859V132.577M287.007 111.859V132.577M46.8268 132.577H24.9922M46.8268 132.577H68.6614M46.8268 132.577V154.295M24.9922 132.577V154.295M68.6614 132.577H90.4959M68.6614 132.577V154.295M90.4959 132.577H112.331M90.4959 132.577V154.295M112.331 132.577H134.165M112.331 132.577V154.295M134.165 132.577H155M134.165 132.577V154.295M155 132.577H176.834M155 132.577V154.295M176.834 132.577H199.669M176.834 132.577V154.295M199.669 132.577H221.503M199.669 132.577V154.295M221.503 132.577H243.338M221.503 132.577V154.295M243.338 132.577H265.173M243.338 132.577V154.295M265.173 132.577H287.007M265.173 132.577V154.295M287.007 132.577V154.295M46.8268 154.295H24.9922M46.8268 154.295H68.6614M46.8268 154.295V177.013M24.9922 154.295V177.013H46.8268M68.6614 154.295H90.4959M68.6614 154.295V177.013M90.4959 154.295H112.331M90.4959 154.295V177.013M112.331 154.295H134.165M112.331 154.295V177.013M134.165 154.295H155M134.165 154.295V177.013M155 154.295H176.834M155 154.295V177.013M176.834 154.295H199.669M176.834 154.295V177.013M199.669 154.295H221.503M199.669 154.295V177.013M221.503 154.295H243.338M221.503 154.295V177.013M243.338 154.295H265.173M243.338 154.295V177.013M265.173 154.295H287.007M265.173 154.295V177.013M287.007 154.295V177.013H265.173M46.8268 177.013H68.6614M68.6614 177.013H90.4959M90.4959 177.013H112.331M112.331 177.013H134.165M134.165 177.013H155M155 177.013H176.834M176.834 177.013H199.669M199.669 177.013H221.503M221.503 177.013H243.338M243.338 177.013H265.173" stroke="#646676" stroke-width="1.96923"/>
</svg>
