<svg xmlns="http://www.w3.org/2000/svg" width="32" height="32" fill="none" ><g fill="#353c51"><path d="M23.196 17.388l-1.901 1.839-4.009-3.879v9.468H30.08V27.5H1.792v-2.683h12.807v-9.453l-3.994 3.864-1.901-1.839 5.346-5.172h0l1.901-1.839 7.246 7.011z"/><use href="#B"/><use href="#C"/><use href="#B" y="-3.91"/><use href="#C" y="-3.91"/><use href="#B" y="-7.82"/><use href="#C" y="-7.82"/><path d="M3.968 11.049H1.92V9.094h2.048v1.955zm26.112 0h-2.048V9.094h2.048v1.955zM32 7.183H0V4.5h32v2.683z"/></g><defs ><path id="B" d="M3.968 22.779H1.92v-1.955h2.048v1.955z"/><path id="C" d="M30.08 22.779h-2.048v-1.955h2.048v1.955z"/></defs></svg>