<svg width="400" height="471" viewBox="0 0 400 471" fill="none" xmlns="http://www.w3.org/2000/svg">
<g clip-path="url(#clip0_7703_22114)">
<rect width="400" height="471" fill="#FFFFFE"/>
<g clip-path="url(#clip1_7703_22114)">
<path d="M273.773 184.039L281.238 181.105C277.278 160.097 290.692 140.974 309.772 133.475C328.851 125.976 351.695 130.848 363.1 148.929L370.565 145.995C356.965 122.329 329.612 116.978 306.81 125.94C284.008 134.902 267.619 157.447 273.773 184.039Z" fill="#646676" stroke="#353C51" stroke-width="4"/>
<rect x="339.262" y="194.831" width="10" height="51" transform="rotate(158.543 339.262 194.831)" fill="#646676" stroke="#353C51" stroke-width="4"/>
<rect x="307.711" y="161.029" width="9" height="24" rx="4.5" transform="rotate(-111.457 307.711 161.029)" fill="#646676" stroke="#353C51" stroke-width="4"/>
<path d="M337.703 323.078L321.717 320.677L317.57 348.284C316.907 352.699 319.948 356.815 324.362 357.478C328.777 358.141 332.893 355.1 333.556 350.686L337.703 323.078Z" fill="#646676" stroke="#353C51" stroke-width="4"/>
<circle cx="354.81" cy="249.427" r="90.5" transform="rotate(-21.4572 354.81 249.427)" fill="#10B9DF" stroke="#353C51" stroke-width="4"/>
<circle cx="354.949" cy="249.734" r="71.9633" transform="rotate(-21.4572 354.949 249.734)" fill="#FFFFFE" stroke="#353C51" stroke-width="4"/>
<path d="M398.734 148.467L389.067 145.101L394.013 130.896C394.942 128.227 397.859 126.816 400.529 127.746C403.198 128.675 404.609 131.592 403.68 134.262L398.734 148.467Z" fill="#646676" stroke="#353C51" stroke-width="4"/>
<path d="M350.958 151.987C350.912 152.118 350.981 152.262 351.113 152.307L424.186 177.756C424.317 177.802 424.46 177.732 424.506 177.601C429.988 161.861 421.671 144.656 405.931 139.175L389.384 133.412C373.644 127.93 356.44 136.246 350.958 151.987Z" fill="#646676" stroke="#353C51" stroke-width="4"/>
<path d="M253.18 205.677L257.968 196.63L244.674 189.594C242.176 188.271 239.079 189.225 237.756 191.723C236.434 194.221 237.387 197.318 239.886 198.641L253.18 205.677Z" fill="#646676" stroke="#353C51" stroke-width="4"/>
<path d="M290.567 175.723C290.69 175.788 290.736 175.94 290.671 176.063L254.483 244.457C254.418 244.58 254.266 244.627 254.143 244.562C239.41 236.766 233.787 218.504 241.582 203.771L249.776 188.284C257.572 173.552 275.834 167.928 290.567 175.723Z" fill="#646676" stroke="#353C51" stroke-width="4"/>
<path d="M327.648 194.756L335.31 214.249L331.189 215.869L325.065 200.288L324.95 200.333L321.586 204.886L320.15 201.231L323.774 196.278L327.648 194.756Z" fill="#353C51"/>
<path d="M339.944 212.428L338.776 209.459L343.19 200.306C343.556 199.503 343.849 198.795 344.069 198.181C344.295 197.564 344.427 196.996 344.465 196.476C344.499 195.949 344.416 195.429 344.214 194.915C343.989 194.344 343.666 193.903 343.244 193.593C342.819 193.277 342.337 193.096 341.8 193.051C341.259 192.999 340.704 193.086 340.132 193.31C339.536 193.545 339.063 193.87 338.714 194.286C338.364 194.701 338.157 195.182 338.093 195.727C338.029 196.273 338.12 196.856 338.364 197.478L334.452 199.016C333.951 197.74 333.804 196.519 334.012 195.353C334.221 194.187 334.744 193.143 335.583 192.22C336.422 191.297 337.52 190.568 338.878 190.034C340.274 189.486 341.586 189.256 342.815 189.344C344.048 189.424 345.124 189.784 346.043 190.427C346.962 191.069 347.642 191.952 348.084 193.075C348.373 193.811 348.513 194.595 348.503 195.427C348.499 196.256 348.301 197.253 347.909 198.418C347.515 199.577 346.888 201.029 346.028 202.773L344.278 206.681L344.33 206.814L352.516 203.597L353.84 206.966L339.944 212.428Z" fill="#353C51"/>
<path d="M378.233 306.611C377.228 306.998 376.194 307.211 375.132 307.247C374.076 307.281 373.034 307.072 372.006 306.619C370.978 306.166 370.007 305.412 369.094 304.357C368.188 303.299 367.384 301.879 366.683 300.095C366.046 298.456 365.659 296.92 365.52 295.487C365.386 294.045 365.487 292.738 365.825 291.565C366.169 290.389 366.734 289.376 367.52 288.525C368.304 287.667 369.299 287.002 370.504 286.528C371.805 286.017 373.054 285.819 374.249 285.935C375.443 286.045 376.51 286.413 377.452 287.039C378.401 287.662 379.149 288.485 379.698 289.508L375.633 291.105C375.208 290.489 374.665 290.087 374.005 289.899C373.345 289.711 372.641 289.765 371.892 290.059C370.623 290.558 369.876 291.489 369.65 292.853C369.43 294.214 369.687 295.845 370.42 297.748L370.553 297.695C370.618 297.003 370.818 296.357 371.154 295.756C371.493 295.147 371.937 294.609 372.487 294.144C373.041 293.67 373.673 293.293 374.383 293.014C375.538 292.56 376.674 292.429 377.789 292.621C378.902 292.806 379.905 293.269 380.797 294.01C381.689 294.751 382.374 295.73 382.853 296.949C383.372 298.269 383.525 299.564 383.314 300.834C383.109 302.101 382.572 303.242 381.704 304.258C380.839 305.264 379.682 306.048 378.233 306.611ZM376.942 303.382C377.577 303.133 378.085 302.757 378.466 302.255C378.848 301.754 379.079 301.187 379.16 300.554C379.241 299.922 379.155 299.282 378.9 298.634C378.646 297.987 378.275 297.463 377.787 297.061C377.306 296.657 376.758 296.399 376.143 296.289C375.529 296.179 374.904 296.249 374.27 296.498C373.794 296.685 373.387 296.948 373.051 297.285C372.721 297.62 372.466 298.006 372.286 298.443C372.113 298.877 372.023 299.337 372.016 299.824C372.007 300.303 372.095 300.778 372.279 301.248C372.526 301.876 372.895 302.394 373.385 302.802C373.881 303.208 374.438 303.469 375.055 303.585C375.678 303.699 376.308 303.631 376.942 303.382Z" fill="#353C51"/>
<path d="M301.071 258.683C302.073 258.289 303.104 258.078 304.163 258.05C305.228 258.02 306.27 258.229 307.289 258.678C308.314 259.125 309.279 259.874 310.183 260.925C311.091 261.968 311.895 263.37 312.594 265.131C313.245 266.788 313.639 268.34 313.776 269.788C313.917 271.227 313.82 272.536 313.485 273.715C313.15 274.895 312.587 275.914 311.797 276.774C311.004 277.628 310.005 278.292 308.799 278.766C307.499 279.277 306.251 279.478 305.058 279.368C303.862 279.252 302.789 278.879 301.838 278.249C300.891 277.61 300.14 276.77 299.584 275.729L303.648 274.131C304.086 274.78 304.636 275.201 305.299 275.395C305.958 275.582 306.663 275.529 307.411 275.234C308.681 274.736 309.428 273.804 309.654 272.441C309.878 271.071 309.613 269.42 308.861 267.489L308.728 267.541C308.661 268.227 308.461 268.873 308.128 269.48C307.792 270.081 307.348 270.618 306.794 271.092C306.247 271.564 305.615 271.941 304.898 272.222C303.749 272.674 302.619 272.807 301.505 272.622C300.392 272.437 299.39 271.973 298.498 271.232C297.606 270.491 296.922 269.515 296.445 268.303C295.925 266.998 295.769 265.715 295.977 264.454C296.184 263.193 296.72 262.059 297.585 261.053C298.453 260.038 299.615 259.248 301.071 258.683ZM302.371 261.908C301.73 262.16 301.219 262.537 300.838 263.038C300.462 263.537 300.23 264.101 300.14 264.73C300.056 265.356 300.142 265.985 300.398 266.617C300.65 267.258 301.017 267.781 301.498 268.185C301.983 268.581 302.53 268.835 303.138 268.947C303.75 269.051 304.374 268.978 305.008 268.729C305.484 268.541 305.89 268.279 306.226 267.942C306.563 267.605 306.819 267.222 306.995 266.794C307.175 266.357 307.269 265.898 307.279 265.419C307.288 264.939 307.201 264.467 307.019 264.004C306.771 263.391 306.403 262.884 305.915 262.482C305.428 262.08 304.872 261.822 304.249 261.708C303.625 261.594 302.999 261.661 302.371 261.908Z" fill="#353C51"/>
<path d="M408.117 239.729C406.696 240.288 405.334 240.541 404.031 240.489C402.732 240.428 401.593 240.092 400.613 239.481C399.637 238.861 398.916 237.987 398.45 236.858L402.6 235.227C402.813 235.693 403.133 236.051 403.561 236.3C403.992 236.541 404.488 236.665 405.047 236.672C405.607 236.679 406.188 236.564 406.791 236.327C407.419 236.08 407.931 235.751 408.326 235.339C408.721 234.928 408.977 234.472 409.096 233.971C409.214 233.47 409.172 232.963 408.97 232.449C408.765 231.929 408.439 231.526 407.99 231.241C407.544 230.947 407.007 230.792 406.378 230.775C405.755 230.756 405.076 230.892 404.34 231.181L402.522 231.896L401.332 228.869L403.15 228.154C403.772 227.91 404.278 227.586 404.669 227.183C405.067 226.778 405.324 226.333 405.441 225.847C405.555 225.355 405.512 224.852 405.309 224.338C405.117 223.85 404.832 223.468 404.452 223.192C404.077 222.907 403.638 222.742 403.137 222.698C402.642 222.65 402.119 222.735 401.567 222.952C401.008 223.172 400.538 223.474 400.154 223.859C399.768 224.238 399.508 224.666 399.373 225.144C399.239 225.622 399.259 226.112 399.435 226.614L395.485 228.167C395.062 227.036 394.994 225.92 395.279 224.819C395.564 223.718 396.139 222.72 397.002 221.823C397.87 220.918 398.97 220.204 400.303 219.68C401.648 219.151 402.921 218.933 404.122 219.025C405.323 219.117 406.366 219.469 407.251 220.081C408.14 220.684 408.784 221.5 409.181 222.531C409.617 223.62 409.635 224.664 409.237 225.663C408.844 226.659 408.141 227.471 407.127 228.096L407.187 228.249C408.694 227.869 409.981 227.938 411.049 228.456C412.121 228.965 412.892 229.827 413.362 231.041C413.804 232.149 413.872 233.262 413.564 234.38C413.262 235.494 412.644 236.521 411.709 237.46C410.774 238.399 409.577 239.155 408.117 239.729Z" fill="#353C51"/>
<circle cx="343.674" cy="266.943" r="15.7293" transform="rotate(-21.4572 343.674 266.943)" fill="#FFFFFE" stroke="#353C51" stroke-width="4"/>
<circle cx="339.507" cy="267.094" r="10.8611" transform="rotate(-21.4572 339.507 267.094)" fill="#353C51"/>
<circle cx="373.959" cy="255.039" r="15.7293" transform="rotate(-21.4572 373.959 255.039)" fill="#FFFFFE" stroke="#353C51" stroke-width="4"/>
<circle cx="369.831" cy="255.175" r="10.8611" transform="rotate(-21.4572 369.831 255.175)" fill="#353C51"/>
</g>
<rect x="196.73" y="363.395" width="23.4652" height="32.1102" transform="rotate(-12.324 196.73 363.395)" fill="#646676" stroke="#353C51" stroke-width="4"/>
<rect x="195" y="451" width="16" height="86" transform="rotate(-90 195 451)" fill="#FFFFFE" stroke="#353C51" stroke-width="4"/>
<path d="M277 435H289V461C289 464.314 286.314 467 283 467C279.686 467 277 464.314 277 461V435Z" fill="#FF8B39" stroke="#353C51" stroke-width="4"/>
<path d="M137.884 316.437C179.921 316.437 213.998 350.514 213.998 392.551V444.437C213.998 455.482 205.044 464.437 193.998 464.437H112.383C84.4299 464.437 61.7696 441.776 61.7695 413.823V392.551C61.7696 350.514 95.847 316.437 137.884 316.437Z" fill="#FF8B39"/>
<path d="M137.884 316.437V314.437V316.437ZM213.998 392.551H215.998H213.998ZM213.998 444.437H215.998H213.998ZM193.998 464.437V466.437V464.437ZM61.7695 413.823H59.7695H61.7695ZM61.7695 392.551H59.7695H61.7695ZM137.884 316.437V318.437C178.816 318.437 211.998 351.619 211.998 392.551H213.998H215.998C215.998 349.409 181.025 314.437 137.884 314.437V316.437ZM213.998 392.551H211.998V444.437H213.998H215.998V392.551H213.998ZM213.998 444.437L211.998 444.437C211.998 454.378 203.939 462.437 193.998 462.437V464.437V466.437C206.148 466.437 215.998 456.587 215.998 444.437H213.998ZM193.998 464.437V462.437H112.383V464.437V466.437H193.998V464.437ZM112.383 464.437V462.437C85.5345 462.437 63.7696 440.672 63.7695 413.823H61.7695H59.7695C59.7696 442.881 83.3253 466.437 112.383 466.437V464.437ZM61.7695 413.823H63.7695V392.551H61.7695H59.7695V413.823H61.7695ZM61.7695 392.551H63.7695C63.7696 351.619 96.9516 318.437 137.884 318.437V316.437V314.437C94.7425 314.437 59.7696 349.409 59.7695 392.551H61.7695Z" fill="#353C51"/>
<circle cx="138.5" cy="392.5" r="51.5" fill="#FFFFFE" stroke="#353C51" stroke-width="4"/>
<circle cx="138.5" cy="392.5" r="42.5" fill="#FF8B39" stroke="#353C51" stroke-width="4"/>
<path d="M74.625 419.958C74.6251 436.526 88.0568 449.958 104.625 449.958H111.042V467.986H104.602C78.0922 467.986 56.6017 446.496 56.6016 419.986V393.474H74.625V419.958Z" fill="#646676"/>
<path d="M74.625 419.958H72.625V419.958L74.625 419.958ZM104.625 449.958L104.625 451.958H104.625V449.958ZM111.042 449.958H113.042V447.958H111.042V449.958ZM111.042 467.986V469.986H113.042V467.986H111.042ZM104.602 467.986L104.602 469.986H104.602V467.986ZM56.6016 419.986H54.6016V419.986L56.6016 419.986ZM56.6016 393.474V391.474H54.6016V393.474H56.6016ZM74.625 393.474H76.625V391.474H74.625V393.474ZM74.625 419.958L72.625 419.958C72.6251 437.631 86.9522 451.958 104.625 451.958L104.625 449.958L104.625 447.958C89.1613 447.958 76.6251 435.422 76.625 419.958L74.625 419.958ZM104.625 449.958V451.958H111.042V449.958V447.958H104.625V449.958ZM111.042 449.958H109.042V467.986H111.042H113.042V449.958H111.042ZM111.042 467.986V465.986H104.602V467.986V469.986H111.042V467.986ZM104.602 467.986L104.602 465.986C79.1967 465.986 58.6017 445.391 58.6016 419.986L56.6016 419.986L54.6016 419.986C54.6017 447.6 76.9876 469.986 104.602 469.986L104.602 467.986ZM56.6016 419.986H58.6016V393.474H56.6016H54.6016V419.986H56.6016ZM56.6016 393.474V395.474H74.625V393.474V391.474H56.6016V393.474ZM74.625 393.474H72.625V419.958H74.625H76.625V393.474H74.625Z" fill="#353C51"/>
<path d="M223 435L223 442.03" stroke="#353C51" stroke-width="4.8"/>
<path d="M232 435L232 442.03" stroke="#353C51" stroke-width="4.8"/>
<path d="M244 435L244 442.03" stroke="#353C51" stroke-width="4.8"/>
<path d="M256 435L256 442.03" stroke="#353C51" stroke-width="4.8"/>
<path d="M268 435L268 442.03" stroke="#353C51" stroke-width="4.8"/>
<circle cx="149" cy="434" r="16" fill="#FFFFFE" stroke="#353C51" stroke-width="4"/>
<circle cx="152.997" cy="432.593" r="11.048" fill="#353C51"/>
<circle cx="182.102" cy="434" r="16" fill="#FFFFFE" stroke="#353C51" stroke-width="4"/>
<circle cx="186.142" cy="432.593" r="11.048" fill="#353C51"/>
<g clip-path="url(#clip2_7703_22114)">
<path d="M91.4204 194.519C89.8346 196.448 87.0358 196.834 84.9718 195.428C74.1426 188.053 67.6563 184.422 60.8695 184.777C58.859 184.883 56.8695 185.24 54.9484 185.842C47.1074 188.3 41.7087 196.067 30.9121 211.601L8.59464 243.712C7.3779 245.462 5.14248 246.222 3.17435 245.403C-1.28933 243.544 -5.55926 241.008 -9.48715 237.778C-13.1089 234.801 -16.2087 231.424 -18.7763 227.764C-20.0222 225.989 -19.7277 223.597 -18.2194 222.038L9.16841 193.725C22.3213 180.128 28.8983 173.33 29.7927 165.161C30.0118 163.16 29.978 161.139 29.6925 159.146C28.7041 152.246 23.6619 146.467 13.8546 136.843C12.0711 135.093 11.9086 132.271 13.4954 130.341L39.1119 99.1815C40.7954 97.1337 43.8202 96.8384 45.868 98.5219L116.434 156.535C118.482 158.218 118.777 161.243 117.093 163.291L91.4204 194.519Z" fill="#F95984"/>
<path d="M60.8695 184.777L60.7648 182.78L60.7648 182.78L60.8695 184.777ZM54.9484 185.842L54.3503 183.934L54.3503 183.934L54.9484 185.842ZM30.9121 211.601L32.5544 212.742L32.5544 212.742L30.9121 211.601ZM-9.48715 237.778L-10.7573 239.323L-10.7573 239.323L-9.48715 237.778ZM9.16841 193.725L10.6059 195.116L10.6059 195.116L9.16841 193.725ZM29.7927 165.161L31.7808 165.379L31.7808 165.379L29.7927 165.161ZM29.6925 159.146L31.6723 158.863L29.6925 159.146ZM84.9718 195.428L83.8461 197.081L84.9718 195.428ZM-18.7763 227.764L-17.139 226.616L-18.7763 227.764ZM-18.2194 222.038L-19.6569 220.647L-18.2194 222.038ZM8.59464 243.712L10.2369 244.853L8.59464 243.712ZM3.17435 245.403L3.9432 243.556L3.17435 245.403ZM13.8546 136.843L15.2554 135.416L13.8546 136.843ZM84.9718 195.428L86.0976 193.775C75.3795 186.476 68.3354 182.383 60.7648 182.78L60.8695 184.777L60.9742 186.774C66.9771 186.46 72.9057 189.631 83.8461 197.081L84.9718 195.428ZM60.8695 184.777L60.7648 182.78C58.587 182.894 56.4317 183.282 54.3503 183.934L54.9484 185.842L55.5465 187.751C57.3073 187.199 59.131 186.871 60.9742 186.774L60.8695 184.777ZM54.9484 185.842L54.3503 183.934C49.9374 185.317 46.3346 188.171 42.5357 192.498C38.7639 196.794 34.6414 202.731 29.2698 210.46L30.9121 211.601L32.5544 212.742C37.9795 204.937 41.9546 199.223 45.5416 195.137C49.1014 191.083 52.1184 188.825 55.5465 187.751L54.9484 185.842ZM30.9121 211.601L29.2698 210.46L6.95235 242.57L8.59464 243.712L10.2369 244.853L32.5544 212.742L30.9121 211.601ZM3.17435 245.403L3.9432 243.556C-0.3416 241.772 -4.44229 239.337 -8.21703 236.233L-9.48715 237.778L-10.7573 239.323C-6.67624 242.678 -2.23706 245.316 2.4055 247.249L3.17435 245.403ZM-9.48715 237.778L-8.21703 236.233C-11.6976 233.372 -14.6743 230.129 -17.139 226.616L-18.7763 227.764L-20.4135 228.913C-17.7431 232.719 -14.5202 236.23 -10.7573 239.323L-9.48715 237.778ZM-18.2194 222.038L-16.7819 223.428L10.6059 195.116L9.16841 193.725L7.73092 192.335L-19.6569 220.647L-18.2194 222.038ZM9.16841 193.725L10.6059 195.116C17.1497 188.351 22.1772 183.158 25.6627 178.627C29.1733 174.063 31.2774 169.976 31.7808 165.379L29.7927 165.161L27.8046 164.944C27.4135 168.515 25.7819 171.911 22.4922 176.188C19.1774 180.497 14.34 185.502 7.73091 192.335L9.16841 193.725ZM29.7927 165.161L31.7808 165.379C32.0182 163.211 31.9815 161.021 31.6723 158.863L29.6925 159.146L27.7127 159.43C27.9744 161.257 28.0054 163.109 27.8046 164.944L29.7927 165.161ZM29.6925 159.146L31.6723 158.863C30.571 151.174 24.9481 144.927 15.2554 135.416L13.8546 136.843L12.4538 138.271C22.3757 148.007 26.8373 153.318 27.7127 159.43L29.6925 159.146ZM13.4954 130.341L15.0403 131.611L40.6568 100.452L39.1119 99.1815L37.567 97.9114L11.9505 129.071L13.4954 130.341ZM45.868 98.5219L44.5979 100.067L115.164 158.08L116.434 156.535L117.704 154.99L47.1381 96.977L45.868 98.5219ZM117.093 163.291L115.548 162.021L89.8755 193.249L91.4204 194.519L92.9654 195.789L118.638 164.561L117.093 163.291ZM116.434 156.535L115.164 158.08C116.358 159.062 116.53 160.826 115.548 162.021L117.093 163.291L118.638 164.561C121.023 161.66 120.605 157.375 117.704 154.99L116.434 156.535ZM84.9718 195.428L83.8461 197.081C86.7555 199.063 90.715 198.526 92.9654 195.789L91.4204 194.519L89.8755 193.249C88.9543 194.369 87.3161 194.605 86.0976 193.775L84.9718 195.428ZM39.1119 99.1815L40.6568 100.452C41.6389 99.257 43.4033 99.0848 44.5979 100.067L45.868 98.5219L47.1381 96.977C44.2371 94.592 39.9519 95.0103 37.567 97.9114L39.1119 99.1815ZM-18.7763 227.764L-17.139 226.616C-17.7835 225.697 -17.6871 224.364 -16.7819 223.428L-18.2194 222.038L-19.6569 220.647C-21.7684 222.83 -22.2609 226.28 -20.4135 228.913L-18.7763 227.764ZM8.59464 243.712L6.95235 242.57C6.22249 243.62 4.96257 243.981 3.9432 243.556L3.17435 245.403L2.4055 247.249C5.32239 248.464 8.53331 247.304 10.2369 244.853L8.59464 243.712ZM13.8546 136.843L15.2554 135.416C14.2053 134.385 14.1175 132.733 15.0403 131.611L13.4954 130.341L11.9505 129.071C9.69962 131.809 9.93696 135.801 12.4538 138.271L13.8546 136.843Z" fill="#353C51"/>
<path d="M101.935 175.231L31.2278 117.102L98.1094 30.3096L108.452 38.8127L92.9607 65.902L116.542 45.4635L174.153 92.8259L101.935 175.231Z" fill="#FFFFFE"/>
<path d="M101.935 175.231L100.665 176.776L102.162 178.007L103.439 176.549L101.935 175.231ZM31.2278 117.102L29.6436 115.881L28.4608 117.416L29.9577 118.647L31.2278 117.102ZM98.1094 30.3096L99.3795 28.7646L97.7851 27.4538L96.5252 29.0888L98.1094 30.3096ZM108.452 38.8127L110.189 39.8056L111.027 38.34L109.723 37.2678L108.452 38.8127ZM92.9607 65.902L91.2245 64.9091L94.2706 67.4133L92.9607 65.902ZM116.542 45.4635L117.812 43.9185L116.508 42.8463L115.232 43.9521L116.542 45.4635ZM174.153 92.8259L175.657 94.1441L177.017 92.5918L175.423 91.281L174.153 92.8259ZM101.935 175.231L103.205 173.686L32.498 115.557L31.2278 117.102L29.9577 118.647L100.665 176.776L101.935 175.231ZM31.2278 117.102L32.812 118.323L99.6936 31.5303L98.1094 30.3096L96.5252 29.0888L29.6436 115.881L31.2278 117.102ZM98.1094 30.3096L96.8393 31.8545L107.182 40.3577L108.452 38.8127L109.723 37.2678L99.3795 28.7646L98.1094 30.3096ZM108.452 38.8127L106.716 37.8199L91.2245 64.9091L92.9607 65.902L94.6968 66.8949L110.189 39.8056L108.452 38.8127ZM92.9607 65.902L94.2706 67.4133L117.852 46.9748L116.542 45.4635L115.232 43.9521L91.6508 64.3907L92.9607 65.902ZM116.542 45.4635L115.272 47.0084L172.883 94.3709L174.153 92.8259L175.423 91.281L117.812 43.9185L116.542 45.4635ZM174.153 92.8259L172.649 91.5077L100.431 173.913L101.935 175.231L103.439 176.549L175.657 94.1441L174.153 92.8259Z" fill="#353C51"/>
<rect width="100.951" height="60.3388" transform="matrix(-0.772467 -0.635055 -0.635055 0.772467 141.516 133.592)" fill="#646676" stroke="#353C51" stroke-width="4"/>
<rect width="100.951" height="37.1316" transform="matrix(-0.772467 -0.635055 -0.635055 0.772467 134.145 142.556)" fill="#F95984" stroke="#353C51" stroke-width="4"/>
<path d="M136.537 53.5099L177.816 87.4456C181.116 90.1587 181.516 95.0323 178.778 98.2426L178.503 98.5476L154.665 123.669C152.17 126.298 148.374 126.721 145.971 124.695L145.535 124.321C141.11 120.449 139.13 116.478 138.254 112.559C137.327 108.409 137.615 104.264 137.802 99.9749C137.982 95.8287 138.081 91.4279 136.338 87.4806C134.587 83.5174 131.138 80.3097 125.031 77.9372L124.431 77.7098C121.533 76.6396 119.282 74.3742 118.216 71.7871C117.194 69.3091 117.28 66.624 118.804 64.3426L118.956 64.123L125.535 54.9503C128.017 51.4916 132.83 50.7635 136.215 53.2583L136.537 53.5099Z" fill="#F95984" stroke="#353C51" stroke-width="4"/>
<circle cx="0.546525" cy="226.497" r="4.96217" transform="rotate(39.4241 0.546525 226.497)" fill="#FFFFFE" stroke="#353C51" stroke-width="4"/>
<circle cx="58.5559" cy="132.31" r="13.0573" transform="rotate(39.4241 58.5559 132.31)" fill="#FFFFFE" stroke="#353C51" stroke-width="4"/>
<circle cx="62.1588" cy="132.672" r="8.03525" transform="rotate(39.4241 62.1588 132.672)" fill="#353C51"/>
<circle cx="80.2786" cy="150.169" r="13.0573" transform="rotate(39.4241 80.2786 150.169)" fill="#FFFFFE" stroke="#353C51" stroke-width="4"/>
<circle cx="83.8854" cy="150.533" r="8.03525" transform="rotate(39.4241 83.8854 150.533)" fill="#353C51"/>
</g>
<g clip-path="url(#clip3_7703_22114)">
<mask id="path-46-inside-1_7703_22114" fill="white">
<path d="M0 0H400V471H0V0Z"/>
</mask>
<rect x="2" y="2" width="396" height="467" stroke="#353C51" stroke-width="4" stroke-dasharray="6 6"/>
</g>
<path d="M0 0V4H400V0V-4H0V0ZM400 471V467H0V471V475H400V471Z" fill="#353C51" mask="url(#path-46-inside-1_7703_22114)"/>
</g>
<defs>
<clipPath id="clip0_7703_22114">
<rect width="400" height="471" fill="white"/>
</clipPath>
<clipPath id="clip1_7703_22114">
<rect width="240" height="240" fill="white" transform="translate(190 156.794) rotate(-21.4572)"/>
</clipPath>
<clipPath id="clip2_7703_22114">
<rect width="240" height="240" fill="white" transform="translate(49.4141 -22) rotate(39.4241)"/>
</clipPath>
<clipPath id="clip3_7703_22114">
<path d="M0 0H400V471H0V0Z" fill="white"/>
</clipPath>
</defs>
</svg>
