<svg width="400" height="514" viewBox="0 0 400 514" fill="none" xmlns="http://www.w3.org/2000/svg">
<g clip-path="url(#clip0_7703_22073)">
<rect width="400" height="514" fill="#FFFFFE"/>
<rect x="189.977" y="473.274" width="25.738" height="34.6904" rx="12.869" fill="#646676" stroke="#353C51" stroke-width="4"/>
<rect x="296.285" y="473.274" width="25.738" height="34.6904" rx="12.869" fill="#646676" stroke="#353C51" stroke-width="4"/>
<path d="M151.857 364.087C115.579 366.83 108.173 411.856 144.033 432.661C171.218 448.433 164.106 471.062 149.167 471.062C128.343 471.062 125.386 429.918 166.797 414.832C208.208 399.745 255.714 442.947 225.126 460.09" stroke="#353C51" stroke-width="4"/>
<rect x="149.16" y="370.419" width="11.8189" height="15.1513" transform="rotate(-90 149.16 370.419)" fill="#646676" stroke="#353C51" stroke-width="4"/>
<path d="M257.463 323.21C312.76 323.671 336.621 338.479 345.646 346.751L345.982 347.07C349.396 350.405 350.745 354.984 351.106 359.395L353.008 382.602H295.927L299.307 350.854L299.341 350.424C299.563 346.141 296.264 342.472 291.981 342.24L291.551 342.229H218.065C213.431 342.229 209.819 346.246 210.31 350.854L213.689 382.602H156.602L158.505 359.392L158.587 358.537C159.065 354.254 160.532 349.899 163.965 346.752L164.406 346.354C173.905 337.879 198.505 323.199 254.807 323.199L257.463 323.21Z" fill="#8BB660"/>
<path d="M257.463 323.21L257.48 321.21L257.471 321.21L257.463 323.21ZM345.646 346.751L347.021 345.299L347.009 345.288L346.997 345.277L345.646 346.751ZM345.982 347.07L347.38 345.64L347.369 345.629L347.358 345.619L345.982 347.07ZM351.106 359.395L349.113 359.558V359.558L351.106 359.395ZM353.008 382.602V384.602H355.178L355.001 382.438L353.008 382.602ZM295.927 382.602L293.938 382.39L293.703 384.602H295.927V382.602ZM299.307 350.854L301.295 351.066L301.298 351.04L301.3 351.013L299.307 350.854ZM299.341 350.424L301.335 350.582L301.337 350.555L301.338 350.527L299.341 350.424ZM291.981 342.24L292.09 340.243L292.063 340.242L292.036 340.241L291.981 342.24ZM291.551 342.229L291.605 340.229L291.578 340.229H291.551V342.229ZM218.065 342.229V340.229H218.065L218.065 342.229ZM210.31 350.854L208.321 351.066V351.066L210.31 350.854ZM213.689 382.602V384.602H215.914L215.678 382.39L213.689 382.602ZM156.602 382.602L154.608 382.438L154.431 384.602H156.602V382.602ZM158.505 359.392L156.514 359.2L156.513 359.214L156.512 359.228L158.505 359.392ZM158.587 358.537L156.599 358.315L156.598 358.331L156.596 358.346L158.587 358.537ZM163.965 346.752L162.625 345.267L162.619 345.273L162.613 345.278L163.965 346.752ZM164.406 346.354L163.075 344.861L163.066 344.869L164.406 346.354ZM254.807 323.199L254.815 321.199H254.807V323.199ZM257.463 323.21L257.446 325.21C312.386 325.668 335.724 340.369 344.294 348.225L345.646 346.751L346.997 345.277C337.518 336.588 313.134 321.674 257.48 321.21L257.463 323.21ZM345.646 346.751L344.27 348.203L344.607 348.522L345.982 347.07L347.358 345.619L347.021 345.299L345.646 346.751ZM345.982 347.07L344.585 348.501C347.519 351.366 348.772 355.398 349.113 359.558L351.106 359.395L353.1 359.231C352.718 354.57 351.274 349.443 347.38 345.64L345.982 347.07ZM351.106 359.395L349.113 359.558L351.014 382.765L353.008 382.602L355.001 382.438L353.1 359.231L351.106 359.395ZM353.008 382.602V380.602H295.927V382.602V384.602H353.008V382.602ZM295.927 382.602L297.916 382.813L301.295 351.066L299.307 350.854L297.318 350.643L293.938 382.39L295.927 382.602ZM299.307 350.854L301.3 351.013L301.335 350.582L299.341 350.424L297.347 350.266L297.313 350.696L299.307 350.854ZM299.341 350.424L301.338 350.527C301.617 345.144 297.473 340.535 292.09 340.243L291.981 342.24L291.873 344.237C295.054 344.41 297.509 347.139 297.344 350.32L299.341 350.424ZM291.981 342.24L292.036 340.241L291.605 340.229L291.551 342.229L291.496 344.228L291.927 344.239L291.981 342.24ZM291.551 342.229V340.229H218.065V342.229V344.229H291.551V342.229ZM218.065 342.229L218.065 340.229C212.242 340.229 207.704 345.276 208.321 351.066L210.31 350.854L212.298 350.643C211.934 347.216 214.619 344.229 218.065 344.229L218.065 342.229ZM210.31 350.854L208.321 351.066L211.701 382.813L213.689 382.602L215.678 382.39L212.298 350.643L210.31 350.854ZM213.689 382.602V380.602H156.602V382.602V384.602H213.689V382.602ZM156.602 382.602L158.595 382.765L160.498 359.555L158.505 359.392L156.512 359.228L154.608 382.438L156.602 382.602ZM158.505 359.392L160.496 359.583L160.578 358.728L158.587 358.537L156.596 358.346L156.514 359.2L158.505 359.392ZM158.587 358.537L160.575 358.759C161.022 354.744 162.371 350.926 165.316 348.226L163.965 346.752L162.613 345.278C158.693 348.872 157.107 353.764 156.599 358.315L158.587 358.537ZM163.965 346.752L165.305 348.237L165.746 347.838L164.406 346.354L163.066 344.869L162.625 345.267L163.965 346.752ZM164.406 346.354L165.738 347.846C174.777 339.781 198.856 325.199 254.807 325.199V323.199V321.199C198.155 321.199 173.033 335.977 163.075 344.861L164.406 346.354ZM254.807 323.199L254.799 325.199L257.455 325.21L257.463 323.21L257.471 321.21L254.815 321.199L254.807 323.199Z" fill="#353C51"/>
<path d="M233.558 335.288C234.883 335.288 235.958 336.363 235.958 337.688V350.373H272.944V337.688C272.945 336.362 274.019 335.288 275.345 335.288H286.194C287.52 335.288 288.594 336.363 288.594 337.688V352.712C288.594 352.732 288.597 352.753 288.597 352.773V385.003C288.597 386.328 287.523 387.403 286.197 387.403H222.709C221.384 387.403 220.309 386.328 220.309 385.003V337.688C220.309 336.362 221.384 335.288 222.709 335.288H233.558Z" fill="#646676"/>
<path d="M235.958 350.373H233.958V352.373H235.958V350.373ZM272.944 350.373V352.373H274.944V350.373H272.944ZM272.944 337.688L270.944 337.687V337.688H272.944ZM286.194 335.288L286.195 333.288H286.194V335.288ZM288.594 352.712H286.594V352.737L286.594 352.762L288.594 352.712ZM288.597 385.003L290.597 385.003V385.003H288.597ZM286.197 387.403V389.403H286.198L286.197 387.403ZM220.309 385.003H218.309V385.003L220.309 385.003ZM220.309 337.688L218.309 337.687V337.688H220.309ZM233.558 335.288V337.288C233.779 337.288 233.958 337.468 233.958 337.688H235.958H237.958C237.958 335.258 235.988 333.288 233.558 333.288V335.288ZM235.958 337.688H233.958V350.373H235.958H237.958V337.688H235.958ZM235.958 350.373V352.373H272.944V350.373V348.373H235.958V350.373ZM272.944 350.373H274.944V337.688H272.944H270.944V350.373H272.944ZM272.944 337.688L274.944 337.688C274.944 337.468 275.123 337.288 275.345 337.288V335.288V333.288C272.916 333.288 270.945 335.257 270.944 337.687L272.944 337.688ZM275.345 335.288V337.288H286.194V335.288V333.288H275.345V335.288ZM286.194 335.288L286.194 337.288C286.414 337.288 286.594 337.467 286.594 337.688H288.594H290.594C290.594 335.259 288.625 333.288 286.195 333.288L286.194 335.288ZM288.594 337.688H286.594V352.712H288.594H290.594V337.688H288.594ZM288.594 352.712L286.594 352.762C286.595 352.78 286.595 352.796 286.596 352.809C286.597 352.823 286.597 352.835 286.598 352.844C286.598 352.852 286.599 352.86 286.599 352.864C286.599 352.867 286.599 352.869 286.599 352.87C286.6 352.872 286.6 352.872 286.6 352.872C286.6 352.873 286.6 352.871 286.599 352.867C286.599 352.864 286.599 352.857 286.598 352.849C286.598 352.834 286.597 352.807 286.597 352.773H288.597H290.597C290.597 352.73 290.595 352.693 290.594 352.667C290.593 352.642 290.592 352.621 290.591 352.613C290.59 352.599 290.591 352.607 290.591 352.611C290.591 352.618 290.592 352.637 290.593 352.662L288.594 352.712ZM288.597 352.773H286.597V385.003H288.597H290.597V352.773H288.597ZM288.597 385.003L286.597 385.003C286.597 385.225 286.417 385.403 286.197 385.403L286.197 387.403L286.198 389.403C288.628 389.403 290.597 387.432 290.597 385.003L288.597 385.003ZM286.197 387.403V385.403H222.709V387.403V389.403H286.197V387.403ZM222.709 387.403V385.403C222.488 385.403 222.309 385.224 222.309 385.003L220.309 385.003L218.309 385.003C218.309 387.433 220.279 389.403 222.709 389.403V387.403ZM220.309 385.003H222.309V337.688H220.309H218.309V385.003H220.309ZM220.309 337.688L222.309 337.688C222.309 337.468 222.488 337.288 222.709 337.288V335.288V333.288C220.28 333.288 218.309 335.257 218.309 337.687L220.309 337.688ZM222.709 335.288V337.288H233.558V335.288V333.288H222.709V335.288Z" fill="#353C51"/>
<path d="M332.684 490.265C332.684 495.567 328.386 499.864 323.084 499.864H185.791C180.489 499.864 176.19 495.567 176.19 490.265V461.311C176.19 461.309 176.189 461.308 176.187 461.308C176.185 461.308 176.183 461.306 176.184 461.304L189.824 365.469C190.16 363.104 192.186 361.346 194.576 361.346H314.285C316.675 361.346 318.701 363.104 319.038 365.469L332.677 461.304C332.677 461.306 332.679 461.308 332.68 461.308C332.682 461.308 332.684 461.309 332.684 461.311V490.265Z" fill="#8BB660"/>
<path d="M332.684 490.265H334.684H332.684ZM323.084 499.864V501.864H323.085L323.084 499.864ZM332.684 461.311H330.684H332.684ZM332.677 461.304L334.657 461.023L332.677 461.304ZM319.038 365.469L317.058 365.751L319.038 365.469ZM189.824 365.469L187.844 365.188L189.824 365.469ZM176.184 461.304L174.204 461.022L176.184 461.304ZM332.684 490.265H330.684C330.684 494.462 327.282 497.864 323.084 497.864L323.084 499.864L323.085 501.864C329.491 501.864 334.684 496.671 334.684 490.265H332.684ZM323.084 499.864V497.864H185.791V499.864V501.864H323.084V499.864ZM185.791 499.864V497.864C181.593 497.864 178.19 494.462 178.19 490.265H176.19H174.19C174.19 496.671 179.384 501.864 185.791 501.864V499.864ZM176.19 490.265H178.19V461.311H176.19H174.19V490.265H176.19ZM176.184 461.304L178.164 461.586L191.804 365.751L189.824 365.469L187.844 365.188L174.204 461.022L176.184 461.304ZM194.576 361.346V363.346H314.285V361.346V359.346H194.576V361.346ZM319.038 365.469L317.058 365.751L330.697 461.586L332.677 461.304L334.657 461.023L321.018 365.188L319.038 365.469ZM332.684 461.311H330.684V490.265H332.684H334.684V461.311H332.684ZM332.68 461.308V463.308C331.578 463.308 330.684 462.414 330.684 461.311H332.684H334.684C334.684 460.205 333.787 459.308 332.68 459.308V461.308ZM332.677 461.304L330.697 461.586C330.838 462.577 331.686 463.308 332.68 463.308V461.308V459.308C333.671 459.308 334.516 460.036 334.657 461.023L332.677 461.304ZM314.285 361.346V363.346C315.679 363.346 316.861 364.371 317.058 365.751L319.038 365.469L321.018 365.188C320.541 361.836 317.671 359.346 314.285 359.346V361.346ZM189.824 365.469L191.804 365.751C192 364.371 193.182 363.346 194.576 363.346V361.346V359.346C191.19 359.346 188.321 361.836 187.844 365.188L189.824 365.469ZM176.187 461.308V459.308C177.402 459.308 178.335 460.383 178.164 461.586L176.184 461.304L174.204 461.022C174.032 462.229 174.968 463.308 176.187 463.308V461.308ZM176.19 461.311H178.19C178.19 460.204 177.293 459.308 176.187 459.308V461.308V463.308C175.084 463.308 174.19 462.414 174.19 461.311H176.19Z" fill="#353C51"/>
<circle cx="254.496" cy="427.499" r="54.5" fill="#FFFFFE" stroke="#353C51" stroke-width="4"/>
<circle cx="254.441" cy="427.175" r="37.7147" fill="#8BB660" stroke="#353C51" stroke-width="4"/>
<rect x="289.156" y="457.487" width="9.14699" height="15.8841" transform="rotate(-52.1899 289.156 457.487)" fill="#646676" stroke="#353C51" stroke-width="4"/>
<circle cx="240.823" cy="427.393" r="13.0573" fill="#FFFFFE" stroke="#353C51" stroke-width="4"/>
<circle cx="243.836" cy="425.385" r="8.03525" fill="#353C51"/>
<circle cx="268.944" cy="427.393" r="13.0573" fill="#FFFFFE" stroke="#353C51" stroke-width="4"/>
<circle cx="271.961" cy="425.385" r="8.03525" fill="#353C51"/>
<g clip-path="url(#clip1_7703_22073)">
<path d="M96.5904 231.043L121.289 249.548L121.843 248.809C127.141 241.737 125.704 231.709 118.632 226.41L106.738 217.499L96.5904 231.043Z" fill="#646676" stroke="#353C51" stroke-width="4"/>
<path d="M142.867 176.248C144.537 177.499 144.876 179.868 143.625 181.538L139.981 186.402L158.311 200.135L157.757 200.874C152.458 207.946 142.43 209.383 135.358 204.085L40.6025 133.09C40.6171 133.075 44.8934 128.49 50.4021 126.749C55.9213 125.005 100.039 144.159 100.039 144.159L142.867 176.248Z" fill="#646676"/>
<path d="M142.867 176.248L144.067 174.648L144.067 174.647L142.867 176.248ZM143.625 181.538L145.226 182.737L145.226 182.737L143.625 181.538ZM139.981 186.402L138.381 185.202L137.181 186.803L138.782 188.002L139.981 186.402ZM158.311 200.135L159.911 201.334L161.11 199.733L159.51 198.534L158.311 200.135ZM157.757 200.874L156.156 199.675L157.757 200.874ZM40.6025 133.09L39.1394 131.727L37.6211 133.356L39.4032 134.691L40.6025 133.09ZM50.4021 126.749L49.7996 124.841L49.7992 124.842L50.4021 126.749ZM100.039 144.159L101.238 142.558L101.05 142.418L100.835 142.324L100.039 144.159ZM142.867 176.248L141.668 177.848C142.454 178.437 142.614 179.552 142.024 180.339L143.625 181.538L145.226 182.737C147.139 180.183 146.621 176.562 144.067 174.648L142.867 176.248ZM143.625 181.538L142.025 180.339L138.381 185.202L139.981 186.402L141.582 187.601L145.226 182.737L143.625 181.538ZM139.981 186.402L138.782 188.002L157.111 201.735L158.311 200.135L159.51 198.534L141.18 184.801L139.981 186.402ZM158.311 200.135L156.71 198.935L156.156 199.675L157.757 200.874L159.357 202.073L159.911 201.334L158.311 200.135ZM157.757 200.874L156.156 199.675C151.52 205.863 142.745 207.12 136.557 202.484L135.358 204.085L134.159 205.685C142.115 211.646 153.396 210.029 159.357 202.073L157.757 200.874ZM135.358 204.085L136.557 202.484L41.8017 131.49L40.6025 133.09L39.4032 134.691L134.159 205.685L135.358 204.085ZM40.6025 133.09L42.0655 134.454C42.0599 134.46 46.0322 130.228 51.005 128.656L50.4021 126.749L49.7992 124.842C43.7546 126.752 39.1742 131.689 39.1394 131.727L40.6025 133.09ZM50.4021 126.749L51.0046 128.656C50.984 128.662 51.1755 128.612 51.7273 128.652C52.2336 128.688 52.8967 128.786 53.7165 128.955C55.3536 129.292 57.4553 129.874 59.8842 130.641C64.7332 132.171 70.7171 134.383 76.5633 136.663C82.4023 138.94 88.0732 141.273 92.2863 143.038C94.3923 143.92 96.1326 144.66 97.3459 145.178C97.9525 145.438 98.4273 145.642 98.75 145.781C98.9114 145.85 99.0348 145.904 99.1176 145.94C99.1591 145.957 99.1903 145.971 99.2112 145.98C99.2216 145.985 99.2294 145.988 99.2346 145.99C99.2371 145.991 99.2391 145.992 99.2403 145.993C99.2409 145.993 99.2414 145.993 99.2417 145.993C99.2419 145.993 99.242 145.993 100.039 144.159C100.835 142.324 100.835 142.324 100.834 142.324C100.834 142.324 100.833 142.324 100.833 142.323C100.831 142.323 100.829 142.322 100.826 142.321C100.821 142.318 100.813 142.315 100.802 142.31C100.78 142.301 100.748 142.287 100.706 142.268C100.622 142.232 100.496 142.178 100.333 142.108C100.007 141.967 99.5288 141.761 98.9183 141.5C97.6973 140.978 95.9479 140.235 93.8316 139.349C89.6003 137.576 83.8969 135.23 78.0167 132.937C72.1437 130.646 66.0635 128.396 61.0882 126.826C58.605 126.042 56.3545 125.414 54.5226 125.037C53.6079 124.849 52.7571 124.715 52.0108 124.662C51.31 124.612 50.5101 124.617 49.7996 124.841L50.4021 126.749ZM100.039 144.159L98.8393 145.759L141.668 177.849L142.867 176.248L144.067 174.647L101.238 142.558L100.039 144.159Z" fill="#353C51"/>
<circle cx="46.1555" cy="154.465" r="13.0573" transform="rotate(36.8419 46.1555 154.465)" fill="#FFFFFE" stroke="#353C51" stroke-width="4"/>
<circle cx="49.7727" cy="154.666" r="8.03525" transform="rotate(36.8419 49.7727 154.666)" fill="#353C51"/>
<circle cx="68.6594" cy="171.328" r="13.0573" transform="rotate(36.8419 68.6594 171.328)" fill="#FFFFFE" stroke="#353C51" stroke-width="4"/>
<circle cx="72.2805" cy="171.53" r="8.03525" transform="rotate(36.8419 72.2805 171.53)" fill="#353C51"/>
<path d="M93.9683 241.513C95.6386 242.764 98.0074 242.425 99.2589 240.755L113.11 222.267L23.8791 155.412C23.8791 155.412 20.6699 160.813 20.5459 166.599C20.4268 172.17 48.5611 206.403 50.6486 208.936C50.7121 209.06 50.8041 209.173 50.9236 209.262L93.9683 241.513Z" fill="#646676"/>
<path d="M93.9683 241.513L92.7691 243.114L92.769 243.114L93.9683 241.513ZM99.2589 240.755L100.859 241.954L100.859 241.954L99.2589 240.755ZM113.11 222.267L114.309 220.667L115.91 221.866L114.711 223.467L113.11 222.267ZM23.8791 155.412L22.1598 154.39L23.2969 152.477L25.0784 153.811L23.8791 155.412ZM20.5459 166.599L18.5464 166.556L18.5464 166.556L20.5459 166.599ZM50.6486 208.936L52.1918 207.663L52.3312 207.832L52.4307 208.028L50.6486 208.936ZM93.9683 241.513L95.1674 239.912C95.9538 240.502 97.0691 240.342 97.6584 239.555L99.2589 240.755L100.859 241.954C98.9456 244.508 95.3234 245.027 92.7691 243.114L93.9683 241.513ZM99.2589 240.755L97.6583 239.555L111.51 221.068L113.11 222.267L114.711 223.467L100.859 241.954L99.2589 240.755ZM113.11 222.267L111.911 223.868L22.6799 157.013L23.8791 155.412L25.0784 153.811L114.309 220.667L113.11 222.267ZM23.8791 155.412C25.5985 156.434 25.5987 156.433 25.5989 156.433C25.599 156.433 25.5991 156.433 25.5993 156.432C25.5995 156.432 25.5996 156.432 25.5997 156.432C25.5999 156.431 25.6 156.431 25.5998 156.432C25.5995 156.432 25.5984 156.434 25.5966 156.437C25.593 156.443 25.5865 156.454 25.5773 156.47C25.5588 156.503 25.5295 156.554 25.4908 156.624C25.4135 156.764 25.299 156.976 25.1593 157.251C24.8794 157.803 24.5015 158.601 24.1195 159.569C23.3468 161.529 22.6004 164.077 22.5455 166.641L20.5459 166.599L18.5464 166.556C18.6154 163.334 19.5357 160.289 20.3985 158.102C20.8344 156.997 21.2665 156.083 21.5923 155.441C21.7554 155.12 21.8926 154.865 21.9912 154.687C22.0405 154.598 22.0803 154.528 22.1089 154.478C22.1232 154.453 22.1347 154.433 22.1433 154.418C22.1475 154.411 22.1511 154.405 22.1538 154.4C22.1552 154.398 22.1564 154.396 22.1574 154.394C22.1579 154.394 22.1584 154.393 22.1588 154.392C22.159 154.392 22.1592 154.391 22.1593 154.391C22.1596 154.391 22.1598 154.39 23.8791 155.412ZM20.5459 166.599L22.5455 166.641C22.5459 166.622 22.5507 166.806 22.7239 167.289C22.8833 167.733 23.1381 168.302 23.4963 168.995C24.2118 170.38 25.266 172.117 26.5764 174.109C29.1924 178.084 32.731 182.922 36.3617 187.696C43.6171 197.236 51.1527 206.403 52.1918 207.663L50.6486 208.936L49.1055 210.208C48.0571 208.936 40.4817 199.721 33.1779 190.118C29.529 185.32 25.9259 180.397 23.2349 176.308C21.8919 174.267 20.7513 172.396 19.9429 170.832C19.5391 170.051 19.1996 169.31 18.959 168.64C18.7321 168.008 18.5311 167.272 18.5464 166.556L20.5459 166.599ZM50.6486 208.936L52.4307 208.028C52.3602 207.889 52.2563 207.762 52.1228 207.662L50.9236 209.262L49.7244 210.863C49.352 210.584 49.0641 210.231 48.8666 209.843L50.6486 208.936ZM50.9236 209.262L52.1228 207.662L95.1675 239.912L93.9683 241.513L92.769 243.114L49.7244 210.863L50.9236 209.262Z" fill="#353C51"/>
<rect x="100.355" y="167.906" width="34.8439" height="216.685" transform="rotate(36.8419 100.355 167.906)" fill="#49A0EB" stroke="#353C51" stroke-width="4"/>
<path d="M119.065 198.078L111.098 192.108" stroke="#353C51" stroke-width="4.8"/>
<path d="M57.3032 280.509L49.3359 274.54" stroke="#353C51" stroke-width="4.8"/>
<path d="M48.9087 291.713L40.9414 285.744" stroke="#353C51" stroke-width="4.8"/>
<path d="M40.5141 302.918L32.5469 296.948" stroke="#353C51" stroke-width="4.8"/>
<path d="M32.1196 314.122L24.1523 308.152" stroke="#353C51" stroke-width="4.8"/>
<path d="M23.7251 325.326L15.7578 319.356" stroke="#353C51" stroke-width="4.8"/>
<rect x="77.457" y="186.844" width="52.7637" height="77.6522" rx="3.77925" transform="rotate(36.8419 77.457 186.844)" fill="#FFFFFE" stroke="#353C51" stroke-width="4"/>
<rect x="84.8281" y="203.567" width="27.8752" height="53.7592" transform="rotate(36.8419 84.8281 203.567)" fill="#646676" stroke="#353C51" stroke-width="4"/>
</g>
<g clip-path="url(#clip2_7703_22073)">
<rect x="345.668" y="192.023" width="10" height="28" transform="rotate(-39.3454 345.668 192.023)" fill="#646676" stroke="#353C51" stroke-width="4"/>
<rect x="355.254" y="210.026" width="18" height="26" transform="rotate(-39.3454 355.254 210.026)" fill="#646676" stroke="#353C51" stroke-width="4"/>
<path d="M358.008 218.114L376.568 202.898L409.536 243.112C411.987 246.102 411.55 250.512 408.56 252.963L400.827 259.303C397.837 261.754 393.426 261.318 390.975 258.328L358.008 218.114Z" fill="#F1A210" stroke="#353C51" stroke-width="4"/>
<path d="M335.816 191.048L354.377 175.832L361.35 184.339C362.401 185.62 362.214 187.51 360.932 188.561L347.012 199.973C345.731 201.023 343.841 200.836 342.79 199.555L335.816 191.048Z" fill="#F1A210" stroke="#353C51" stroke-width="4"/>
<circle cx="303.886" cy="133.173" r="68" transform="rotate(-39.3454 303.886 133.173)" fill="#646676" stroke="#353C51" stroke-width="4"/>
<circle cx="303.184" cy="133.104" r="58.5" transform="rotate(-39.3454 303.184 133.104)" fill="#F1A210" stroke="#353C51" stroke-width="4"/>
<path d="M279.567 90.8188C268.839 96.8272 260.793 106.686 257.058 118.401C253.323 130.116 254.177 142.812 259.447 153.921L268.21 149.764C263.994 140.876 263.311 130.719 266.3 121.347C269.288 111.976 275.724 104.089 284.306 99.2818L279.567 90.8188Z" fill="#FFFFFE" stroke="#353C51" stroke-width="4"/>
<path d="M344.472 158.416C350.314 148.838 352.702 137.584 351.237 126.54L341.565 127.922C342.737 136.758 340.826 145.761 336.153 153.423L344.472 158.416Z" fill="#FFFFFE" stroke="#353C51" stroke-width="4"/>
<path d="M294.337 46.6046L314.325 60.7813L336.943 50.468L322.395 70.6243L332.376 93.0049L312.388 78.8282L289.77 89.1416L304.318 68.9852L294.337 46.6046Z" fill="#FFFFFE" stroke="#353C51" stroke-width="4" stroke-linejoin="round"/>
<circle cx="293.142" cy="142.057" r="13.0573" transform="rotate(-39.3454 293.142 142.057)" fill="#FFFFFE" stroke="#353C51" stroke-width="4"/>
<circle cx="288.785" cy="143.031" r="8.03525" transform="rotate(-39.3454 288.785 143.031)" fill="#353C51"/>
<circle cx="314.892" cy="124.228" r="13.0573" transform="rotate(-39.3454 314.892 124.228)" fill="#FFFFFE" stroke="#353C51" stroke-width="4"/>
<circle cx="310.539" cy="125.199" r="8.03525" transform="rotate(-39.3454 310.539 125.199)" fill="#353C51"/>
</g>
<g clip-path="url(#clip3_7703_22073)">
<mask id="path-49-inside-1_7703_22073" fill="white">
<path d="M0 0H400V514H0V0Z"/>
</mask>
<rect x="2" y="2" width="396" height="512" stroke="#353C51" stroke-width="4" stroke-dasharray="6 6"/>
</g>
<path d="M0 0V4H400V0V-4H0V0ZM400 514V510H0V514V518H400V514Z" fill="#353C51" mask="url(#path-49-inside-1_7703_22073)"/>
</g>
<defs>
<clipPath id="clip0_7703_22073">
<rect width="400" height="514" fill="white"/>
</clipPath>
<clipPath id="clip1_7703_22073">
<rect width="240" height="240" fill="white" transform="translate(15.9062 78) rotate(36.8419)"/>
</clipPath>
<clipPath id="clip2_7703_22073">
<rect width="240" height="240" fill="white" transform="translate(161 148.158) rotate(-39.3454)"/>
</clipPath>
<clipPath id="clip3_7703_22073">
<path d="M0 0H400V514H0V0Z" fill="white"/>
</clipPath>
</defs>
</svg>
