<svg width="112" height="239" viewBox="0 0 112 239" fill="none" xmlns="http://www.w3.org/2000/svg">
<path d="M102.951 139.576C102.951 142.073 101.034 144.148 98.5473 144.373C85.4986 145.554 78.1817 146.867 73.165 151.452C71.6789 152.81 70.3693 154.35 69.2676 156.035C64.7712 162.913 65.5334 172.341 67.0586 191.197L70.211 230.174C70.3829 232.299 69.1388 234.306 67.0981 234.923C62.4696 236.322 57.5604 237.074 52.4756 237.074C47.7871 237.074 43.2481 236.434 38.9407 235.238C36.8504 234.657 35.559 232.623 35.7339 230.46L38.9102 191.197C40.4354 172.341 41.1985 162.913 36.7021 156.035C35.6005 154.35 34.2908 152.81 32.8047 151.452C27.6593 146.75 20.0943 145.488 6.40691 144.282C3.91784 144.063 2 141.986 2 139.487V99.1496C2 96.4986 4.14903 94.3496 6.8 94.3496H98.1512C100.802 94.3496 102.951 96.4986 102.951 99.1496V139.576Z" fill="#F95984"/>
<path d="M73.165 151.452L71.8158 149.976L71.8158 149.976L73.165 151.452ZM69.2676 156.035L67.5936 154.941L67.5936 154.941L69.2676 156.035ZM67.0586 191.197L69.0521 191.036L69.0521 191.036L67.0586 191.197ZM52.4756 237.074L52.4756 239.074H52.4756V237.074ZM38.9102 191.197L40.9036 191.359L40.9036 191.359L38.9102 191.197ZM36.7021 156.035L38.3762 154.941L38.3761 154.941L36.7021 156.035ZM32.8047 151.452L34.1539 149.976L34.1539 149.976L32.8047 151.452ZM98.5473 144.373L98.3671 142.382L98.5473 144.373ZM38.9407 235.238L39.4759 233.311L38.9407 235.238ZM35.7339 230.46L33.7405 230.299L35.7339 230.46ZM70.211 230.174L72.2045 230.013L70.211 230.174ZM67.0981 234.923L67.6767 236.838L67.0981 234.923ZM98.5473 144.373L98.3671 142.382C85.4523 143.55 77.4119 144.862 71.8158 149.976L73.165 151.452L74.5143 152.928C78.9515 148.873 85.5448 147.558 98.7275 146.365L98.5473 144.373ZM73.165 151.452L71.8158 149.976C70.206 151.447 68.7872 153.115 67.5936 154.941L69.2676 156.035L70.9416 157.13C71.9513 155.585 73.1518 154.174 74.5143 152.928L73.165 151.452ZM69.2676 156.035L67.5936 154.941C65.063 158.811 64.0928 163.304 63.9061 169.059C63.7207 174.773 64.3063 181.977 65.0651 191.359L67.0586 191.197L69.0521 191.036C68.2857 181.561 67.7276 174.623 67.9039 169.189C68.0789 163.796 68.9758 160.136 70.9416 157.13L69.2676 156.035ZM67.0586 191.197L65.0651 191.358L68.2175 230.336L70.211 230.174L72.2045 230.013L69.0521 191.036L67.0586 191.197ZM67.0981 234.923L66.5195 233.009C62.0765 234.351 57.3622 235.074 52.4756 235.074V237.074V239.074C57.7587 239.074 62.8627 238.292 67.6767 236.838L67.0981 234.923ZM52.4756 237.074L52.4756 235.074C47.9698 235.074 43.6108 234.459 39.4759 233.311L38.9407 235.238L38.4054 237.165C42.8853 238.409 47.6043 239.074 52.4756 239.074L52.4756 237.074ZM35.7339 230.46L37.7274 230.622L40.9036 191.359L38.9102 191.197L36.9167 191.036L33.7405 230.299L35.7339 230.46ZM38.9102 191.197L40.9036 191.359C41.6625 181.977 42.2483 174.773 42.0632 169.059C41.8767 163.305 40.9067 158.812 38.3762 154.941L36.7021 156.035L35.0281 157.13C36.9939 160.136 37.8905 163.796 38.0653 169.189C38.2413 174.623 37.6831 181.561 36.9167 191.036L38.9102 191.197ZM36.7021 156.035L38.3761 154.941C37.1826 153.115 35.7638 151.447 34.1539 149.976L32.8047 151.452L31.4555 152.928C32.8179 154.174 34.0184 155.585 35.0282 157.13L36.7021 156.035ZM32.8047 151.452L34.1539 149.976C28.4207 144.736 20.1098 143.481 6.58242 142.29L6.40691 144.282L6.23141 146.274C20.0788 147.494 26.898 148.763 31.4555 152.928L32.8047 151.452ZM2 139.487H4V99.1496H2H0V139.487H2ZM6.8 94.3496V96.3496H98.1512V94.3496V92.3496H6.8V94.3496ZM102.951 99.1496H100.951V139.576H102.951H104.951V99.1496H102.951ZM98.1512 94.3496V96.3496C99.6976 96.3496 100.951 97.6032 100.951 99.1496H102.951H104.951C104.951 95.3941 101.907 92.3496 98.1512 92.3496V94.3496ZM98.5473 144.373L98.7275 146.365C102.233 146.048 104.951 143.119 104.951 139.576H102.951H100.951C100.951 141.026 99.8353 142.249 98.3671 142.382L98.5473 144.373ZM2 99.1496H4C4 97.6032 5.2536 96.3496 6.8 96.3496V94.3496V92.3496C3.04446 92.3496 0 95.3941 0 99.1496H2ZM38.9407 235.238L39.4759 233.311C38.3946 233.011 37.6225 231.919 37.7274 230.622L35.7339 230.46L33.7405 230.299C33.4956 233.326 35.3061 236.304 38.4054 237.165L38.9407 235.238ZM70.211 230.174L68.2175 230.336C68.3206 231.61 67.5765 232.689 66.5195 233.009L67.0981 234.923L67.6767 236.838C70.7012 235.923 72.4451 232.989 72.2045 230.013L70.211 230.174ZM6.40691 144.282L6.58242 142.29C5.11686 142.161 4 140.94 4 139.487H2H0C0 143.031 2.71883 145.965 6.23141 146.274L6.40691 144.282Z" fill="#353C51"/>
<path d="M98.8242 118H7.29004L3.83594 8.48242H17.2256L22.4619 39.2461L27.6982 8.48242H102.278L98.8242 118Z" fill="#FFFFFE"/>
<path d="M98.8242 118V120H100.762L100.823 118.063L98.8242 118ZM7.29004 118L5.29103 118.063L5.35212 120H7.29004V118ZM3.83594 8.48242V6.48242H1.77186L1.83693 8.54547L3.83594 8.48242ZM17.2256 8.48242L19.1972 8.14683L18.9139 6.48242H17.2256V8.48242ZM22.4619 39.2461L20.4903 39.5817H24.4336L22.4619 39.2461ZM27.6982 8.48242V6.48242H26.0099L25.7266 8.14683L27.6982 8.48242ZM102.278 8.48242L104.277 8.54547L104.342 6.48242H102.278V8.48242ZM98.8242 118V116H7.29004V118V120H98.8242V118ZM7.29004 118L9.28905 117.937L5.83494 8.41937L3.83594 8.48242L1.83693 8.54547L5.29103 118.063L7.29004 118ZM3.83594 8.48242V10.4824H17.2256V8.48242V6.48242H3.83594V8.48242ZM17.2256 8.48242L15.2539 8.81802L20.4903 39.5817L22.4619 39.2461L24.4336 38.9105L19.1972 8.14683L17.2256 8.48242ZM22.4619 39.2461L24.4336 39.5817L29.6699 8.81802L27.6982 8.48242L25.7266 8.14683L20.4903 38.9105L22.4619 39.2461ZM27.6982 8.48242V10.4824H102.278V8.48242V6.48242H27.6982V8.48242ZM102.278 8.48242L100.279 8.41937L96.8252 117.937L98.8242 118L100.823 118.063L104.277 8.54547L102.278 8.48242Z" fill="#353C51"/>
<rect width="100.951" height="60.3388" transform="matrix(-1 0 0 1 102.955 60.6992)" fill="#646676" stroke="#353C51" stroke-width="4"/>
<rect width="100.951" height="37.1316" transform="matrix(-1 0 0 1 102.955 72.3037)" fill="#F95984" stroke="#353C51" stroke-width="4"/>
<path d="M48.2539 2H101.691C105.964 2 109.367 5.5109 109.291 9.72949L109.272 10.1396L106.812 44.6836C106.554 48.2985 103.89 51.0364 100.747 50.9971L100.173 50.9854C94.2965 50.8044 90.2448 48.9946 87.0801 46.5234C83.7278 43.9058 81.3174 40.5215 78.7383 37.0898C76.2449 33.7723 73.5265 30.31 69.6729 28.3682C65.8036 26.4185 61.1025 26.1308 54.8779 28.1768L54.2705 28.3818C51.3518 29.3959 48.1749 29.075 45.708 27.7539C43.3452 26.4885 41.7061 24.3601 41.4346 21.6299L41.4131 21.3633L40.6699 10.0996C40.3901 5.85217 43.6461 2.23275 47.8447 2.01074L48.2539 2Z" fill="#F95984" stroke="#353C51" stroke-width="4"/>
<circle cx="53.0598" cy="221.99" r="4.96217" fill="#FFFFFE" stroke="#353C51" stroke-width="4"/>
<circle cx="38.0573" cy="112.393" r="13.0573" fill="#FFFFFE" stroke="#353C51" stroke-width="4"/>
<circle cx="41.0704" cy="110.385" r="8.03525" fill="#353C51"/>
<circle cx="66.1784" cy="112.393" r="13.0573" fill="#FFFFFE" stroke="#353C51" stroke-width="4"/>
<circle cx="69.1974" cy="110.385" r="8.03525" fill="#353C51"/>
</svg>
