<svg width="240" height="240" viewBox="0 0 240 240" fill="none" xmlns="http://www.w3.org/2000/svg">
<path d="M68.002 56.0006H76.0222C80.0222 35.0005 99.502 22.1099 120.002 22.1099C140.502 22.1099 159.981 35.0005 163.981 56.0006H172.002C168.002 29.0005 144.502 14.0135 120.002 14.0137C95.502 14.0139 72.002 29.0005 68.002 56.0006Z" fill="#646676" stroke="#353C51" stroke-width="4"/>
<rect x="125.002" y="90" width="10" height="51" transform="rotate(180 125.002 90)" fill="#646676" stroke="#353C51" stroke-width="4"/>
<rect x="108.002" y="47" width="9" height="24" rx="4.5" transform="rotate(-90 108.002 47)" fill="#646676" stroke="#353C51" stroke-width="4"/>
<path d="M162.693 208.79L176.693 200.707L190.652 224.885C192.884 228.75 191.559 233.694 187.693 235.926C183.827 238.158 178.884 236.833 176.652 232.967L162.693 208.79Z" fill="#646676" stroke="#353C51" stroke-width="4"/>
<path d="M76.6426 208.79L62.643 200.707L48.6843 224.885C46.4524 228.75 47.7769 233.694 51.6428 235.926C55.5087 238.158 60.4519 236.833 62.6839 232.967L76.6426 208.79Z" fill="#646676" stroke="#353C51" stroke-width="4"/>
<circle cx="119.502" cy="146.5" r="90.5" fill="#10B9DF" stroke="#353C51" stroke-width="4"/>
<circle cx="119.52" cy="146.837" r="71.9633" fill="#FFFFFE" stroke="#353C51" stroke-width="4"/>
<path d="M197.312 68.6055L189.547 61.9371L199.345 50.5257C201.187 48.3812 204.418 48.1355 206.563 49.977C208.707 51.8184 208.953 55.0496 207.111 57.194L197.312 68.6055Z" fill="#646676" stroke="#353C51" stroke-width="4"/>
<path d="M151.56 54.4049C151.47 54.5103 151.482 54.6691 151.587 54.7596L210.287 105.175C210.392 105.266 210.551 105.253 210.641 105.148C221.501 92.5037 220.055 73.4498 207.41 62.5898L194.119 51.174C181.474 40.314 162.42 41.7606 151.56 54.4049Z" fill="#646676" stroke="#353C51" stroke-width="4"/>
<path d="M40.9199 68.6055L48.6857 61.9371L38.887 50.5257C37.0456 48.3812 33.8144 48.1355 31.6699 49.977C29.5254 51.8184 29.2798 55.0496 31.1212 57.194L40.9199 68.6055Z" fill="#646676" stroke="#353C51" stroke-width="4"/>
<path d="M86.6721 54.4049C86.7626 54.5103 86.7505 54.6691 86.6451 54.7596L27.9459 105.175C27.8405 105.266 27.6817 105.253 27.5912 105.148C16.7313 92.5037 18.1778 73.4498 30.8222 62.5898L44.1138 51.174C56.7582 40.314 75.8121 41.7606 86.6721 54.4049Z" fill="#646676" stroke="#353C51" stroke-width="4"/>
<path d="M114.222 85.6838V106.629H109.794V89.8872H109.671L104.874 92.8941V88.9668L110.059 85.6838H114.222Z" fill="#353C51"/>
<path d="M119.2 106.629V103.438L126.656 96.535C127.29 95.9213 127.822 95.3691 128.251 94.8781C128.688 94.3872 129.018 93.9066 129.243 93.4361C129.468 92.9588 129.581 92.4441 129.581 91.8918C129.581 91.2781 129.441 90.7497 129.161 90.3066C128.882 89.8566 128.5 89.5122 128.016 89.2736C127.532 89.0281 126.983 88.9054 126.369 88.9054C125.729 88.9054 125.169 89.035 124.692 89.2941C124.215 89.5531 123.847 89.9247 123.588 90.4088C123.329 90.8929 123.199 91.4691 123.199 92.1372H118.996C118.996 90.7668 119.306 89.577 119.926 88.5679C120.547 87.5588 121.416 86.7781 122.534 86.2259C123.652 85.6736 124.941 85.3975 126.4 85.3975C127.9 85.3975 129.206 85.6634 130.317 86.1952C131.435 86.7202 132.305 87.4497 132.925 88.3838C133.546 89.3179 133.856 90.3884 133.856 91.5952C133.856 92.3861 133.699 93.1668 133.385 93.9372C133.079 94.7077 132.53 95.5634 131.739 96.5043C130.948 97.4384 129.833 98.56 128.394 99.8691L125.336 102.866V103.009H134.132V106.629H119.2Z" fill="#353C51"/>
<path d="M120.383 208.29C119.306 208.284 118.266 208.103 117.264 207.748C116.269 207.394 115.375 206.818 114.585 206.02C113.794 205.222 113.166 204.165 112.703 202.85C112.246 201.534 112.018 199.918 112.018 198.002C112.024 196.243 112.225 194.671 112.621 193.287C113.023 191.896 113.596 190.717 114.339 189.748C115.089 188.78 115.986 188.044 117.029 187.539C118.072 187.028 119.241 186.772 120.537 186.772C121.935 186.772 123.169 187.045 124.239 187.59C125.31 188.129 126.169 188.862 126.816 189.789C127.471 190.717 127.866 191.756 128.003 192.909H123.636C123.465 192.179 123.107 191.606 122.562 191.19C122.016 190.775 121.341 190.567 120.537 190.567C119.173 190.567 118.137 191.16 117.428 192.346C116.725 193.532 116.368 195.145 116.354 197.184H116.497C116.811 196.563 117.233 196.035 117.765 195.598C118.304 195.155 118.914 194.818 119.596 194.586C120.285 194.347 121.011 194.228 121.774 194.228C123.015 194.228 124.12 194.521 125.088 195.107C126.056 195.687 126.82 196.485 127.379 197.501C127.938 198.517 128.218 199.679 128.218 200.988C128.218 202.406 127.887 203.668 127.225 204.772C126.571 205.877 125.654 206.743 124.474 207.37C123.302 207.99 121.938 208.297 120.383 208.29ZM120.363 204.813C121.045 204.813 121.655 204.65 122.194 204.322C122.732 203.995 123.155 203.552 123.462 202.993C123.769 202.434 123.922 201.806 123.922 201.111C123.922 200.415 123.769 199.792 123.462 199.239C123.162 198.687 122.746 198.247 122.214 197.92C121.682 197.593 121.075 197.429 120.394 197.429C119.882 197.429 119.408 197.525 118.972 197.715C118.543 197.906 118.164 198.172 117.837 198.513C117.516 198.854 117.264 199.25 117.08 199.7C116.896 200.143 116.804 200.617 116.804 201.121C116.804 201.796 116.957 202.413 117.264 202.972C117.578 203.531 118 203.978 118.532 204.312C119.071 204.646 119.681 204.813 120.363 204.813Z" fill="#353C51"/>
<path d="M66.1013 135.458C67.1786 135.458 68.2149 135.639 69.2104 136C70.2127 136.361 71.1059 136.937 71.8899 137.728C72.6809 138.519 73.3047 139.569 73.7615 140.878C74.2252 142.181 74.4604 143.78 74.4672 145.675C74.4672 147.455 74.2661 149.043 73.8638 150.441C73.4684 151.832 72.899 153.015 72.1559 153.99C71.4127 154.965 70.5161 155.708 69.4661 156.219C68.4161 156.724 67.2434 156.976 65.9479 156.976C64.5502 156.976 63.3161 156.707 62.2456 156.168C61.1752 155.623 60.3127 154.883 59.6581 153.949C59.0104 153.008 58.6184 151.951 58.482 150.778H62.849C63.0195 151.542 63.3774 152.135 63.9229 152.558C64.4684 152.974 65.1434 153.182 65.9479 153.182C67.3115 153.182 68.3479 152.589 69.057 151.402C69.7661 150.209 70.124 148.576 70.1309 146.503H69.9877C69.674 147.117 69.2513 147.645 68.7195 148.089C68.1877 148.525 67.5774 148.862 66.8888 149.101C66.207 149.34 65.4809 149.459 64.7104 149.459C63.4763 149.459 62.3752 149.169 61.407 148.59C60.4388 148.01 59.6752 147.212 59.1161 146.197C58.557 145.181 58.2774 144.022 58.2774 142.719C58.2706 141.315 58.5945 140.064 59.249 138.966C59.9036 137.868 60.8172 137.009 61.9899 136.389C63.1695 135.761 64.5399 135.451 66.1013 135.458ZM66.132 138.935C65.4434 138.935 64.8297 139.099 64.2911 139.426C63.7593 139.753 63.3365 140.193 63.0229 140.745C62.7161 141.298 62.5661 141.915 62.5729 142.597C62.5729 143.285 62.7229 143.906 63.0229 144.458C63.3297 145.003 63.7456 145.44 64.2706 145.767C64.8024 146.087 65.4093 146.248 66.0911 146.248C66.6025 146.248 67.0763 146.152 67.5127 145.961C67.949 145.77 68.3274 145.508 68.6479 145.174C68.9752 144.833 69.2309 144.441 69.415 143.998C69.599 143.555 69.6911 143.084 69.6911 142.586C69.6843 141.925 69.5274 141.318 69.2206 140.766C68.9138 140.214 68.4911 139.77 67.9524 139.436C67.4138 139.102 66.807 138.935 66.132 138.935Z" fill="#353C51"/>
<path d="M172.662 156.976C171.135 156.976 169.774 156.714 168.581 156.189C167.395 155.657 166.457 154.927 165.769 154C165.087 153.066 164.736 151.989 164.715 150.768H169.174C169.202 151.28 169.369 151.73 169.675 152.118C169.989 152.5 170.405 152.797 170.923 153.008C171.441 153.219 172.024 153.325 172.672 153.325C173.347 153.325 173.944 153.206 174.462 152.967C174.98 152.728 175.386 152.398 175.679 151.975C175.972 151.552 176.119 151.065 176.119 150.512C176.119 149.953 175.962 149.459 175.648 149.03C175.341 148.593 174.898 148.252 174.319 148.007C173.746 147.761 173.064 147.639 172.273 147.639H170.32V144.386H172.273C172.941 144.386 173.531 144.27 174.043 144.039C174.561 143.807 174.963 143.486 175.249 143.077C175.536 142.661 175.679 142.177 175.679 141.625C175.679 141.1 175.553 140.64 175.3 140.244C175.055 139.842 174.707 139.528 174.257 139.303C173.814 139.078 173.296 138.966 172.703 138.966C172.103 138.966 171.554 139.075 171.056 139.293C170.558 139.505 170.16 139.808 169.86 140.203C169.56 140.599 169.399 141.062 169.379 141.594H165.135C165.155 140.387 165.499 139.324 166.168 138.403C166.836 137.483 167.736 136.764 168.868 136.245C170.006 135.72 171.291 135.458 172.723 135.458C174.169 135.458 175.433 135.72 176.518 136.245C177.602 136.77 178.444 137.48 179.044 138.373C179.65 139.259 179.95 140.255 179.944 141.359C179.95 142.532 179.586 143.51 178.849 144.294C178.12 145.078 177.169 145.576 175.996 145.787V145.951C177.537 146.149 178.71 146.684 179.514 147.557C180.325 148.423 180.728 149.507 180.721 150.809C180.728 152.002 180.383 153.062 179.688 153.99C178.999 154.917 178.048 155.647 176.835 156.178C175.621 156.71 174.23 156.976 172.662 156.976Z" fill="#353C51"/>
<circle cx="102.729" cy="158.729" r="15.7293" fill="#FFFFFE" stroke="#353C51" stroke-width="4"/>
<circle cx="98.7947" cy="157.345" r="10.8611" fill="#353C51"/>
<circle cx="135.27" cy="158.729" r="15.7293" fill="#FFFFFE" stroke="#353C51" stroke-width="4"/>
<circle cx="131.379" cy="157.345" r="10.8611" fill="#353C51"/>
</svg>
