<svg width="237" height="156" viewBox="0 0 237 156" fill="none" xmlns="http://www.w3.org/2000/svg">
<rect x="142.732" y="49.3945" width="23.4652" height="32.1102" transform="rotate(-12.324 142.732 49.3945)" fill="#646676" stroke="#353C51" stroke-width="4"/>
<rect x="141" y="137" width="16" height="86" transform="rotate(-90 141 137)" fill="#FFFFFE" stroke="#353C51" stroke-width="4"/>
<path d="M223 121H235V147C235 150.314 232.314 153 229 153C225.686 153 223 150.314 223 147V121Z" fill="#FF8B39" stroke="#353C51" stroke-width="4"/>
<path d="M83.8838 2.43652C125.921 2.43657 159.998 36.514 159.998 78.5508V130.437C159.998 141.482 151.044 150.437 139.998 150.437H58.3828C30.4299 150.437 7.76957 127.776 7.76953 99.8232V78.5508C7.76958 36.514 41.847 2.43652 83.8838 2.43652Z" fill="#FF8B39"/>
<path d="M83.8838 2.43652V0.436523V2.43652ZM159.998 78.5508H161.998H159.998ZM159.998 130.437H161.998H159.998ZM139.998 150.437V152.437V150.437ZM7.76953 99.8232H5.76953H7.76953ZM7.76953 78.5508H5.76953H7.76953ZM83.8838 2.43652V4.43652C124.816 4.43657 157.998 37.6186 157.998 78.5508H159.998H161.998C161.998 35.4095 127.025 0.43657 83.8838 0.436523V2.43652ZM159.998 78.5508H157.998V130.437H159.998H161.998V78.5508H159.998ZM159.998 130.437L157.998 130.437C157.998 140.378 149.939 148.437 139.998 148.437V150.437V152.437C152.148 152.437 161.998 142.587 161.998 130.437H159.998ZM139.998 150.437V148.437H58.3828V150.437V152.437H139.998V150.437ZM58.3828 150.437V148.437C31.5345 148.437 9.76957 126.672 9.76953 99.8232H7.76953H5.76953C5.76957 128.881 29.3253 152.437 58.3828 152.437V150.437ZM7.76953 99.8232H9.76953V78.5508H7.76953H5.76953V99.8232H7.76953ZM7.76953 78.5508H9.76953C9.76957 37.6186 42.9516 4.43652 83.8838 4.43652V2.43652V0.436523C40.7425 0.436523 5.76958 35.4095 5.76953 78.5508H7.76953Z" fill="#353C51"/>
<circle cx="84.5" cy="78.5" r="51.5" fill="#FFFFFE" stroke="#353C51" stroke-width="4"/>
<circle cx="84.5" cy="78.5" r="42.5" fill="#FF8B39" stroke="#353C51" stroke-width="4"/>
<path d="M20.625 105.958C20.6251 122.526 34.0568 135.958 50.625 135.958H57.042V153.986H50.6016C24.0922 153.986 2.60166 132.496 2.60156 105.986V79.4736H20.625V105.958Z" fill="#646676"/>
<path d="M20.625 105.958L18.625 105.958L18.625 105.958L20.625 105.958ZM50.625 135.958L50.625 137.958H50.625V135.958ZM57.042 135.958H59.042V133.958H57.042V135.958ZM57.042 153.986V155.986H59.042V153.986H57.042ZM50.6016 153.986L50.6015 155.986H50.6016V153.986ZM2.60156 105.986L0.601562 105.986L0.601563 105.986L2.60156 105.986ZM2.60156 79.4736V77.4736H0.601562V79.4736H2.60156ZM20.625 79.4736H22.625V77.4736H20.625V79.4736ZM20.625 105.958L18.625 105.958C18.6251 123.631 32.9522 137.958 50.625 137.958L50.625 135.958L50.625 133.958C35.1613 133.958 22.6251 121.422 22.625 105.958L20.625 105.958ZM50.625 135.958V137.958H57.042V135.958V133.958H50.625V135.958ZM57.042 135.958H55.042V153.986H57.042H59.042V135.958H57.042ZM57.042 153.986V151.986H50.6016V153.986V155.986H57.042V153.986ZM50.6016 153.986L50.6016 151.986C25.1967 151.986 4.60166 131.391 4.60156 105.986L2.60156 105.986L0.601563 105.986C0.601669 133.6 22.9876 155.986 50.6015 155.986L50.6016 153.986ZM2.60156 105.986H4.60156V79.4736H2.60156H0.601562V105.986H2.60156ZM2.60156 79.4736V81.4736H20.625V79.4736V77.4736H2.60156V79.4736ZM20.625 79.4736H18.625V105.958H20.625H22.625V79.4736H20.625Z" fill="#353C51"/>
<path d="M169 121L169 128.03" stroke="#353C51" stroke-width="4.8"/>
<path d="M178 121L178 128.03" stroke="#353C51" stroke-width="4.8"/>
<path d="M190 121L190 128.03" stroke="#353C51" stroke-width="4.8"/>
<path d="M202 121L202 128.03" stroke="#353C51" stroke-width="4.8"/>
<path d="M214 121L214 128.03" stroke="#353C51" stroke-width="4.8"/>
</svg>
