<svg width="140" height="240" viewBox="0 0 140 240" fill="none" xmlns="http://www.w3.org/2000/svg">
<path d="M106.336 74.1019H137.198V73.1777C137.198 64.3412 130.034 57.1777 121.198 57.1777H106.336V74.1019Z" fill="#646676" stroke="#353C51" stroke-width="4"/>
<path d="M110.517 2.5C112.603 2.50025 114.295 4.19243 114.295 6.2793V12.3564H137.198V13.2803C137.198 22.1168 130.035 29.2803 121.198 29.2803H2.79688C2.79917 29.259 3.47257 23.0258 6.83691 18.3291C10.2083 13.6242 57 2.5 57 2.5H110.517Z" fill="#646676"/>
<path d="M110.517 2.5L110.517 0.5H110.517V2.5ZM114.295 6.2793L116.295 6.2793L116.295 6.27907L114.295 6.2793ZM114.295 12.3564H112.295V14.3564H114.295V12.3564ZM137.198 12.3564H139.198V10.3564H137.198V12.3564ZM2.79688 29.2803L0.80836 29.0662L0.570057 31.2803H2.79688V29.2803ZM6.83691 18.3291L5.21121 17.1642L5.21101 17.1644L6.83691 18.3291ZM57 2.5V0.5H56.7655L56.5374 0.554231L57 2.5ZM110.517 2.5L110.516 4.5C111.498 4.50012 112.295 5.29639 112.295 6.27953L114.295 6.2793L116.295 6.27907C116.295 3.08847 113.709 0.500388 110.517 0.5L110.517 2.5ZM114.295 6.2793H112.295V12.3564H114.295H116.295V6.2793H114.295ZM114.295 12.3564V14.3564H137.198V12.3564V10.3564H114.295V12.3564ZM137.198 12.3564H135.198V13.2803H137.198H139.198V12.3564H137.198ZM137.198 13.2803H135.198C135.198 21.0123 128.93 27.2803 121.198 27.2803V29.2803V31.2803C131.139 31.2803 139.198 23.2214 139.198 13.2803H137.198ZM121.198 29.2803V27.2803H2.79688V29.2803V31.2803H121.198V29.2803ZM2.79688 29.2803L4.78539 29.4943C4.78451 29.5025 5.42579 23.7336 8.46282 19.4938L6.83691 18.3291L5.21101 17.1644C1.51936 22.3181 0.81382 29.0155 0.80836 29.0662L2.79688 29.2803ZM6.83691 18.3291L8.46262 19.494C8.45003 19.5116 8.57349 19.357 9.03862 19.0575C9.46539 18.7827 10.0551 18.4641 10.8124 18.1075C12.3245 17.3955 14.3555 16.6011 16.759 15.7582C21.5574 14.0756 27.6726 12.2579 33.7184 10.5771C39.7568 8.89847 45.694 7.36529 50.1239 6.25128C52.3382 5.69444 54.1743 5.24271 55.4563 4.93033C56.0973 4.77415 56.5996 4.65282 56.9414 4.57063C57.1122 4.52953 57.2429 4.49822 57.3307 4.47723C57.3746 4.46674 57.4078 4.45883 57.4299 4.45356C57.4409 4.45093 57.4492 4.44895 57.4547 4.44765C57.4574 4.447 57.4594 4.44652 57.4607 4.44621C57.4614 4.44605 57.4619 4.44594 57.4622 4.44586C57.4625 4.44579 57.4626 4.44577 57 2.5C56.5374 0.554231 56.5372 0.554292 56.5367 0.554394C56.5363 0.554485 56.5357 0.55463 56.535 0.554811C56.5335 0.555174 56.5312 0.555705 56.5283 0.556404C56.5224 0.557802 56.5137 0.55987 56.5023 0.562602C56.4794 0.568065 56.4454 0.576179 56.4006 0.586876C56.3111 0.608271 56.1787 0.640001 56.006 0.68153C55.6607 0.764588 55.1544 0.886852 54.5094 1.04404C53.2193 1.35839 51.3735 1.81249 49.1484 2.37206C44.6994 3.49086 38.728 5.03279 32.6471 6.72328C26.5735 8.41171 20.3587 10.2572 15.4354 11.9836C12.9781 12.8453 10.8004 13.6919 9.10825 14.4887C8.26338 14.8866 7.50214 15.2894 6.87309 15.6944C6.28241 16.0748 5.64523 16.5585 5.21121 17.1642L6.83691 18.3291ZM57 2.5V4.5H110.517V2.5V0.5H57V2.5Z" fill="#353C51"/>
<circle cx="20.0573" cy="43.0573" r="13.0573" fill="#FFFFFE" stroke="#353C51" stroke-width="4"/>
<circle cx="23.0704" cy="41.0489" r="8.03525" fill="#353C51"/>
<circle cx="48.1784" cy="43.0573" r="13.0573" fill="#FFFFFE" stroke="#353C51" stroke-width="4"/>
<circle cx="51.1974" cy="41.0489" r="8.03525" fill="#353C51"/>
<path d="M110.516 84.0527C112.603 84.0527 114.295 82.3606 114.295 80.2734V57.1729H2.79688C2.79688 57.1729 3.46682 63.4192 6.83691 68.124C10.0823 72.6543 53.1246 83.1813 56.3135 83.9561C56.439 84.0177 56.5802 84.0527 56.7295 84.0527H110.516Z" fill="#646676"/>
<path d="M110.516 84.0527L110.516 86.0527H110.516V84.0527ZM114.295 80.2734H116.295V80.2735L114.295 80.2734ZM114.295 57.1729V55.1729H116.295V57.1729H114.295ZM2.79688 57.1729L0.80828 57.3861L0.5709 55.1729H2.79688V57.1729ZM6.83691 68.124L5.21105 69.2887L5.21101 69.2887L6.83691 68.124ZM56.3135 83.9561L56.7856 82.0126L56.9986 82.0643L57.1952 82.1609L56.3135 83.9561ZM110.516 84.0527L110.516 82.0527C111.498 82.0527 112.295 81.256 112.295 80.2734L114.295 80.2734L116.295 80.2735C116.295 83.4651 113.707 86.0527 110.516 86.0527L110.516 84.0527ZM114.295 80.2734H112.295V57.1729H114.295H116.295V80.2734H114.295ZM114.295 57.1729V59.1729H2.79688V57.1729V55.1729H114.295V57.1729ZM2.79688 57.1729C4.78547 56.9596 4.78543 56.9592 4.78538 56.9588C4.78537 56.9587 4.78533 56.9583 4.78531 56.9581C4.78527 56.9577 4.78523 56.9574 4.78521 56.9572C4.78516 56.9567 4.78516 56.9567 4.78519 56.957C4.78526 56.9576 4.7855 56.9597 4.7859 56.9633C4.78672 56.9704 4.78821 56.9832 4.79046 57.0016C4.79496 57.0384 4.80243 57.0973 4.81337 57.1764C4.83527 57.3346 4.87095 57.5732 4.92421 57.8773C5.03094 58.4865 5.20712 59.3519 5.48207 60.3558C6.0384 62.3872 6.96932 64.8744 8.46282 66.9594L6.83691 68.124L5.21101 69.2887C3.33441 66.6689 2.24531 63.6805 1.62414 61.4124C1.31035 60.2667 1.10841 59.2765 0.984211 58.5675C0.922009 58.2124 0.879022 57.9263 0.851113 57.7245C0.837153 57.6236 0.826946 57.5437 0.819982 57.4867C0.816499 57.4582 0.813825 57.4354 0.811897 57.4186C0.810932 57.4101 0.810154 57.4032 0.809554 57.3978C0.809254 57.3951 0.808998 57.3928 0.808786 57.3908C0.80868 57.3898 0.808585 57.389 0.808501 57.3882C0.808459 57.3878 0.808403 57.3873 0.808382 57.3871C0.80833 57.3866 0.80828 57.3861 2.79688 57.1729ZM6.83691 68.124L8.46278 66.9593C8.45119 66.9431 8.56589 67.0882 8.99381 67.3705C9.38783 67.6305 9.93284 67.9331 10.6351 68.273C12.0378 68.9518 13.9234 69.7104 16.1662 70.5184C20.6435 72.1314 26.3764 73.8816 32.1444 75.5249C43.6709 78.8089 55.1983 81.6269 56.7856 82.0126L56.3135 83.9561L55.8413 85.8995C54.2398 85.5104 42.6516 82.6777 31.0484 79.3718C25.2515 77.7203 19.416 75.9409 14.8105 74.2817C12.5119 73.4536 10.4774 72.6405 8.89258 71.8735C8.10109 71.4904 7.38547 71.1016 6.79088 70.7092C6.23019 70.3393 5.62831 69.8712 5.21105 69.2887L6.83691 68.124ZM56.3135 83.9561L57.1952 82.1609C57.0558 82.0924 56.8963 82.0527 56.7295 82.0527V84.0527V86.0527C56.2641 86.0527 55.8222 85.943 55.4317 85.7512L56.3135 83.9561ZM56.7295 84.0527V82.0527H110.516V84.0527V86.0527H56.7295V84.0527Z" fill="#353C51"/>
<rect x="71.4922" y="21.3154" width="34.8439" height="216.685" fill="#49A0EB" stroke="#353C51" stroke-width="4"/>
<path d="M104.555 34.2441L94.5996 34.2441" stroke="#353C51" stroke-width="4.8"/>
<path d="M104.557 137.244L94.6016 137.244" stroke="#353C51" stroke-width="4.8"/>
<path d="M104.557 151.244L94.6016 151.244" stroke="#353C51" stroke-width="4.8"/>
<path d="M104.557 165.244L94.6016 165.244" stroke="#353C51" stroke-width="4.8"/>
<path d="M104.557 179.244L94.6016 179.244" stroke="#353C51" stroke-width="4.8"/>
<path d="M104.557 193.244L94.6016 193.244" stroke="#353C51" stroke-width="4.8"/>
<rect x="64.5234" y="50.1992" width="52.7637" height="77.6522" rx="3.77925" fill="#FFFFFE" stroke="#353C51" stroke-width="4"/>
<rect x="80.4492" y="59.1641" width="27.8752" height="53.7592" fill="#646676" stroke="#353C51" stroke-width="4"/>
</svg>
