<svg width="238" height="189" viewBox="0 0 238 189" fill="none" xmlns="http://www.w3.org/2000/svg">
<rect x="71.9785" y="152.273" width="25.738" height="34.6904" rx="12.869" fill="#646676" stroke="#353C51" stroke-width="4"/>
<rect x="178.285" y="152.273" width="25.738" height="34.6904" rx="12.869" fill="#646676" stroke="#353C51" stroke-width="4"/>
<path d="M33.8573 43.0869C-2.42088 45.8299 -9.82734 90.8558 26.0326 111.661C53.2175 127.433 46.1061 150.062 31.1667 150.062C10.3426 150.062 7.38578 108.918 48.7967 93.8316C90.2077 78.7453 137.714 121.947 107.126 139.09" stroke="#353C51" stroke-width="4"/>
<rect x="31.1602" y="49.4189" width="11.8189" height="15.1513" transform="rotate(-90 31.1602 49.4189)" fill="#646676" stroke="#353C51" stroke-width="4"/>
<path d="M139.461 2.20996C194.758 2.67067 218.619 17.4785 227.644 25.751L227.98 26.0703C231.394 29.4047 232.743 33.9839 233.104 38.3945L235.006 61.6016H177.925L181.305 29.8545L181.339 29.4238C181.561 25.1412 178.262 21.4724 173.979 21.2402L173.549 21.2285H100.063C95.429 21.2286 91.817 25.246 92.3076 29.8545L95.6875 61.6016H38.5996L40.5029 38.3916L40.585 37.5371C41.0626 33.2543 42.5302 28.899 45.9629 25.752L46.4043 25.3535C55.903 16.8791 80.5033 2.19924 136.805 2.19922L139.461 2.20996Z" fill="#8BB660"/>
<path d="M139.461 2.20996L139.478 0.210012L139.469 0.209977L139.461 2.20996ZM227.644 25.751L229.019 24.2994L229.007 24.2879L228.995 24.2767L227.644 25.751ZM227.98 26.0703L229.378 24.6396L229.367 24.6291L229.356 24.6187L227.98 26.0703ZM233.104 38.3945L231.111 38.5578L231.111 38.5578L233.104 38.3945ZM235.006 61.6016V63.6016H237.176L236.999 61.4382L235.006 61.6016ZM177.925 61.6016L175.936 61.3898L175.701 63.6016H177.925V61.6016ZM181.305 29.8545L183.293 30.0662L183.296 30.0395L183.298 30.0127L181.305 29.8545ZM181.339 29.4238L183.333 29.5821L183.335 29.5548L183.336 29.5274L181.339 29.4238ZM173.979 21.2402L174.088 19.2432L174.061 19.2417L174.034 19.241L173.979 21.2402ZM173.549 21.2285L173.603 19.2293L173.576 19.2285H173.549V21.2285ZM100.063 21.2285L100.063 19.2285L100.063 19.2285L100.063 21.2285ZM92.3076 29.8545L90.3189 30.0662L90.3189 30.0662L92.3076 29.8545ZM95.6875 61.6016V63.6016H97.9117L97.6763 61.3898L95.6875 61.6016ZM38.5996 61.6016L36.6063 61.4381L36.4289 63.6016H38.5996V61.6016ZM40.5029 38.3916L38.5121 38.2005L38.5108 38.2143L38.5096 38.2281L40.5029 38.3916ZM40.585 37.5371L38.5973 37.3154L38.5956 37.3307L38.5941 37.346L40.585 37.5371ZM45.9629 25.752L44.6228 24.2673L44.617 24.2725L44.6114 24.2777L45.9629 25.752ZM46.4043 25.3535L45.0728 23.8611L45.0642 23.8689L46.4043 25.3535ZM136.805 2.19922L136.813 0.199219L136.805 0.199219L136.805 2.19922ZM139.461 2.20996L139.444 4.20989C194.384 4.66763 217.722 19.3695 226.292 27.2253L227.644 25.751L228.995 24.2767C219.516 15.5876 195.132 0.67372 139.478 0.21003L139.461 2.20996ZM227.644 25.751L226.268 27.2026L226.605 27.5219L227.98 26.0703L229.356 24.6187L229.019 24.2994L227.644 25.751ZM227.98 26.0703L226.583 27.5011C229.517 30.3665 230.77 34.398 231.111 38.5578L233.104 38.3945L235.098 38.2312C234.716 33.5698 233.272 28.4429 229.378 24.6396L227.98 26.0703ZM233.104 38.3945L231.111 38.5578L233.013 61.7649L235.006 61.6016L236.999 61.4382L235.098 38.2312L233.104 38.3945ZM235.006 61.6016V59.6016H177.925V61.6016V63.6016H235.006V61.6016ZM177.925 61.6016L179.914 61.8133L183.293 30.0662L181.305 29.8545L179.316 29.6428L175.936 61.3898L177.925 61.6016ZM181.305 29.8545L183.298 30.0127L183.333 29.5821L181.339 29.4238L179.345 29.2656L179.311 29.6963L181.305 29.8545ZM181.339 29.4238L183.336 29.5274C183.615 24.1435 179.471 19.535 174.088 19.2432L173.979 21.2402L173.871 23.2373C177.052 23.4097 179.507 26.1389 179.342 29.3202L181.339 29.4238ZM173.979 21.2402L174.034 19.241L173.603 19.2293L173.549 21.2285L173.494 23.2278L173.925 23.2395L173.979 21.2402ZM173.549 21.2285V19.2285H100.063V21.2285V23.2285H173.549V21.2285ZM100.063 21.2285L100.063 19.2285C94.2405 19.2286 89.7025 24.2762 90.3189 30.0662L92.3076 29.8545L94.2964 29.6428C93.9316 26.2158 96.6175 23.2286 100.064 23.2285L100.063 21.2285ZM92.3076 29.8545L90.3189 30.0662L93.6987 61.8133L95.6875 61.6016L97.6763 61.3898L94.2964 29.6428L92.3076 29.8545ZM95.6875 61.6016V59.6016H38.5996V61.6016V63.6016H95.6875V61.6016ZM38.5996 61.6016L40.5929 61.765L42.4962 38.5551L40.5029 38.3916L38.5096 38.2281L36.6063 61.4381L38.5996 61.6016ZM40.5029 38.3916L42.4938 38.5827L42.5758 37.7282L40.585 37.5371L38.5941 37.346L38.5121 38.2005L40.5029 38.3916ZM40.585 37.5371L42.5726 37.7588C43.0204 33.7442 44.3693 29.9262 47.3144 27.2262L45.9629 25.752L44.6114 24.2777C40.691 27.8718 39.1049 32.7643 38.5973 37.3154L40.585 37.5371ZM45.9629 25.752L47.303 27.2366L47.7444 26.8381L46.4043 25.3535L45.0642 23.8689L44.6228 24.2673L45.9629 25.752ZM46.4043 25.3535L47.7358 26.8459C56.7752 18.7812 80.8539 4.19924 136.805 4.19922L136.805 2.19922L136.805 0.199219C80.1526 0.199242 55.0307 14.977 45.0728 23.8611L46.4043 25.3535ZM136.805 2.19922L136.797 4.1992L139.453 4.20994L139.461 2.20996L139.469 0.209977L136.813 0.199235L136.805 2.19922Z" fill="#353C51"/>
<path d="M115.558 14.2881C116.883 14.2881 117.958 15.363 117.958 16.6885V29.373H154.944V16.6875C154.945 15.3622 156.019 14.2881 157.345 14.2881H168.194C169.52 14.2883 170.594 15.3631 170.594 16.6885V31.7119C170.594 31.7322 170.597 31.753 170.597 31.7734V64.0029C170.597 65.3283 169.523 66.4032 168.197 66.4033H104.709C103.384 66.4033 102.309 65.3284 102.309 64.0029V16.6875C102.309 15.3622 103.384 14.2881 104.709 14.2881H115.558Z" fill="#646676"/>
<path d="M117.958 29.373H115.958V31.373H117.958V29.373ZM154.944 29.373V31.373H156.944V29.373H154.944ZM154.944 16.6875L152.944 16.6871V16.6875H154.944ZM168.194 14.2881L168.195 12.2881H168.194V14.2881ZM170.594 31.7119H168.594V31.7369L168.594 31.7619L170.594 31.7119ZM170.597 64.0029L172.597 64.003V64.0029H170.597ZM168.197 66.4033V68.4033H168.198L168.197 66.4033ZM102.309 64.0029H100.309V64.003L102.309 64.0029ZM102.309 16.6875L100.309 16.6871V16.6875H102.309ZM115.558 14.2881V16.2881C115.779 16.2881 115.958 16.4676 115.958 16.6885H117.958H119.958C119.958 14.2584 117.988 12.2881 115.558 12.2881V14.2881ZM117.958 16.6885H115.958V29.373H117.958H119.958V16.6885H117.958ZM117.958 29.373V31.373H154.944V29.373V27.373H117.958V29.373ZM154.944 29.373H156.944V16.6875H154.944H152.944V29.373H154.944ZM154.944 16.6875L156.944 16.6879C156.944 16.4676 157.123 16.2881 157.345 16.2881V14.2881V12.2881C154.916 12.2881 152.945 14.2569 152.944 16.6871L154.944 16.6875ZM157.345 14.2881V16.2881H168.194V14.2881V12.2881H157.345V14.2881ZM168.194 14.2881L168.194 16.2881C168.414 16.2881 168.594 16.467 168.594 16.6885H170.594H172.594C172.594 14.2593 170.625 12.2885 168.195 12.2881L168.194 14.2881ZM170.594 16.6885H168.594V31.7119H170.594H172.594V16.6885H170.594ZM170.594 31.7119L168.594 31.7619C168.595 31.7799 168.595 31.796 168.596 31.8094C168.597 31.8229 168.597 31.8345 168.598 31.8435C168.598 31.8524 168.599 31.8599 168.599 31.8644C168.599 31.8667 168.599 31.8688 168.599 31.87C168.6 31.8715 168.6 31.872 168.6 31.8724C168.6 31.8732 168.6 31.871 168.599 31.8674C168.599 31.8637 168.599 31.8575 168.598 31.8494C168.598 31.8338 168.597 31.8071 168.597 31.7734H170.597H172.597C172.597 31.7295 172.595 31.6926 172.594 31.6667C172.593 31.6415 172.592 31.6207 172.591 31.6129C172.59 31.5994 172.591 31.6071 172.591 31.6109C172.591 31.618 172.592 31.6368 172.593 31.662L170.594 31.7119ZM170.597 31.7734H168.597V64.0029H170.597H172.597V31.7734H170.597ZM170.597 64.0029L168.597 64.0029C168.597 64.2246 168.417 64.4033 168.197 64.4033L168.197 66.4033L168.198 68.4033C170.628 68.403 172.597 66.432 172.597 64.003L170.597 64.0029ZM168.197 66.4033V64.4033H104.709V66.4033V68.4033H168.197V66.4033ZM104.709 66.4033V64.4033C104.488 64.4033 104.309 64.2239 104.309 64.0029L102.309 64.0029L100.309 64.003C100.309 66.4329 102.279 68.4033 104.709 68.4033V66.4033ZM102.309 64.0029H104.309V16.6875H102.309H100.309V64.0029H102.309ZM102.309 16.6875L104.309 16.6879C104.309 16.4676 104.488 16.2881 104.709 16.2881V14.2881V12.2881C102.28 12.2881 100.309 14.2569 100.309 16.6871L102.309 16.6875ZM104.709 14.2881V16.2881H115.558V14.2881V12.2881H104.709V14.2881Z" fill="#353C51"/>
<path d="M214.686 169.265C214.686 174.567 210.388 178.864 205.086 178.864H67.7925C62.4906 178.864 58.1919 174.567 58.1919 169.265V140.311C58.1919 140.309 58.1905 140.308 58.1887 140.308V140.308C58.1868 140.308 58.1853 140.306 58.1856 140.304L71.8257 44.4693C72.1624 42.1035 74.1881 40.3457 76.5778 40.3457H196.287C198.677 40.3457 200.703 42.1035 201.04 44.4694L214.679 140.304C214.679 140.306 214.681 140.308 214.682 140.308V140.308C214.684 140.308 214.686 140.309 214.686 140.311V169.265Z" fill="#8BB660"/>
<path d="M205.086 178.864L205.086 180.864L205.086 180.864L205.086 178.864ZM214.679 140.304L216.659 140.023L214.679 140.304ZM201.04 44.4694L199.059 44.7512L201.04 44.4694ZM71.8257 44.4693L69.8456 44.1875L71.8257 44.4693ZM58.1856 140.304L56.2055 140.022L58.1856 140.304ZM214.686 169.265H212.686C212.686 173.462 209.284 176.864 205.086 176.864L205.086 178.864L205.086 180.864C211.493 180.864 216.686 175.671 216.686 169.265H214.686ZM205.086 178.864V176.864H67.7925V178.864V180.864H205.086V178.864ZM67.7925 178.864V176.864C63.5949 176.864 60.1919 173.462 60.1919 169.265H58.1919H56.1919C56.1919 175.671 61.3862 180.864 67.7925 180.864V178.864ZM58.1919 169.265H60.1919V140.311H58.1919H56.1919V169.265H58.1919ZM58.1856 140.304L60.1656 140.586L73.8057 44.7512L71.8257 44.4693L69.8456 44.1875L56.2055 140.022L58.1856 140.304ZM76.5778 40.3457V42.3457H196.287V40.3457V38.3457H76.5778V40.3457ZM201.04 44.4694L199.059 44.7512L212.699 140.586L214.679 140.304L216.659 140.023L203.02 44.1876L201.04 44.4694ZM214.686 140.311H212.686V169.265H214.686H216.686V140.311H214.686ZM214.682 140.308V142.308C213.58 142.308 212.686 141.414 212.686 140.311H214.686H216.686C216.686 139.205 215.789 138.308 214.682 138.308V140.308ZM214.679 140.304L212.699 140.586C212.84 141.577 213.688 142.308 214.682 142.308V140.308V138.308C215.673 138.308 216.518 139.036 216.659 140.023L214.679 140.304ZM196.287 40.3457V42.3457C197.681 42.3457 198.863 43.3711 199.059 44.7512L201.04 44.4694L203.02 44.1876C202.543 40.836 199.673 38.3457 196.287 38.3457V40.3457ZM71.8257 44.4693L73.8057 44.7512C74.0022 43.3711 75.1838 42.3457 76.5778 42.3457V40.3457V38.3457C73.1924 38.3457 70.3227 40.8359 69.8456 44.1875L71.8257 44.4693ZM58.1887 140.308V138.308C59.4035 138.308 60.3368 139.383 60.1656 140.586L58.1856 140.304L56.2055 140.022C56.0338 141.229 56.9701 142.308 58.1887 142.308V140.308ZM58.1919 140.311H60.1919C60.1919 139.204 59.2949 138.308 58.1887 138.308V140.308V142.308C57.086 142.308 56.1919 141.414 56.1919 140.311H58.1919Z" fill="#353C51"/>
<circle cx="136.494" cy="106.499" r="54.5" fill="#FFFFFE" stroke="#353C51" stroke-width="4"/>
<circle cx="136.439" cy="106.175" r="37.7147" fill="#8BB660" stroke="#353C51" stroke-width="4"/>
<rect x="171.152" y="136.487" width="9.14699" height="15.8841" transform="rotate(-52.1899 171.152 136.487)" fill="#646676" stroke="#353C51" stroke-width="4"/>
<circle cx="122.821" cy="106.393" r="13.0573" fill="#FFFFFE" stroke="#353C51" stroke-width="4"/>
<circle cx="125.834" cy="104.385" r="8.03525" fill="#353C51"/>
<circle cx="150.942" cy="106.393" r="13.0573" fill="#FFFFFE" stroke="#353C51" stroke-width="4"/>
<circle cx="153.961" cy="104.385" r="8.03525" fill="#353C51"/>
</svg>
