<svg width="32" height="32" viewBox="0 0 32 32" fill="none" xmlns="http://www.w3.org/2000/svg">
<path d="M23.1964 17.3883L21.2958 19.2271L17.2866 15.3483V24.8167H30.08V27.5H1.792V24.8167H14.5988V15.3632L10.6046 19.2276L8.704 17.3888L14.0498 12.2167L14.0496 12.2166L15.9503 10.3778L23.1964 17.3883Z" fill="#353C51"/>
<path d="M3.968 22.7786H1.92V20.8236H3.968V22.7786Z" fill="#353C51"/>
<path d="M30.08 22.7786H28.032V20.8236H30.08V22.7786Z" fill="#353C51"/>
<path d="M3.968 18.8686H1.92V16.9137H3.968V18.8686Z" fill="#353C51"/>
<path d="M30.08 18.8686H28.032V16.9137H30.08V18.8686Z" fill="#353C51"/>
<path d="M3.968 14.9586H1.92V13.0036H3.968V14.9586Z" fill="#353C51"/>
<path d="M30.08 14.9586H28.032V13.0036H30.08V14.9586Z" fill="#353C51"/>
<path d="M3.968 11.0486H1.92V9.09364H3.968V11.0486Z" fill="#353C51"/>
<path d="M30.08 11.0486H28.032V9.09364H30.08V11.0486Z" fill="#353C51"/>
<path d="M32 7.18333H0V4.5H32V7.18333Z" fill="#353C51"/>
</svg>
