<svg xmlns="http://www.w3.org/2000/svg" width="140" height="117" fill="none" xmlns:v="https://vecta.io/nano"><path d="M132.023 71.339a8.75 8.75 0 0 0-2.274-9.877L80.545 17.715a8.75 8.75 0 0 0-10.365-.934L14.867 50.47a8.75 8.75 0 0 0-3.975 9.435l14.92 64.806a8.75 8.75 0 0 0 7.701 6.747l64.477 6.11a8.75 8.75 0 0 0 8.913-5.372l25.121-60.859z" fill="#ff4520"/><g fill="#fff"><circle cx="12.071" cy="12.071" r="12.071" transform="matrix(-1 0 0 1 82.0645 77.4258)"/><circle cx="12.071" cy="12.071" r="12.071" transform="matrix(-1 0 0 1 53.7598 77.4258)"/></g><path d="M69.165 84.086c-3.86 0-6.996 3.092-7.072 6.934 1.589-2.183 4.164-3.603 7.071-3.603a8.73 8.73 0 0 1 7.074 3.608c-.073-3.844-3.211-6.939-7.073-6.939zm-28.305 0c-3.861 0-6.997 3.093-7.072 6.936 1.589-2.184 4.164-3.606 7.072-3.606s5.484 1.421 7.073 3.606c-.075-3.844-3.212-6.937-7.073-6.937z" fill="#491111"/></svg>