<svg width="232" height="772" viewBox="0 0 232 772" fill="none" xmlns="http://www.w3.org/2000/svg" xmlns:xlink="http://www.w3.org/1999/xlink">
<rect x="-396" y="2" width="626" height="768" rx="6" fill="#EBEAE8"/>
<rect x="-396" y="2" width="626" height="768" rx="6" fill="url(#pattern0_7935_11767)"/>
<rect x="-396" y="2" width="626" height="768" rx="6" stroke="#353C51" stroke-width="4"/>
<g clip-path="url(#clip0_7935_11767)">
<path d="M-92.8125 408.939L206.586 427.925L191.398 667.444L-108.001 648.458L-92.8125 408.939Z" fill="#FFFFFE"/>
<path d="M67.1976 603.455C67.617 596.841 73.3188 591.819 79.933 592.239L161.769 597.428C168.383 597.848 173.405 603.549 172.985 610.164L167.986 689.005C167.566 695.619 161.865 700.641 155.25 700.222L73.4147 695.032C66.8006 694.613 61.7788 688.911 62.1982 682.297L67.1976 603.455Z" fill="#E2F5F9" stroke="#353C51" stroke-width="4"/>
<path d="M67.1976 603.455C67.617 596.841 73.3188 591.819 79.933 592.239L161.769 597.428C168.383 597.848 173.405 603.549 172.985 610.164L171.973 626.131L66.1851 619.423L67.1976 603.455Z" fill="#10B9DF" stroke="#353C51" stroke-width="4"/>
<path d="M161.259 605.411L165.251 605.664L155.51 617.071L151.518 616.818L161.259 605.411Z" fill="#353C51"/>
<path d="M156.272 605.095L152.28 604.842L160.503 617.388L164.494 617.641L156.272 605.095Z" fill="#353C51"/>
<path d="M51.6625 469.203C52.0819 462.589 57.7837 457.568 64.3978 457.987L146.233 463.176C152.848 463.596 157.869 469.297 157.45 475.912L152.451 554.753C152.031 561.367 146.329 566.389 139.715 565.97L57.8796 560.78C51.2654 560.361 46.2436 554.659 46.663 548.045L51.6625 469.203Z" fill="#E2F5F9" stroke="#353C51" stroke-width="4"/>
<path d="M51.6625 469.203C52.0819 462.589 57.7837 457.568 64.3978 457.987L146.233 463.176C152.848 463.596 157.869 469.297 157.45 475.912L156.437 491.88L50.6499 485.171L51.6625 469.203Z" fill="#10B9DF" stroke="#353C51" stroke-width="4"/>
<path d="M145.724 471.159L149.716 471.413L139.975 482.819L135.983 482.566L145.724 471.159Z" fill="#353C51"/>
<path d="M140.737 470.844L136.745 470.59L144.967 483.136L148.959 483.389L140.737 470.844Z" fill="#353C51"/>
<rect x="2.51097" y="1.20392" width="158.421" height="203.188" transform="matrix(0.938109 -0.346341 0.317375 0.9483 -126.543 526.496)" fill="#353C51" stroke="#353C51" stroke-width="4"/>
<rect x="2.51097" y="1.20392" width="158.421" height="203.188" transform="matrix(0.938109 -0.346341 0.317375 0.9483 -119.422 507.644)" fill="#10B9DF" stroke="#353C51" stroke-width="4"/>
<rect x="2.51097" y="1.20392" width="131.688" height="169.195" transform="matrix(0.938109 -0.346341 0.317375 0.9483 -101.895 519.376)" fill="#FFFFFE" stroke="#353C51" stroke-width="4"/>
<path d="M-51.6355 452.823C-42.8959 449.597 -33.3422 454.36 -30.2963 463.46C-28.7147 468.186 -29.2007 473.152 -31.256 477.287L-6.83538 473.461L8.29469 497.475L-71.7808 527.038L-74.0265 498.267L-52.9136 485.321C-57.0009 483.452 -60.3579 479.888 -61.9456 475.144C-64.9911 466.044 -60.3751 456.05 -51.6355 452.823ZM-48.4915 460.766C-52.7892 462.353 -55.0593 467.267 -53.562 471.742C-52.0641 476.218 -47.3654 478.56 -43.0673 476.973C-38.769 475.386 -36.4982 470.471 -37.9962 465.996C-39.4944 461.52 -44.1935 459.179 -48.4915 460.766Z" fill="#353C51"/>
<path d="M-52.375 553.665L22.0795 526.177" stroke="#353C51" stroke-width="4"/>
<path d="M-43.1562 581.223L31.2983 553.735" stroke="#353C51" stroke-width="4"/>
<path d="M-33.9336 608.772L40.521 581.285" stroke="#353C51" stroke-width="4"/>
<path d="M-24.7109 636.331L49.7436 608.843" stroke="#353C51" stroke-width="4"/>
<rect width="22" height="136" transform="matrix(-0.713771 -0.700379 -0.700379 0.713771 176.469 514.896)" fill="#E2F5F9" stroke="#353C51" stroke-width="4" stroke-linejoin="round"/>
<path d="M202.382 488.487C206.637 484.151 206.571 477.186 202.234 472.932C197.898 468.677 190.934 468.743 186.679 473.079L177.574 482.358L193.277 497.766L202.382 488.487Z" fill="#10B9DF" stroke="#353C51" stroke-width="4" stroke-linejoin="round"/>
<rect width="22" height="24" transform="matrix(-0.713771 -0.700379 -0.700379 0.713771 193.277 497.766)" fill="#FFFFFE" stroke="#353C51" stroke-width="4"/>
<path d="M81.2148 611.969L65.5119 596.56L48.8501 629.247L81.2148 611.969Z" fill="#FFFFFE" stroke="#353C51" stroke-width="4" stroke-linejoin="round"/>
<path d="M64.8516 620.909L57.1176 613.32L48.9672 629.362L64.8516 620.909Z" fill="#353C51"/>
<path d="M186.961 502.776L172.299 488.389" stroke="#353C51" stroke-width="4"/>
<path d="M181.359 508.486L166.697 494.099" stroke="#353C51" stroke-width="4"/>
<path d="M167.215 508.62L73.3641 604.265" stroke="#353C51" stroke-width="4"/>
<rect x="-90.9414" y="411.062" width="296" height="236" transform="rotate(3.62833 -90.9414 411.062)" stroke="#353C51" stroke-width="4"/>
<path d="M42.6914 389.476L74.6273 391.501L67.0274 439.115L44.216 437.669L42.6914 389.476Z" fill="#646676" stroke="#353C51" stroke-width="4"/>
</g>
<g clip-path="url(#clip1_7935_11767)">
<rect x="-135.484" y="100.103" width="300" height="240" transform="rotate(-2.89292 -135.484 100.103)" fill="#FFFFFE"/>
<rect x="2.74926" y="0.690698" width="15.896" height="114.748" transform="matrix(0.859226 -0.511597 0.515407 0.856946 -62.0901 296.202)" fill="#F95984" stroke="#353C51" stroke-width="4"/>
<path d="M-56.8547 202.542C-57.2776 200.993 -56.4051 199.417 -54.8794 198.914C-53.3492 198.41 -51.7002 199.161 -51.1144 200.662C-47.0086 211.183 -31.6642 250.775 -22.601 277.948C-13.6051 304.92 -2.21613 345.384 0.915048 356.615C1.38524 358.301 0.439707 360.028 -1.2233 360.576C-2.88515 361.124 -4.67807 360.302 -5.31303 358.671C-9.54295 347.807 -24.6998 308.58 -33.6159 281.58C-42.6027 254.366 -53.8865 213.418 -56.8547 202.542Z" fill="#F95984" stroke="#353C51" stroke-width="4"/>
<path d="M-8.6819 191.533C-8.68053 188.884 -6.6117 186.728 -3.96734 186.577C-1.33933 186.426 0.951966 188.305 1.27434 190.917C2.99334 204.848 8.07241 247.321 9.74155 275.916C11.3857 304.083 11.2151 344.374 11.0942 358.424C11.0697 361.279 8.83262 363.614 5.98268 363.776C3.09704 363.941 0.588593 361.827 0.28 358.953C-1.25438 344.664 -5.53025 303.536 -7.04431 275.327C-8.5734 246.838 -8.68906 205.367 -8.6819 191.533Z" fill="#F95984" stroke="#353C51" stroke-width="4"/>
<path d="M2.25055 155.516C2.3767 157.721 0.69102 159.612 -1.51452 159.738L-9.60566 160.2C-11.8112 160.326 -13.7014 158.64 -13.8276 156.434L-15.3356 130.068C-15.3356 130.068 -15.4975 127.305 -14.2258 127.133C-13.3002 127.008 -11.4676 126.911 -9.85687 129.089C-9.47007 126.809 -6.04577 125.21 -3.41083 127.839C-2.78726 127.018 -1.85585 126.365 -0.85038 126.369C0.516388 126.375 0.742491 129.15 0.742491 129.15L2.25055 155.516Z" fill="#FEE8EB" stroke="#353C51" stroke-width="4"/>
<path d="M-14.6542 162.875C-14.7261 161.619 -13.6322 160.603 -12.3797 160.731C-10.3153 160.943 -7.33403 161.176 -5.11264 161.049C-3.02571 160.93 -0.546365 160.432 1.24447 160.013C2.49299 159.721 3.73672 160.612 3.80994 161.892L6.54471 209.706C6.59534 210.591 6.05718 211.409 5.21437 211.684C-0.420768 213.524 -4.4549 213.666 -10.3306 212.555C-11.2169 212.387 -11.8657 211.628 -11.9172 210.728L-14.6542 162.875Z" fill="#353C51"/>
<path d="M62.7289 139.704C66.9728 132.9 76.784 130.298 90.6908 131.549C104.407 132.783 121.254 137.709 138.298 144.8C155.322 151.882 172.426 161.074 186.639 170.75C200.907 180.463 212.056 190.526 217.398 199.29L217.424 199.334L217.452 199.374C227.315 213.868 232.947 231.842 233.926 251.229L233.981 252.461C236.003 304.569 198.952 348.295 151.053 350.715C143.744 351.085 136.597 350.472 129.72 348.989L129.686 348.982L129.652 348.976L128.213 348.707C97.909 342.856 62.7874 323.711 37.6251 301.437C24.8503 290.128 14.767 278.122 9.17287 266.783C3.66137 255.611 2.6455 245.413 7.1875 237.092L7.40806 236.697C12.7538 227.339 18.6516 223.348 24.5901 221.952C30.6609 220.525 37.1054 221.719 43.7432 223.456C50.1841 225.142 57.0183 227.426 63.1077 227.579C66.2297 227.658 69.2969 227.193 72.1576 225.765C74.8501 224.422 77.2369 222.286 79.2871 219.192L79.6923 218.561C84.1991 211.319 83.908 204.384 81.3764 197.766C78.9072 191.312 74.2373 184.996 69.9281 178.86C65.5312 172.599 61.4543 166.461 59.6087 160.02C57.8598 153.916 58.1064 147.499 62.3091 140.394L62.7289 139.704ZM119.443 166.883C107.202 167.502 97.8901 178.156 98.2167 190.655L98.24 191.252L98.24 191.253C98.8748 203.808 109.031 213.675 121.21 213.381L121.792 213.36C134.228 212.731 143.641 201.746 142.996 188.991L142.996 188.99C142.361 176.434 132.204 166.567 120.025 166.861L119.443 166.883Z" fill="#353C51" stroke="#353C51" stroke-width="4"/>
<path fill-rule="evenodd" clip-rule="evenodd" d="M45.3498 147.043C64.3556 116.663 176.939 169.303 198.524 204.619C208.306 218.954 213.852 236.675 214.815 255.716C217.432 307.512 180.647 351.467 132.653 353.893C125.398 354.259 118.303 353.654 111.475 352.187C51.2658 341.388 -28.6925 276.417 -8.31112 240.843C13.2453 203.219 46.4685 247.771 61.7771 223.245C77.7057 197.725 26.2642 177.551 45.3498 147.043ZM102.048 176.253C91.1404 176.804 82.7624 186.441 83.3351 197.776C83.9079 209.112 93.2148 217.855 104.122 217.304C115.03 216.753 123.408 207.116 122.835 195.78C122.262 184.445 112.956 175.702 102.048 176.253Z" fill="#FEE8EB" stroke="#353C51" stroke-width="4"/>
<path d="M36.984 265.861C32.5672 276.829 41.0466 274.316 42.4173 286.063C43.3224 293.82 33.5729 300.165 39.0081 305.767C45.0231 311.967 52.047 304.15 60.6634 304.673C69.045 305.181 71.436 309.3 79.6991 307.806C93.5314 305.305 93.3809 285.201 91.0707 271.318C89.3734 261.119 85.4076 247.283 75.0971 247.869C66.8446 248.338 68.4063 257.528 61.3245 261.796C49.2771 269.055 39.4445 259.751 36.984 265.861Z" fill="#F95984" stroke="#353C51" stroke-width="4"/>
<path d="M159.304 271.429C148.022 269.238 142.288 279.037 134.836 287.795C127.304 296.646 118.829 303.883 122.536 314.904C127.829 330.647 155.052 324.082 164.804 310.645C173.882 298.135 174.468 274.374 159.304 271.429Z" fill="#F95984" stroke="#353C51" stroke-width="4"/>
<path d="M142.475 230.378C141.506 222.427 141.432 214.138 148.724 210.846C152.304 209.23 154.845 210.536 158.767 210.338C165.14 210.016 170.759 204.818 175.087 209.514C179.774 214.6 171.422 219.834 170.923 226.735C170.55 231.882 175.668 236.777 171.59 239.933C168.029 242.688 164.261 236.404 160.18 238.304C156.014 240.244 158.222 246.382 154.082 248.378C146.553 252.007 143.487 238.683 142.475 230.378Z" fill="#F95984" stroke="#353C51" stroke-width="4"/>
<path d="M19.5409 264.079C23.2884 263.89 26.4838 266.778 26.6738 270.537C26.8636 274.295 23.9757 277.491 20.2282 277.681C16.4807 277.87 13.2844 274.981 13.0944 271.223C12.9045 267.465 15.7933 264.268 19.5409 264.079Z" fill="#F95984" stroke="#353C51" stroke-width="4"/>
<rect x="-133.387" y="101.999" width="296" height="236" transform="rotate(-2.89292 -133.387 101.999)" stroke="#353C51" stroke-width="4"/>
<path d="M-3.07031 65.375L28.8889 63.76L26.7458 111.93L3.91783 113.083L-3.07031 65.375Z" fill="#646676" stroke="#353C51" stroke-width="4"/>
</g>
<defs>
<clipPath id="clip0_7935_11767">
<rect width="300" height="270" fill="white" transform="translate(-90.9141 379) rotate(3.62833)"/>
</clipPath>
<clipPath id="clip1_7935_11767">
<rect width="300" height="270" fill="white" transform="translate(-137 70.1406) rotate(-2.89292)"/>
</clipPath>
<pattern id="pattern0_7935_11767" patternUnits="userSpaceOnUse" viewBox="56933 16176 48 48" width="7.6190476190476195%" height="6.2176165803108807%" patternContentUnits="objectBoundingBox">
<rect x="56953" y="16194" width="8" height="12" rx="4" fill="#353C51"/>
</pattern></defs>
</svg>
