<svg width="232" height="772" viewBox="0 0 232 772" fill="none" xmlns="http://www.w3.org/2000/svg" xmlns:xlink="http://www.w3.org/1999/xlink">
<rect x="-2" y="2" width="626" height="768" rx="6" transform="matrix(-1 0 0 1 626 0)" fill="#EBEAE8"/>
<rect x="-2" y="2" width="626" height="768" rx="6" transform="matrix(-1 0 0 1 626 0)" fill="url(#pattern0_7935_11770)"/>
<rect x="-2" y="2" width="626" height="768" rx="6" transform="matrix(-1 0 0 1 626 0)" stroke="#353C51" stroke-width="4"/>
<g clip-path="url(#clip0_7935_11770)">
<rect x="32.6055" y="139.034" width="300" height="240" transform="rotate(-1.15356 32.6055 139.034)" fill="#FFFFFE"/>
<rect x="53.0039" y="158.627" width="80" height="40" rx="20" transform="rotate(-1.15356 53.0039 158.627)" fill="#FF8B39" stroke="#353C51" stroke-width="4"/>
<circle cx="93.8001" cy="197.814" r="6.5" transform="rotate(-1.15356 93.8001 197.814)" fill="#FFFFFE" stroke="#353C51" stroke-width="3"/>
<rect x="181.379" y="176.046" width="115.573" height="245.092" rx="17" transform="rotate(-1.15356 181.379 176.046)" fill="#353C51"/>
<rect x="199.013" y="157.687" width="111.573" height="241.092" rx="15" transform="rotate(-1.15356 199.013 157.687)" fill="#FFE8DC" stroke="#353C51" stroke-width="4"/>
<path d="M310.763 392.485L203.113 162.605M306.092 160.532L207.784 394.558" stroke="#353C51" stroke-width="4" stroke-linecap="round"/>
<rect x="55.3867" y="276.108" width="107" height="82" transform="rotate(-1.15356 55.3867 276.108)" fill="#FF8B39" stroke="#353C51" stroke-width="4"/>
<line y1="-2" x2="130.938" y2="-2" transform="matrix(-0.807497 -0.589872 -0.65458 0.755992 161.078 356.065)" stroke="#353C51" stroke-width="4"/>
<line y1="-2" x2="130.938" y2="-2" transform="matrix(0.783097 -0.6219 0.684483 0.729029 59.9453 358.103)" stroke="#353C51" stroke-width="4"/>
<rect x="160.59" y="238.231" width="45.4547" height="45.4547" rx="8" transform="rotate(-46.1536 160.59 238.231)" fill="#FF8B39" stroke="#353C51" stroke-width="4"/>
<path d="M144.255 305.793C142.333 300.7 146.772 295.469 152.059 296.455L152.312 296.507L152.347 296.515L152.382 296.523L152.768 296.624L152.805 296.634L152.842 296.645L186.397 306.798L186.419 306.806L186.442 306.812L186.664 306.885L186.698 306.897C193.035 309.103 192.889 318.173 186.484 320.174L186.439 320.187L186.215 320.251L186.197 320.257L186.18 320.261L174.247 323.454L172.816 336.447C172.041 343.487 162.5 345.055 159.512 338.634L144.468 306.298L144.453 306.265L144.439 306.232L144.283 305.863L144.268 305.828L144.255 305.793Z" fill="white" stroke="#353C51" stroke-width="4"/>
<path d="M149.911 303.766C149.546 302.983 150.28 302.137 151.107 302.387L184.663 312.541C185.626 312.833 185.604 314.204 184.632 314.464L169.397 318.542C168.998 318.648 168.706 318.988 168.661 319.398L166.856 335.79C166.745 336.796 165.382 337.02 164.955 336.102L149.911 303.766Z" fill="#353C51"/>
<path d="M94.6433 239.805L92.6437 239.845L92.684 241.845L94.6836 241.805L94.6433 239.805ZM151.075 240.083C151.84 239.286 151.814 238.02 151.018 237.255L138.036 224.786C137.239 224.021 135.973 224.046 135.208 224.843C134.443 225.64 134.468 226.906 135.265 227.671L146.804 238.754L135.721 250.294C134.956 251.09 134.981 252.356 135.778 253.122C136.574 253.887 137.84 253.861 138.606 253.065L151.075 240.083ZM93.8984 202.812L91.8988 202.853L92.6437 239.845L94.6433 239.805L96.6429 239.765L95.898 202.772L93.8984 202.812ZM94.6433 239.805L94.6836 241.805L149.672 240.697L149.632 238.697L149.592 236.698L94.603 237.805L94.6433 239.805Z" fill="#353C51"/>
<rect x="34.6445" y="140.993" width="296" height="236" transform="rotate(-1.15356 34.6445 140.993)" stroke="#353C51" stroke-width="4"/>
<path d="M166.012 108.342L198.005 107.698L194.401 155.78L171.549 156.24L166.012 108.342Z" fill="#646676" stroke="#353C51" stroke-width="4"/>
</g>
<g clip-path="url(#clip1_7935_11770)">
<rect x="30.8906" y="454.969" width="300" height="240" transform="rotate(2.6013 30.8906 454.969)" fill="#FFFFFE"/>
<rect x="107.997" y="564.582" width="215" height="136" transform="rotate(2.6013 107.997 564.582)" fill="#353C51" stroke="#353C51" stroke-width="4"/>
<rect x="127.16" y="539.425" width="200" height="160" transform="rotate(2.6013 127.16 539.425)" fill="#FFF2DC"/>
<rect x="129.066" y="541.514" width="196" height="34" transform="rotate(2.6013 129.066 541.514)" fill="#F1A210" stroke="#353C51" stroke-width="4"/>
<path d="M137.648 550.913L157.628 551.821" stroke="#353C51" stroke-width="4"/>
<path d="M137.285 558.904L157.265 559.812" stroke="#353C51" stroke-width="4"/>
<path d="M136.922 566.896L156.901 567.804" stroke="#353C51" stroke-width="4"/>
<rect x="129.067" y="541.514" width="196" height="156" transform="rotate(2.6013 129.067 541.514)" stroke="#353C51" stroke-width="4"/>
<circle cx="237.228" cy="562.445" r="63" transform="rotate(2.6013 237.228 562.445)" fill="#FFF2DC"/>
<path d="M296.674 536.115C300.633 545.034 302.636 554.984 302.163 565.395C301.654 576.608 298.332 587.029 292.91 596.006L178.737 590.819C174.151 581.387 171.788 570.708 172.297 559.495C172.77 549.084 175.668 539.357 180.419 530.834L296.674 536.115Z" fill="#F1A210"/>
<path d="M296.674 536.115L298.502 535.304L298 534.174L296.765 534.117L296.674 536.115ZM292.91 596.006L292.819 598.004L294.007 598.058L294.622 597.04L292.91 596.006ZM178.737 590.819L176.938 591.694L177.458 592.763L178.646 592.817L178.737 590.819ZM180.419 530.834L180.51 528.836L179.274 528.78L178.672 529.86L180.419 530.834ZM296.674 536.115L294.846 536.927C298.682 545.569 300.624 555.21 300.165 565.304L302.163 565.395L304.161 565.485C304.648 554.758 302.584 544.5 298.502 535.304L296.674 536.115ZM302.163 565.395L300.165 565.304C299.671 576.176 296.452 586.273 291.198 594.972L292.91 596.006L294.622 597.04C300.212 587.784 303.636 577.041 304.161 565.485L302.163 565.395ZM292.91 596.006L293.001 594.008L178.827 588.821L178.737 590.819L178.646 592.817L292.819 598.004L292.91 596.006ZM178.737 590.819L180.535 589.945C176.092 580.805 173.801 570.457 174.295 559.585L172.297 559.495L170.299 559.404C169.774 570.959 172.21 581.969 176.938 591.694L178.737 590.819ZM172.297 559.495L174.295 559.585C174.754 549.491 177.562 540.066 182.166 531.807L180.419 530.834L178.672 529.86C173.773 538.648 170.787 548.676 170.299 559.404L172.297 559.495ZM180.419 530.834L180.328 532.832L296.583 538.113L296.674 536.115L296.765 534.117L180.51 528.836L180.419 530.834Z" fill="#353C51"/>
<path d="M297.166 565.168C298.67 532.065 273.054 504.01 239.951 502.507C206.848 501.003 178.793 526.619 177.289 559.722C175.785 592.825 201.401 620.879 234.504 622.383C267.607 623.887 295.662 598.271 297.166 565.168ZM307.155 565.622C305.401 604.242 272.671 634.127 234.05 632.373C195.43 630.618 165.545 597.888 167.3 559.268C169.054 520.648 201.784 490.762 240.404 492.517C279.025 494.271 308.91 527.002 307.155 565.622Z" fill="#353C51"/>
<mask id="path-30-inside-1_7935_11770" fill="white">
<path d="M235.049 513.51C243.279 513.116 251.477 514.796 258.889 518.396C266.301 521.996 272.69 527.4 277.468 534.113C282.247 540.826 285.262 548.632 286.238 556.814C287.213 564.996 286.117 573.292 283.051 580.94L270.199 575.787C272.402 570.292 273.189 564.332 272.489 558.453C271.788 552.575 269.621 546.966 266.188 542.143C262.755 537.321 258.165 533.438 252.84 530.851C247.514 528.265 241.625 527.058 235.711 527.341L235.049 513.51Z"/>
</mask>
<path d="M235.049 513.51C243.279 513.116 251.477 514.796 258.889 518.396C266.301 521.996 272.69 527.4 277.468 534.113C282.247 540.826 285.262 548.632 286.238 556.814C287.213 564.996 286.117 573.292 283.051 580.94L270.199 575.787C272.402 570.292 273.189 564.332 272.489 558.453C271.788 552.575 269.621 546.966 266.188 542.143C262.755 537.321 258.165 533.438 252.84 530.851C247.514 528.265 241.625 527.058 235.711 527.341L235.049 513.51Z" fill="#FBFAF8" stroke="#353C51" stroke-width="8" mask="url(#path-30-inside-1_7935_11770)"/>
<mask id="mask0_7935_11770" style="mask-type:alpha" maskUnits="userSpaceOnUse" x="46" y="475" width="68" height="68">
<circle cx="80.0754" cy="508.833" r="31.5762" transform="rotate(2.6013 80.0754 508.833)" fill="#D9D9D9" stroke="black" stroke-width="4"/>
</mask>
<g mask="url(#mask0_7935_11770)">
<circle cx="80.0754" cy="508.833" r="31.5762" transform="rotate(2.6013 80.0754 508.833)" fill="#F1A210" stroke="#353C51" stroke-width="4"/>
<circle cx="80.5683" cy="498.107" r="13.262" transform="rotate(2.6013 80.5683 498.107)" fill="#353C51"/>
<ellipse cx="80.3571" cy="537.609" rx="25.5767" ry="22.4191" transform="rotate(2.6013 80.3571 537.609)" fill="#353C51"/>
</g>
<mask id="mask1_7935_11770" style="mask-type:alpha" maskUnits="userSpaceOnUse" x="62" y="614" width="53" height="53">
<circle cx="88.3837" cy="640.628" r="23.8583" transform="rotate(2.6013 88.3837 640.628)" fill="#D9D9D9" stroke="black" stroke-width="4"/>
</mask>
<g mask="url(#mask1_7935_11770)">
<circle cx="88.3837" cy="640.628" r="23.8583" transform="rotate(2.6013 88.3837 640.628)" fill="#F1A210" stroke="#353C51" stroke-width="4"/>
<circle cx="88.7507" cy="632.525" r="10.0205" transform="rotate(2.6013 88.7507 632.525)" fill="#353C51"/>
<ellipse cx="88.5951" cy="662.372" rx="19.3252" ry="16.9394" transform="rotate(2.6013 88.5951 662.372)" fill="#353C51"/>
</g>
<rect x="131.336" y="491.565" width="25" height="24" transform="rotate(2.6013 131.336 491.565)" fill="#FFF2DC" stroke="#353C51" stroke-width="4"/>
<path d="M146.049 498.24L150.045 498.421L140.51 510L136.514 509.819L146.049 498.24Z" fill="#353C51"/>
<path d="M141.056 498.012L137.06 497.831L145.506 510.227L149.502 510.409L141.056 498.012Z" fill="#353C51"/>
<rect x="56.0508" y="562.222" width="29" height="28" transform="rotate(2.6013 56.0508 562.222)" fill="#FFF2DC" stroke="#353C51" stroke-width="4"/>
<path d="M74.7574 569.078L78.7533 569.259L70.0353 584.88L66.0395 584.698L74.7574 569.078Z" fill="#353C51"/>
<path d="M61.4311 575.98L66.0402 584.698L70.0361 584.88L65.427 576.162L61.4311 575.98Z" fill="#353C51"/>
<rect x="32.8008" y="457.058" width="296" height="236" transform="rotate(2.6013 32.8008 457.058)" stroke="#353C51" stroke-width="4"/>
<path d="M166.023 433.08L197.99 434.532L191.245 482.275L168.412 481.238L166.023 433.08Z" fill="#646676" stroke="#353C51" stroke-width="4"/>
</g>
<defs>
<clipPath id="clip0_7935_11770">
<rect width="300" height="270" fill="white" transform="translate(32 109.04) rotate(-1.15356)"/>
</clipPath>
<clipPath id="clip1_7935_11770">
<rect width="300" height="270" fill="white" transform="translate(32.2539 425) rotate(2.6013)"/>
</clipPath>
<pattern id="pattern0_7935_11770" patternUnits="userSpaceOnUse" viewBox="55725 16180 48 48" width="7.6190476190476195%" height="6.2176165803108807%" patternContentUnits="objectBoundingBox">
<rect x="55745" y="16198" width="8" height="12" rx="4" fill="#353C51"/>
</pattern></defs>
</svg>
